<?xml version="1.0" standalone="no"?>
<!DOCTYPE svg PUBLIC "-//W3C//DTD SVG 20010904//EN"
 "http://www.w3.org/TR/2001/REC-SVG-20010904/DTD/svg10.dtd">
<svg version="1.0" xmlns="http://www.w3.org/2000/svg"
 width="800.000000pt" height="400.000000pt" viewBox="0 0 800.000000 400.000000"
 preserveAspectRatio="xMidYMid meet">
<metadata>
Created by potrace 1.16, written by Peter Selinger 2001-2019
</metadata>
<g transform="translate(0.000000,400.000000) scale(0.100000,-0.100000)"
fill="#000000" stroke="none">
<path d="M0 2000 l0 -2000 4000 0 4000 0 0 2000 0 2000 -4000 0 -4000 0 0
-2000z m6839 1484 c28 -61 52 -99 65 -105 23 -9 267 -76 334 -91 23 -5 42 -14
42 -19 0 -6 -8 -8 -17 -5 -44 13 -322 89 -353 97 -31 7 -46 2 -130 -41 -215
-111 -275 -146 -273 -160 1 -8 33 -91 71 -184 l70 -169 178 -52 c99 -29 192
-55 207 -59 15 -4 25 -11 22 -16 -3 -5 -15 -6 -28 -1 -12 5 -104 32 -205 61
l-183 53 -157 -48 c-86 -26 -163 -50 -169 -53 -7 -2 -13 0 -13 6 0 5 10 12 23
15 31 7 291 88 296 93 4 3 -15 53 -48 126 -10 24 -36 86 -56 140 -32 83 -41
97 -64 101 -14 3 -104 15 -198 28 -95 12 -173 26 -173 31 0 4 12 5 28 2 15 -3
105 -15 200 -28 l173 -22 182 97 c209 112 201 99 144 222 -23 48 -32 77 -24
77 7 0 32 -43 56 -96z m-3926 -92 c-2 -6 -36 -68 -78 -137 -41 -70 -73 -130
-70 -134 14 -23 394 -301 410 -301 11 0 155 23 319 50 235 38 304 46 320 38
42 -22 356 -252 356 -260 0 -24 -51 2 -171 89 -74 53 -152 109 -174 124 l-40
28 -300 -49 c-165 -27 -303 -50 -306 -50 -4 0 -51 -87 -104 -192 -105 -207
-133 -259 -143 -270 -4 -4 -90 -21 -192 -38 -102 -18 -221 -38 -265 -46 -102
-17 -115 -17 -115 1 0 8 4 15 9 15 4 0 111 18 237 40 126 22 243 42 261 45 30
5 38 17 132 198 54 106 106 205 115 222 8 16 12 32 8 36 -4 3 -94 73 -200 154
l-193 148 -47 -6 c-26 -4 -134 -20 -241 -37 -126 -20 -198 -27 -204 -21 -13
13 -4 15 233 51 107 17 207 33 222 36 22 4 41 28 99 127 39 67 79 130 87 140
16 18 39 18 35 -1z m2947 -262 c0 -6 10 -10 23 -9 12 1 35 1 51 1 25 -2 28 -5
21 -29 -3 -15 -15 -33 -25 -40 -10 -7 -35 -35 -55 -63 -20 -28 -41 -48 -46
-45 -4 3 7 26 27 52 36 48 35 61 -7 84 -15 8 -27 -3 -75 -67 -31 -42 -52 -79
-46 -83 125 -80 292 -196 292 -203 0 -5 -6 -5 -13 -1 -32 21 -274 185 -291
198 -17 13 -14 19 55 114 68 94 89 116 89 91z m-3100 -106 c25 -20 102 -79
172 -132 118 -89 139 -112 102 -112 -8 0 -81 50 -162 112 -174 132 -193 148
-186 159 10 16 29 9 74 -27z m-730 -114 c0 -5 -45 -79 -101 -165 -55 -86 -99
-160 -97 -165 2 -5 68 -66 148 -135 80 -70 145 -132 145 -139 0 -33 -45 -5
-171 105 -76 67 -146 128 -155 136 -14 12 -51 9 -263 -23 -135 -21 -249 -34
-253 -31 -16 16 21 26 192 52 323 48 302 42 331 84 14 20 59 87 100 150 40 63
79 120 85 127 13 16 39 19 39 4z m2915 -256 c12 -5 148 -169 258 -312 13 -16
-4 -35 -24 -27 -8 4 -36 36 -64 72 -77 101 -178 227 -186 233 -7 5 -93 -3
-411 -36 -59 -6 -68 -4 -68 10 0 9 3 16 8 17 26 2 458 47 464 48 3 0 14 -2 23
-5z m-695 -234 c0 -11 -13 -81 -30 -157 -16 -75 -30 -144 -30 -152 0 -11 34
-29 103 -55 56 -22 190 -75 297 -118 107 -43 201 -78 208 -78 7 0 85 54 173
121 147 110 187 132 196 104 2 -8 -262 -213 -317 -245 -17 -11 -16 -15 68
-345 l60 -230 148 -48 c82 -27 203 -66 269 -87 66 -21 166 -52 222 -70 57 -18
107 -38 112 -44 5 -6 43 -117 84 -246 53 -166 72 -239 65 -247 -25 -30 -45 8
-107 204 -86 271 -84 265 -106 274 -11 4 -99 32 -195 63 -511 160 -531 167
-540 190 -7 20 -107 405 -134 519 l-11 47 -265 106 c-146 58 -286 114 -311
126 l-47 20 -73 -25 c-41 -14 -145 -50 -233 -81 -157 -56 -196 -65 -196 -47 0
15 16 23 145 67 66 23 164 58 218 76 54 19 102 39 106 44 5 5 23 72 40 149 18
77 35 150 38 163 7 28 43 31 43 2z m250 -361 c113 -44 224 -88 248 -97 39 -15
53 -34 33 -46 -4 -3 -84 25 -177 63 -93 37 -208 83 -256 101 -52 19 -88 38
-88 46 0 24 30 16 240 -67z m-2572 -554 c2 -2 12 -94 23 -206 10 -111 20 -203
21 -204 4 -2 317 -79 410 -100 l68 -15 106 76 c103 73 134 92 134 81 0 -2 -49
-39 -110 -82 -60 -42 -112 -81 -115 -85 -3 -5 -1 -35 4 -67 5 -32 7 -60 4 -63
-8 -9 -21 23 -27 70 -8 59 4 53 -273 121 l-213 51 -87 -60 c-192 -131 -328
-222 -337 -225 -13 -4 24 -429 38 -443 6 -6 76 -28 156 -48 189 -49 210 -56
210 -67 0 -14 25 -20 -357 82 -24 6 -43 14 -44 18 0 3 -8 105 -17 225 l-17
220 -240 62 c-132 35 -249 63 -260 63 -10 1 -45 -17 -76 -39 -31 -22 -59 -37
-63 -33 -3 3 24 27 61 51 l68 46 260 -67 260 -66 217 145 c120 80 218 151 218
157 0 7 -7 75 -15 152 -8 77 -15 161 -15 187 0 55 -6 60 -97 78 -35 7 -63 16
-63 20 0 7 159 -26 168 -35z m-1375 -846 c53 -28 51 -74 -6 -134 -41 -42 -47
-45 -95 -45 -116 0 -120 101 -7 171 34 22 76 24 108 8z m5425 -233 c42 -32 51
-43 62 -71 19 -49 12 -92 -19 -127 -28 -32 -32 -33 -101 -32 -39 0 -75 5 -78
11 -4 5 -15 13 -25 16 -11 4 -21 16 -24 27 -3 11 -9 18 -13 15 -11 -7 -16 12
-19 68 -2 43 2 52 33 83 33 33 38 35 96 33 45 -2 68 -8 88 -23z m208 -95 l-7
-58 88 -21 c47 -12 90 -19 95 -16 4 3 8 18 8 34 0 16 4 31 10 35 5 3 7 12 3
20 -3 11 -1 13 10 9 8 -3 14 -13 12 -22 -2 -9 -4 -34 -4 -54 -1 -29 -5 -38
-18 -39 -11 0 -13 -3 -5 -6 15 -6 15 -27 1 -92 -7 -33 -15 -48 -23 -45 -10 4
-11 19 -4 65 6 34 7 63 4 66 -3 3 -44 16 -91 29 l-86 23 -9 -25 c-6 -14 -10
-43 -10 -65 0 -33 -3 -39 -21 -39 -15 0 -19 5 -15 18 3 9 10 48 17 87 7 39 19
76 28 83 9 8 10 11 3 7 -9 -5 -12 3 -10 29 1 23 7 36 16 36 12 0 13 -11 8 -59z"/>
<path d="M453 640 c-30 -12 -64 -69 -61 -100 4 -31 45 -55 80 -47 15 4 40 21
57 38 71 70 17 146 -76 109z"/>
<path d="M5844 428 c-22 -5 -37 -18 -48 -42 -21 -45 -20 -71 5 -115 32 -57
104 -81 169 -55 22 9 38 19 35 22 -3 3 2 13 10 22 41 45 -4 152 -69 165 -52
10 -73 11 -102 3z"/>
</g>
</svg>
