<?xml version="1.0" standalone="no"?>
<!DOCTYPE svg PUBLIC "-//W3C//DTD SVG 20010904//EN"
 "http://www.w3.org/TR/2001/REC-SVG-20010904/DTD/svg10.dtd">
<svg version="1.0" xmlns="http://www.w3.org/2000/svg"
 width="1920.000000pt" height="1024.000000pt" viewBox="0 0 1920.000000 1024.000000"
 preserveAspectRatio="xMidYMid meet">
<metadata>
Created by potrace 1.16, written by Peter Selinger 2001-2019
</metadata>
<g transform="translate(0.000000,1024.000000) scale(0.100000,-0.100000)"
fill="#000000" stroke="none">
<path d="M0 8766 c0 -1394 1 -1474 18 -1481 16 -6 16 -7 -1 -19 -15 -12 -17
-35 -17 -229 l0 -216 23 -4 22 -4 -23 -2 -22 -1 0 -475 1 -475 128 0 128 0 33
48 c108 151 255 259 423 311 417 128 854 -91 1004 -504 60 -167 54 -394 -16
-569 -173 -433 -688 -628 -1104 -420 -140 71 -257 180 -339 317 -127 211 -142
515 -38 736 17 34 30 65 30 67 0 2 -56 4 -125 4 l-125 0 0 -390 0 -390 67 0
c55 0 71 4 90 22 18 17 28 20 40 12 29 -18 39 -42 27 -62 -16 -26 -60 -28 -76
-3 -11 18 -23 21 -80 21 l-68 0 0 -2530 0 -2530 6631 0 6632 0 -76 74 c-62 61
-80 73 -101 69 -17 -4 -32 2 -49 18 -14 13 -46 44 -71 68 -25 24 -47 52 -47
62 -1 11 -2 23 -3 28 0 5 -19 27 -41 49 -60 59 -135 141 -135 149 0 3 -10 15
-22 27 -13 12 -52 52 -87 90 -80 85 -104 102 -224 166 -78 41 -118 55 -195 70
-53 9 -110 23 -125 29 -45 17 -252 13 -384 -8 -134 -22 -344 -33 -417 -23 -48
7 -73 27 -41 34 11 2 5 11 -21 32 -35 28 -119 56 -174 60 -16 0 -27 9 -31 21
-3 11 -10 19 -16 18 -5 -1 -7 11 -5 27 3 24 -1 32 -29 49 -19 12 -48 21 -65
21 -40 0 -121 25 -161 49 -30 19 -31 22 -22 56 13 44 -1 65 -42 65 -70 0 -239
95 -257 145 -18 48 -15 54 32 66 26 6 60 26 83 47 22 21 62 58 90 84 55 51
134 81 156 59 6 -6 19 -11 29 -11 10 0 18 -4 18 -9 0 -5 12 -12 28 -16 15 -3
44 -17 64 -31 21 -13 44 -24 52 -24 8 0 19 -6 23 -14 4 -7 26 -19 48 -26 22
-7 45 -16 50 -20 6 -3 30 -12 55 -20 25 -7 54 -21 65 -31 32 -28 139 -89 155
-89 8 0 32 -9 52 -20 20 -10 59 -22 86 -26 28 -3 71 -18 95 -33 62 -36 273
-211 285 -236 8 -18 18 -20 103 -19 100 1 114 9 87 47 -10 14 -36 20 -106 27
-119 11 -148 29 -147 92 2 82 -22 106 -155 154 -91 32 -100 39 -100 74 0 23
-5 29 -31 34 -17 3 -42 6 -56 6 -15 0 -38 15 -62 39 -21 22 -72 56 -114 76
-87 42 -116 74 -91 99 8 9 25 16 37 16 39 0 90 40 218 174 126 130 127 131
171 130 24 0 55 -7 70 -15 14 -8 59 -31 100 -51 71 -37 179 -122 303 -239 64
-61 150 -129 163 -129 4 0 23 -13 42 -28 19 -16 49 -34 66 -41 32 -13 100 -80
140 -138 13 -20 55 -69 92 -108 111 -119 122 -134 122 -186 0 -30 -6 -51 -16
-59 -33 -28 -37 -50 -13 -76 12 -13 27 -33 33 -45 14 -29 58 -41 97 -27 51 18
127 1 218 -49 74 -40 91 -46 144 -45 76 1 107 20 107 66 0 24 -9 43 -34 70
-44 46 -72 56 -152 56 -35 0 -64 3 -64 6 0 3 11 15 25 26 18 14 25 29 25 53 0
29 -10 45 -60 95 -68 70 -67 79 6 123 26 15 44 34 44 44 0 23 -52 58 -106 72
-58 16 -68 31 -60 95 5 49 4 56 -22 81 -25 25 -216 155 -228 155 -3 0 -31 20
-62 43 -32 24 -93 59 -137 77 -155 66 -232 137 -172 159 12 5 27 7 32 4 6 -2
10 15 10 43 -1 42 -6 52 -61 110 -32 35 -67 64 -77 64 -10 0 -17 6 -15 12 3 7
-5 20 -16 30 -12 10 -16 17 -11 18 6 0 53 -43 105 -95 65 -65 102 -95 118 -95
23 0 48 -42 36 -61 -6 -11 19 -12 30 -2 4 5 11 8 14 8 4 1 25 7 47 14 63 22
135 70 210 141 88 82 119 96 183 82 103 -23 180 -62 244 -125 16 -15 36 -27
46 -27 14 0 14 -2 3 -9 -19 -12 66 -118 150 -186 77 -62 117 -124 158 -245 45
-133 57 -149 211 -287 81 -72 129 -137 130 -175 0 -10 17 -26 41 -38 39 -20
42 -21 90 -5 50 17 109 58 109 77 0 5 -9 12 -20 15 -26 7 -26 20 0 28 29 9 25
22 -9 28 -33 7 -45 37 -25 64 16 21 18 106 4 134 -10 18 -7 19 43 19 39 0 58
5 69 18 16 18 48 80 48 92 0 4 -21 11 -46 15 -78 11 -92 21 -97 74 -13 127
-48 211 -87 211 -18 0 -60 40 -60 57 0 6 -14 23 -30 36 -34 29 -37 42 -12 56
12 8 -15 11 -98 12 -78 0 -106 3 -88 9 16 5 40 6 55 4 32 -4 176 8 152 13 -11
3 -14 13 -12 36 3 26 1 28 -6 12 -9 -20 -10 -20 -10 1 -1 12 -10 32 -20 45
l-19 24 -38 -20 c-22 -11 -42 -21 -46 -23 -5 -2 -8 11 -8 30 -1 35 -16 61 -38
66 -28 6 -60 34 -67 59 -8 33 0 41 15 14 6 -12 16 -19 22 -15 7 4 6 9 -3 15
-17 10 -10 17 21 22 18 3 26 13 35 51 7 25 23 58 36 72 24 26 99 64 153 78 17
4 43 17 59 28 48 34 91 27 188 -30 85 -50 117 -80 172 -161 34 -50 53 -51 122
-12 34 19 63 48 90 87 47 69 103 102 228 134 45 12 87 25 95 29 8 5 -66 9
-164 10 -98 1 -180 3 -182 6 -3 3 49 5 114 5 80 0 124 4 132 12 9 9 15 9 24 0
18 -18 119 -15 146 4 13 8 39 18 58 20 20 2 44 9 54 14 9 5 20 6 24 3 3 -3 6
7 7 23 0 28 1 28 11 7 14 -29 16 -29 110 4 69 24 78 30 79 52 0 15 4 35 9 46
7 16 9 13 9 -17 1 -41 3 -43 32 -28 15 9 19 22 19 65 l0 55 34 0 c33 0 35 2
39 37 l4 38 1 -37 c2 -33 5 -38 27 -38 24 0 25 2 27 83 l2 82 3 -78 c2 -42 7
-77 11 -77 4 0 18 7 30 16 16 11 22 26 23 57 l2 42 6 -39 6 -39 31 29 c18 16
45 36 60 44 22 12 30 25 35 55 6 38 6 38 8 8 0 -18 3 -33 6 -33 9 0 111 76
137 102 13 13 56 52 96 87 39 35 72 69 72 76 0 7 -11 29 -25 50 -20 29 -23 40
-14 51 6 8 16 11 22 7 6 -3 7 -1 3 6 -5 7 5 25 23 43 26 27 31 29 31 12 0 -10
-9 -30 -20 -44 -25 -32 -25 -43 -1 -64 24 -22 41 -13 41 19 0 13 5 27 10 30 6
4 20 25 31 47 24 48 20 104 -11 156 -39 63 -20 69 39 14 23 -21 41 -42 41 -46
0 -4 9 -21 21 -37 21 -29 39 -38 39 -18 0 5 -4 7 -10 4 -5 -3 -10 -2 -10 4 0
5 4 12 8 15 5 3 8 36 8 75 -1 57 -5 74 -24 95 -18 22 -19 26 -5 26 9 0 13 3 9
7 -4 5 -87 10 -184 13 l-177 6 176 2 175 2 -1 58 c-1 31 3 60 9 64 14 9 7 15
-26 23 -25 6 -27 4 -31 -32 -2 -21 -4 18 -3 87 1 122 1 124 25 130 20 5 24 12
25 47 l1 43 -53 11 c-47 9 -51 12 -36 23 12 9 14 15 6 20 -16 10 -15 43 1 49
9 4 9 6 0 6 -7 1 -10 7 -7 15 3 8 -4 24 -15 35 -22 22 -27 41 -12 41 5 0 11 8
15 18 3 9 11 25 18 35 11 14 10 19 -2 27 -13 8 -12 11 3 23 17 12 17 14 3 26
-22 19 -20 38 9 66 13 14 20 25 16 25 -11 0 -11 71 1 86 6 8 -102 13 -385 18
-391 7 -392 7 -434 32 -23 13 -52 41 -65 61 l-23 38 -6 490 c-3 270 -6 491 -7
493 -1 1 -13 2 -27 2 -18 0 -23 -4 -19 -15 4 -9 0 -15 -10 -15 -25 0 -19 -20
7 -21 16 -1 18 -2 5 -6 -10 -2 -18 -10 -19 -16 -1 -21 -7 -46 -23 -100 -8 -28
-18 -70 -21 -91 -4 -21 -13 -49 -21 -61 -7 -12 -17 -44 -20 -71 -3 -27 -12
-66 -20 -86 -8 -21 -11 -38 -8 -38 3 0 -4 -14 -16 -30 -12 -16 -29 -30 -38
-30 -17 -1 -62 -76 -62 -105 0 -8 -12 -38 -27 -66 -24 -47 -28 -50 -40 -33
-12 17 -13 17 -15 -2 0 -10 -1 -25 -1 -31 1 -7 -3 -10 -8 -7 -5 3 -9 16 -9 30
0 14 -4 23 -9 20 -11 -7 -18 51 -13 100 3 25 11 38 27 44 27 10 39 26 27 34
-12 7 -8 35 10 76 9 19 23 75 32 124 8 49 20 92 25 95 5 3 12 23 16 44 4 20
11 37 15 37 7 0 21 27 25 50 5 24 20 58 32 72 8 9 17 35 19 57 4 36 2 41 -15
41 -11 0 -23 5 -26 10 -4 6 6 10 22 10 27 0 28 2 30 51 1 28 9 62 18 75 16 25
34 143 36 249 l2 60 7 -45 c6 -37 7 -39 9 -15 2 26 3 27 11 10 7 -17 9 -17 9
-3 1 17 38 44 54 40 5 -1 6 2 2 8 -3 5 -17 10 -31 10 -27 0 -34 30 -10 49 11
9 15 7 19 -11 11 -40 22 -8 22 65 1 71 1 72 28 75 34 4 36 22 2 22 -24 0 -25
2 -25 65 l0 65 -282 3 -283 2 282 3 282 2 3 22 c3 20 8 23 53 22 128 -3 128
-3 122 -24 -5 -18 0 -20 61 -22 l67 -2 -62 -3 -63 -4 0 -49 c0 -75 -4 -80 -66
-80 -72 0 -69 -18 4 -22 l57 -3 -2 -84 c-1 -46 -5 -86 -7 -89 -3 -3 -28 -7
-56 -10 l-50 -5 0 -112 c0 -67 4 -115 10 -117 12 -4 -10 -118 -22 -118 -4 0
-7 -18 -6 -40 1 -32 5 -40 20 -40 10 0 18 4 18 8 0 5 19 19 43 33 41 24 47 24
321 27 154 2 274 7 266 12 -8 5 -13 32 -14 78 0 39 -4 68 -8 65 -5 -2 -8 21
-8 51 0 30 -5 58 -11 62 -7 4 -9 22 -4 49 3 24 2 46 -3 49 -5 3 -10 -46 -11
-112 -1 -64 -4 -118 -7 -121 -2 -2 -4 45 -4 105 -1 60 -5 154 -11 209 -5 55
-10 109 -10 120 0 10 -5 25 -11 32 -6 7 -7 13 -3 13 5 0 1 8 -8 18 -8 9 -17
28 -19 42 -3 24 -7 25 -78 31 l-75 5 73 2 c64 2 73 4 70 20 -1 9 1 22 5 29 4
7 3 20 -2 30 -5 10 -12 26 -15 36 -3 10 -15 17 -31 17 -14 0 -25 4 -25 10 0 5
3 9 8 9 4 -1 14 -1 22 0 13 1 13 2 0 11 -13 9 -13 10 0 10 9 0 16 9 17 20 2
20 -11 33 -36 37 -17 2 -51 -38 -43 -52 12 -18 12 -44 0 -51 -7 -4 -8 -3 -4 5
4 6 0 23 -8 37 -15 22 -15 25 -1 30 8 3 12 10 9 15 -3 5 -1 9 4 9 14 0 10 32
-6 49 -7 7 -10 16 -7 19 3 3 13 -4 21 -17 17 -24 64 -26 72 -3 2 7 0 12 -5 11
-17 -3 -33 1 -32 9 4 24 -3 42 -17 42 -8 0 -13 -4 -10 -9 6 -10 -24 -25 -32
-16 -3 3 -1 5 5 5 12 0 10 57 -3 69 -5 5 -18 11 -29 14 -15 4 -14 5 7 6 20 1
32 9 43 30 8 16 20 31 27 34 7 3 -3 12 -23 20 -31 14 -47 36 -47 64 0 13 -28
20 -67 16 -38 -4 -40 -6 -39 -38 l2 -33 -59 -4 -59 -3 0 38 0 37 -52 1 c-29 1
-177 5 -328 8 l-275 7 328 2 327 2 0 36 c0 28 -3 35 -15 30 -12 -4 -15 3 -15
29 0 31 -3 35 -25 35 -14 0 -25 5 -25 10 0 6 11 10 25 10 21 0 25 5 25 30 0
17 5 30 10 30 6 0 10 -13 10 -30 0 -25 4 -30 25 -30 14 0 25 -4 25 -10 0 -5
-11 -10 -25 -10 -19 0 -25 -5 -25 -22 0 -22 3 -23 80 -20 71 3 80 6 80 23 0
14 -7 19 -30 19 -16 0 -30 5 -30 10 0 6 14 10 30 10 28 0 30 2 30 41 0 24 4
38 10 34 6 -3 10 -2 10 4 0 5 -4 13 -10 16 -13 8 -13 42 1 51 6 3 15 1 19 -6
5 -8 9 -5 13 9 3 12 0 22 -6 22 -7 1 -84 5 -172 9 l-160 6 163 2 162 2 -6 28
c-8 30 -20 42 -46 42 -15 0 -18 10 -18 59 l0 60 37 3 c51 4 53 24 3 32 l-41 6
3 58 3 57 53 3 c35 2 50 7 46 14 -5 8 0 9 17 3 13 -4 43 -10 67 -12 l42 -5 0
-55 c0 -37 3 -52 11 -47 12 7 29 -12 29 -32 0 -7 -9 -14 -20 -17 -23 -6 -27
-34 -7 -51 7 -6 21 -35 31 -65 16 -45 17 -55 5 -63 -10 -7 -6 -8 14 -5 18 3
27 0 27 -9 0 -24 -5 -29 -25 -27 -43 5 10 -15 58 -21 26 -4 45 -11 42 -17 -4
-5 -1 -9 4 -9 6 0 11 -6 11 -14 0 -8 6 -16 13 -19 16 -6 68 -107 61 -119 -3
-4 -14 -8 -25 -8 -11 0 -17 -4 -14 -10 3 -5 15 -10 26 -10 12 0 19 -7 19 -20
0 -11 5 -20 10 -20 6 0 10 8 10 18 0 17 9 19 83 20 75 2 110 -5 108 -22 -3
-23 0 -40 7 -30 13 20 47 32 67 23 11 -4 39 -8 63 -8 26 -1 41 -5 37 -11 -3
-6 1 -7 9 -4 9 3 13 10 10 15 -3 5 0 9 5 9 6 0 11 -4 11 -10 0 -5 9 -10 19
-10 11 0 21 -4 23 -8 2 -5 28 -12 58 -15 34 -3 47 -2 35 3 l-20 9 20 1 20 1
-20 9 c-13 6 8 9 65 9 47 0 80 -3 75 -7 -6 -4 -10 -13 -9 -19 1 -7 2 -20 3
-29 0 -8 5 -13 10 -10 5 4 11 2 13 -2 4 -11 68 -24 68 -14 0 4 19 6 41 4 28
-3 37 -7 28 -13 -12 -7 -11 -9 1 -9 13 0 13 -1 0 -10 -11 -7 -6 -8 18 -4 22 5
32 3 32 -6 0 -9 10 -10 36 -5 31 5 36 4 31 -9 -3 -8 -2 -18 2 -21 10 -6 21 18
21 46 0 17 7 19 58 17 l57 -1 -45 -7 -45 -7 43 -1 c40 -2 56 -15 30 -25 -10
-4 -10 -6 0 -6 7 -1 12 -16 13 -38 1 -44 13 -81 22 -67 3 6 7 31 8 57 l3 47
45 -1 46 -2 -40 -7 -40 -7 38 -2 c20 0 37 -6 37 -12 0 -8 -12 -10 -35 -6 -19
3 -35 2 -35 -4 0 -5 19 -10 43 -11 l42 -1 -45 -7 -45 -7 49 -1 c46 -2 48 -3
44 -27 -3 -14 -1 -25 4 -25 5 0 6 -4 3 -10 -3 -5 -1 -10 5 -10 6 0 8 -5 5 -10
-4 -7 3 -9 19 -6 15 3 24 1 21 -5 -4 -5 -12 -9 -20 -9 -8 0 -16 -4 -20 -9 -3
-6 6 -6 24 -1 16 4 57 6 90 3 43 -4 65 -2 77 8 9 7 40 13 70 14 37 0 58 5 64
15 7 10 10 11 10 3 0 -17 23 -12 32 7 5 12 7 10 8 -5 l1 -20 9 20 c5 11 10 88
11 170 l2 150 8 -140 c3 -77 7 -144 8 -149 0 -5 8 -3 16 4 12 10 15 10 15 -1
1 -9 5 -8 15 5 15 19 15 19 16 -5 1 -21 2 -21 8 6 7 29 7 29 15 8 10 -31 22
-29 34 5 l10 27 1 -27 c1 -20 5 -26 16 -22 8 4 15 15 15 26 0 14 5 18 16 14 9
-3 18 -6 20 -6 3 0 3 -4 0 -8 -2 -4 -1 -14 5 -22 6 -11 9 -8 9 13 0 15 5 27
10 27 6 0 10 -11 10 -23 0 -14 6 -24 15 -24 10 0 15 10 15 29 0 15 5 28 10 28
6 0 10 -13 10 -28 0 -19 5 -29 15 -29 8 0 15 7 15 16 0 12 6 9 20 -9 21 -28
26 -21 33 40 3 25 4 19 6 -20 1 -48 3 -53 15 -38 7 10 16 15 19 11 4 -3 7 6 7
20 0 15 5 27 10 27 6 0 10 -11 10 -24 0 -14 4 -28 10 -31 9 -6 16 15 22 65 3
20 6 16 18 -22 17 -55 30 -53 30 5 0 31 3 38 10 27 6 -8 7 -28 4 -44 -4 -19
-3 -26 5 -22 6 4 11 15 12 24 0 12 2 13 6 4 4 -10 11 -5 24 15 11 16 19 22 19
13 1 -11 4 -10 15 4 8 11 15 14 15 8 0 -8 5 -9 18 -3 9 5 26 12 37 16 16 5 17
8 5 16 -11 8 -10 9 8 4 13 -4 22 -2 22 4 0 6 -5 11 -11 11 -5 0 -7 5 -3 11 5
8 10 6 16 -5 8 -14 13 -15 24 -5 8 6 14 8 15 3 0 -5 4 0 8 11 7 18 18 20 112
21 71 1 126 -5 174 -17 39 -10 87 -18 108 -17 l37 0 0 64 0 64 71 0 c59 0 70
-3 65 -15 -9 -26 5 -45 33 -44 21 0 23 2 8 8 -16 6 -12 10 22 26 22 11 41 23
41 28 0 4 6 7 13 7 6 0 24 12 39 25 l28 24 0 875 c0 824 -1 875 -17 879 -17 4
-17 5 0 6 16 1 17 33 17 526 l0 525 -3891 0 c-3882 0 -3891 0 -3896 -20 -3
-11 -9 -20 -14 -20 -5 0 -15 -16 -24 -35 -17 -41 -114 -154 -132 -155 -7 0
-13 -4 -13 -10 0 -5 -19 -24 -42 -41 -72 -51 -82 -58 -117 -84 -19 -14 -40
-25 -46 -25 -5 0 -16 -9 -23 -20 -7 -11 -17 -20 -22 -20 -10 0 -159 -94 -210
-131 -14 -10 -38 -26 -54 -35 -17 -9 -57 -39 -90 -66 -96 -77 -102 -82 -126
-98 -13 -8 -35 -25 -50 -37 -15 -13 -33 -23 -39 -23 -6 0 -28 -16 -49 -35 -22
-19 -41 -32 -44 -30 -3 3 -28 -6 -56 -20 -27 -14 -55 -25 -61 -25 -6 0 -11
-11 -11 -24 0 -19 6 -26 28 -29 l27 -4 -27 -2 c-22 -1 -27 -6 -31 -33 l-4 -33
-1 33 c-2 29 -5 32 -33 32 -16 0 -28 4 -25 9 3 4 17 6 31 3 20 -3 25 0 25 16
0 18 -4 19 -37 11 -21 -5 -42 -9 -46 -9 -5 0 -6 -4 -3 -9 7 -11 -17 -21 -50
-21 -19 0 -24 -5 -24 -24 0 -14 -4 -28 -10 -31 -6 -4 -10 7 -10 25 0 25 -3 31
-16 26 -9 -3 -27 -6 -41 -6 -25 0 -25 0 -21 -75 2 -44 0 -74 -6 -72 -5 2 -8
35 -7 75 2 76 1 78 -46 66 -14 -4 -23 -16 -26 -33 -4 -24 -4 -23 -6 5 -1 26
-5 32 -23 32 -13 0 -46 2 -75 5 -42 4 -53 2 -56 -12 -3 -10 -5 -8 -6 7 0 13
-5 21 -10 17 -6 -3 -14 2 -19 10 -13 24 -30 -1 -35 -50 l-4 -40 -1 47 c-2 59
-11 85 -23 66 -7 -10 -9 -10 -9 0 0 24 -29 11 -33 -15 -3 -22 -4 -20 -6 10 0
24 -7 40 -17 44 -8 3 -13 12 -10 19 3 8 -1 14 -9 14 -8 0 -15 -13 -18 -32 l-4
-33 -1 33 c-2 29 -5 32 -32 32 l-30 0 -2 -72 c-2 -59 -3 -50 -7 42 -6 119 0
183 9 95 3 -32 10 -50 18 -49 6 1 20 2 30 3 15 1 14 4 -5 19 -47 38 -55 210
-13 292 11 21 20 45 20 51 0 7 13 39 29 73 15 34 34 79 42 101 7 22 23 54 36
72 27 37 53 138 53 206 l0 47 -4810 0 -4810 0 0 -1474z m12790 44 l50 0 2 78
2 77 3 -77 c4 -75 5 -78 28 -78 17 0 25 6 26 18 1 16 2 16 6 0 2 -10 13 -18
24 -18 16 0 19 8 21 53 l2 52 3 -52 c4 -49 6 -53 29 -53 24 0 24 1 26 98 l2
97 3 -97 c3 -90 5 -98 23 -98 17 0 20 8 22 53 l2 52 3 -52 4 -53 50 0 49 0 2
68 2 67 3 -67 c4 -65 5 -68 28 -68 22 0 25 5 27 38 l1 37 4 -37 4 -38 75 0 74
0 2 73 2 72 3 -72 c4 -70 5 -73 28 -73 20 0 25 5 26 28 l2 27 4 -27 c4 -24 8
-26 54 -26 39 -1 49 3 50 16 1 15 2 15 6 0 2 -10 12 -19 21 -19 15 -1 15 -2 0
-6 -15 -4 -18 -17 -20 -66 l-2 -62 -3 63 c-4 58 -5 62 -28 62 -25 0 -25 -2
-27 -92 l-2 -93 -3 93 c-3 84 -6 92 -23 92 -17 0 -20 -8 -22 -47 l-2 -48 -3
48 c-4 42 -7 47 -29 47 -19 0 -24 -5 -25 -27 l-2 -28 -4 28 c-3 19 -10 27 -24
27 -16 0 -19 -8 -21 -47 l-2 -48 -3 48 c-4 42 -7 47 -29 47 -22 0 -24 -4 -26
-47 l-2 -48 -3 48 c-3 39 -8 47 -24 47 -17 0 -19 -8 -21 -62 l-2 -63 -3 63
c-4 58 -5 62 -28 62 -20 0 -25 -5 -26 -27 l-2 -28 -4 28 c-4 25 -8 27 -54 27
l-49 0 -2 -47 -2 -48 -3 48 -4 47 -50 0 -49 0 -2 -47 -2 -48 -3 47 -4 46 -50
0 c-43 1 -49 -2 -50 -21 l-2 -22 -4 23 c-4 20 -10 22 -79 22 l-74 0 -2 -47 -2
-48 -3 48 -4 47 -50 0 -49 0 -2 -67 -2 -68 -3 68 c-4 64 -5 67 -28 67 -20 0
-25 -5 -26 -27 l-2 -28 -4 28 c-3 19 -10 27 -26 28 -22 2 -22 2 1 6 19 4 22
11 24 51 l2 47 3 -47 c4 -43 7 -48 29 -48 19 0 24 5 25 28 l2 27 4 -27 c4 -26
8 -28 54 -28 l49 0 2 53 2 52 3 -52 c3 -45 7 -53 24 -53 17 0 19 8 21 103 l2
102 3 -102 4 -103 49 0z m-180 -425 l0 -135 -45 0 -45 0 0 135 0 135 45 0 45
0 0 -135z m-350 -35 l0 -100 -45 0 -45 0 0 100 0 100 45 0 45 0 0 -100z m230
-5 l0 -95 -45 0 -45 0 0 95 0 95 45 0 45 0 0 -95z m-6546 -55 c18 -9 29 -9 45
0 18 9 28 8 53 -7 17 -10 33 -24 36 -32 2 -7 -5 -4 -17 8 -11 11 -28 21 -36
21 -22 0 -55 -37 -55 -60 0 -11 -4 -20 -10 -20 -5 0 -10 15 -10 33 0 46 -37
68 -73 44 -21 -14 -45 -79 -28 -74 3 1 16 -4 29 -11 14 -8 28 -10 40 -3 21 11
68 7 86 -8 20 -17 66 6 67 33 2 20 2 20 6 -1 5 -24 48 -57 66 -50 9 3 11 -7 9
-33 -3 -34 0 -40 25 -54 15 -8 23 -15 18 -16 -6 0 -20 7 -32 15 -19 14 -27 14
-56 2 -29 -13 -37 -12 -62 0 -25 14 -31 14 -57 -2 -27 -16 -30 -15 -63 5 -32
20 -36 20 -57 6 -29 -21 -38 -20 -68 5 l-25 21 29 -17 c22 -13 34 -15 52 -6
13 6 24 19 24 28 0 14 2 15 9 4 6 -9 10 -4 13 18 3 22 1 30 -8 27 -6 -2 -21 2
-32 10 -24 17 -68 2 -75 -25 -3 -11 -5 -10 -6 5 0 11 -12 27 -26 34 -14 7 -23
15 -21 18 3 2 15 -3 27 -11 34 -24 69 -4 69 40 0 45 -36 64 -75 39 -14 -9 -25
-12 -25 -7 0 5 13 14 30 21 25 10 34 10 55 -4 22 -15 27 -15 60 1 28 13 35 23
37 47 l1 31 4 -31 c3 -20 13 -36 27 -44z m6596 -130 c10 -20 21 -20 431 -20
419 0 421 0 438 22 13 16 24 19 44 14 34 -8 44 -41 21 -67 -22 -24 -40 -24
-61 1 -17 19 -30 20 -440 20 -412 0 -423 0 -433 -20 -20 -38 -80 -19 -80 25 0
44 60 63 80 25z m-2665 -56 c335 -64 656 -336 849 -721 112 -225 206 -593 206
-812 l0 -58 63 -10 c34 -6 85 -21 112 -34 57 -26 155 -120 174 -167 12 -28 16
-31 30 -20 14 11 14 11 3 -4 -10 -13 -11 -25 -3 -55 7 -25 11 -304 12 -823 1
-443 5 -768 10 -745 4 22 8 57 8 78 1 28 5 37 19 38 16 1 16 2 0 6 -20 5 -21
9 -7 38 9 19 9 18 5 -2 -2 -13 -1 -23 3 -23 15 0 43 39 36 50 -4 7 -3 22 3 33
6 12 18 39 27 59 9 21 25 40 36 43 12 4 19 16 19 30 0 13 5 27 10 30 6 4 7 11
4 17 -4 6 -1 16 7 22 8 6 21 27 29 46 20 51 40 80 56 80 8 0 14 7 14 15 0 8 5
15 10 15 15 0 12 40 -2 40 -7 1 10 12 37 27 28 14 58 32 67 40 9 8 22 12 27 8
12 -7 16 2 26 59 4 26 9 35 15 27 4 -7 5 -21 3 -31 -3 -10 0 -21 6 -25 18 -11
13 211 -5 226 -8 6 -14 24 -14 40 0 27 11 35 43 30 4 0 7 10 7 24 0 25 0 25
95 25 l95 0 0 -49 c0 -62 24 -78 36 -23 4 20 9 30 11 21 3 -11 12 -15 28 -11
29 5 34 22 6 22 -12 0 -20 9 -23 25 -6 31 -2 35 39 35 18 0 33 4 33 10 0 5
-16 8 -35 6 -37 -3 -47 9 -38 43 4 17 13 21 48 21 37 0 44 -3 48 -22 l4 -23
10 24 10 25 11 -34 c15 -43 16 -41 -15 -38 -26 3 -27 1 -24 -34 2 -33 0 -38
-18 -38 -12 0 -21 -5 -21 -10 0 -15 63 -1 73 16 4 8 16 14 26 14 11 0 21 6 24
14 3 8 21 16 39 19 32 4 32 4 -6 5 l-39 2 7 43 c8 48 52 93 74 75 11 -10 16
-4 13 15 0 4 5 7 13 7 7 0 25 9 39 20 14 11 28 20 31 20 3 0 6 -21 6 -46 0
-40 2 -45 15 -34 9 7 15 29 15 51 l0 39 58 1 c115 1 202 6 209 12 3 4 -8 7
-25 7 l-32 0 0 89 0 88 46 7 c26 3 66 6 90 6 l44 0 0 -45 c0 -57 18 -59 22 -3
2 29 8 43 18 45 8 1 46 5 83 8 61 6 67 9 62 26 -9 28 10 23 23 -6 6 -14 17
-24 24 -23 7 2 12 -4 10 -12 -2 -8 21 9 51 38 34 34 61 53 72 50 30 -5 27 -23
-8 -62 -19 -20 -34 -43 -34 -51 0 -8 3 -12 6 -9 3 3 6 9 6 13 0 18 73 87 93
88 25 2 38 -12 21 -23 -8 -5 -10 -2 -5 7 4 8 -1 3 -12 -11 -12 -14 -19 -26
-17 -28 8 -8 64 42 58 51 -3 6 -1 7 5 3 12 -7 56 17 47 25 -2 3 4 5 13 6 9 1
51 14 92 29 89 32 227 43 323 25 34 -7 105 -33 157 -58 80 -38 108 -59 175
-127 111 -112 191 -277 129 -264 -9 2 -24 23 -33 49 -25 65 -92 159 -152 213
-66 59 -148 102 -247 127 -77 19 -202 26 -202 10 0 -5 30 -6 66 -3 55 4 68 2
76 -12 5 -9 17 -16 26 -17 14 0 13 -2 -3 -8 -19 -8 -19 -8 3 -15 12 -4 20 -11
17 -16 -3 -5 8 -11 24 -15 16 -3 35 -12 40 -19 12 -14 5 -46 -9 -46 -5 0 -6
-9 -3 -20 3 -11 9 -20 13 -20 4 0 10 -11 12 -25 3 -14 1 -25 -4 -25 -5 0 17
-26 49 -58 92 -90 121 -172 144 -392 13 -127 7 -276 -17 -415 -20 -118 -22
-125 -44 -125 -23 0 -30 18 -18 49 16 43 38 252 38 356 0 129 -25 316 -49 371
-24 53 -69 114 -85 114 -6 0 -5 -4 3 -9 8 -5 15 -20 17 -33 1 -12 3 -27 3 -31
1 -5 7 -5 14 -1 9 5 9 4 0 -6 -8 -9 -9 -19 -1 -36 7 -16 8 -28 1 -36 -5 -7
-13 -22 -16 -33 l-7 -20 16 20 c16 19 16 19 9 -10 -5 -16 -6 -59 -4 -95 2 -36
4 -111 4 -167 0 -65 4 -99 10 -95 6 3 5 -1 -1 -9 -6 -8 -9 -23 -7 -34 4 -18 4
-65 0 -150 -1 -18 3 -29 11 -28 12 3 -1 -37 -22 -65 -7 -9 -5 -17 5 -24 12 -8
12 -10 0 -15 -11 -5 -11 -7 0 -14 9 -6 10 -12 4 -16 -15 -12 -12 -77 5 -90 8
-7 43 -13 77 -13 61 0 61 0 73 35 6 19 8 40 4 46 -4 7 -3 9 3 6 13 -8 48 145
62 275 14 122 14 213 0 336 -24 225 -62 316 -174 419 -52 48 -71 73 -66 82 14
21 46 4 108 -57 121 -119 167 -253 189 -547 4 -55 9 -91 11 -80 2 11 7 27 10
35 3 8 5 21 4 28 -1 6 3 12 8 12 6 0 8 7 5 15 -7 18 14 47 28 39 6 -4 8 4 5
22 -3 16 -9 62 -12 102 -7 67 -6 72 13 72 13 0 24 -12 35 -37 l15 -38 -5 34
c-4 24 -3 32 5 27 8 -5 12 1 12 14 0 13 4 19 11 14 9 -5 10 1 5 22 -4 16 -9
44 -12 62 -12 83 -77 208 -154 296 -53 61 -62 86 -31 86 24 0 120 -113 158
-186 29 -56 44 -63 35 -17 -2 16 -2 25 2 22 3 -3 7 -18 8 -32 2 -23 7 -27 36
-27 21 0 31 -4 26 -11 -3 -6 -16 -8 -29 -5 -30 8 -35 -8 -21 -59 11 -38 12
-39 26 -19 8 12 26 24 38 29 19 5 23 12 18 33 -3 15 -3 21 0 15 3 -7 10 -13
15 -13 10 0 7 29 -6 50 -7 13 -6 13 7 2 15 -12 17 -10 21 15 4 23 4 23 3 -4
-2 -27 2 -33 19 -32 11 0 14 3 8 6 -7 2 -13 12 -13 21 0 15 2 15 10 2 8 -13
10 -12 10 3 0 9 -4 17 -10 17 -17 0 -11 46 10 73 11 14 20 31 20 39 0 7 9 19
21 26 11 7 18 19 15 27 -8 21 13 85 28 85 24 0 49 79 50 160 1 26 5 35 18 35
25 0 30 10 19 38 -13 35 7 78 34 75 16 -2 20 -10 18 -36 0 -18 -9 -42 -19 -53
-16 -18 -16 -19 0 -19 14 0 17 -7 13 -37 -2 -28 -8 -38 -20 -37 -20 2 -23 -31
-4 -40 10 -5 10 -7 0 -12 -7 -3 -13 -18 -13 -34 0 -16 -6 -31 -12 -34 -10 -5
-10 -7 0 -12 18 -9 15 -31 -9 -55 -16 -16 -20 -29 -15 -50 7 -34 -8 -77 -32
-95 -11 -8 -12 -13 -4 -14 6 0 12 -10 11 -22 0 -22 -1 -22 -9 -3 -7 15 -8 10
-5 -17 2 -27 0 -38 -10 -38 -7 0 -18 -7 -25 -15 -7 -9 -22 -14 -34 -13 -16 2
-21 -3 -23 -22 -1 -14 0 -18 3 -7 4 11 15 17 32 16 15 0 21 -3 15 -6 -7 -2
-13 -15 -13 -27 0 -12 -7 -31 -15 -42 -8 -10 -15 -28 -15 -38 0 -10 -8 -24
-17 -31 -18 -14 -45 -96 -44 -137 0 -16 -4 -28 -8 -28 -5 0 -12 -21 -17 -47
-7 -47 -8 -47 -15 -18 -5 18 -6 -11 -4 -70 3 -55 5 -121 5 -147 0 -41 2 -46
18 -41 15 6 15 4 -2 -15 -13 -15 -16 -29 -12 -47 6 -24 5 -26 -16 -20 -13 4
-28 12 -35 17 -16 13 -36 0 -29 -19 3 -8 1 -11 -4 -8 -13 8 -13 -1 0 -26 15
-26 47 -24 87 7 18 14 33 21 33 16 0 -5 -11 -15 -25 -22 -18 -10 -24 -19 -20
-34 3 -12 2 -15 -1 -8 -3 6 -21 12 -40 12 -22 0 -37 6 -40 15 -4 8 -9 13 -13
11 -3 -2 -7 12 -8 32 -2 27 0 33 7 22 5 -8 10 -10 10 -5 0 6 -4 16 -9 24 -11
18 -22 0 -21 -36 1 -30 -22 -180 -39 -253 -15 -63 -14 -67 12 -75 21 -8 21 -8
-5 -12 -25 -4 -30 -13 -59 -101 -18 -53 -32 -105 -33 -114 0 -9 -2 -15 -5 -12
-3 2 -15 -19 -27 -48 -12 -29 -18 -54 -13 -56 5 -2 9 -8 9 -13 0 -4 -6 -6 -14
-3 -7 3 -16 -2 -19 -10 -4 -10 -1 -13 7 -10 7 3 20 -11 31 -36 18 -39 18 -41
0 -74 -11 -19 -21 -34 -24 -34 -27 2 -33 -3 -21 -17 9 -11 10 -19 1 -28 -9
-11 -18 -72 -21 -134 0 -7 -9 -13 -20 -13 -17 0 -20 -7 -20 -45 0 -37 -3 -45
-18 -45 -21 0 -27 39 -25 173 1 108 3 117 22 118 10 0 8 4 -6 9 -28 12 -29 26
-2 70 22 35 28 62 32 141 1 39 4 44 15 30 10 -14 11 -12 6 12 -7 29 -5 31 20
21 9 -3 13 -10 10 -15 -3 -5 -10 -7 -15 -4 -5 3 -6 -1 -3 -9 12 -31 31 -11 25
27 0 4 3 7 8 7 11 0 60 134 65 178 3 27 0 32 -19 32 -18 0 -22 -6 -23 -30 0
-21 3 -28 11 -24 9 5 9 4 0 -6 -6 -7 -9 -18 -7 -25 3 -7 1 -16 -5 -20 -6 -3
-11 -14 -11 -24 0 -10 -6 -24 -14 -31 -8 -6 -12 -18 -9 -26 6 -16 -5 -18 -26
-5 -12 8 -12 12 -2 24 9 12 9 16 0 19 -8 3 -10 11 -6 22 4 9 12 14 18 10 8 -5
8 -1 0 14 -15 27 -15 53 0 32 8 -12 9 -10 4 8 -3 12 -2 22 3 22 6 0 8 10 5 21
-5 17 -12 6 -35 -50 -15 -40 -25 -77 -22 -83 4 -7 2 -8 -4 -4 -7 4 -12 2 -12
-3 0 -6 -11 -11 -25 -11 -18 0 -25 5 -25 19 0 11 5 23 11 26 6 4 8 13 5 21 -3
7 -1 16 5 19 8 5 39 69 39 81 0 2 -21 4 -46 4 -32 0 -44 -4 -42 -12 3 -7 -6
-37 -19 -65 -14 -29 -22 -57 -18 -63 3 -5 2 -10 -3 -10 -12 0 -34 -49 -27 -60
3 -5 -1 -12 -8 -17 -27 -16 -37 -49 -26 -82 9 -24 8 -35 -2 -48 -12 -15 -12
-16 5 -10 16 6 17 5 6 -8 -7 -8 -16 -13 -20 -10 -5 3 -6 -5 -2 -17 4 -18 2
-20 -14 -14 -15 6 -17 5 -6 -5 15 -16 16 -33 0 -23 -6 4 -8 3 -5 -3 4 -6 -2
-18 -12 -27 -11 -10 -22 -32 -25 -51 -7 -33 -29 -51 -48 -38 -7 3 -8 1 -4 -5
9 -15 -34 -141 -56 -166 -10 -11 -18 -30 -18 -42 0 -12 -3 -36 -6 -53 -5 -24
-3 -31 10 -31 10 0 17 9 17 23 2 21 2 21 6 1 3 -16 12 -21 43 -22 35 -2 40 1
40 21 0 17 2 19 9 7 6 -8 7 -18 5 -22 -3 -4 15 -8 40 -8 37 0 46 4 47 18 1 16
2 16 6 0 3 -13 15 -18 43 -18 32 0 39 4 43 23 l4 22 8 -22 c8 -24 35 -32 35
-10 0 8 3 8 9 -2 8 -12 12 -12 26 2 9 9 13 22 9 28 -4 8 -3 9 4 5 7 -4 12 -16
12 -27 0 -16 7 -19 40 -19 31 0 40 4 41 18 1 16 2 16 6 0 3 -13 15 -18 43 -18
28 0 40 5 43 18 3 9 4 -68 4 -173 -1 -104 -3 -148 -4 -97 l-4 92 -39 0 c-38 0
-40 -2 -40 -30 0 -28 3 -30 38 -32 l37 -1 -37 -4 c-34 -4 -38 -7 -38 -34 0
-29 9 -33 57 -32 7 1 10 -3 7 -8 -3 -5 -18 -9 -35 -9 -26 0 -29 -3 -29 -30 0
-28 2 -30 39 -30 22 0 42 5 44 13 3 7 6 5 6 -5 1 -15 -8 -18 -44 -18 -43 0
-45 -1 -45 -30 0 -29 2 -30 45 -30 25 0 45 -3 45 -8 0 -4 -20 -6 -45 -4 l-45
4 0 -36 c0 -35 1 -36 38 -38 l37 -1 -37 -4 c-34 -4 -38 -7 -38 -34 0 -28 2
-29 48 -31 l47 -2 -47 -3 c-46 -4 -48 -6 -48 -34 0 -28 2 -29 45 -29 25 0 45
-4 45 -10 0 -5 -20 -10 -45 -10 -43 0 -45 -1 -45 -30 0 -28 3 -30 38 -32 l37
-1 -37 -4 c-33 -4 -38 -8 -39 -31 l-2 -27 -4 28 c-4 24 -8 27 -44 27 -24 0
-39 -5 -40 -12 0 -10 -2 -10 -6 0 -2 7 -22 12 -44 12 -37 0 -39 -2 -39 -30 l0
-29 103 -4 c56 -1 -8 -4 -143 -6 -135 -2 -267 -4 -295 -6 -27 -1 -80 -3 -117
-4 -58 -1 -68 -4 -68 -18 0 -15 2 -16 10 -3 5 8 10 10 10 5 0 -24 -73 -116
-115 -145 -83 -57 -366 -185 -381 -172 -4 4 -4 -1 -1 -11 4 -10 7 -36 7 -57 0
-31 6 -43 30 -60 l29 -21 42 21 41 21 34 -23 c29 -20 34 -29 34 -64 0 -38 -3
-42 -39 -59 -39 -17 -41 -17 -74 3 -29 18 -36 20 -53 8 -39 -27 -63 -28 -95
-6 -27 20 -32 21 -47 7 -32 -27 -60 -30 -97 -7 -32 20 -36 20 -66 5 -59 -31
-122 7 -112 69 5 31 2 36 -31 58 -32 20 -36 28 -36 65 0 40 3 44 40 63 l41 21
31 -22 c30 -22 31 -22 65 -4 34 19 34 19 11 28 -15 6 -18 11 -10 14 10 4 6 9
-10 17 -12 7 -22 18 -20 25 1 7 -2 10 -7 7 -5 -4 -12 2 -16 13 -3 10 -13 21
-23 25 -25 8 -55 29 -69 48 -7 9 -27 19 -43 23 -17 4 -30 10 -30 15 0 5 -9 12
-21 15 -11 4 -18 12 -16 19 4 10 -27 12 -141 10 -81 -2 -175 -5 -209 -8 -38
-3 -63 -1 -63 5 0 13 -52 58 -67 59 -7 0 -13 9 -13 19 0 11 -3 21 -7 23 -9 3
-74 100 -92 134 -5 12 -8 24 -5 27 3 3 -1 16 -10 29 -14 21 -21 66 -27 168 -2
33 -2 33 -9 -10 -7 -45 -7 -45 -8 17 -1 34 -6 64 -11 67 -4 3 -11 25 -15 48
-17 114 -18 120 -27 107 -7 -12 -9 -12 -9 0 0 19 -48 62 -71 64 -10 1 -16 4
-15 7 2 3 -6 14 -17 25 -11 11 -16 13 -12 5 6 -12 5 -13 -6 -2 -7 6 -21 12
-31 12 -10 0 -21 7 -24 15 -4 8 -15 15 -26 15 -10 0 -16 5 -13 10 3 6 0 13 -8
16 -8 3 -17 14 -20 25 -4 14 -14 19 -36 19 -17 0 -30 3 -29 8 3 9 -34 52 -44
52 -5 0 -9 -37 -10 -82 l-2 -83 -3 83 c-4 80 -5 82 -28 82 -24 0 -25 -3 -26
-57 -1 -32 -4 -83 -9 -113 -6 -47 -7 -39 -9 58 l-1 112 -25 0 c-24 0 -25 -3
-27 -57 l-1 -58 -6 55 c-6 54 -7 56 -36 55 -27 0 -30 -3 -28 -30 1 -20 0 -23
-4 -7 -6 27 -11 28 -40 0 -16 -15 -24 -34 -25 -62 l-1 -41 -4 38 c-4 35 -15
47 -27 28 -3 -4 -26 -14 -51 -21 -34 -10 -45 -18 -46 -34 -1 -16 -2 -17 -6 -4
-4 17 -82 18 -1346 20 l-1342 3 -67 33 c-48 23 -83 51 -122 94 -98 110 -91 27
-94 1113 -2 682 0 967 8 1010 16 82 45 139 100 195 58 59 127 95 212 110 l65
12 6 106 c7 111 30 248 66 387 95 370 298 698 555 897 243 188 527 258 821
202z m7780 -54 c4 -14 15 -20 36 -20 37 0 57 -35 40 -69 -17 -31 2 -61 38 -61
37 0 59 -37 40 -69 -9 -13 -24 -21 -41 -21 -18 0 -29 -7 -33 -20 -4 -14 -15
-20 -36 -20 -18 0 -33 7 -41 20 -8 12 -24 20 -40 20 -17 0 -31 8 -38 20 -7 13
-21 20 -39 20 -20 0 -31 7 -39 25 -8 17 -20 25 -36 25 -13 0 -29 7 -36 16 -18
21 -1 68 25 73 18 3 17 1 -4 -16 -30 -25 -22 -63 14 -63 27 0 43 33 25 55 -15
18 25 65 57 65 12 0 28 9 35 20 8 12 24 20 40 20 18 0 29 -7 33 -20z m-4299
-25 c5 -13 118 -15 934 -15 826 0 929 2 940 16 20 23 64 14 68 -14 7 -47 -46
-71 -70 -32 -13 20 -24 20 -935 20 -913 0 -923 0 -943 -20 -16 -16 -25 -18
-40 -10 -19 10 -27 49 -13 63 12 13 54 7 59 -8z m-376 -255 c19 -19 36 -20
444 -22 404 -3 425 -2 430 15 3 14 12 18 38 15 30 -3 33 -6 33 -38 0 -29 -4
-36 -23 -38 -14 -2 -33 5 -47 18 l-24 22 -416 -3 c-390 -4 -418 -5 -427 -22
-7 -13 -19 -17 -41 -15 -27 3 -33 8 -35 33 -3 19 2 33 14 42 24 17 31 16 54
-7z m-7360 -110 c19 -19 33 -20 471 -20 l451 0 18 22 c15 19 22 21 46 13 34
-12 43 -45 19 -69 -22 -21 -42 -20 -62 4 -17 19 -30 20 -470 20 -440 0 -454
-1 -473 -20 -25 -25 -42 -25 -65 0 -16 18 -17 23 -5 45 16 30 43 32 70 5z
m12895 -92 c4 -24 5 -63 3 -88 l-3 -45 -80 2 c-44 1 -84 2 -88 3 -12 0 -4 130
8 130 93 5 148 17 140 31 -4 5 -2 9 4 9 5 0 13 -19 16 -42z m-207 -64 l-3 -65
-88 -2 -87 -2 0 43 0 43 36 -7 c24 -4 35 -3 31 3 -4 6 5 10 21 10 30 0 72 9
80 18 3 3 -34 5 -81 5 -51 0 -87 4 -87 10 0 6 37 10 90 10 l91 0 -3 -66z
m-4289 -128 c44 -47 44 -115 -1 -163 -46 -49 -116 -20 -142 60 -5 16 -29 17
-326 17 -306 0 -320 -1 -320 -19 0 -10 -7 -24 -15 -31 -12 -10 -15 -44 -15
-185 0 -144 2 -174 15 -179 19 -7 19 -50 0 -66 -19 -16 -52 -4 -60 21 -5 14 0
28 14 43 20 21 21 34 21 187 0 153 -1 165 -20 177 -11 7 -20 21 -20 32 0 20
-7 20 -325 20 l-325 0 0 -25 c0 -23 -3 -25 -50 -25 l-50 0 0 54 c0 60 7 66 65
63 25 -2 31 -7 33 -29 l3 -28 687 3 687 2 3 21 c2 12 15 32 29 45 l27 24 -22
-29 c-27 -35 -29 -66 -4 -67 13 -1 12 -3 -5 -7 -20 -7 -21 -9 -8 -39 26 -62
101 -69 130 -13 34 65 8 135 -56 150 l-34 8 31 1 c20 1 38 -7 53 -23z m-6731
-228 l3 -68 -71 0 -70 0 0 35 0 35 -777 2 -778 3 778 2 777 3 0 23 c0 34 8 38
75 35 l60 -3 3 -67z m-5108 -318 c30 0 30 0 32 63 l2 62 3 -62 4 -63 59 0 60
0 2 38 1 37 4 -38 c4 -35 7 -38 31 -35 25 3 27 7 33 58 l6 55 1 -57 2 -58 33
-2 32 -1 -32 -4 c-29 -4 -33 -8 -35 -36 l-1 -32 -4 33 c-4 28 -8 32 -34 32
l-29 0 -2 -82 -2 -83 -3 83 -4 82 -59 0 -60 0 -2 -52 -2 -53 -3 53 -4 52 -95
0 -94 0 -1 -27 -2 -28 -4 28 c-4 22 -9 27 -33 27 -25 0 -29 -4 -33 -32 -2 -18
-4 -6 -4 27 0 33 2 50 4 38 3 -18 11 -23 34 -23 l29 0 2 93 2 92 3 -92 4 -93
59 0 60 0 2 128 2 127 3 -127 4 -128 29 0z m-327 2 c18 3 43 2 57 -3 14 -4
-46 -7 -132 -8 l-158 -1 -2 -32 -1 -33 -4 33 c-4 28 -8 32 -34 32 l-29 0 -2
-77 -2 -78 -3 78 -4 77 -59 0 -60 0 -2 -72 -2 -73 -3 73 c-4 70 -4 72 -31 73
l-27 2 28 4 c25 4 27 8 29 51 l2 47 3 -47 4 -48 60 0 59 0 2 48 2 47 3 -47 c4
-46 6 -48 34 -48 l29 0 2 88 2 87 3 -87 4 -88 59 0 60 0 2 68 2 67 3 -67 c4
-68 4 -68 33 -68 l30 0 2 123 2 122 3 -124 4 -124 32 5z m1698 92 c-17 -19
-31 -38 -31 -43 0 -5 14 -25 30 -46 23 -30 30 -48 30 -84 0 -52 3 -54 -78 51
-29 37 -52 72 -52 78 0 9 28 48 95 133 l30 37 3 -45 c3 -39 -1 -51 -27 -81z
m130 4 c-17 -23 -31 -45 -31 -50 0 -4 14 -23 31 -42 25 -29 30 -42 27 -75 l-3
-41 -60 75 c-33 42 -60 80 -60 85 0 5 27 44 60 87 l60 78 3 -38 c3 -29 -3 -47
-27 -79z m11504 12 c10 -11 23 -20 29 -20 5 0 22 -12 37 -26 23 -22 27 -23 26
-7 -2 15 5 18 41 16 26 -1 42 3 43 10 1 7 5 -10 9 -38 4 -27 3 -53 -2 -56 -19
-12 -116 -8 -134 6 -17 13 -17 14 -1 9 13 -5 16 -2 10 12 -5 14 -3 16 12 11
15 -6 16 -5 6 7 -11 13 -17 12 -47 -6 -19 -11 -37 -24 -40 -29 -15 -25 -24 -2
-24 61 0 39 4 70 8 70 5 0 17 -9 27 -20z m-3355 -295 c12 -15 5 -55 -11 -55
-5 0 -8 -153 -7 -387 1 -214 4 -363 7 -333 l6 55 88 3 c78 2 87 1 88 -15 0
-10 3 -52 5 -93 l5 -75 -118 0 -118 0 -3 26 c-2 15 4 33 12 42 14 14 16 65 16
395 0 328 -2 381 -15 386 -28 11 -11 66 21 66 6 0 17 -7 24 -15z m1821 -181
l2 -61 71 -6 c39 -3 101 -13 138 -22 86 -22 212 -84 216 -107 5 -25 -19 -23
-77 6 -109 56 -177 71 -316 71 -141 0 -229 -19 -327 -72 -48 -26 -68 -24 -68
6 0 32 175 101 294 116 30 4 55 10 54 14 -2 21 3 124 6 120 3 -2 6 -32 7 -65z
m-10244 -217 c83 -29 160 -86 211 -157 37 -50 47 -58 94 -69 115 -26 210 -100
256 -199 22 -47 27 -73 28 -145 1 -59 7 -94 16 -105 82 -98 22 -274 -100 -298
-18 -4 -32 -10 -32 -15 0 -22 -71 -85 -123 -110 -81 -38 -179 -53 -314 -47
l-113 5 0 -33 0 -34 273 -2 272 -3 3 -112 3 -113 42 0 c72 0 82 -14 82 -115 0
-112 -4 -115 -140 -115 -135 0 -138 2 -139 114 -1 100 9 116 76 116 l38 0 0
90 0 90 -165 0 -165 0 0 -90 0 -90 37 0 c60 0 73 -20 73 -113 0 -113 -5 -117
-137 -117 -134 0 -143 7 -143 115 0 91 17 115 80 115 l40 0 0 90 0 90 -161 0
-161 0 4 -87 5 -88 39 -3 c63 -6 74 -22 74 -118 0 -109 -6 -114 -147 -114
-130 0 -133 3 -133 115 0 100 10 115 76 115 l44 0 0 90 0 90 -165 0 -165 0 0
-90 0 -90 43 0 c72 0 82 -14 82 -115 0 -112 -4 -115 -140 -115 -131 0 -137 4
-142 101 -5 98 7 123 64 127 52 4 58 18 48 117 -11 123 -30 115 285 115 l270
0 0 43 0 42 -66 31 c-64 30 -67 30 -108 16 -58 -21 -184 -27 -248 -12 -65 15
-133 52 -154 85 -12 18 -25 25 -49 25 -115 0 -200 112 -174 228 12 54 41 95
85 118 24 13 32 23 28 34 -69 159 38 315 216 313 l65 0 24 55 c47 106 177 215
287 241 70 16 155 12 221 -12z m9013 -206 l0 -89 -32 3 c-18 2 -59 3 -91 4
l-58 1 2 85 2 84 81 3 c44 2 84 2 89 0 4 -2 7 -43 7 -91z m210 4 l0 -95 -90 0
-90 0 0 88 c0 49 3 92 7 95 3 4 44 7 90 7 l83 0 0 -95z m-5942 25 c18 -11 41
-34 52 -52 20 -32 20 -48 18 -585 l-3 -551 -23 -31 -23 -31 124 0 123 0 -4
-35 c-3 -22 -15 -47 -34 -65 l-30 -30 -1088 0 c-762 0 -1096 3 -1113 11 -29
13 -57 58 -57 93 l0 26 127 0 127 0 -30 31 -29 30 0 559 c0 549 0 559 21 587
11 15 36 36 55 45 32 17 95 18 894 18 841 0 861 -1 893 -20z m852 -509 c10
-21 4 -51 -11 -51 -5 0 -9 -168 -9 -390 0 -222 4 -390 9 -390 15 0 21 -31 10
-51 -15 -29 -53 -21 -57 12 -2 14 4 31 12 39 23 19 24 761 1 780 -15 13 -20
51 -8 63 13 14 43 7 53 -12z m6902 -551 c-4 -89 -66 -391 -100 -487 -17 -50
-32 -78 -42 -78 -22 0 -18 33 24 180 20 71 46 197 57 280 24 178 24 177 46
173 15 -3 18 -13 15 -68z m-12299 -425 c12 -12 85 -15 453 -17 242 -2 466 -6
499 -9 33 -3 -166 -6 -442 -7 -303 -1 -503 -6 -503 -11 0 -5 -9 -13 -20 -16
-39 -12 -66 35 -38 63 16 16 33 15 51 -3z m11836 -44 c8 -5 11 -16 7 -26 -7
-19 17 -59 29 -47 5 4 5 1 1 -5 -11 -19 4 -38 16 -22 7 10 8 8 2 -6 -4 -11 -8
-32 -8 -48 -1 -25 -2 -26 -15 -10 -13 17 -13 17 -9 -2 4 -18 1 -20 -36 -16
-23 2 -46 7 -53 13 -7 6 -14 4 -20 -5 -10 -18 -53 -41 -61 -33 -3 3 0 6 7 6 8
0 9 5 1 19 -6 12 -6 22 -1 26 11 6 91 124 91 134 0 8 22 31 30 31 3 0 11 -4
19 -9z m-7484 -626 l0 -110 -40 0 -40 0 -3 99 c-1 55 0 106 3 113 3 10 17 13
42 11 l38 -3 0 -110z m-455 -5 c0 -115 0 -116 -57 -104 -22 4 -23 9 -23 103 0
106 2 110 53 108 l27 -1 0 -106z m108 92 c9 -6 12 -34 10 -103 l-3 -94 -37 -3
-38 -3 0 105 0 106 28 0 c15 0 33 -4 40 -8z m-1228 -172 c17 0 20 8 22 43 l1
42 4 -42 4 -43 50 0 49 0 2 53 2 52 3 -52 c3 -45 7 -53 24 -53 14 0 19 7 19
26 0 14 4 23 9 20 5 -3 7 -15 4 -26 -5 -18 0 -20 46 -20 49 0 51 1 52 28 l2
27 4 -27 c2 -16 9 -28 14 -28 5 0 9 -5 9 -11 0 -5 -4 -7 -10 -4 -6 4 -11 -14
-12 -47 l-2 -53 -3 51 c-4 46 -6 51 -23 47 -15 -4 -20 -15 -22 -42 l-1 -36 -4
38 c-3 24 -9 37 -19 37 -8 0 -17 1 -21 3 -5 1 -9 -17 -9 -41 -2 -62 -14 -65
-14 -4 0 45 -3 52 -20 52 -15 0 -20 -7 -21 -27 -1 -23 -3 -24 -6 -6 -5 27 -22
33 -67 26 -33 -5 -36 -8 -37 -42 l-2 -36 -6 40 c-6 40 -6 40 -51 40 -45 0 -45
0 -51 -40 -4 -26 -6 -7 -6 50 0 50 2 71 4 48 4 -38 7 -43 29 -43 23 0 24 3 26
78 l2 77 3 -77 c3 -70 6 -78 23 -78z m-1442 -259 c9 -1 12 -29 12 -106 l0
-105 -100 0 -100 0 0 103 c0 57 2 106 4 108 4 3 142 3 184 0z m758 -140 c-2
-16 -13 -42 -25 -57 l-21 -27 31 -31 c17 -17 34 -39 38 -49 6 -16 9 -17 19 -5
9 11 6 22 -16 52 l-26 38 24 18 c18 13 28 16 37 8 7 -6 10 -14 7 -20 -3 -5 6
-24 20 -43 14 -18 26 -43 26 -54 0 -12 5 -21 11 -21 5 0 7 5 3 12 -5 8 -2 9 9
5 27 -10 30 11 8 48 -12 22 -16 35 -9 35 16 0 88 -50 88 -61 0 -5 11 -9 25 -9
18 0 23 4 19 15 -4 8 -2 15 2 15 14 -1 54 -37 54 -49 0 -6 8 -15 18 -20 11 -6
37 -35 60 -65 58 -77 87 -106 104 -106 9 0 23 -11 32 -25 9 -14 37 -45 61 -70
64 -63 60 -100 -9 -101 -22 -1 -42 -6 -44 -12 -2 -6 -9 -9 -15 -7 -44 13 -77
13 -77 1 0 -8 -9 -16 -21 -19 -14 -4 -18 -10 -13 -18 5 -9 2 -10 -11 -6 -12 5
-24 0 -39 -16 -20 -21 -63 -27 -51 -6 7 10 10 10 -76 12 -65 2 -88 13 -102 47
-3 8 -7 -43 -8 -115 l-3 -130 -7 125 c-7 131 -16 190 -29 190 -4 0 -10 8 -13
18 -2 9 -8 26 -12 37 -5 14 -4 16 3 6 6 -8 12 -9 16 -3 3 6 2 13 -3 17 -6 3
-7 13 -4 23 3 9 -5 4 -18 -13 -40 -50 -47 -55 -76 -54 l-28 2 28 4 c35 6 62
51 41 71 -8 7 -14 9 -14 4 0 -5 -12 -14 -27 -21 -25 -12 -30 -10 -51 15 -16
18 -22 34 -18 50 4 13 1 25 -7 28 -9 5 -9 7 1 12 7 3 19 19 27 35 l16 29 -39
0 c-34 0 -41 -4 -57 -35 -27 -48 -31 -36 -5 14 11 23 26 41 33 42 9 0 9 2 0 6
-23 9 -13 20 15 17 15 -2 34 1 42 6 12 7 12 11 -1 27 -13 17 -13 17 4 4 32
-25 27 -6 -12 44 l-39 50 28 35 c34 43 69 80 75 80 3 0 3 -13 1 -29z m5272
-103 c0 -50 -2 -97 -5 -105 -4 -9 -30 -13 -99 -13 l-94 0 0 105 0 105 99 0 99
0 0 -92z m-2950 56 c27 -19 28 -45 2 -69 -17 -15 -24 -16 -45 -7 -14 6 -25 16
-25 22 0 7 -248 10 -755 10 -739 0 -755 0 -775 -20 -30 -30 -65 -13 -65 31 0
31 3 34 33 37 27 3 35 -1 39 -18 l6 -22 751 3 751 2 22 24 c26 27 31 28 61 7z
m-4518 -298 c0 -22 -10 -46 -30 -71 -16 -21 -30 -41 -30 -44 0 -3 14 -21 30
-40 22 -24 30 -44 30 -70 l-1 -36 -64 70 c-35 39 -64 73 -65 76 0 7 119 149
125 149 3 0 5 -15 5 -34z m4505 -320 c11 -7 52 -15 90 -18 57 -3 85 -12 150
-44 44 -23 97 -43 118 -47 l37 -6 2 67 2 67 3 -67 c4 -66 5 -68 31 -69 27 -1
27 -1 -3 -8 l-30 -6 35 -26 c19 -14 64 -46 100 -72 80 -57 112 -86 135 -120
16 -24 16 -27 1 -27 -24 0 -19 -17 7 -24 12 -3 72 -6 133 -6 l110 0 48 -70 48
-70 359 0 c204 0 359 4 359 9 0 13 30 22 51 16 43 -14 29 -85 -17 -85 -17 0
-27 8 -34 25 l-10 25 -357 0 -358 0 -45 70 -45 70 -175 -1 c-96 -1 -261 -1
-366 0 l-192 1 -42 69 c-40 67 -62 87 -81 75 -5 -3 -9 0 -9 6 0 6 -4 8 -10 5
-5 -3 -10 -2 -10 3 0 5 -15 12 -32 16 -18 4 -49 17 -68 30 -19 13 -46 27 -60
31 -13 4 -38 20 -54 36 -32 30 -46 36 -46 19 0 -5 5 -10 12 -10 6 0 8 -3 5 -7
-4 -3 -1 -13 7 -22 37 -44 48 -144 17 -161 -36 -19 -64 -6 -80 37 -13 38 -13
42 7 67 11 15 18 34 15 42 -3 8 -1 14 4 14 5 0 9 33 9 73 l-1 72 76 0 c58 0
79 4 93 18 21 21 35 21 61 3z m-3123 -244 c10 -7 18 -20 18 -28 0 -12 50 -14
328 -16 l327 -2 -340 -7 c-187 -4 -347 -7 -355 -7 -665 7 -1080 7 -1080 -1 0
-6 -9 -15 -20 -21 -40 -22 -80 26 -48 58 16 16 43 15 58 -3 11 -13 82 -15 530
-15 484 0 518 1 524 18 15 39 31 62 35 50 2 -7 12 -19 23 -26z m2608 -37 l0
-75 -65 0 -65 0 0 75 0 75 65 0 65 0 0 -75z m190 -5 l0 -81 -72 3 -73 3 -3 64
c-2 35 -1 70 2 77 4 10 26 14 76 14 l70 0 0 -80z m2400 -85 l0 -75 -70 0 -70
0 0 75 0 75 70 0 70 0 0 -75z m180 -5 l0 -80 -70 0 -70 0 0 80 0 80 70 0 70 0
0 -80z m-2585 -69 c-1 -14 -3 -47 -4 -73 l-1 -48 -67 1 c-38 1 -56 4 -40 6 33
5 55 38 31 47 -8 3 -24 1 -35 -4 -18 -10 -19 -7 -19 45 l0 55 69 -1 c69 -1 70
-1 66 -28z m2585 -136 l0 -75 -70 0 -70 0 0 75 0 75 70 0 70 0 0 -75z m-756
-153 c64 -35 75 -52 52 -86 -17 -27 -43 -41 -86 -48 -32 -4 -70 60 -70 120 0
39 2 42 28 42 15 0 49 -13 76 -28z m559 4 c70 -30 137 -129 137 -203 0 -32
-23 -83 -52 -113 -13 -14 -49 -61 -80 -105 -31 -44 -70 -97 -87 -119 -36 -46
-39 -79 -13 -157 11 -30 17 -60 15 -66 -6 -18 -83 -16 -128 2 -50 22 -68 13
-94 -46 -29 -67 -98 -168 -170 -249 -32 -36 -70 -87 -86 -115 -37 -65 -62 -85
-106 -85 -25 0 -49 -10 -80 -34 -53 -40 -109 -69 -168 -87 -26 -8 -46 -20 -48
-30 -7 -26 -32 -31 -86 -17 -41 10 -61 10 -132 -5 -90 -19 -165 -22 -165 -8 0
5 19 23 43 41 l42 31 97 -6 97 -7 28 31 c16 17 44 36 63 42 19 6 47 23 62 37
15 14 44 28 65 32 22 3 37 11 35 18 -4 21 35 85 73 122 21 19 54 60 74 90 47
71 106 150 153 204 23 26 41 60 48 89 5 26 14 55 19 65 37 77 44 96 43 134 0
58 22 133 49 160 12 13 27 37 35 55 8 17 22 34 33 38 22 7 121 111 121 127 0
5 13 28 28 51 16 23 32 50 35 60 6 15 37 35 60 36 4 1 22 -5 40 -13z m-3814
-73 c1 -42 3 -81 4 -87 1 -6 -10 -12 -25 -14 -36 -4 -36 -20 -2 -24 26 -3 27
-4 29 -91 3 -82 1 -89 -18 -96 l-22 -8 23 -7 c12 -4 22 -15 22 -24 0 -13 -2
-14 -9 -4 -7 11 -10 10 -15 -3 -3 -9 -4 -21 0 -26 11 -18 -38 -87 -65 -92 -14
-3 -36 -8 -48 -12 -17 -6 -23 -3 -23 9 0 9 -6 13 -14 10 -8 -3 -17 0 -21 5 -9
16 -25 3 -25 -19 0 -10 -4 -21 -8 -24 -13 -8 -52 5 -46 15 3 5 1 9 -4 9 -6 0
-13 12 -17 27 -3 15 -11 30 -16 34 -6 3 -6 16 1 34 8 21 8 30 0 35 -15 9 12
20 51 20 45 0 26 17 -26 23 -25 2 -49 8 -52 11 -4 4 -2 21 5 39 6 18 12 53 13
79 l2 46 46 5 c25 3 49 3 53 0 5 -2 9 -28 9 -56 l1 -52 9 54 c5 30 11 56 13
58 2 2 28 4 59 6 77 3 73 17 -4 17 l-62 0 6 81 c3 52 10 85 19 90 7 5 45 9 84
9 l71 0 2 -77z m2795 -113 c109 -67 171 -232 115 -304 -11 -14 -51 -47 -87
-73 -37 -26 -107 -87 -157 -135 -49 -47 -108 -101 -131 -120 -41 -33 -113
-140 -175 -258 -19 -36 -56 -86 -82 -112 l-48 -46 14 -43 c10 -29 12 -52 6
-72 -13 -45 4 -65 69 -82 101 -28 120 -40 114 -71 -7 -39 -183 -212 -263 -257
-35 -21 -71 -41 -79 -46 -8 -5 -38 -19 -67 -31 -41 -18 -55 -20 -66 -11 -8 6
-22 9 -31 5 -14 -5 -15 3 -10 72 4 44 12 86 18 94 18 23 37 71 31 79 -2 5 -37
9 -77 10 -40 1 -84 4 -98 8 -29 7 -80 51 -80 70 0 7 -5 13 -12 13 -6 0 -4 8 6
19 10 11 38 22 64 26 26 3 63 17 82 30 19 12 57 28 84 34 72 18 128 49 124 69
-4 18 -47 22 -80 8 -15 -7 -18 -3 -18 18 0 45 27 95 88 159 32 34 89 100 126
147 38 47 90 105 115 130 103 102 133 142 126 167 -7 30 11 55 129 177 47 48
86 92 86 96 0 4 12 29 28 56 15 27 27 60 28 74 2 60 15 101 37 110 32 13 36
12 71 -10z m1929 -273 c45 -19 104 -88 117 -136 13 -49 0 -79 -99 -221 -83
-121 -155 -198 -254 -270 -43 -32 -120 -105 -172 -163 -63 -70 -112 -115 -147
-134 -29 -17 -84 -49 -122 -72 -71 -44 -144 -61 -201 -47 -25 6 -23 9 49 56
43 28 86 65 101 88 14 21 46 53 70 70 30 21 52 47 64 75 24 56 43 71 78 62 63
-18 102 9 131 93 10 29 29 63 40 75 12 13 39 56 60 96 20 40 41 82 47 92 5 10
13 19 17 19 4 0 19 20 33 44 14 24 32 47 40 50 10 3 15 19 15 44 0 23 6 45 15
52 8 7 15 19 15 26 0 8 7 14 15 14 15 0 17 4 20 53 1 16 8 33 16 38 18 11 14
11 52 -4z"/>
<path d="M9615 7669 c-294 -35 -572 -355 -681 -782 -28 -111 -54 -271 -54
-334 l0 -43 800 0 800 0 0 53 c0 69 -23 208 -55 332 -98 375 -338 680 -595
755 -80 23 -137 28 -215 19z"/>
<path d="M9615 5911 c-84 -22 -153 -79 -197 -164 -16 -31 -22 -60 -22 -112 -1
-107 46 -192 144 -256 l24 -16 -127 -384 c-70 -211 -127 -390 -127 -397 0 -29
31 -70 64 -86 29 -14 75 -16 305 -16 291 0 327 5 351 50 7 12 12 38 12 58 0
19 -55 201 -123 405 l-123 370 24 16 c41 25 99 89 122 134 31 61 31 176 -1
237 -31 61 -76 107 -135 137 -53 27 -139 38 -191 24z"/>
<path d="M14264 5092 c0 -20 -6 -38 -12 -40 -6 -2 -9 -11 -6 -20 2 -9 -2 -3
-10 13 -13 25 -15 26 -16 9 0 -29 -11 -36 -25 -17 -11 15 -14 12 -25 -27 -7
-25 -18 -63 -25 -85 l-12 -41 50 1 50 0 14 65 c8 36 19 87 25 113 6 28 7 52 2
57 -5 5 -9 -7 -10 -28z"/>
<path d="M3157 6201 c-104 -42 -197 -141 -236 -250 -10 -25 -21 -46 -26 -46
-6 1 -31 5 -56 9 -155 27 -276 -127 -194 -248 33 -48 32 -62 -5 -69 -45 -9
-79 -36 -101 -78 -24 -48 -24 -73 1 -127 22 -49 78 -81 145 -82 34 -1 43 -6
60 -32 32 -50 83 -70 191 -76 79 -4 104 -1 159 17 l65 22 30 -21 c169 -121
577 -88 643 51 12 28 25 37 60 46 48 13 102 65 113 108 10 39 -4 88 -33 119
-25 27 -27 35 -24 107 1 42 -3 95 -9 117 -24 93 -142 194 -240 208 -70 9 -73
11 -102 63 -35 62 -96 116 -167 149 -75 36 -203 41 -274 13z m223 -154 c69
-36 130 -139 130 -219 0 -19 9 -31 35 -47 l35 -20 0 -190 c0 -185 -1 -190 -22
-205 -19 -13 -61 -16 -260 -16 -225 0 -239 1 -258 20 -18 18 -20 33 -20 194 0
96 3 182 6 191 4 8 19 22 34 30 22 11 28 23 32 59 10 86 74 182 143 212 45 20
97 17 145 -9z"/>
<path d="M3265 5980 c-47 -19 -95 -100 -95 -160 l0 -30 135 0 c151 0 144 -4
120 76 -29 94 -95 141 -160 114z"/>
<path d="M3264 5665 c-15 -23 -15 -27 0 -51 16 -24 16 -29 -5 -91 -24 -73 -20
-83 38 -83 69 0 74 10 43 96 -17 49 -17 58 -5 71 19 19 19 48 -1 67 -23 23
-51 20 -70 -9z"/>
<path d="M2660 4695 l0 -65 95 0 95 0 0 65 0 65 -95 0 -95 0 0 -65z"/>
<path d="M3024 4698 l1 -63 93 -3 92 -3 0 66 0 65 -94 0 -94 0 2 -62z"/>
<path d="M3390 4695 l0 -65 95 0 95 0 0 65 0 65 -95 0 -95 0 0 -65z"/>
<path d="M3770 4695 l0 -65 95 0 95 0 0 65 0 65 -95 0 -95 0 0 -65z"/>
<path d="M4950 5435 l0 -525 518 0 c401 0 521 3 531 13 11 10 14 10 18 0 6
-16 86 -17 114 -3 13 7 19 7 19 0 0 -6 81 -10 240 -10 l240 0 0 524 0 525
-840 1 -840 0 0 -525z m923 421 c55 -22 124 -109 147 -183 11 -36 20 -78 20
-94 0 -19 5 -29 15 -29 9 0 27 -11 40 -25 25 -24 25 -24 25 -232 -1 -218 -3
-228 -47 -251 -29 -16 -532 -17 -566 -1 -42 19 -47 48 -47 250 0 206 8 243 53
254 19 5 25 17 35 73 21 109 74 191 152 232 42 23 127 26 173 6z"/>
<path d="M5704 5735 c-29 -29 -48 -62 -59 -96 -28 -95 -37 -89 145 -89 182 0
173 -6 144 91 -11 37 -29 67 -59 96 -37 37 -48 43 -85 43 -38 0 -49 -5 -86
-45z"/>
<path d="M5750 5410 c-25 -25 -25 -41 -1 -71 18 -22 18 -24 -6 -96 -14 -40
-22 -80 -19 -88 8 -22 124 -21 133 0 3 9 -4 45 -16 81 -25 77 -26 88 -6 104 8
7 15 21 15 31 0 25 -35 59 -60 59 -11 0 -29 -9 -40 -20z"/>
<path d="M898 5993 c-54 -110 -147 -210 -234 -250 -48 -23 -73 -28 -137 -28
-95 0 -91 8 -85 -183 4 -121 8 -148 36 -228 63 -184 179 -318 394 -452 37 -23
74 -42 83 -42 19 0 102 51 192 117 165 124 268 275 304 446 20 98 26 300 10
326 -7 11 -31 15 -83 16 -57 0 -86 6 -130 27 -100 46 -195 153 -252 282 -14
32 -31 56 -40 56 -9 0 -32 -35 -58 -87z m123 -502 c39 -40 40 -96 2 -141 l-26
-32 28 -89 c38 -118 35 -124 -70 -124 -106 0 -109 6 -68 129 l31 94 -29 21
c-25 19 -29 28 -29 70 0 43 4 53 31 75 43 36 91 35 130 -3z"/>
<path d="M15387 5962 c-14 -6 46 -71 315 -340 331 -330 354 -352 373 -352 6 0
4 4 -4 9 -9 6 -10 10 -2 16 9 5 9 11 0 22 -7 8 -14 27 -15 41 -1 15 -12 68
-24 117 -12 50 -33 144 -46 210 -14 66 -29 142 -35 170 -6 27 -9 64 -7 82 l4
33 -271 -1 c-148 0 -278 -4 -288 -7z"/>
<path d="M15309 5899 c-11 -19 -15 -115 -17 -454 -3 -410 2 -505 26 -505 4 0
118 110 252 245 l245 245 -247 247 c-242 242 -246 245 -259 222z"/>
<path d="M15603 5147 l-248 -246 29 -11 c30 -11 643 -13 714 -3 26 4 32 9 26
22 -12 28 -33 144 -34 186 0 22 -7 49 -15 59 -21 28 -19 38 8 32 12 -3 5 2
-16 12 -22 9 -78 57 -127 106 l-88 89 -249 -246z"/>
<path d="M16223 3562 c-3 -53 -23 -122 -46 -157 -25 -36 -48 -58 -121 -110
-31 -22 -58 -47 -61 -57 -3 -9 -12 -19 -20 -22 -12 -4 -15 -27 -17 -98 l-2
-93 -5 87 -6 86 -22 -18 c-21 -16 -23 -27 -23 -104 l0 -86 54 0 c34 0 56 5 59
13 2 7 5 62 6 122 1 60 4 111 7 114 2 2 4 -50 4 -117 0 -120 6 -141 34 -125
17 9 16 6 16 73 0 28 5 50 10 50 6 0 10 -28 10 -65 l0 -65 28 4 c55 7 94 27
86 45 -14 35 -15 50 -5 68 10 15 10 14 5 -9 -3 -16 -2 -28 4 -28 5 0 8 18 6
40 -2 21 0 42 5 44 17 11 19 422 3 438 -4 4 -8 -10 -9 -30z"/>
<path d="M15646 2955 c-9 -13 -16 -31 -16 -38 0 -8 -8 -17 -17 -21 -10 -3 -52
-26 -93 -51 -41 -25 -99 -57 -127 -72 -29 -15 -53 -31 -53 -35 0 -13 208 -10
212 4 5 14 28 2 28 -15 0 -9 -35 -11 -132 -8 -124 3 -135 2 -175 -20 -24 -13
-43 -27 -43 -31 0 -5 20 -8 45 -8 l45 0 0 -61 0 -60 -47 3 -48 3 -3 62 -3 63
-23 -23 c-13 -12 -43 -49 -67 -82 -24 -33 -48 -63 -53 -66 -4 -4 -5 -16 -1
-28 5 -15 3 -19 -7 -16 -17 7 -50 -27 -46 -46 2 -7 -2 -13 -9 -14 -6 0 -21
-12 -33 -27 -12 -17 -31 -28 -45 -28 -13 0 -32 -10 -42 -23 -10 -13 -33 -27
-52 -30 -19 -4 -40 -16 -48 -27 -10 -13 -26 -20 -49 -20 -55 0 -143 -62 -123
-87 9 -10 7 -13 -9 -13 -19 0 -21 -7 -24 -72 -2 -40 1 -89 6 -108 5 -19 6
-111 3 -204 l-6 -169 116 -113 c73 -70 122 -110 131 -107 8 3 17 2 21 -4 3 -5
17 -17 31 -26 22 -15 22 -17 5 -17 -18 -1 -17 -2 5 -15 14 -7 42 -17 63 -20
32 -6 41 -13 54 -43 10 -25 17 -32 23 -22 6 10 16 10 51 -3 24 -8 60 -19 78
-24 28 -7 40 -18 60 -58 19 -35 32 -50 45 -48 11 1 25 -5 32 -12 20 -20 118
-27 227 -16 53 5 113 8 132 6 36 -3 54 8 34 21 -8 4 -8 9 -1 13 12 7 -17 101
-31 101 -9 0 -84 69 -196 180 -73 72 -162 191 -195 260 -18 39 -21 62 -20 174
2 154 17 225 56 267 48 49 34 59 -84 60 -122 1 -118 5 12 14 138 8 148 10 167
27 37 32 169 93 233 106 37 8 19 10 -105 12 l-150 3 205 8 c229 9 231 10 590
99 41 10 86 20 100 23 21 4 22 5 4 6 -20 1 -21 6 -20 99 0 53 6 100 11 104 6
4 27 8 48 8 l39 0 -7 53 c-4 29 -18 68 -31 88 -13 19 -24 39 -24 45 0 5 -11
21 -24 35 -13 14 -27 36 -32 50 -7 19 -10 8 -15 -51 l-5 -75 -2 73 c-1 39 -5
72 -9 73 -5 0 -16 2 -25 4 -13 2 -18 -4 -19 -18 -1 -12 -2 -34 -3 -49 -3 -46
-16 -44 -16 3 0 25 -6 51 -12 57 -10 10 -10 15 2 22 13 8 12 10 -3 10 -20 0
-25 -10 -31 -60 -5 -51 -26 -50 -27 2 -1 24 -1 49 0 56 1 9 -22 12 -89 12
l-90 0 0 -30 c0 -16 -4 -30 -10 -30 -5 0 -10 14 -10 30 0 25 -4 30 -24 30 -20
0 -25 -6 -29 -32 l-4 -33 -1 33 c-2 29 -5 32 -32 32 -31 0 -31 0 -29 -50 2
-27 0 -53 -4 -57 -4 -3 -7 19 -7 50 l0 57 -44 0 c-35 0 -47 -5 -60 -25z m588
-388 l1 -127 -52 0 -53 0 0 40 c0 35 3 40 23 41 21 1 21 1 -3 9 -22 7 -21 8
15 11 l40 2 -37 4 c-30 3 -38 9 -38 24 0 15 8 19 43 21 l42 1 -42 4 c-35 3
-43 8 -43 24 0 16 8 19 48 21 l47 2 -47 3 c-39 3 -48 8 -48 23 0 14 9 20 38
23 68 7 64 14 66 -126z"/>
</g>
</svg>
