<?xml version="1.0" standalone="no"?>
<!DOCTYPE svg PUBLIC "-//W3C//DTD SVG 20010904//EN"
 "http://www.w3.org/TR/2001/REC-SVG-20010904/DTD/svg10.dtd">
<svg version="1.0" xmlns="http://www.w3.org/2000/svg"
 width="225.000000pt" height="225.000000pt" viewBox="0 0 225.000000 225.000000"
 preserveAspectRatio="xMidYMid meet">
<metadata>
Created by potrace 1.16, written by Peter Selinger 2001-2019
</metadata>
<g transform="translate(0.000000,225.000000) scale(0.100000,-0.100000)"
fill="#000000" stroke="none">
<path d="M970 2163 c-56 -8 -200 -46 -200 -51 0 -7 42 -113 47 -121 2 -3 17 5
33 17 16 12 34 22 40 22 5 0 30 -19 54 -43 37 -37 47 -42 67 -34 45 17 151 12
195 -11 125 -64 186 -243 121 -354 -15 -25 -39 -56 -53 -67 -22 -18 -26 -27
-21 -55 7 -45 -14 -134 -51 -216 -28 -62 -54 -93 -97 -119 -17 -10 -15 -11 15
-5 62 12 197 64 255 100 32 19 59 34 60 34 2 0 -5 -30 -15 -67 -71 -272 -40
-591 77 -790 37 -63 151 -183 174 -183 28 0 172 113 245 194 287 313 369 759
205 1120 -94 208 -298 419 -508 525 -82 41 -200 80 -293 97 -68 12 -289 17
-350 7z"/>
<path d="M535 1998 c-102 -67 -203 -163 -278 -263 -55 -74 -107 -163 -107
-184 0 -5 21 -12 48 -15 56 -8 159 -56 189 -88 46 -51 171 -238 163 -243 -5
-3 -45 12 -89 35 -44 22 -88 40 -96 40 -25 0 -29 -27 -11 -74 20 -52 44 -65
135 -73 78 -7 107 -19 92 -37 -11 -13 -91 -6 -153 14 -24 7 -28 5 -28 -11 0
-13 7 -19 24 -19 24 0 24 -1 10 -27 -12 -23 -14 -84 -13 -340 1 -203 5 -313
11 -313 6 0 6 -6 -1 -14 -9 -11 -9 -16 1 -23 7 -4 24 -21 38 -37 l25 -29 -32
23 c-18 13 -33 27 -33 32 0 4 -5 8 -12 8 -6 0 -23 10 -37 22 -14 13 -6 1 19
-25 120 -128 334 -237 536 -272 124 -22 153 -19 125 11 -20 21 -74 165 -101
269 -39 154 -62 341 -63 537 l-2 168 -102 0 c-94 0 -103 2 -103 19 0 21 40 31
127 31 63 0 100 27 112 81 18 80 -18 80 -137 1 -51 -34 -95 -62 -97 -62 -3 0
-2 15 2 33 8 42 47 121 90 179 32 45 33 47 13 53 -12 4 -23 5 -24 3 -1 -1 -12
-19 -24 -38 -11 -20 -33 -47 -48 -60 l-27 -25 6 136 c7 149 4 159 -48 159 -28
0 -33 -5 -45 -40 -11 -33 -10 -56 4 -147 19 -129 19 -123 3 -123 -32 0 -92 99
-122 204 -22 75 -22 187 0 251 10 28 48 112 86 188 38 75 66 137 62 137 -5 0
-44 -24 -88 -52z"/>
<path d="M959 1707 c-61 -62 -90 -124 -97 -205 l-5 -65 35 27 c34 26 38 26
109 18 41 -5 75 -8 77 -7 1 1 -9 27 -23 57 -13 30 -30 92 -38 137 l-13 84 -45
-46z"/>
</g>
</svg>
