<?xml version="1.0" standalone="no"?>
<!DOCTYPE svg PUBLIC "-//W3C//DTD SVG 20010904//EN"
 "http://www.w3.org/TR/2001/REC-SVG-20010904/DTD/svg10.dtd">
<svg version="1.0" xmlns="http://www.w3.org/2000/svg"
 width="770.000000pt" height="400.000000pt" viewBox="0 0 770.000000 400.000000"
 preserveAspectRatio="xMidYMid meet">
<metadata>
Created by potrace 1.16, written by Peter Selinger 2001-2019
</metadata>
<g transform="translate(0.000000,400.000000) scale(0.100000,-0.100000)"
fill="#000000" stroke="none">
<path d="M0 3948 l0 -53 370 -94 c391 -99 411 -101 463 -61 22 17 26 18 37 5
10 -12 9 -15 -1 -18 -8 -2 -37 -11 -65 -20 l-52 -17 -367 95 c-203 52 -372 95
-377 95 -4 0 -8 -13 -8 -28 l0 -28 423 -104 c367 -90 428 -108 467 -135 35
-25 52 -31 80 -28 32 4 38 1 60 -32 26 -39 130 -106 130 -84 0 7 -20 31 -44
53 -38 35 -92 127 -81 138 2 1 -8 4 -22 5 -84 5 -133 15 -133 29 0 9 11 14 29
14 41 0 47 15 10 30 -35 15 -33 34 4 38 30 4 36 17 12 26 -18 7 -20 36 -2 36
6 0 19 -4 27 -9 21 -14 33 -2 15 15 -36 37 -1 61 39 27 20 -17 20 -17 7 0 -7
9 -10 17 -7 17 4 0 2 9 -4 19 -17 33 9 36 41 5 l29 -27 -10 33 c-10 34 -6 50
11 50 5 0 24 -30 42 -66 l32 -66 47 4 c25 3 54 1 65 -4 10 -5 5 2 -12 16 -16
14 -32 26 -35 26 -3 0 -30 34 -59 75 l-54 75 -68 0 c-38 0 -69 -4 -69 -8 0 -5
9 -17 20 -27 24 -21 26 -45 5 -45 -8 0 -15 7 -15 15 0 9 -7 27 -16 40 -15 23
-22 25 -96 25 -66 0 -79 -3 -75 -14 3 -8 2 -29 -3 -46 -8 -29 -7 -31 38 -53
52 -25 58 -35 39 -61 -13 -18 -16 -18 -61 -3 l-46 16 -15 -35 c-21 -50 -51
-60 -116 -39 -79 26 -91 40 -87 99 l3 49 -115 38 c-63 22 -117 39 -120 39 -3
0 -14 -18 -24 -40 -23 -52 -52 -60 -126 -34 -43 16 -58 27 -70 52 -13 27 -20
32 -52 32 l-38 0 0 -52z"/>
<path d="M360 3993 c8 -4 58 -21 110 -39 52 -18 95 -36 95 -41 0 -4 -4 -22 -8
-40 -12 -46 5 -69 63 -88 69 -23 94 -15 114 36 10 24 21 38 29 35 40 -16 88
-28 93 -23 15 14 -7 35 -50 47 -41 11 -46 15 -39 34 4 11 7 35 8 51 l0 30 -88
3 c-82 3 -89 1 -94 -18 -7 -25 -15 -25 -81 0 -32 12 -75 20 -110 19 -31 0 -50
-3 -42 -6z"/>
<path d="M1130 3993 c0 -21 90 -120 136 -149 l55 -35 32 20 33 20 114 -38
c124 -41 157 -50 534 -142 l249 -61 41 20 c60 29 84 35 122 27 53 -10 100 -57
119 -120 15 -52 17 -55 78 -83 136 -63 207 -87 228 -74 41 26 79 8 79 -38 0
-22 17 -35 148 -107 93 -52 151 -78 156 -72 6 5 22 9 38 9 28 0 48 -23 48 -57
0 -11 19 -30 47 -48 49 -31 97 -50 87 -34 -3 5 4 9 16 9 14 0 19 -4 14 -12 -5
-9 -2 -9 9 1 15 12 21 9 19 -10 -1 -4 12 -9 29 -13 17 -3 43 -15 59 -26 15
-11 33 -20 40 -20 6 0 8 -5 4 -11 -4 -8 1 -9 17 -4 13 4 66 8 118 8 l94 1 48
-55 c40 -44 50 -51 59 -39 5 8 10 18 10 22 0 17 34 38 61 38 19 0 40 11 60 30
17 16 40 32 51 36 34 10 87 -6 123 -37 25 -22 49 -33 88 -38 67 -9 75 -14 98
-68 10 -24 34 -63 52 -86 38 -48 57 -88 57 -120 0 -35 22 -75 48 -86 37 -17
62 -70 55 -113 -4 -31 -1 -45 20 -76 37 -53 46 -83 44 -144 -2 -59 19 -122 38
-114 7 2 20 -12 30 -35 10 -21 24 -39 31 -39 34 0 154 -94 154 -121 0 -4 5
-20 12 -36 6 -15 11 -31 10 -35 -1 -5 4 -8 11 -8 9 0 8 -3 -2 -9 -14 -9 9 -19
189 -75 58 -19 125 -37 150 -41 45 -8 78 -24 115 -58 74 -68 255 -192 362
-247 57 -30 111 -70 175 -130 125 -118 282 -254 343 -300 28 -21 110 -85 182
-142 73 -57 168 -124 210 -150 43 -25 110 -64 150 -87 40 -24 77 -49 84 -57 6
-8 26 -14 43 -14 19 0 42 -9 56 -22 37 -35 110 -82 188 -123 41 -21 76 -43 79
-50 7 -21 -15 -91 -68 -204 -27 -60 -49 -111 -49 -115 0 -3 99 -6 220 -6 l220
0 0 2000 0 2000 -3285 0 c-1807 0 -3285 -3 -3285 -7z"/>
<path d="M1366 3814 c-9 -8 -14 -20 -11 -25 4 -5 -1 -6 -9 -3 -24 9 -19 -14 9
-42 15 -15 30 -22 38 -17 6 4 17 8 22 9 6 1 38 8 72 15 34 7 66 10 70 5 13
-13 -12 -38 -57 -56 l-45 -18 55 -4 c48 -3 55 -6 58 -25 3 -19 -2 -22 -35 -25
-47 -4 -49 -18 -3 -33 24 -8 35 -18 35 -31 0 -16 -7 -19 -49 -18 l-49 1 29
-24 c16 -12 32 -23 37 -23 4 0 7 -9 7 -20 0 -24 -23 -26 -74 -5 -20 8 -36 13
-36 10 0 -2 14 -20 31 -40 24 -27 29 -39 21 -47 -14 -14 -94 21 -85 36 4 5 1
6 -6 2 -9 -6 -6 -17 9 -43 12 -20 19 -42 16 -49 -10 -27 -35 -14 -62 31 -14
25 -30 45 -36 45 -5 0 -7 4 -4 8 12 20 -35 42 -84 40 -44 -2 -50 -5 -50 -24 0
-60 16 -77 137 -138 93 -47 127 -71 167 -115 114 -125 155 -165 161 -159 4 3
1 25 -6 47 -9 29 -9 51 -2 74 13 44 7 57 -30 57 -46 0 -60 27 -47 86 21 91 72
151 153 178 79 26 149 18 212 -25 62 -43 107 -143 69 -155 -65 -20 -66 -45 -5
-89 39 -28 50 -43 57 -77 l9 -43 95 4 94 4 84 70 c45 39 85 81 88 94 7 28 12
28 38 4 12 -11 59 -30 105 -42 70 -18 90 -20 115 -11 39 15 109 -9 124 -43 13
-28 212 -109 244 -99 14 4 45 -14 114 -66 52 -39 98 -78 101 -86 3 -8 13 -14
22 -14 9 0 29 -7 44 -15 25 -13 31 -13 43 -1 12 13 11 16 -7 21 -19 6 -20 9
-6 22 14 14 13 18 -6 38 -34 34 -244 158 -256 150 -6 -3 -11 0 -11 8 0 10 -8
13 -25 9 -19 -3 -27 1 -34 21 -6 14 -19 28 -31 32 -12 4 -72 31 -135 61 -121
58 -263 100 -279 84 -18 -18 -54 -11 -61 11 -11 34 30 52 57 26 7 -8 47 -22
88 -32 74 -18 114 -34 282 -114 49 -23 92 -40 97 -37 14 9 39 -4 44 -22 2 -10
31 -32 63 -50 63 -35 90 -50 167 -96 41 -24 52 -27 73 -18 23 11 33 32 16 32
-5 0 -19 10 -32 22 -17 16 -38 23 -68 24 -44 2 -61 14 -62 44 0 9 -61 50 -145
98 -115 65 -153 82 -185 82 -34 0 -41 4 -46 25 -4 18 -19 29 -57 44 -29 10
-94 36 -146 56 -89 35 -94 36 -104 19 -31 -55 -122 -106 -163 -90 -10 4 -14
-3 -14 -25 0 -26 -3 -30 -22 -27 -32 4 -35 36 -6 47 l23 9 -27 10 c-14 6 -32
19 -38 29 -11 17 -11 17 -6 -2 l6 -20 -16 20 -16 20 4 -20 c2 -11 10 -20 18
-20 18 0 33 -21 25 -35 -12 -19 -45 -11 -45 10 0 13 -7 20 -20 20 -15 0 -20 7
-20 25 0 21 5 25 28 25 20 0 23 3 13 9 -9 6 -22 6 -33 0 -25 -14 -41 -1 -35
27 2 13 0 24 -4 24 -5 0 -9 11 -9 25 0 20 5 25 24 25 13 0 27 -6 29 -12 4 -10
6 -10 6 -1 1 7 -11 18 -26 26 -28 13 -30 18 -18 48 5 13 -10 20 -82 38 -220
53 -595 152 -662 175 -88 31 -85 30 -105 10z"/>
<path d="M0 1905 l0 -1905 3403 0 3402 1 40 51 c82 106 128 174 151 226 25 54
31 79 14 52 -8 -12 -10 -9 -10 12 0 15 5 30 11 33 6 4 8 13 5 21 -3 8 1 17 8
20 8 3 17 13 21 22 5 15 4 15 -12 0 -10 -9 -34 -18 -53 -20 -19 -2 -34 -8 -33
-14 3 -20 -42 -64 -67 -65 -55 -2 -118 31 -103 54 4 6 -2 8 -15 5 -26 -7 -52
11 -56 37 -2 12 -12 21 -24 23 -12 2 -23 8 -23 13 -1 5 -2 13 -3 18 0 5 -4 13
-8 17 -5 4 -8 17 -8 29 0 25 -29 55 -54 55 -9 0 -19 7 -23 16 -5 14 -17 15
-82 8 -123 -12 -241 -3 -241 18 0 6 -6 6 -14 -1 -11 -9 -25 -7 -62 10 -27 12
-68 30 -92 40 -66 29 -106 25 -133 -12 -22 -31 -24 -31 -82 -25 -50 5 -70 14
-125 53 -36 26 -74 47 -85 48 -10 1 -22 6 -25 12 -4 5 -20 14 -37 20 -20 6
-31 17 -33 32 -4 23 -4 23 -25 3 -12 -11 -35 -23 -52 -27 -16 -5 -37 -10 -45
-12 -36 -10 -55 -7 -64 12 -23 43 -27 46 -41 35 -9 -8 -23 -7 -51 4 -22 9 -58
20 -81 24 -39 9 -42 8 -48 -15 -3 -13 -9 -21 -14 -19 -5 3 -16 -3 -26 -14 -14
-15 -15 -24 -8 -31 8 -8 6 -24 -9 -58 -11 -27 -17 -57 -14 -73 3 -15 -1 -40
-9 -55 -8 -15 -15 -35 -15 -44 0 -9 -6 -32 -14 -50 -18 -41 -22 -33 -36 76 -6
44 -15 103 -20 130 -11 62 5 133 60 265 21 52 41 107 44 121 3 14 16 41 29 60
25 37 46 43 190 55 58 4 72 2 98 -17 20 -14 27 -25 21 -31 -6 -6 -8 -16 -5
-23 3 -8 -10 -20 -33 -31 -35 -17 -37 -17 -50 1 -7 10 -11 22 -8 26 8 13 -9
11 -50 -6 -24 -10 -42 -28 -56 -55 -11 -22 -24 -40 -29 -40 -4 0 -8 -7 -8 -15
0 -8 1 -15 1 -15 1 0 57 -7 126 -15 122 -14 177 -30 385 -113 28 -11 64 -23
82 -26 31 -7 32 -6 39 31 9 46 25 64 52 57 11 -3 23 -1 26 5 4 6 20 8 38 4 27
-5 30 -4 25 11 -4 10 -10 35 -13 57 -7 43 -37 69 -81 69 -18 0 -24 3 -15 8 21
14 -2 58 -37 70 -16 6 -35 19 -42 30 -10 16 -18 18 -43 11 -32 -9 -49 -3 -27
10 11 7 9 11 -7 20 -16 8 -21 7 -26 -4 -8 -23 -34 -18 -52 10 -19 30 -12 55
16 55 13 0 20 7 20 20 0 11 -7 20 -15 20 -8 0 -32 18 -52 40 -21 22 -44 40
-50 40 -11 0 -17 12 -15 31 2 13 -76 88 -83 81 -5 -4 -6 -2 -3 3 19 35 -70 83
-152 83 -19 0 -48 7 -65 16 -38 20 -68 22 -42 2 9 -7 17 -19 17 -27 0 -8 21
-25 46 -39 26 -13 42 -26 35 -28 -15 -5 -121 35 -154 59 -16 12 -31 19 -34 16
-2 -3 -34 3 -69 13 -35 9 -64 15 -64 11 0 -7 -46 -28 -135 -62 -78 -30 -102
-52 -111 -103 -10 -62 -35 -90 -104 -115 -74 -27 -119 -65 -158 -134 -48 -85
-122 -127 -224 -127 -105 0 -164 31 -213 113 -9 15 -17 10 -63 -33 l-52 -50
-74 0 c-40 0 -87 -3 -103 -6 -28 -6 -42 6 -215 181 l-186 187 -41 152 c-22 84
-41 170 -41 192 0 88 49 430 68 474 36 85 66 185 63 213 -2 17 7 43 22 67 25
36 48 119 49 168 0 13 -7 31 -16 41 -9 10 -13 21 -9 24 3 4 0 7 -8 7 -9 0 -24
7 -35 16 -10 8 -12 12 -4 8 10 -5 12 -4 5 3 -5 6 -30 18 -54 27 -25 10 -63 36
-86 59 -63 65 -158 127 -193 127 -17 0 -67 16 -112 35 -45 19 -88 35 -95 35
-8 0 -25 15 -40 33 -19 23 -25 26 -22 12 3 -11 11 -44 17 -72 10 -45 15 -53
35 -53 46 0 70 -47 40 -80 -10 -11 -21 -75 -34 -194 -18 -156 -18 -180 -6
-193 28 -28 13 -83 -23 -83 -8 0 -52 -29 -98 -65 -46 -36 -112 -78 -147 -94
-34 -15 -75 -42 -91 -60 -28 -29 -31 -30 -48 -14 -13 12 -18 31 -18 68 0 48 5
59 56 129 49 68 64 80 122 107 49 22 63 32 54 41 -8 8 -27 3 -75 -21 -38 -19
-71 -29 -81 -25 -9 4 -53 -6 -97 -21 -44 -15 -82 -25 -85 -23 -2 3 -7 25 -10
50 -6 42 -4 48 32 88 22 24 55 50 74 59 l35 16 -35 3 c-19 2 -40 12 -47 22 -7
9 -43 30 -80 46 -87 35 -88 37 -68 68 25 38 83 51 159 36 34 -7 66 -16 73 -22
8 -7 23 9 52 54 22 35 41 68 41 73 0 6 -15 27 -34 47 -18 19 -41 58 -51 87 -9
28 -20 53 -23 55 -4 2 -38 -20 -75 -51 -78 -63 -106 -73 -199 -73 l-68 0 0
-37 c-1 -27 -9 -48 -29 -71 -26 -30 -27 -36 -18 -75 8 -36 21 -52 91 -109 l82
-66 16 -89 16 -88 -37 -57 c-41 -65 -44 -67 -88 -61 -28 5 -37 14 -74 87 -59
113 -74 131 -110 128 -23 -3 -31 2 -40 22 -9 19 -9 29 0 40 10 12 2 24 -44 70
-51 50 -61 56 -96 54 -21 -1 -45 5 -54 12 -17 14 -20 52 -6 78 17 34 1 77 -42
112 -23 19 -76 73 -117 120 -70 81 -83 90 -199 151 -95 49 -127 70 -134 91 -6
14 -22 32 -36 38 -58 26 -120 72 -130 98 -10 24 -16 27 -46 24 -26 -3 -45 4
-80 28 -41 28 -104 47 -457 136 -226 57 -414 104 -419 104 -5 0 -9 -816 -9
-1905z m5271 -1215 c11 -30 32 -39 44 -20 10 16 40 -5 65 -44 17 -29 19 -39
10 -56 -10 -18 -8 -22 10 -27 17 -5 19 -8 8 -15 -10 -7 -10 -11 0 -15 22 -9
13 -23 -10 -14 -13 5 -23 14 -23 21 0 7 -12 15 -27 17 -25 3 -28 1 -28 -27 0
-17 5 -40 11 -51 17 -33 5 -43 -23 -18 -31 29 -68 152 -68 227 0 58 15 69 31
22z"/>
<path d="M1760 3455 c0 -18 -17 -20 -23 -2 -3 9 -13 7 -40 -8 -19 -11 -36 -24
-37 -30 -3 -19 -21 -34 -35 -29 -16 7 -45 -75 -45 -127 0 -30 3 -37 15 -33 8
4 12 10 9 15 -3 6 -2 15 3 22 5 7 10 21 10 33 2 30 40 89 68 104 13 7 22 18
18 23 -3 6 -2 7 4 4 5 -3 27 -2 47 4 26 7 47 7 67 0 23 -8 28 -7 22 2 -7 12
19 -6 45 -31 8 -6 22 -17 32 -22 10 -5 21 -23 25 -40 8 -35 16 -42 34 -30 11
6 11 15 2 41 -13 37 -58 89 -77 89 -6 0 -25 7 -40 15 -26 13 -29 13 -32 0 -4
-20 -22 -19 -22 0 0 9 -9 15 -25 15 -16 0 -25 -6 -25 -15z"/>
<path d="M2424 3227 c-3 -9 2 -42 11 -73 14 -49 27 -67 88 -126 40 -37 83 -71
97 -74 39 -10 42 -15 27 -32 -11 -12 -17 -55 -23 -155 -6 -125 -5 -139 11
-157 23 -25 17 -31 -65 -65 -35 -15 -71 -37 -80 -48 -77 -105 -90 -131 -90
-172 0 -26 6 -47 15 -55 13 -11 22 -8 53 23 20 20 59 45 85 56 26 12 82 47
123 78 67 52 74 60 69 85 -8 35 2 68 21 68 21 0 23 10 42 194 13 120 15 166 6
166 -24 0 -46 38 -39 68 5 26 -22 154 -40 182 -8 13 -41 13 -65 0 -14 -7 -44
-4 -112 14 -51 13 -101 27 -110 31 -12 5 -20 2 -24 -8z m206 -77 c10 -35 95
-166 116 -178 16 -9 16 -15 6 -48 -12 -41 -23 -166 -27 -297 -3 -76 -4 -80
-33 -97 -55 -34 -157 -111 -173 -132 -11 -14 -22 -19 -34 -15 -23 9 -14 29 17
38 45 12 177 116 191 151 19 45 43 346 29 360 -6 6 -8 16 -5 24 6 17 -95 174
-112 174 -18 0 -28 17 -21 36 9 23 39 13 46 -16z"/>
<path d="M1921 3175 c-42 -72 -126 -95 -198 -53 -21 12 -39 26 -41 30 -7 15
-32 -5 -32 -25 0 -12 10 -61 22 -109 16 -66 25 -88 37 -88 32 0 61 -30 61 -63
0 -26 12 -44 64 -94 35 -35 70 -63 78 -63 22 0 38 -21 38 -51 0 -15 4 -30 9
-34 6 -3 33 -48 61 -100 28 -52 57 -95 65 -95 7 0 20 -3 29 -6 10 -4 26 12 52
50 l37 56 -13 86 c-13 84 -14 87 -59 122 -143 115 -164 161 -110 237 l31 44
-13 66 c-11 55 -18 71 -44 90 -50 37 -52 37 -74 0z"/>
<path d="M2487 2936 c-20 -34 -37 -72 -37 -84 0 -28 -15 -28 -34 -1 -20 30
-114 51 -163 37 -32 -9 -62 -31 -63 -48 0 -3 28 -16 63 -29 34 -13 74 -34 89
-46 21 -18 36 -22 73 -19 52 4 65 10 65 27 0 7 10 17 22 22 25 11 42 41 53 92
5 28 4 32 -9 27 -21 -8 -86 -105 -86 -128 0 -22 -13 -20 -85 14 -54 26 -85 36
-117 39 -5 1 -8 8 -8 16 0 16 36 21 42 6 5 -13 127 -61 141 -55 16 7 87 106
87 121 0 7 9 13 19 13 30 0 33 15 8 38 l-23 22 -37 -64z"/>
<path d="M4144 2924 c-20 -22 -40 -34 -57 -34 -32 0 -59 -36 -51 -68 l6 -22
20 25 c28 37 108 29 108 -10 0 -18 -21 -20 -37 -4 -17 17 -43 3 -43 -23 0 -16
9 -27 29 -36 38 -17 50 -54 44 -134 -5 -58 -3 -67 16 -80 24 -17 64 -13 82 8
19 23 29 16 29 -21 0 -40 20 -47 35 -12 8 18 17 22 52 20 l41 -2 -9 31 c-11
39 10 90 45 113 32 21 34 59 4 83 -12 9 -42 36 -66 60 -49 48 -100 58 -109 22
-6 -21 -24 -23 -30 -3 -6 16 37 53 60 53 14 0 9 9 -23 35 -57 48 -103 48 -146
-1z"/>
<path d="M2571 2890 c-6 -27 -16 -72 -22 -98 -5 -27 -9 -55 -7 -63 2 -9 -4
-13 -17 -12 -11 2 -52 -4 -91 -12 -61 -13 -76 -21 -111 -58 -36 -38 -40 -46
-36 -84 l5 -41 66 25 c37 14 82 25 100 24 19 0 59 12 92 29 l58 29 1 119 c2
121 4 143 16 175 6 13 2 17 -18 17 -22 0 -26 -6 -36 -50z"/>
<path d="M3821 2908 c6 -67 -2 -108 -27 -137 -27 -32 -25 -51 6 -51 10 0 20
-5 22 -12 3 -7 12 -9 22 -5 14 6 17 17 15 69 -2 41 1 63 9 66 19 6 16 -152 -3
-168 -9 -8 -15 -30 -15 -57 0 -24 -7 -57 -15 -74 -10 -19 -16 -62 -18 -124
l-2 -94 55 -56 c51 -51 82 -67 94 -46 3 4 -17 29 -44 55 l-50 47 0 90 c0 82 2
92 25 117 24 25 25 33 25 139 0 90 3 113 14 113 11 0 13 -23 11 -121 -2 -114
-3 -121 -29 -148 -23 -24 -26 -35 -26 -97 0 -75 4 -86 26 -77 10 4 14 23 14
69 0 50 3 64 15 64 12 0 15 -13 15 -61 0 -33 -5 -69 -11 -80 -6 -12 -8 -28 -4
-37 5 -13 7 -13 19 4 10 14 12 78 11 266 l-2 247 -27 41 c-46 69 -58 80 -94
80 -28 0 -32 -3 -31 -22z"/>
<path d="M4045 2736 c-12 -14 -19 -115 -10 -155 6 -28 10 -30 45 -28 38 2 38
2 51 60 13 64 3 103 -28 113 -10 3 -25 9 -33 13 -9 5 -20 3 -25 -3z"/>
<path d="M4506 2709 c-3 -17 -20 -44 -38 -61 -29 -27 -32 -37 -34 -89 -2 -32
2 -59 7 -59 5 0 9 -8 10 -17 0 -10 5 -5 11 12 16 44 46 74 82 77 29 3 31 5 30
44 0 42 -31 115 -50 121 -6 2 -14 -10 -18 -28z"/>
<path d="M3462 2677 c-6 -6 -14 -26 -17 -42 -4 -17 -19 -47 -33 -68 -15 -22
-25 -51 -24 -69 0 -18 -20 -82 -45 -143 -43 -104 -47 -122 -74 -333 l-28 -222
24 -88 c14 -48 32 -109 40 -137 8 -27 17 -61 20 -75 4 -16 77 -97 179 -198
l172 -173 99 -3 100 -4 53 54 c45 46 52 59 52 93 0 22 -4 43 -10 46 -5 3 -10
3 -10 -2 0 -4 -14 -23 -31 -42 -21 -23 -34 -30 -41 -23 -7 7 -3 18 16 34 26
22 27 27 28 124 0 106 -8 164 -23 164 -7 0 -16 -201 -10 -234 1 -5 -12 -24
-29 -41 -26 -27 -31 -39 -28 -71 2 -23 -2 -39 -10 -42 -8 -2 -12 10 -12 41 0
34 6 53 25 75 24 28 25 36 25 154 l0 124 35 34 35 34 0 127 c0 118 1 127 20
132 26 7 28 62 3 75 -23 12 -42 5 -75 -26 -33 -31 -34 -36 -8 -69 16 -21 20
-41 20 -105 l0 -79 -45 -48 c-25 -26 -45 -53 -45 -60 0 -6 9 -24 20 -39 25
-35 33 -207 9 -207 -11 0 -14 20 -14 93 0 72 -3 95 -15 102 -13 8 -15 -12 -18
-155 -2 -141 -5 -165 -18 -165 -12 0 -14 8 -10 33 3 18 1 39 -4 47 -7 10 -10
-10 -10 -62 0 -58 -3 -78 -13 -78 -20 0 -10 179 11 203 9 10 17 33 17 50 1 18
2 67 3 110 l2 78 50 47 50 47 1 75 c1 99 1 100 -11 100 -6 0 -10 -31 -10 -74
0 -70 -2 -76 -36 -118 -41 -48 -49 -54 -59 -38 -4 7 6 23 24 38 17 15 33 41
37 57 6 29 4 28 -45 -22 -41 -41 -52 -60 -57 -95 -5 -33 -2 -47 10 -57 22 -18
23 -121 1 -121 -11 0 -13 8 -8 32 5 27 4 30 -11 25 -32 -13 -56 27 -56 94 0
44 -3 60 -12 56 -9 -2 -13 -27 -13 -73 -1 -61 2 -72 27 -99 24 -27 27 -38 30
-123 2 -52 -1 -91 -6 -89 -5 2 -8 37 -7 79 2 75 2 77 -33 116 -35 38 -36 42
-36 121 0 44 -4 81 -8 81 -5 0 -19 -11 -32 -25 -19 -20 -23 -36 -24 -84 -1
-52 3 -64 26 -88 22 -24 27 -39 30 -99 2 -45 0 -71 -7 -71 -7 0 -9 23 -7 63 4
58 2 65 -23 89 -27 24 -29 24 -47 9 -11 -11 -18 -31 -18 -56 0 -21 -4 -38 -10
-38 -20 0 -11 83 11 106 23 24 34 90 18 100 -21 13 -37 -16 -32 -56 5 -33 3
-40 -12 -40 -13 0 -16 5 -11 23 3 12 6 33 6 47 0 17 19 45 58 85 52 54 55 60
35 63 -16 2 -40 -12 -78 -45 -55 -47 -56 -49 -53 -97 2 -33 -1 -51 -9 -53 -9
-3 -13 9 -13 40 0 51 -21 68 -50 42 -10 -9 -21 -12 -24 -7 -9 14 14 29 57 37
29 6 49 20 85 61 l47 54 117 0 116 0 42 47 c40 45 41 49 35 96 -7 47 -6 48 43
97 34 35 57 50 76 50 19 0 26 5 26 20 0 17 -7 20 -43 20 -40 0 -47 -5 -130
-88 -58 -58 -87 -95 -87 -110 0 -13 -10 -36 -22 -52 -20 -28 -27 -30 -83 -30
-53 0 -65 -4 -85 -25 -19 -21 -30 -24 -57 -19 -27 5 -37 1 -63 -25 -30 -29
-50 -39 -50 -25 0 4 13 20 30 35 22 22 40 29 68 29 28 0 45 7 62 25 13 14 35
25 49 25 56 0 52 17 -6 23 -47 4 -63 2 -85 -14 -15 -10 -40 -19 -56 -19 -17 0
-38 -10 -52 -25 -13 -14 -30 -25 -39 -25 -10 0 -3 12 19 35 24 25 43 35 64 35
16 0 38 7 47 16 25 22 163 22 187 0 25 -22 52 -3 52 36 0 18 10 43 27 62 l26
31 -38 3 c-33 3 -43 -2 -79 -37 l-42 -41 -92 0 c-84 0 -95 -2 -116 -23 -31
-31 -55 -23 -26 8 29 30 17 49 -25 42 -23 -4 -35 -1 -39 8 -6 18 78 15 112 -4
32 -17 137 -11 137 9 0 12 -17 16 -77 18 -102 4 -101 22 0 22 66 0 82 -3 97
-20 24 -27 36 -25 71 9 24 24 42 31 85 35 63 5 91 14 83 27 -7 12 -61 11 -69
-1 -9 -15 -25 -12 -25 5 0 9 17 19 45 26 47 12 62 38 23 41 -13 0 -30 2 -38 3
-8 1 -27 -9 -41 -22 -29 -27 -78 -43 -129 -43 -20 0 -40 -4 -45 -9 -6 -5 -43
-11 -82 -13 -56 -4 -73 -2 -73 8 0 9 18 12 68 11 61 -2 67 0 67 18 0 15 -8 21
-33 23 -20 2 -32 8 -29 15 5 16 42 10 86 -14 44 -23 104 -25 126 -3 13 14 14
19 3 25 -7 5 -19 9 -27 9 -7 0 -21 9 -31 20 -40 47 -129 49 -171 4 -17 -18
-33 -24 -63 -24 -30 0 -37 3 -26 10 8 5 24 10 36 10 23 0 68 42 57 53 -3 4
-19 7 -35 7 -38 0 -36 17 4 22 21 4 37 -1 50 -14 13 -13 33 -18 74 -18 48 0
60 -4 80 -25 20 -21 32 -25 84 -25 55 0 60 2 51 18 -19 36 -46 50 -108 54 -54
4 -64 8 -88 36 -20 24 -35 32 -60 32 -36 0 -95 41 -95 66 0 22 14 16 38 -16
18 -24 30 -30 59 -30 28 0 45 -8 68 -30 26 -26 41 -31 88 -34 56 -3 59 -4 132
-75 50 -49 79 -70 87 -64 7 4 36 10 63 13 42 4 50 8 53 28 3 21 0 22 -58 22
-60 0 -62 1 -116 51 l-54 52 -76 1 c-59 1 -78 5 -88 18 -7 10 -16 15 -19 11
-4 -3 -7 0 -7 9 0 21 -97 108 -120 108 -17 0 -20 7 -20 45 0 25 0 48 0 53 0 4
6 7 12 7 9 0 12 -12 10 -37 -3 -33 0 -39 24 -48 35 -14 39 -8 37 48 -1 34 -7
51 -22 63 -23 19 -28 39 -9 39 17 0 58 -49 58 -70 0 -21 9 -30 25 -24 8 3 13
30 14 78 2 72 2 73 -34 104 -19 17 -35 38 -35 47 0 18 -14 20 -28 2z"/>
<path d="M4513 2532 c-14 -9 -17 -28 -15 -84 2 -31 6 -38 22 -38 11 0 21 -6
21 -12 1 -7 3 -23 4 -36 3 -31 12 -37 20 -13 3 11 15 23 26 26 10 4 19 10 19
14 0 4 12 7 28 6 26 0 27 3 30 51 2 41 -1 53 -19 70 -16 14 -23 15 -26 6 -3
-6 -9 -10 -14 -6 -5 3 -9 -8 -9 -24 0 -33 -22 -57 -45 -48 -13 5 -12 9 5 26
27 27 27 54 0 45 -14 -5 -20 -2 -20 9 0 18 -8 20 -27 8z"/>
<path d="M4227 2449 c-27 -15 -47 -70 -47 -125 0 -76 -45 -133 -118 -148 -17
-4 -32 -11 -32 -14 1 -17 19 -33 48 -42 67 -19 142 31 142 94 0 22 10 46 30
72 26 32 28 39 15 46 -8 5 -15 16 -15 23 0 17 16 20 25 5 9 -14 48 -13 63 2
49 49 -47 124 -111 87z"/>
<path d="M4614 2350 c-15 -6 -21 -18 -22 -39 0 -17 3 -33 9 -36 5 -3 7 2 4 12
-3 10 2 3 10 -15 8 -18 30 -46 48 -61 28 -26 32 -35 30 -75 -2 -47 -20 -76
-47 -76 -9 0 -16 -6 -16 -14 0 -25 90 3 103 33 9 19 9 25 -1 29 -14 4 -16 79
-3 115 5 14 7 34 4 46 -4 17 -9 19 -24 10 -15 -8 -20 -6 -25 8 -9 32 -29 66
-39 69 -5 1 -19 -1 -31 -6z"/>
<path d="M4316 2115 c-11 -8 -35 -15 -53 -15 -22 0 -36 -6 -43 -19 -12 -24 3
-36 20 -16 17 21 30 19 30 -5 0 -26 -46 -46 -66 -29 -17 14 -18 61 -1 78 10
12 8 13 -8 6 -52 -19 -83 -25 -117 -23 -20 1 -39 0 -42 -3 -3 -2 28 -21 69
-42 43 -22 92 -58 118 -86 43 -46 67 -55 67 -23 0 8 8 24 17 34 15 17 15 20 3
28 -8 6 -23 10 -33 10 -10 0 -17 6 -15 13 6 16 72 21 108 9 20 -8 27 -7 26 1
-2 12 -54 97 -59 97 -1 0 -11 -7 -21 -15z"/>
<path d="M4033 2024 c0 -9 15 -26 34 -38 46 -30 64 -71 57 -133 -8 -59 12
-110 58 -148 38 -32 78 -32 148 1 58 27 150 47 150 33 0 -5 8 -9 18 -9 10 0
23 -5 28 -10 7 -7 10 -1 10 19 0 17 -6 33 -13 36 -8 2 -11 0 -8 -5 4 -6 -7 -9
-26 -7 -51 4 -47 25 10 50 46 20 51 25 51 55 0 24 -4 32 -17 32 -10 0 -26 7
-37 15 -16 12 -21 12 -41 -3 -18 -13 -22 -24 -18 -44 12 -60 -31 -108 -96
-108 -42 0 -67 27 -91 95 -11 33 -25 62 -30 63 -6 2 -10 10 -10 17 0 23 -94
85 -151 98 -19 5 -26 3 -26 -9z"/>
<path d="M4027 1945 c-3 -18 4 -36 24 -62 33 -41 35 -65 13 -148 -16 -64 -13
-105 12 -143 15 -23 19 -24 97 -18 77 6 84 5 111 -17 26 -21 30 -31 30 -80 1
-66 -22 -98 -90 -121 -48 -16 -93 -9 -125 20 -24 21 -25 86 -3 108 20 20 74
21 100 1 17 -14 16 -14 -24 -9 -72 11 -101 -35 -54 -88 20 -23 66 -22 119 1
68 31 83 85 37 135 -26 27 -29 28 -94 22 -77 -8 -108 2 -133 42 -16 26 -17 20
-19 -138 -3 -224 -1 -260 18 -287 37 -58 127 -84 216 -63 102 24 133 48 181
140 27 52 79 94 142 115 70 24 84 40 95 107 4 29 10 63 13 75 5 19 -1 24 -49
38 -61 18 -70 16 -76 -19 -5 -23 -2 -24 23 -19 33 6 40 -15 13 -38 -9 -8 -25
-33 -35 -56 -23 -54 -58 -77 -104 -69 -38 7 -40 5 -24 -25 21 -40 -19 -87 -61
-74 -27 9 -37 51 -17 73 22 24 6 52 -17 33 -13 -11 -16 -30 -14 -87 2 -81 -7
-99 -59 -121 -68 -28 -124 -10 -148 49 -25 63 -2 108 54 108 32 0 25 -15 -11
-25 -42 -13 -49 -51 -18 -95 18 -25 28 -30 61 -30 46 0 94 21 103 46 3 9 3 38
0 65 -8 62 0 94 34 127 15 15 29 38 31 52 4 32 21 64 29 55 4 -3 5 -22 3 -41
-3 -45 46 -99 81 -89 31 9 58 42 58 70 0 13 3 30 6 39 5 14 -4 16 -60 16 -59
0 -68 3 -96 30 -17 17 -30 37 -28 44 2 8 -1 16 -6 18 -5 2 -8 -34 -7 -79 2
-66 -1 -83 -12 -83 -10 0 -14 14 -15 48 -1 26 -3 68 -4 94 -3 49 19 88 51 88
19 1 61 30 42 30 -6 0 -26 -7 -42 -16 -17 -8 -38 -17 -47 -19 -10 -2 -35 -7
-57 -12 -22 -5 -52 -6 -67 -2 -24 6 -26 5 -18 -15 12 -32 -6 -56 -40 -56 -29
0 -60 22 -60 43 -1 7 -3 38 -5 70 -3 31 -1 57 4 57 5 0 9 37 9 82 1 71 -2 86
-20 105 -28 30 -45 29 -51 -2z"/>
</g>
</svg>
