<?xml version="1.0" standalone="no"?>
<!DOCTYPE svg PUBLIC "-//W3C//DTD SVG 20010904//EN"
 "http://www.w3.org/TR/2001/REC-SVG-20010904/DTD/svg10.dtd">
<svg version="1.0" xmlns="http://www.w3.org/2000/svg"
 width="700.000000pt" height="589.000000pt" viewBox="0 0 700.000000 589.000000"
 preserveAspectRatio="xMidYMid meet">
<metadata>
Created by potrace 1.16, written by Peter Selinger 2001-2019
</metadata>
<g transform="translate(0.000000,589.000000) scale(0.100000,-0.100000)"
fill="#000000" stroke="none">
<path d="M3388 4421 l-246 -289 48 -111 c189 -435 517 -829 902 -1084 170
-113 490 -267 554 -267 12 0 43 28 79 70 33 38 61 70 64 70 2 0 36 -29 76 -65
70 -62 75 -65 124 -65 l51 0 0 -43 c0 -66 24 -82 142 -96 53 -6 101 -11 107
-11 10 0 445 550 439 555 -2 1 -147 50 -323 109 -362 120 -998 335 -1000 339
-1 1 -102 157 -225 347 -475 737 -535 830 -540 830 -3 0 -116 -130 -252 -289z"/>
<path d="M1147 4388 c-2 -29 -3 -56 -1 -60 2 -3 60 -56 128 -116 l123 -110 15
53 15 54 -31 29 c-17 15 -71 61 -121 102 -49 40 -97 80 -106 87 -15 12 -17 8
-22 -39z"/>
<path d="M1047 4262 l-39 -17 76 -68 c42 -37 98 -87 126 -111 l51 -43 44 16
c25 9 45 18 45 22 0 10 -243 219 -254 219 -6 0 -28 -8 -49 -18z"/>
<path d="M627 2535 c-11 -74 -8 -371 3 -465 59 -487 240 -806 575 -1017 159
-101 411 -186 668 -228 l37 -6 0 -249 0 -250 1513 2 1512 3 2 895 2 895 -27
-30 c-15 -17 -43 -49 -63 -72 l-36 -43 -55 50 -56 50 -492 0 c-465 0 -492 -1
-484 -17 4 -10 9 -56 11 -103 4 -83 3 -87 -31 -142 l-35 -58 122 -1 c67 -1
334 -5 592 -8 l470 -6 0 -568 c0 -313 -2 -586 -4 -608 l-3 -39 -1427 2 -1426
3 -3 53 -3 52 243 0 c134 0 588 0 1011 0 l767 0 0 75 0 75 -482 0 -483 0 73
66 c99 90 99 103 -4 244 -119 163 -142 182 -251 210 l-41 10 24 43 c42 74 46
90 42 169 -3 69 -6 80 -33 108 -62 65 -154 63 -214 -5 -29 -34 -31 -40 -31
-119 0 -64 4 -89 18 -107 10 -13 23 -36 29 -51 19 -44 56 -62 113 -55 32 4 52
2 58 -6 8 -11 -6 -97 -59 -360 -7 -32 -15 -54 -19 -50 -4 4 -27 97 -50 206
-35 167 -40 200 -28 214 11 14 10 15 -7 10 -11 -3 -33 -9 -50 -13 -69 -15
-114 -54 -199 -168 -136 -184 -136 -182 -33 -278 l72 -68 -232 0 -233 0 0 480
c0 377 3 480 13 480 6 1 261 1 565 2 l553 2 21 40 c17 32 21 62 23 141 1 55 6
110 10 123 l7 22 -592 0 c-583 0 -592 0 -597 20 -3 11 -9 20 -14 20 -5 0 -22
21 -39 48 l-30 47 0 -552 c0 -304 -3 -553 -7 -553 -5 0 -21 18 -36 40 l-28 40
-185 0 -184 0 0 30 0 30 167 2 167 3 -118 128 c-65 70 -122 124 -128 121 -7
-4 -8 -2 -4 4 4 7 -11 32 -36 58 l-43 46 -185 -3 -185 -4 -3 27 -3 28 164 2
165 3 -157 172 -156 172 -187 0 -188 1 0 30 0 29 157 3 156 3 -173 188 -173
189 21 20 20 20 29 -31 c437 -479 528 -577 530 -572 2 6 33 297 33 312 0 12
47 11 55 -1 3 -5 -1 -72 -9 -147 -27 -248 -43 -201 124 -388 80 -90 146 -160
148 -155 2 5 -9 42 -23 82 -75 207 -115 439 -115 668 l0 148 -102 41 c-191 74
-430 123 -669 137 l-116 7 -6 -48z m2151 -969 c34 9 41 8 51 -8 6 -10 11 -36
11 -58 0 -25 4 -39 10 -35 6 3 10 17 10 31 0 14 4 22 10 19 6 -3 10 -22 10
-42 0 -26 -5 -36 -19 -40 -11 -3 -24 -18 -30 -34 -11 -31 -35 -39 -45 -14 -8
21 -66 19 -81 -2 -11 -15 -15 -15 -29 -4 -9 7 -16 21 -16 31 0 10 -9 20 -20
23 -16 4 -20 14 -20 46 0 23 5 41 10 41 6 0 10 -14 10 -31 0 -17 4 -28 10 -24
6 3 10 22 10 41 0 20 4 44 10 54 8 16 14 17 40 7 21 -8 41 -8 68 -1z m-220
-603 c6 -64 10 -119 7 -121 -8 -8 -125 99 -125 114 0 26 29 72 62 98 18 14 36
26 39 26 3 0 11 -53 17 -117z m471 62 c45 -52 41 -74 -26 -134 -60 -54 -77
-62 -69 -33 2 9 7 53 11 97 9 114 13 127 35 115 9 -5 31 -25 49 -45z"/>
<path d="M2483 2523 c-62 -2 -113 -5 -113 -7 0 -2 12 -24 26 -50 l26 -46 995
2 995 3 45 51 44 52 -953 -1 c-524 0 -1004 -2 -1065 -4z"/>
<path d="M4100 1675 c0 -13 44 -15 335 -15 291 0 335 2 335 15 0 13 -44 15
-335 15 -291 0 -335 -2 -335 -15z"/>
<path d="M4100 1625 c0 -13 44 -15 335 -15 291 0 335 2 335 15 0 13 -44 15
-335 15 -291 0 -335 -2 -335 -15z"/>
<path d="M4100 1575 c0 -13 43 -15 336 -15 264 0 335 3 332 13 -4 9 -82 13
-336 15 -291 2 -332 0 -332 -13z"/>
<path d="M4100 1245 c0 -13 41 -15 332 -13 254 2 332 6 336 16 3 9 -68 12
-332 12 -293 0 -336 -2 -336 -15z"/>
<path d="M4100 1195 c0 -13 41 -15 332 -13 254 2 332 6 336 16 3 9 -68 12
-332 12 -293 0 -336 -2 -336 -15z"/>
<path d="M4100 1145 c0 -13 44 -15 335 -15 291 0 335 2 335 15 0 13 -44 15
-335 15 -291 0 -335 -2 -335 -15z"/>
<path d="M4100 1095 c0 -13 41 -15 335 -15 281 0 335 2 335 14 0 12 -54 14
-335 15 -294 1 -335 0 -335 -14z"/>
<path d="M4100 1045 c0 -13 45 -15 335 -15 277 0 335 2 335 14 0 11 -58 14
-335 15 -291 1 -335 -1 -335 -14z"/>
<path d="M4100 718 c0 -19 661 -19 667 0 4 9 -67 12 -331 12 -262 0 -336 -3
-336 -12z"/>
<path d="M4100 665 c0 -13 44 -15 335 -15 291 0 335 2 335 15 0 13 -44 15
-335 15 -291 0 -335 -2 -335 -15z"/>
</g>
</svg>
