<svg id="Capa_1" data-name="Capa 1" xmlns="http://www.w3.org/2000/svg" xmlns:xlink="http://www.w3.org/1999/xlink" viewBox="0 0 239.93 217.07"><defs><style>.cls-1{fill:url(#Degradado_sin_nombre_18);}.cls-2{fill:#7e2174;}.cls-3{fill:url(#Degradado_sin_nombre_11);}.cls-4{fill:#097aa6;}.cls-5{fill:url(#Degradado_sin_nombre_24);}.cls-6{fill:url(#Degradado_sin_nombre_30);}.cls-7{fill:url(#Degradado_sin_nombre_39);}.cls-8{fill:url(#Degradado_sin_nombre_45);}</style><linearGradient id="Degradado_sin_nombre_18" x1="436.68" y1="189.58" x2="436.68" y2="363.53" gradientUnits="userSpaceOnUse"><stop offset="0" stop-color="#e4112e"/><stop offset="1" stop-color="#ba1882"/></linearGradient><linearGradient id="Degradado_sin_nombre_11" x1="363.34" y1="190.3" x2="363.34" y2="364.38" gradientUnits="userSpaceOnUse"><stop offset="0" stop-color="#63c4db"/><stop offset="1" stop-color="#14a9e2"/></linearGradient><linearGradient id="Degradado_sin_nombre_24" x1="340.01" y1="214.42" x2="340.01" y2="353.71" gradientUnits="userSpaceOnUse"><stop offset="0" stop-color="#c6d316"/><stop offset="1" stop-color="#87bd3b"/></linearGradient><linearGradient id="Degradado_sin_nombre_30" x1="459.96" y1="215.96" x2="459.96" y2="355.24" gradientUnits="userSpaceOnUse"><stop offset="0" stop-color="#eb601d"/><stop offset="1" stop-color="#e41917"/></linearGradient><linearGradient id="Degradado_sin_nombre_39" x1="321.27" y1="238.06" x2="321.27" y2="377.14" gradientUnits="userSpaceOnUse"><stop offset="0" stop-color="#fceb38"/><stop offset="1" stop-color="#fed506"/></linearGradient><linearGradient id="Degradado_sin_nombre_45" x1="478.66" y1="239.72" x2="478.66" y2="380.41" gradientUnits="userSpaceOnUse"><stop offset="0.01" stop-color="#f9c00f"/><stop offset="1" stop-color="#ed6c27"/></linearGradient></defs><path class="cls-1" d="M406.75,280.4c1.22-12.29,25.11-71.25,59.9-89.78V331.3l-.08.05c-14.08,8.91-26.29,22.15-36,35a267.86,267.86,0,0,0-23.85,38.45V282.18c0-.17,0-.34,0-.52A8.13,8.13,0,0,1,406.75,280.4Z" transform="translate(-280 -190.62)"/><path class="cls-2" d="M406.75,312.45v92.34a267.86,267.86,0,0,1,23.85-38.45q1.53-2,3.14-4C421.13,359,410.18,334.19,406.75,312.45Z" transform="translate(-280 -190.62)"/><path class="cls-3" d="M393.27,280.4c-1.22-12.29-25.11-71.25-59.9-89.78V331.3l.08.05c14.08,8.91,26.29,22.15,36,35a267.86,267.86,0,0,1,23.85,38.45V282.18c0-.17,0-.34,0-.52A8.13,8.13,0,0,0,393.27,280.4Z" transform="translate(-280 -190.62)"/><path class="cls-4" d="M393.27,312.45v92.34a267.86,267.86,0,0,0-23.85-38.45q-1.53-2-3.14-4C378.89,359,389.84,334.19,393.27,312.45Z" transform="translate(-280 -190.62)"/><path class="cls-5" d="M306.48,215.47V356.53c5.63,2.07,11.17,4.22,16.61,6.78A176,176,0,0,1,347.14,377a247.33,247.33,0,0,1,22.18,17.19l4.23,3.67-6.11-10.39q-4.24-6-8.45-12.07c-9.05-13-21.45-24.18-34-33.69l-5.55-4.22.05-114.94Z" transform="translate(-280 -190.62)"/><path class="cls-6" d="M493.5,215.47V356.53c-5.64,2.07-11.17,4.22-16.61,6.78A176.1,176.1,0,0,0,452.83,377a247.19,247.19,0,0,0-22.17,17.19l-4.24,3.67,6.12-10.39c2.83-4,5.63-8,8.44-12.07,9.06-13,21.45-24.18,34-33.69l5.55-4.22,0-114.94Z" transform="translate(-280 -190.62)"/><path class="cls-7" d="M280,240V382c0,.31,12.8,2.12,14,2.34,4.75.84,9.47,1.8,14.18,2.82a180.28,180.28,0,0,1,26.28,8.25c7.46,2.88,14.72,6.24,22,9.38l6,2.9-9.31-8.33c-9-8.07-20.09-14.36-30.65-20.16-7.15-3.92-14.65-6.58-22.14-9.72-1.46-.6-8.47-4.22-8.47-4.74V241Z" transform="translate(-280 -190.62)"/><path class="cls-8" d="M519.93,240V382c0,.31-12.8,2.12-14,2.34-4.75.84-9.47,1.8-14.18,2.82a180.28,180.28,0,0,0-26.28,8.25c-7.46,2.88-14.72,6.24-22,9.38l-6,2.9,9.32-8.33c9-8.07,20.09-14.36,30.65-20.16a126.71,126.71,0,0,1,12.74-5.9c4.39-1.79,17.87-8,17.87-8.56V241Z" transform="translate(-280 -190.62)"/></svg>