<svg width="194" height="194" viewBox="0 0 194 194" fill="none" xmlns="http://www.w3.org/2000/svg">
<path d="M193.875 97C193.875 43.875 150.125 0.125 97 0.125C43.4844 0.125 0.125 43.875 0.125 97C0.125 150.516 43.4844 193.875 97 193.875C150.125 193.875 193.875 150.516 193.875 97ZM175.125 97C175.125 114.188 169.656 129.812 159.891 143.094L156.766 130.203L123.562 134.109L109.5 164.578L121.219 171.609C105.594 176.688 88.0156 176.688 72.3906 171.609L84.1094 164.578L70.0469 134.109L36.8438 130.203L33.7188 143.094C23.9531 129.812 18.875 114.188 18.875 97L29.0312 105.984L53.25 82.9375L47 50.125L33.3281 51.2969C43.0938 38.0156 57.1562 27.8594 72.7812 22.7812L67.7031 35.2812L97 51.2969L125.906 35.2812L120.828 22.7812C136.844 27.8594 150.516 38.0156 160.281 51.2969L146.609 50.125L140.359 82.9375L164.578 105.984L174.734 97H175.125ZM77.8594 124.344H115.75L127.078 88.7969L97 66.5312L66.5312 88.7969L77.8594 124.344Z" fill="#A24EF6"/>
</svg>
