<svg width="200" height="176" viewBox="0 0 200 176" fill="none" xmlns="http://www.w3.org/2000/svg">
<path d="M181.25 88H18.75C8.20312 88 0 96.5938 0 106.75C0 117.297 8.20312 125.5 18.75 125.5H181.25C191.406 125.5 200 117.297 200 106.75C200 96.5938 191.406 88 181.25 88ZM187.5 138H12.5C8.98438 138 6.25 141.125 6.25 144.25V150.5C6.25 164.562 17.1875 175.5 31.25 175.5H168.75C182.422 175.5 193.75 164.562 193.75 150.5V144.25C193.75 141.125 190.625 138 187.5 138ZM22.6562 75.5H176.953C190.234 75.5 198.047 58.7031 190.625 46.2031C175 20.8125 140.234 0.890625 100 0.5C59.375 0.890625 25 20.8125 8.98438 46.2031C1.5625 58.7031 9.375 75.5 22.6562 75.5ZM150 31.75C153.125 31.75 156.25 34.875 156.25 38C156.25 41.5156 153.125 44.25 150 44.25C146.484 44.25 143.75 41.5156 143.75 38C143.75 34.875 146.484 31.75 150 31.75ZM100 19.25C103.125 19.25 106.25 22.375 106.25 25.5C106.25 29.0156 103.125 31.75 100 31.75C96.4844 31.75 93.75 29.0156 93.75 25.5C93.75 22.375 96.4844 19.25 100 19.25ZM50 31.75C53.125 31.75 56.25 34.875 56.25 38C56.25 41.5156 53.125 44.25 50 44.25C46.4844 44.25 43.75 41.5156 43.75 38C43.75 34.875 46.4844 31.75 50 31.75Z" fill="#A24EF6"/>
</svg>
