<svg width="250" height="154" viewBox="0 0 250 154" fill="none" xmlns="http://www.w3.org/2000/svg">
<path d="M169.531 0H135.938C132.812 0 130.078 1.17188 127.734 3.51562L89.0625 38.6719C82.8125 44.9219 82.8125 54.6875 88.2812 60.5469C93.3594 66.0156 103.516 67.5781 110.156 61.7188C110.156 61.7188 110.156 61.7188 110.547 61.7188L141.406 33.2031C144.141 30.8594 148.047 30.8594 150.391 33.5938C152.734 35.9375 152.734 39.8438 150 42.1875L139.844 51.5625L196.875 97.6562C197.656 98.8281 198.828 99.6094 199.609 100.781V25L178.516 3.90625C176.172 1.5625 173.047 0 169.531 0ZM212.5 25.3906V112.891C212.5 119.531 217.969 125.391 225 125.391H250V25.3906H212.5ZM231.25 112.891C227.734 112.891 225 109.766 225 106.641C225 103.125 227.734 100.391 231.25 100.391C234.375 100.391 237.5 103.125 237.5 106.641C237.5 109.766 234.375 112.891 231.25 112.891ZM0 125H25C31.6406 125 37.5 119.531 37.5 112.5V25.3906H0V125ZM18.75 100.391C21.875 100.391 25 103.125 25 106.641C25 109.766 21.875 112.891 18.75 112.891C15.2344 112.891 12.5 109.766 12.5 106.641C12.5 103.125 15.2344 100.391 18.75 100.391ZM188.672 107.422L130.469 60.1562L118.75 70.7031C107.031 81.6406 89.4531 80.4688 78.9062 69.1406C68.75 57.8125 69.5312 39.8438 80.8594 29.2969L112.891 0H80.0781C76.5625 0 73.4375 1.5625 71.0938 3.90625L50 25V112.5H57.0312L92.1875 144.531C103.125 153.516 118.75 151.562 127.344 141.016H127.734L134.375 146.875C140.625 151.953 150 151.172 155.078 144.922L167.188 129.688L169.531 131.641C174.609 135.938 182.422 135.156 187.109 129.688L190.625 125C194.922 119.531 194.141 111.719 188.672 107.422Z" fill="#A24EF6"/>
</svg>
