<svg width="250" height="176" viewBox="0 0 250 176" fill="none" xmlns="http://www.w3.org/2000/svg">
<path d="M37.5 75.5C51.1719 75.5 62.5 64.5625 62.5 50.5C62.5 36.8281 51.1719 25.5 37.5 25.5C23.4375 25.5 12.5 36.8281 12.5 50.5C12.5 64.5625 23.4375 75.5 37.5 75.5ZM212.5 75.5C226.172 75.5 237.5 64.5625 237.5 50.5C237.5 36.8281 226.172 25.5 212.5 25.5C198.438 25.5 187.5 36.8281 187.5 50.5C187.5 64.5625 198.438 75.5 212.5 75.5ZM225 88H200C192.969 88 186.719 91.125 182.031 95.4219C198.047 104.016 208.984 119.641 211.719 138H237.5C244.141 138 250 132.531 250 125.5V113C250 99.3281 238.672 88 225 88ZM125 88C148.828 88 168.75 68.4688 168.75 44.25C168.75 20.4219 148.828 0.5 125 0.5C100.781 0.5 81.25 20.4219 81.25 44.25C81.25 68.4688 100.781 88 125 88ZM154.688 100.5H151.562C143.359 104.406 134.375 106.75 125 106.75C115.234 106.75 106.25 104.406 98.0469 100.5H94.9219C69.9219 100.5 50 120.812 50 145.812V156.75C50 167.297 58.2031 175.5 68.75 175.5H181.25C191.406 175.5 200 167.297 200 156.75V145.812C200 120.812 179.688 100.5 154.688 100.5ZM67.5781 95.4219C62.8906 91.125 56.6406 88 50 88H25C10.9375 88 0 99.3281 0 113V125.5C0 132.531 5.46875 138 12.5 138H37.8906C40.625 119.641 51.5625 104.016 67.5781 95.4219Z" fill="#A24EF6"/>
</svg>
