<svg width="179" height="200" viewBox="0 0 179 200" fill="none" xmlns="http://www.w3.org/2000/svg">
<path d="M126.609 125.391L89.5 162.5L52 125.391C24.2656 126.562 2 149.609 2 177.734V181.25C2 191.797 10.2031 200 20.75 200H158.25C168.406 200 177 191.797 177 181.25V177.734C177 149.609 154.344 126.562 126.609 125.391ZM7.07812 31.25L9.8125 32.0312V54.6875C7.07812 56.25 5.125 59.375 5.125 62.5C5.125 66.0156 6.6875 68.75 9.42188 70.3125L3.17188 94.5312C2.39062 97.2656 3.95312 100 6.29688 100H22.3125C24.6562 100 26.2188 97.2656 25.4375 94.5312L19.1875 70.3125C21.9219 68.75 23.875 66.0156 23.875 62.5C23.875 59.375 21.9219 56.25 19.1875 54.6875V34.375L44.9688 40.2344C41.4531 47.2656 39.5 54.6875 39.5 62.5C39.5 90.2344 61.7656 112.5 89.5 112.5C116.844 112.5 139.5 90.2344 139.5 62.5C139.5 54.6875 137.156 47.2656 134.031 40.2344L171.531 31.25C178.562 29.6875 178.562 20.7031 171.531 19.1406L96.9219 1.17188C91.8438 0 86.7656 0 81.6875 1.17188L7.07812 19.1406C0.046875 20.7031 0.046875 29.6875 7.07812 31.25Z" fill="#49F2D2"/>
</svg>
