<svg width="175" height="200" viewBox="0 0 175 200" fill="none" xmlns="http://www.w3.org/2000/svg">
<path d="M175 140.625V9.375C175 4.29688 170.703 0 165.625 0H37.5C16.7969 0 0 16.7969 0 37.5V162.5C0 183.203 16.7969 200 37.5 200H165.625C170.703 200 175 196.094 175 190.625V184.375C175 181.641 173.438 178.906 171.484 177.344C169.531 171.094 169.531 153.906 171.484 148.047C173.438 146.484 175 143.75 175 140.625ZM50 52.3438C50 51.1719 50.7812 50 52.3438 50H135.156C136.328 50 137.5 51.1719 137.5 52.3438V60.1562C137.5 61.7188 136.328 62.5 135.156 62.5H52.3438C50.7812 62.5 50 61.7188 50 60.1562V52.3438ZM50 77.3438C50 76.1719 50.7812 75 52.3438 75H135.156C136.328 75 137.5 76.1719 137.5 77.3438V85.1562C137.5 86.7188 136.328 87.5 135.156 87.5H52.3438C50.7812 87.5 50 86.7188 50 85.1562V77.3438ZM148.828 175H37.5C30.4688 175 25 169.531 25 162.5C25 155.859 30.4688 150 37.5 150H148.828C148.047 157.031 148.047 168.359 148.828 175Z" fill="#49F2D2"/>
</svg>
