<svg width="163" height="200" viewBox="0 0 163 200" fill="none" xmlns="http://www.w3.org/2000/svg">
<path d="M106.25 37.5C116.406 37.5 125 29.2969 125 18.75C125 8.59375 116.406 0 106.25 0C95.7031 0 87.5 8.59375 87.5 18.75C87.5 29.2969 95.7031 37.5 106.25 37.5ZM44.1406 124.219L38.2812 137.5H12.5C5.46875 137.5 0 143.359 0 150C0 157.031 5.46875 162.5 12.5 162.5H42.5781C50 162.5 57.0312 158.203 59.7656 151.172L63.2812 143.359L58.9844 141.016C52.3438 136.719 47.2656 130.859 44.1406 124.219ZM150 87.5H132.422L122.266 66.7969C117.578 57.0312 108.594 49.6094 98.4375 46.875L70.7031 38.6719C59.375 35.9375 48.0469 38.6719 39.0625 45.3125L23.4375 57.4219C17.9688 61.3281 16.7969 69.5312 21.0938 75C25.3906 80.4688 33.2031 81.25 38.6719 76.9531L54.2969 65.2344C57.0312 62.8906 60.9375 62.1094 64.0625 62.8906L69.9219 64.4531L55.0781 98.8281C50.3906 110.156 54.6875 123.828 65.2344 130.078L98.4375 149.609L87.8906 183.984C85.9375 190.625 89.4531 197.656 96.0938 199.609C97.2656 200 98.4375 200 100 200C105.078 200 110.156 196.875 111.719 191.406L124.219 151.953C126.562 143.75 123.047 135.156 115.625 130.859L91.7969 116.406L103.906 85.9375L111.719 102.344C114.844 108.594 121.484 112.5 128.906 112.5H150C156.641 112.5 162.5 107.031 162.5 100C162.5 93.3594 156.641 87.5 150 87.5Z" fill="#49F2D2"/>
</svg>
