<svg width="194" height="194" viewBox="0 0 194 194" fill="none" xmlns="http://www.w3.org/2000/svg">
<path d="M97 0.125C43.4844 0.125 0.125 43.4844 0.125 97C0.125 150.516 43.4844 193.875 97 193.875C150.516 193.875 193.875 150.516 193.875 97C193.875 43.4844 150.516 0.125 97 0.125ZM132.938 122.391L125.125 132.156C123.953 133.719 122.391 134.891 120.047 134.891C118.875 134.891 117.312 134.109 116.531 133.328L90.3594 113.797C86.4531 111.062 84.5 106.766 84.5 101.688V40.75C84.5 37.625 87.2344 34.5 90.75 34.5H103.25C106.375 34.5 109.5 37.625 109.5 40.75V97L132.156 113.797C133.328 114.969 134.5 116.531 134.5 118.484C134.5 120.047 133.719 121.609 132.938 122.391Z" fill="#49F2D2"/>
</svg>
