<?xml version="1.0" standalone="no"?>
<!DOCTYPE svg PUBLIC "-//W3C//DTD SVG 20010904//EN"
 "http://www.w3.org/TR/2001/REC-SVG-20010904/DTD/svg10.dtd">
<svg version="1.0" xmlns="http://www.w3.org/2000/svg"
 width="850.000000pt" height="450.000000pt" viewBox="0 0 850.000000 450.000000"
 preserveAspectRatio="xMidYMid meet">
<metadata>
Created by potrace 1.16, written by Peter Selinger 2001-2019
</metadata>
<g transform="translate(0.000000,450.000000) scale(0.100000,-0.100000)"
fill="#000000" stroke="none">
<path d="M0 2250 l0 -2250 1840 0 1839 0 11 43 c20 72 106 141 165 129 32 -6
33 -32 1 -32 -62 0 -116 -52 -116 -112 l0 -28 551 0 c436 0 550 3 546 13 -2 7
-17 11 -35 9 -43 -4 -41 15 3 34 58 24 75 19 75 -21 l0 -35 55 0 c52 0 58 2
98 45 36 38 50 45 81 45 32 0 39 -4 50 -32 8 -18 12 -38 9 -45 -4 -9 4 -13 25
-13 30 0 30 0 30 59 -1 66 5 81 31 81 10 0 26 9 36 20 23 26 71 26 85 1 5 -11
10 -52 10 -91 l0 -71 27 3 27 3 1 92 c1 87 2 94 29 122 18 19 47 34 78 41 52
13 68 9 50 -13 -6 -7 -9 -22 -6 -33 7 -28 -35 -86 -79 -107 -45 -22 -52 -54
-9 -41 15 4 43 8 62 8 34 1 35 0 34 -36 l-1 -38 781 0 c429 0 787 4 794 9 10
6 12 21 7 55 -6 36 -3 52 10 73 15 23 19 24 29 11 6 -8 22 -15 36 -14 22 1 25
-4 27 -34 1 -27 -1 -31 -8 -17 -16 28 -55 21 -69 -12 -6 -16 -10 -38 -8 -48 3
-17 24 -18 368 -20 l365 -3 -1 68 c-2 65 14 112 36 112 11 0 50 -36 50 -46 0
-3 -9 -13 -20 -22 -11 -10 -22 -32 -24 -49 -2 -18 -9 -40 -16 -48 -11 -13 18
-15 264 -15 l276 0 0 615 c0 608 0 615 -20 615 -25 0 -25 11 0 43 20 25 20 39
19 1034 -1 554 -4 999 -6 987 -8 -40 -94 -71 -107 -38 -19 48 3 109 48 133 33
19 36 35 6 39 -26 4 -26 38 0 52 14 8 26 8 40 0 20 -10 20 -8 20 136 0 129 -2
145 -15 134 -12 -10 -15 -10 -15 3 0 8 7 20 16 28 16 13 16 76 -1 128 -6 17
-5 22 3 17 9 -5 12 52 11 226 -1 128 -4 220 -6 203 -10 -77 -42 -125 -84 -125
-40 0 -50 24 -39 101 4 35 11 88 14 117 l7 52 -366 0 c-343 0 -366 -1 -363
-17 2 -11 15 -20 33 -23 37 -6 39 -24 3 -28 -34 -4 -42 -29 -43 -127 0 -69 0
-70 28 -73 23 -3 26 -6 16 -18 -15 -19 -43 -18 -60 2 -9 11 -12 43 -11 109 2
75 0 94 -13 98 -21 9 -19 24 4 32 10 3 21 15 24 25 5 20 -3 20 -552 20 l-557
0 1 -77 c1 -81 7 -103 30 -103 25 0 22 -25 -5 -41 -25 -16 -27 -23 -32 -101
-6 -93 -25 -142 -59 -151 -43 -11 -55 17 -15 33 30 11 46 60 46 140 0 34 6 64
16 78 13 19 13 26 3 38 -8 10 -12 39 -11 80 5 115 72 104 -628 104 l-610 0 24
-39 c90 -142 88 -340 -5 -491 -33 -54 -40 -58 -58 -36 -9 11 -6 24 18 63 56
92 76 222 50 318 -10 35 -21 59 -73 162 -10 20 -19 23 -78 23 l-68 0 0 -289 0
-290 -54 -6 c-58 -8 -76 -3 -76 21 0 9 10 14 29 14 59 0 56 -11 51 258 l-5
247 -40 0 c-35 0 -40 3 -39 23 l1 22 -2474 0 -2473 0 0 -2250z m4484 2234 c9
-3 16 -14 16 -24 0 -21 -19 -30 -62 -30 l-30 0 6 -67 c3 -38 8 -152 12 -255
l6 -188 45 0 c40 0 44 -2 41 -22 -3 -20 -10 -24 -66 -28 -35 -3 -66 -2 -68 1
-4 6 -24 468 -24 556 l0 52 48 4 c26 2 50 4 54 5 3 1 13 -1 22 -4z m-628 -30
c12 -17 10 -25 -16 -64 -98 -146 -89 -341 22 -489 32 -42 39 -58 31 -70 -18
-29 -49 -18 -92 34 -91 109 -126 242 -99 375 18 88 46 151 89 203 33 40 45 42
65 11z m3678 -16 c13 -18 24 -117 14 -118 -2 -1 -21 -3 -43 -6 -63 -8 -65 -10
-58 -46 7 -39 18 -48 56 -48 44 0 27 -25 -19 -28 -35 -3 -42 1 -55 24 -8 16
-14 52 -13 88 2 116 74 197 118 134z m-4186 -26 c6 -9 12 -40 12 -69 0 -55 14
-69 40 -38 18 22 77 18 111 -6 46 -33 57 -72 61 -226 3 -134 2 -138 -18 -141
-11 -2 -25 3 -31 10 -6 7 -15 70 -21 139 -13 168 -38 204 -97 142 -26 -28 -26
-29 -23 -163 l3 -135 -29 -3 c-16 -2 -32 0 -37 5 -8 8 -32 221 -45 399 -6 82
-5 93 12 102 21 12 44 6 62 -16z m-2068 -57 c28 -15 38 -35 55 -118 5 -22 10
-27 23 -22 62 27 91 29 139 9 93 -38 148 -152 141 -289 -6 -133 -77 -196 -222
-197 -84 0 -125 15 -143 52 -14 31 -93 463 -93 513 0 26 6 40 22 51 28 20 41
20 78 1z m3531 5 c10 -6 19 -21 19 -34 0 -23 -2 -24 -35 -13 -74 22 -122 -40
-112 -147 5 -49 10 -65 32 -83 31 -27 66 -29 100 -7 24 16 25 16 25 -9 0 -48
-89 -75 -150 -44 -61 30 -90 167 -54 257 30 74 113 112 175 80z m-634 -30 c17
-10 37 -28 43 -39 5 -11 13 -83 17 -160 6 -129 5 -141 -12 -147 -10 -4 -25 -2
-34 3 -13 8 -23 6 -42 -8 -24 -18 -65 -24 -105 -13 -47 13 -73 123 -39 171 22
32 72 53 123 53 l45 0 -7 32 c-4 18 -14 41 -24 50 -16 17 -22 17 -75 3 -72
-19 -67 -19 -67 9 0 28 14 41 60 54 54 16 82 14 117 -8z m-3718 -10 c136 -39
190 -177 111 -286 -26 -37 -29 -45 -15 -50 10 -4 23 3 36 20 27 34 71 35 104
1 22 -21 25 -33 25 -99 0 -69 2 -78 30 -109 57 -65 30 -109 -66 -106 -42 1
-72 -4 -104 -19 -89 -42 -207 -24 -276 43 -68 65 -81 146 -37 234 21 43 24 57
15 70 -74 104 -66 210 20 274 43 32 104 42 157 27z m2705 -40 c12 -12 16 -25
11 -39 -6 -19 -12 -21 -53 -15 -62 8 -104 -8 -100 -39 3 -22 25 -36 115 -73
56 -22 74 -44 80 -98 4 -35 1 -51 -17 -75 -32 -46 -69 -61 -148 -61 -78 0
-106 14 -100 51 3 23 5 24 69 21 82 -5 111 8 107 46 -2 22 -12 30 -53 44 -110
39 -147 75 -147 144 0 66 42 104 127 115 60 7 84 3 109 -21z m-323 -143 c19
-174 18 -247 -3 -261 -13 -8 -23 -8 -38 2 -16 10 -25 9 -52 -8 -40 -24 -114
-26 -146 -4 -39 27 -60 86 -76 210 -9 65 -16 131 -16 146 0 33 28 51 64 42 32
-8 41 -36 56 -179 7 -60 18 -120 26 -132 25 -39 62 -26 93 34 8 16 8 53 -1
143 -11 114 -11 123 6 135 13 10 25 11 45 4 28 -10 28 -13 42 -132z m-453 104
c69 -51 107 -193 78 -293 -22 -76 -69 -118 -151 -133 -22 -4 -42 -8 -46 -10
-3 -2 -3 -27 1 -54 8 -66 -1 -81 -51 -81 -31 0 -41 5 -49 23 -5 12 -23 119
-40 237 -16 118 -32 229 -35 247 -8 48 22 75 74 67 28 -5 46 -2 62 10 39 27
109 21 157 -13z m-434 -322 c28 -33 32 -55 15 -92 -26 -57 -111 -61 -149 -8
-26 37 -26 71 1 105 16 21 29 26 64 26 36 0 48 -5 69 -31z m5191 21 c3 -6 -8
-38 -24 -73 -56 -113 -63 -219 -21 -315 38 -84 -6 -115 -47 -32 -48 96 -39
233 22 357 34 68 55 87 70 63z m846 -32 c8 -15 9 -50 5 -110 -8 -104 -12 -118
-36 -118 -11 0 -22 -4 -25 -10 -9 -14 -48 -13 -63 2 -7 7 -12 32 -12 56 0 35
6 49 29 73 16 16 36 29 44 29 19 0 30 27 14 37 -7 4 -22 6 -34 4 -17 -2 -23 3
-23 18 0 42 81 57 101 19z m-1636 -41 c24 -18 12 -36 -19 -30 -38 8 -66 -27
-66 -83 l0 -46 40 7 c36 6 40 5 40 -14 0 -16 -6 -21 -27 -21 -16 0 -33 -4 -40
-8 -6 -4 -14 -48 -18 -100 -7 -81 -10 -92 -27 -92 -17 0 -18 7 -16 93 l3 92
-27 -3 c-14 -1 -29 2 -32 7 -8 13 21 41 43 41 14 0 20 11 24 52 9 73 37 106
98 117 3 1 13 -5 24 -12z m1123 4 c32 -20 26 -218 -6 -227 -10 -3 -25 -10 -34
-15 -46 -24 -69 -1 -58 59 9 52 18 62 61 71 42 8 54 28 40 65 -11 26 -15 28
-49 23 l-37 -6 24 19 c25 22 39 24 59 11z m-718 -80 c16 -31 13 -91 -5 -91 -9
0 -15 9 -15 23 0 31 -15 51 -33 44 -33 -12 -50 -57 -56 -145 -5 -73 -9 -87
-24 -90 -17 -4 -18 4 -11 120 7 127 13 150 37 130 11 -9 18 -8 32 8 23 25 61
26 75 1z m-1380 -16 c0 -9 -12 -20 -27 -26 -39 -14 -43 -25 -43 -105 0 -55 -4
-77 -19 -96 -19 -24 -19 -24 0 -36 16 -11 19 -24 19 -101 0 -95 11 -121 51
-121 25 0 25 -27 -1 -35 -59 -19 -90 30 -90 143 0 82 -6 96 -45 104 -27 4 -33
38 -7 38 36 0 50 30 54 118 3 77 5 86 31 108 32 27 77 32 77 9z m1157 -7 c59
-65 29 -228 -49 -266 -32 -15 -72 -2 -89 29 -17 32 -14 137 5 184 30 72 92 97
133 53z m-1752 -143 c64 -136 43 -319 -52 -443 -23 -31 -27 -33 -42 -18 -13
13 -13 20 -3 34 56 80 87 189 78 279 -8 74 -26 121 -73 186 -33 48 -34 49 -16
69 18 20 18 20 51 -18 18 -21 43 -61 57 -89z m-255 90 c10 -12 7 -23 -18 -62
-90 -144 -81 -342 21 -456 22 -24 24 -32 14 -48 -18 -30 -33 -23 -75 34 -94
125 -111 241 -60 393 20 59 80 154 97 154 5 0 14 -7 21 -15z m-445 -125 l7
-69 26 18 c48 34 78 34 114 3 31 -29 32 -30 41 -162 8 -110 8 -133 -4 -141
-37 -24 -44 -8 -52 121 -10 138 -21 167 -60 149 -50 -23 -59 -52 -58 -180 l2
-119 -25 0 c-27 0 -29 12 -41 235 -3 55 -8 126 -11 158 l-6 57 30 0 c30 0 30
-1 37 -70z m-490 -114 c26 -26 34 -72 38 -226 l2 -95 -27 -3 c-16 -2 -28 0
-28 5 0 43 -23 241 -30 259 -14 35 -52 31 -84 -7 -25 -29 -26 -34 -19 -117 13
-152 12 -157 -21 -160 -16 -2 -32 0 -36 5 -5 4 -13 62 -19 128 -7 66 -14 137
-16 158 -5 32 -2 39 20 49 19 8 28 8 39 -2 13 -10 21 -8 43 9 40 29 107 28
138 -3z m4454 2 c20 -32 30 -125 20 -196 -10 -73 -61 -192 -82 -192 -26 0 -27
29 -3 77 36 72 49 151 37 218 -6 31 -13 60 -16 66 -9 14 4 49 18 49 7 0 18
-10 26 -22z m-5682 0 c4 -7 10 -31 13 -53 l5 -40 68 3 c72 4 97 -6 97 -39 0
-24 -23 -35 -92 -43 -34 -5 -58 -12 -58 -19 0 -58 25 -195 37 -209 19 -21 61
-23 98 -6 21 10 29 9 42 -5 25 -25 4 -63 -44 -76 -75 -21 -148 -7 -184 35 -18
20 -34 87 -47 189 l-7 60 -43 3 c-32 2 -46 9 -58 28 -22 32 -6 52 48 61 40 6
40 6 34 44 -5 31 -2 42 16 59 24 22 63 27 75 8z m864 -31 c53 -36 80 -93 80
-174 0 -74 -9 -107 -37 -138 -36 -39 -75 -57 -128 -58 -97 -2 -145 56 -153
184 -6 88 10 135 61 174 53 40 128 45 177 12z m4556 7 c3 -9 -3 -32 -15 -52
-50 -91 -65 -204 -36 -288 17 -50 13 -74 -11 -74 -27 0 -55 77 -55 156 0 130
89 329 117 258z m-4970 -46 c6 -7 16 -62 22 -123 19 -176 15 -165 72 -165 46
0 49 -2 49 -25 0 -31 1 -31 -129 -50 -135 -19 -158 -19 -170 3 -15 27 3 45 51
51 l43 6 -3 79 c-2 43 -6 95 -11 115 -7 33 -10 36 -40 33 -40 -3 -71 13 -71
38 0 31 10 34 161 48 9 1 21 -4 26 -10z m5121 -34 c9 -18 9 -48 2 -111 -5 -47
-11 -87 -12 -88 -2 -1 -17 -10 -35 -19 -65 -33 -99 -13 -90 55 6 46 26 72 68
89 38 16 38 40 0 40 -39 0 -47 14 -21 40 29 29 74 26 88 -6z m-7134 0 c85 -41
64 -103 -38 -112 -65 -5 -78 -17 -74 -69 l3 -38 53 3 c100 6 161 -33 128 -83
-15 -22 -84 -45 -136 -45 -25 0 -25 -4 1 -124 24 -115 19 -140 -33 -154 -47
-12 -87 4 -103 42 -7 17 -21 70 -31 119 l-18 87 -54 0 c-71 0 -92 12 -92 54 0
39 23 63 73 77 l35 9 -2 63 c-1 82 22 122 93 159 63 33 141 37 195 12z m1304
-34 c17 -11 32 -28 32 -38 0 -33 -20 -42 -80 -35 -54 5 -57 4 -84 -28 -27 -31
-28 -38 -23 -103 4 -63 8 -73 36 -98 36 -32 71 -35 124 -13 43 18 67 11 67
-20 0 -44 -42 -72 -123 -81 -93 -11 -166 27 -209 110 -32 60 -32 177 0 228 54
87 182 126 260 78z m5520 12 c9 -7 9 -40 -4 -163 -9 -85 -21 -160 -26 -167
-16 -19 -38 4 -38 39 0 26 -3 29 -24 23 -79 -20 -73 208 8 257 33 20 63 24 84
11z m-5961 -53 c26 -13 50 -34 60 -53 23 -44 65 -303 53 -326 -14 -26 -58 -34
-85 -16 -19 13 -26 35 -45 138 -13 68 -29 133 -37 146 -18 30 -50 26 -76 -10
-19 -26 -20 -31 -7 -115 22 -140 20 -174 -11 -192 -34 -19 -75 -8 -92 27 -8
15 -26 98 -42 184 -27 153 -28 158 -10 178 13 14 31 20 60 20 24 0 62 9 86 20
56 25 92 25 146 -1z m-379 -54 c7 -7 27 -89 44 -184 37 -206 35 -221 -37 -221
-27 0 -57 -8 -77 -20 -94 -57 -218 -20 -257 78 -13 32 -61 255 -61 283 0 31
36 59 75 59 61 0 77 -27 104 -170 13 -69 27 -133 32 -142 14 -26 44 -22 68 8
25 32 26 58 5 157 -21 102 -16 148 16 164 27 13 67 8 88 -12z m4955 -32 c46
-73 62 -159 47 -247 -11 -70 -72 -203 -96 -213 -33 -12 -31 19 5 89 32 63 36
81 40 160 3 84 1 93 -29 154 -25 52 -29 68 -20 79 19 22 28 19 53 -22z m672
15 c14 -13 8 -218 -7 -235 -6 -8 -16 -12 -23 -10 -6 3 -19 -1 -30 -9 -31 -23
-74 -18 -86 10 -26 57 17 137 81 150 22 4 30 11 30 26 0 26 -24 36 -55 22 -28
-13 -40 -2 -30 28 11 34 91 46 120 18z m-829 -13 c3 -8 -6 -35 -20 -61 -35
-63 -56 -137 -56 -200 0 -57 31 -154 55 -174 19 -16 19 -25 -1 -45 -15 -14
-18 -14 -33 -1 -38 35 -65 109 -69 189 -5 105 20 195 80 280 22 30 36 34 44
12z m-791 -141 c58 -76 83 -184 66 -280 -12 -66 -75 -202 -98 -211 -30 -12
-37 14 -13 54 38 64 60 142 60 213 0 78 -12 118 -52 179 -48 73 -15 113 37 45z
m565 -14 c18 -18 20 -33 20 -127 0 -115 -6 -136 -36 -132 -11 2 -33 -5 -51
-14 -42 -22 -59 -21 -83 3 -47 47 -10 141 62 161 56 16 62 22 54 53 -5 20 -13
26 -34 26 -15 0 -38 -7 -50 -16 -20 -14 -23 -14 -29 2 -4 12 3 24 23 41 37 29
96 31 124 3z m-992 -233 c2 -192 2 -197 -18 -197 -12 0 -20 7 -20 16 0 11 -9
6 -31 -15 -68 -68 -139 -13 -139 107 0 69 16 112 58 150 25 23 45 32 69 32 33
0 33 0 33 48 0 53 6 64 30 60 13 -3 15 -32 18 -201z m3152 85 c22 -18 22 -21
11 -102 -12 -90 -21 -107 -66 -126 -39 -16 -65 -2 -65 36 0 47 17 79 55 101
37 22 42 44 9 44 -29 0 -30 39 -2 53 31 15 33 15 58 -6z m-3447 -75 c20 -24
27 -42 27 -74 0 -24 -1 -43 -2 -43 -14 0 -172 -31 -175 -34 -9 -9 26 -75 45
-85 22 -12 79 -5 100 12 16 13 37 -12 22 -27 -14 -14 -105 -34 -132 -29 -95
18 -118 202 -36 284 48 47 107 46 151 -4z m-253 -22 c0 -7 -9 -16 -19 -20 -16
-5 -18 -11 -11 -35 21 -72 -35 -142 -114 -146 -36 -1 -41 -5 -44 -28 -4 -34
16 -42 84 -29 46 8 59 7 84 -9 25 -14 30 -24 30 -54 0 -89 -163 -156 -232 -96
-22 19 -23 70 -2 100 14 20 14 24 0 38 -19 18 -20 44 -4 79 9 19 9 28 0 37
-17 17 -15 83 3 118 22 43 57 57 146 58 61 1 79 -2 79 -13z m3081 -36 c18 -18
20 -28 14 -87 -11 -113 -13 -119 -56 -141 -49 -26 -61 -26 -83 -2 -33 37 -2
113 59 142 41 20 40 45 -2 41 -27 -2 -33 1 -33 18 0 14 11 26 33 35 42 19 44
18 68 -6z m-4138 -156 c10 -93 17 -181 17 -196 0 -29 0 -29 50 -22 46 6 50 5
50 -14 0 -23 1 -23 -149 -51 -82 -16 -107 -17 -113 -7 -13 21 -3 32 38 41 21
4 44 10 50 11 11 3 7 65 -17 253 l-12 92 -43 0 c-46 0 -63 13 -44 35 12 14 43
21 116 23 l40 2 17 -167z m755 146 c2 -10 -5 -19 -16 -21 -17 -5 -19 -12 -15
-52 9 -78 -40 -131 -127 -138 -30 -3 -35 -7 -35 -28 0 -25 0 -25 93 -25 103 0
112 -5 112 -65 0 -63 -41 -97 -140 -119 -37 -8 -52 -7 -80 7 -30 14 -35 23
-38 55 -2 23 3 48 13 63 8 13 12 24 7 24 -20 0 -30 46 -16 78 11 27 11 37 -2
69 -37 87 18 154 133 164 93 8 107 6 111 -12z m2832 -90 c16 -60 14 -157 -6
-214 -34 -101 -74 -159 -95 -138 -6 6 1 33 22 77 17 37 34 93 38 125 7 61 -8
154 -28 174 -15 15 -14 54 2 60 18 8 55 -38 67 -84z m-3202 35 c54 -35 74
-179 35 -246 -41 -71 -144 -102 -202 -62 -58 41 -78 162 -40 241 41 85 134
115 207 67z m-1033 -153 c20 -11 35 -32 43 -56 14 -47 3 -65 -39 -65 -24 0
-31 5 -35 29 -4 17 -17 34 -31 42 -24 13 -27 11 -60 -26 l-35 -40 7 -90 c13
-150 13 -148 -18 -159 -19 -7 -31 -6 -38 1 -13 13 -60 308 -53 328 7 18 54 25
75 12 13 -8 24 -5 49 16 38 32 91 36 135 8z m-422 -55 c48 -19 85 -68 93 -122
4 -26 2 -50 -3 -55 -6 -6 -57 -18 -113 -28 -57 -9 -105 -22 -108 -29 -6 -20
19 -54 54 -68 26 -11 43 -12 76 -3 24 6 52 13 64 15 11 3 26 -1 33 -10 44 -53
-183 -109 -254 -62 -74 49 -109 189 -67 272 45 89 139 126 225 90z m3446 7 c0
-5 -33 -102 -73 -217 -66 -193 -92 -243 -112 -223 -7 6 115 385 138 430 8 16
49 25 47 10z m2416 -13 c4 -13 15 -20 30 -20 30 0 39 -27 31 -88 -13 -95 -17
-104 -32 -91 -11 9 -13 26 -9 65 6 54 -2 67 -23 41 -6 -7 -14 -39 -18 -70 -7
-61 -12 -70 -32 -58 -15 9 3 207 20 228 15 18 26 16 33 -7z m-6615 -20 c16
-29 62 -277 62 -332 0 -44 2 -47 22 -43 11 2 62 7 111 9 117 7 149 16 153 45
5 34 -7 41 -84 52 -78 11 -129 40 -143 82 -31 88 59 167 190 167 52 0 83 -18
77 -46 -3 -15 -15 -20 -61 -25 -90 -10 -129 -38 -94 -68 8 -6 46 -17 85 -26
83 -17 103 -28 126 -66 23 -38 20 -67 -10 -107 -39 -50 -103 -75 -194 -76 -57
-1 -80 -5 -95 -19 -19 -17 -19 -17 4 -33 23 -17 25 -43 6 -86 -5 -14 -2 -18
13 -18 31 0 47 -26 36 -58 -8 -22 -18 -28 -54 -34 -25 -4 -62 -10 -84 -14 -27
-5 -41 -3 -47 7 -14 23 -10 48 11 66 19 16 19 17 -7 40 -17 16 -23 30 -19 43
3 11 9 29 12 40 8 25 -15 26 -76 5 -50 -17 -127 -20 -167 -4 -15 5 -42 24 -59
41 -32 30 -41 54 -64 171 -13 64 -24 70 -76 38 -26 -16 -31 -24 -27 -45 4 -17
13 -28 29 -31 13 -3 35 -7 49 -10 39 -8 30 -37 -21 -68 -46 -28 -46 -28 -40
-72 6 -36 4 -47 -13 -64 -43 -43 -93 -18 -106 52 -11 56 -33 48 -37 -14 -2
-43 -8 -55 -31 -73 -26 -19 -30 -19 -55 -6 -19 11 -29 27 -35 57 -7 39 -12 44
-48 53 -33 9 -39 15 -39 38 0 20 10 33 36 50 28 19 34 27 28 45 -8 25 -22 37
-45 37 -20 0 -39 20 -39 41 0 9 16 29 35 43 29 23 35 33 35 66 0 46 21 70 60
70 32 0 53 -24 64 -73 9 -39 30 -28 36 19 7 51 19 71 52 79 32 8 68 -23 68
-58 0 -32 18 -47 58 -47 l34 0 -7 49 c-6 42 -4 52 14 70 26 26 62 27 84 4 8
-10 25 -70 37 -133 31 -167 47 -216 77 -240 33 -26 63 -25 97 1 34 27 34 61 0
247 -26 137 -26 143 -9 162 24 26 71 26 85 0z m3851 -43 c63 -78 86 -165 69
-259 -20 -108 -87 -231 -115 -208 -10 9 -5 25 25 84 69 134 61 257 -23 353
-15 17 -17 25 -8 42 15 28 21 27 52 -12z m589 19 c0 -8 -4 -18 -10 -21 -5 -3
-10 -19 -10 -34 0 -69 -52 -131 -109 -131 -21 0 -29 -24 -12 -35 6 -3 27 -2
48 3 58 13 83 -2 83 -51 0 -32 -6 -46 -35 -72 -39 -37 -101 -53 -134 -35 -25
13 -36 50 -25 82 9 26 14 95 13 181 0 53 3 61 34 92 32 32 40 35 96 35 46 0
61 -3 61 -14z m1957 -54 c9 -6 8 -20 -5 -60 -18 -53 -35 -78 -68 -99 -18 -11
-17 -12 7 -12 75 -2 62 -104 -18 -138 -53 -22 -67 -5 -59 72 16 163 21 186 43
212 27 30 73 42 100 25z m-171 -40 c6 -4 13 -15 17 -25 6 -17 -9 -166 -18
-175 -2 -3 -11 0 -19 7 -10 9 -12 28 -8 76 4 54 2 65 -10 65 -17 0 -38 -66
-38 -117 0 -15 -5 -35 -10 -43 -8 -13 -11 -13 -23 0 -12 12 -13 30 -6 88 9 78
16 94 58 116 31 17 42 18 57 8z m-331 -22 c3 -5 1 -58 -6 -117 -10 -95 -9
-108 5 -118 25 -19 19 -35 -19 -51 -67 -28 -99 -8 -56 35 27 27 40 185 17 210
-28 31 -18 48 31 50 12 1 25 -3 28 -9z m179 -29 c12 -13 16 -32 14 -58 -3 -34
-7 -40 -50 -61 -63 -30 -62 -62 3 -62 27 0 23 -25 -6 -38 -38 -18 -51 -15 -75
15 -18 23 -20 36 -15 73 16 112 84 181 129 131z m-2939 -51 c20 -19 25 -33 25
-69 -1 -50 -11 -68 -52 -95 -23 -15 -28 -26 -28 -57 0 -32 -4 -39 -19 -39 -16
0 -21 9 -27 45 -7 53 -1 75 22 75 46 0 72 71 38 104 -8 9 -33 19 -55 22 -37 6
-49 21 -31 38 15 16 102 -1 127 -24z m-278 -5 c3 -9 -1 -23 -9 -33 -45 -52
-70 -137 -68 -232 2 -76 24 -130 73 -181 27 -27 32 -40 25 -52 -14 -26 -31
-20 -71 26 -55 61 -53 59 -71 119 -21 74 -20 122 4 199 38 121 98 201 117 154z
m-1203 -42 c4 -9 3 -20 -1 -24 -9 -9 -306 -69 -341 -69 -19 0 -23 5 -20 23 3
24 16 28 233 66 130 24 122 23 129 4z m3921 -33 c16 -18 17 -29 9 -107 l-9
-86 -40 -23 c-55 -32 -81 -31 -93 4 -15 44 11 97 59 119 29 13 38 23 37 38 -3
20 -18 23 -50 10 -31 -12 -22 32 10 49 37 21 56 20 77 -4z m-3609 -117 c-3
-10 -38 -124 -77 -253 -39 -129 -76 -241 -81 -247 -11 -14 -58 -18 -58 -5 0 4
18 68 39 142 112 380 111 380 159 380 18 0 22 -4 18 -17z m554 -12 c0 -57 12
-92 29 -87 65 18 81 18 81 -2 0 -16 -11 -23 -51 -32 l-50 -12 2 -55 c2 -39 -1
-57 -12 -64 -24 -15 -39 -10 -39 15 0 13 -3 38 -6 55 l-6 31 -55 -7 c-50 -5
-55 -4 -52 12 4 18 21 26 81 39 27 6 28 7 22 65 -6 52 -4 60 12 64 38 10 44 7
44 -22z m-927 -42 c8 -12 5 -24 -11 -46 -67 -94 -84 -233 -42 -331 14 -33 41
-69 73 -98 41 -36 49 -49 41 -62 -22 -35 -40 -36 -80 -6 -57 43 -82 73 -112
134 -23 47 -27 68 -26 145 0 79 4 98 30 155 53 112 100 152 127 109z m3228 -9
c14 0 11 -30 -3 -34 -7 -3 -25 -7 -40 -10 -35 -8 -58 -51 -58 -109 0 -57 17
-73 61 -58 40 14 39 14 39 -3 0 -40 -103 -63 -131 -30 -7 9 -15 41 -17 72 -3
46 1 66 20 101 24 45 81 86 106 76 8 -3 18 -5 23 -5z m1141 -132 c2 -18 9 -22
29 -20 40 4 53 -19 46 -87 -6 -72 -29 -114 -75 -138 -32 -17 -34 -17 -47 1 -8
10 -12 30 -10 45 2 14 6 61 9 104 6 77 18 117 36 117 5 0 10 -10 12 -22z
m-4696 -65 c43 -28 72 -131 42 -149 -6 -4 -52 -17 -101 -28 -50 -12 -92 -26
-94 -32 -2 -7 7 -24 20 -40 29 -33 74 -37 126 -11 43 21 57 21 65 0 22 -57
-199 -107 -254 -58 -81 72 -77 243 8 303 57 41 139 48 188 15z m-361 -53 c20
-7 26 -16 23 -33 -3 -19 -11 -23 -58 -27 -30 -3 -65 -11 -77 -18 -29 -16 -47
-73 -39 -126 13 -84 74 -114 151 -75 79 40 91 -17 12 -62 -33 -18 -57 -24
-109 -24 -75 0 -109 18 -142 74 -27 46 -27 145 -1 190 50 84 161 131 240 101z
m-875 -55 c6 -8 25 -83 41 -167 45 -233 35 -213 99 -213 49 0 55 -2 58 -22 2
-14 -5 -27 -20 -36 -32 -20 -290 -79 -311 -71 -39 15 -3 84 43 84 9 0 23 6 32
13 15 11 14 24 -13 152 -16 77 -31 146 -34 154 -4 10 -17 12 -44 8 -26 -3 -47
0 -60 10 -46 32 -14 65 84 86 92 20 110 20 125 2z m473 -28 c18 -8 38 -21 45
-29 13 -16 52 -211 52 -260 0 -30 -23 -48 -62 -48 -13 0 -45 -11 -72 -25 -104
-52 -206 -19 -206 66 0 78 51 129 151 150 56 12 66 37 26 64 -26 16 -70 9
-114 -20 -35 -23 -67 -16 -71 16 -2 21 4 31 33 49 75 46 160 61 218 37z m4634
-55 c28 -50 36 -106 23 -172 -12 -65 -67 -180 -86 -180 -20 0 -17 16 13 79 38
77 44 173 14 234 -42 86 -9 122 36 39z m-1679 16 c3 -15 -4 -18 -37 -18 -78 0
-126 -94 -90 -174 16 -34 47 -39 92 -15 l38 19 -3 -21 c-4 -27 -61 -59 -104
-59 -111 0 -113 213 -4 272 43 23 103 21 108 -4z m3096 -44 c14 -14 14 -18 1
-45 -16 -30 -32 -40 -21 -13 5 12 1 14 -17 8 -30 -9 -34 -14 -19 -22 6 -5 10
-24 9 -45 -3 -30 0 -37 15 -37 13 0 18 -8 18 -29 0 -28 -2 -29 -35 -26 -32 3
-35 1 -30 -16 4 -11 1 -27 -6 -35 -19 -23 -41 2 -34 38 6 25 4 29 -12 26 -15
-3 -18 5 -21 50 -3 48 -5 53 -25 50 -18 -2 -25 -14 -37 -66 -17 -72 -31 -74
-24 -4 7 78 13 90 46 106 41 21 55 20 63 -4 7 -23 9 -70 4 -85 -2 -5 1 -12 6
-15 6 -3 11 11 13 30 4 42 27 97 55 128 24 26 31 27 51 6z m-1654 -40 c0 -31
3 -35 18 -29 61 26 93 2 91 -70 -1 -79 -38 -140 -95 -160 -66 -22 -68 -19 -61
136 5 143 9 159 33 159 9 0 14 -11 14 -36z m-2301 -216 c7 -117 13 -226 14
-242 2 -27 -1 -30 -63 -47 -36 -9 -67 -16 -69 -14 -11 12 13 35 43 41 l36 6 0
62 c0 33 -5 113 -10 176 -6 63 -11 130 -12 149 l-1 33 -44 -6 c-38 -5 -44 -3
-41 11 2 11 20 22 48 29 94 25 85 42 99 -198z m-2885 169 c67 -38 110 -160 87
-245 -20 -72 -89 -135 -166 -152 -29 -6 -30 -8 -27 -56 4 -58 -14 -81 -71 -91
-49 -8 -58 10 -102 197 -20 85 -41 168 -46 184 -5 16 -9 46 -9 67 0 45 27 69
77 69 17 0 53 11 79 25 60 32 125 33 178 2z m2587 -42 c1 -5 -17 -17 -40 -25
-48 -17 -48 -19 -31 -187 5 -54 12 -133 16 -176 5 -66 8 -77 22 -73 59 17 72
18 72 2 0 -16 -119 -59 -132 -47 -4 3 -11 58 -17 121 -6 63 -15 157 -21 208
-6 51 -10 109 -8 129 3 35 6 38 48 49 51 14 90 14 91 -1z m3525 -213 c-5 -62
-10 -78 -29 -91 -12 -9 -26 -16 -32 -16 -5 0 -15 -7 -22 -15 -10 -13 -14 -13
-29 2 -25 24 -11 62 41 110 45 42 49 58 14 58 -10 0 -19 7 -19 15 0 21 40 35
64 23 17 -9 18 -18 12 -86z m-1656 23 c0 -7 -15 -16 -34 -19 -43 -8 -67 -35
-76 -88 -15 -79 16 -113 76 -85 28 14 34 14 34 3 0 -24 -50 -56 -86 -56 -50 0
-74 29 -74 89 0 58 13 97 43 130 40 44 117 61 117 26z m-726 -103 c3 -5 -11
-40 -31 -77 -48 -91 -57 -181 -23 -249 13 -25 34 -56 47 -67 17 -17 20 -25 12
-36 -19 -22 -36 -15 -73 29 -78 90 -75 218 7 356 29 49 49 63 61 44z m258 -39
c15 -13 18 -32 18 -115 0 -71 -3 -98 -12 -100 -7 0 -18 -2 -23 -2 -6 -1 -26
-11 -46 -24 -47 -29 -75 -28 -95 3 -31 47 9 114 81 138 32 11 41 19 43 40 5
39 -23 46 -71 18 -21 -12 -42 -20 -45 -16 -19 19 61 75 107 75 13 0 33 -7 43
-17z m-2879 -27 c3 -7 8 -34 12 -59 l7 -46 35 26 c44 34 110 37 143 8 55 -49
76 -162 44 -231 -32 -68 -121 -114 -217 -114 -40 0 -47 3 -51 23 -19 99 -26
139 -32 182 -3 28 -13 78 -21 113 -15 70 -11 98 15 105 35 9 60 7 65 -7z
m2391 -112 c23 -23 31 -64 15 -75 -23 -14 -39 -10 -39 10 0 10 -7 24 -15 31
-13 10 -19 9 -36 -6 -38 -34 -49 -70 -49 -152 0 -65 -3 -81 -16 -86 -9 -4 -20
-4 -23 0 -3 3 -8 59 -10 123 -3 106 -1 119 15 125 10 4 21 1 25 -6 6 -10 13
-7 25 10 28 40 81 53 108 26z m-3458 -176 c51 -36 118 -130 134 -186 16 -58
12 -137 -10 -202 -24 -71 -74 -156 -100 -170 -20 -11 -63 1 -75 19 -3 6 11 41
31 77 30 53 38 79 42 136 3 38 0 79 -5 91 -6 12 -15 33 -21 47 -15 40 -58 85
-117 125 -59 39 -71 68 -37 97 38 34 75 26 158 -34z m2016 -208 c53 -57 62
-162 22 -247 -20 -41 -34 -56 -68 -72 -83 -41 -141 -16 -172 74 -29 85 -13
177 40 233 55 59 131 64 178 12z m-1529 10 c60 -47 35 -144 -52 -199 -52 -34
-82 -39 -100 -17 -16 19 -4 42 35 65 39 23 43 41 14 59 -25 15 -27 63 -2 84
37 33 70 35 105 8z m4217 -191 c0 -32 6 -35 34 -14 29 22 55 18 65 -7 13 -37
1 -168 -15 -168 -11 0 -14 18 -14 75 0 68 -2 75 -20 75 -31 0 -50 -41 -57
-119 -6 -68 -16 -92 -31 -76 -11 10 -1 248 10 262 15 19 28 6 28 -28z m-170
-65 c0 -17 4 -24 13 -21 65 24 90 8 30 -20 -38 -18 -38 -18 -41 -86 l-3 -67
38 0 38 -1 -24 -19 c-26 -23 -61 -26 -79 -8 -7 7 -12 39 -12 75 0 61 -1 63
-25 63 -14 0 -25 4 -25 8 0 5 11 15 25 22 15 8 25 22 25 35 0 21 17 45 32 45
4 0 8 -12 8 -26z"/>
<path d="M1399 4090 c-18 -17 -29 -39 -29 -56 0 -44 22 -158 32 -171 16 -20
66 -15 88 7 44 44 12 229 -43 244 -13 3 -29 -5 -48 -24z"/>
<path d="M2259 4149 c-32 -35 -36 -69 -19 -173 13 -81 44 -98 96 -53 20 18 28
35 31 74 9 86 -30 183 -72 183 -4 0 -20 -14 -36 -31z"/>
<path d="M6451 3729 c-22 -24 -36 -103 -26 -149 8 -38 39 -57 62 -38 41 34 57
143 27 186 -19 28 -38 28 -63 1z"/>
<path d="M3107 3386 c-52 -40 -45 -190 11 -232 29 -22 68 -17 91 12 17 22 21
41 21 99 0 67 -3 76 -29 104 -31 33 -64 39 -94 17z"/>
<path d="M4773 2882 c-42 -6 -63 -48 -63 -121 0 -83 7 -109 32 -117 22 -7 53
17 73 57 16 30 9 176 -9 181 -6 2 -21 2 -33 0z"/>
<path d="M3515 2666 c-31 -31 -42 -101 -24 -157 44 -137 172 -72 153 77 -11
93 -76 133 -129 80z"/>
<path d="M1009 1390 c-32 -32 -33 -38 -5 -149 14 -52 40 -64 82 -37 21 14 24
24 24 72 0 59 -27 127 -55 138 -11 4 -27 -5 -46 -24z"/>
<path d="M2331 945 c-35 -40 -35 -44 -20 -132 10 -59 13 -63 39 -63 15 0 39 9
54 21 23 18 26 28 26 80 0 63 -18 112 -45 123 -23 8 -19 10 -54 -29z"/>
<path d="M3093 590 c-42 -17 -59 -64 -54 -157 0 -18 5 -33 10 -33 5 0 38 35
72 77 l62 76 -27 24 c-30 25 -31 26 -63 13z"/>
<path d="M3152 464 c-108 -127 -102 -114 -72 -144 20 -20 45 -25 75 -14 37 14
63 117 46 181 l-7 26 -42 -49z"/>
</g>
</svg>
