<?xml version="1.0" standalone="no"?>
<!DOCTYPE svg PUBLIC "-//W3C//DTD SVG 20010904//EN"
 "http://www.w3.org/TR/2001/REC-SVG-20010904/DTD/svg10.dtd">
<svg version="1.0" xmlns="http://www.w3.org/2000/svg"
 width="225.000000pt" height="225.000000pt" viewBox="0 0 225.000000 225.000000"
 preserveAspectRatio="xMidYMid meet">
<metadata>
Created by potrace 1.16, written by Peter Selinger 2001-2019
</metadata>
<g transform="translate(0.000000,225.000000) scale(0.100000,-0.100000)"
fill="#000000" stroke="none">
<path d="M0 1125 l0 -1125 1125 0 1125 0 0 1125 0 1125 -1125 0 -1125 0 0
-1125z m1854 942 c18 -18 28 -47 41 -123 53 -299 62 -339 73 -340 25 -3 26 -5
10 -17 -15 -12 -15 -19 -2 -88 19 -101 18 -132 -7 -155 -21 -19 -79 -30 -1103
-214 -214 -39 -398 -68 -408 -64 -10 3 -25 15 -33 27 -12 20 -125 616 -125
664 0 11 8 31 17 42 16 19 89 35 623 131 333 60 664 120 735 134 164 30 152
30 179 3z m-273 -1154 c19 -10 45 -18 58 -18 34 0 54 -33 38 -65 -17 -35 -75
-72 -95 -61 -10 6 -20 4 -29 -5 -12 -12 -20 -11 -51 2 -52 21 -82 53 -82 85 0
30 28 53 58 47 9 -2 25 5 34 14 22 22 27 22 69 1z m-189 -56 c15 -24 7 -29
-32 -23 -25 4 -40 2 -40 -4 0 -5 10 -10 23 -10 31 0 67 -27 67 -51 0 -49 -72
-76 -118 -43 -18 13 -22 13 -22 1 0 -10 -17 -16 -52 -20 -28 -4 -53 -5 -54 -4
-1 1 -4 39 -5 84 l-4 81 29 6 c54 11 76 7 76 -13 0 -13 -9 -21 -30 -26 -17 -4
-27 -11 -24 -17 3 -5 17 -7 30 -4 21 6 24 3 24 -19 0 -20 -5 -25 -25 -25 -14
0 -25 -4 -25 -10 0 -14 53 -13 68 2 9 9 17 9 36 -1 24 -13 46 -8 46 10 0 5
-12 9 -26 9 -53 0 -81 38 -56 77 20 32 94 32 114 0z m-344 -20 c3 -21 9 -27
27 -27 22 0 24 3 19 30 -6 27 -4 30 20 30 21 0 26 -5 26 -24 0 -12 3 -51 6
-85 7 -61 7 -61 -20 -61 -23 0 -26 4 -26 36 0 29 -3 35 -16 30 -9 -3 -20 -6
-25 -6 -5 0 -9 -13 -9 -30 0 -16 -2 -30 -4 -30 -2 0 -11 -3 -20 -6 -12 -5 -16
0 -16 20 0 32 -7 33 -32 1 -34 -43 -108 -32 -136 20 -7 13 -12 15 -12 6 0 -8
-10 -25 -22 -38 -30 -32 -90 -32 -123 2 l-25 24 0 -29 c0 -35 -10 -38 -36 -9
-10 12 -31 30 -46 40 l-26 19 5 -40 c5 -37 4 -40 -19 -40 -24 0 -26 3 -31 78
-3 42 -2 80 2 84 3 4 28 -11 54 -33 l48 -41 -7 41 c-6 39 -5 41 20 41 25 0 26
-3 27 -52 1 -54 2 -55 13 -5 15 68 89 89 145 41 17 -14 31 -21 31 -15 0 5 10
19 22 31 31 28 83 26 113 -5 l25 -24 0 23 c0 46 43 49 48 3z m727 -72 c0 -5
-41 -38 -91 -71 -76 -51 -101 -63 -150 -69 -33 -4 -66 -11 -75 -16 -11 -6 -26
0 -50 20 -30 26 -32 31 -22 54 24 51 50 59 164 49 l103 -9 40 29 c38 27 81 34
81 13z m-687 -452 c-2 -32 0 -38 15 -35 16 3 17 -2 13 -35 l-6 -38 18 37 c24
52 44 50 36 -2 -6 -35 -4 -39 10 -34 9 3 13 11 9 18 -4 6 -8 28 -9 48 -2 28 2
38 13 38 10 0 14 -6 11 -18 -4 -15 -1 -18 18 -14 19 3 24 0 24 -18 0 -17 -4
-20 -22 -15 -22 6 -22 6 2 -13 21 -18 22 -22 10 -37 -9 -11 -24 -15 -42 -13
-20 3 -29 0 -34 -14 -3 -10 -16 -26 -30 -34 -19 -13 -27 -14 -39 -4 -16 13
-10 34 6 24 10 -6 39 13 39 26 0 5 -9 6 -19 3 -16 -4 -22 2 -30 28 l-11 34 5
-32 c5 -34 -11 -55 -21 -29 -4 11 -11 13 -22 7 -32 -17 -66 -8 -72 19 -6 24
-6 24 -18 -9 -13 -36 -27 -34 -34 4 -3 20 -3 20 -22 1 -16 -16 -16 -18 -3 -13
11 4 17 1 17 -8 0 -23 -40 -29 -55 -8 -13 17 -14 16 -20 -10 -10 -40 -38 -31
-46 13 l-5 35 -8 -30 c-10 -43 -21 -60 -37 -60 -19 0 -26 165 -7 176 21 13 26
1 22 -48 l-5 -48 18 45 c10 25 23 44 28 43 6 -1 12 -24 15 -50 l5 -48 8 44 c4
24 12 52 18 62 14 28 32 24 25 -6 -3 -14 -9 -37 -12 -52 l-6 -28 14 25 c17 31
58 40 59 13 0 -15 2 -14 9 5 10 23 30 31 30 11 0 -8 4 -9 13 0 16 13 27 5 27
-19 0 -26 65 39 74 73 10 41 28 33 24 -10z m262 19 c-35 -17 -35 -18 -34 -79
2 -60 -9 -82 -23 -47 -5 13 -7 13 -14 2 -16 -24 -9 -29 34 -26 l43 3 -14 29
c-14 27 -13 30 9 47 25 19 44 25 35 11 -3 -5 1 -9 9 -9 8 0 12 4 9 9 -3 4 -1
8 4 8 6 0 13 -8 18 -17 8 -21 8 -21 0 -49 -8 -26 30 -47 57 -32 24 13 11 31
-13 18 -28 -15 -28 -14 -24 33 6 54 -9 95 -38 107 -14 5 -17 9 -7 9 8 1 32
-15 53 -34 31 -28 37 -40 33 -62 -3 -17 0 -31 10 -38 18 -13 7 -45 -16 -46
-10 0 -11 -2 -3 -6 6 -2 12 -10 12 -16 0 -8 -3 -8 -12 1 -8 8 -17 6 -36 -8
-36 -29 -81 -25 -136 11 -38 26 -46 36 -42 53 3 12 6 32 6 45 0 28 69 101 96
101 12 0 7 -6 -16 -18z"/>
<path d="M1565 1975 c-126 -24 -446 -83 -710 -130 -264 -48 -482 -89 -484 -91
-3 -3 75 -453 101 -576 8 -42 12 -47 31 -43 12 2 334 61 716 130 382 69 697
127 699 130 5 4 -91 563 -104 608 -3 9 -8 16 -12 16 -4 -1 -110 -21 -237 -44z"/>
</g>
</svg>
