<?xml version="1.0" standalone="no"?>
<!DOCTYPE svg PUBLIC "-//W3C//DTD SVG 20010904//EN"
 "http://www.w3.org/TR/2001/REC-SVG-20010904/DTD/svg10.dtd">
<svg version="1.0" xmlns="http://www.w3.org/2000/svg"
 width="720.000000pt" height="720.000000pt" viewBox="0 0 720.000000 720.000000"
 preserveAspectRatio="xMidYMid meet">
<metadata>
Created by potrace 1.16, written by Peter Selinger 2001-2019
</metadata>
<g transform="translate(0.000000,720.000000) scale(0.100000,-0.100000)"
fill="#000000" stroke="none">
<path d="M3380 6674 c-166 -10 -444 -57 -605 -101 -73 -20 -209 -65 -340 -112
-59 -22 -124 -52 -250 -116 -751 -381 -1323 -1055 -1568 -1845 -195 -630 -190
-1288 12 -1908 69 -212 185 -468 282 -622 9 -14 35 -56 59 -95 54 -85 58 -91
171 -235 293 -373 644 -660 1064 -868 176 -87 363 -160 520 -203 133 -36 265
-65 378 -84 118 -19 334 -35 487 -35 550 0 1077 138 1540 403 416 239 794 591
1059 989 39 59 71 110 71 114 0 3 8 18 19 32 28 41 143 267 180 357 141 337
215 658 242 1039 21 318 -20 706 -108 1016 -152 530 -407 970 -785 1351 -358
361 -769 617 -1242 774 -176 58 -355 98 -605 135 -75 11 -478 21 -581 14z
m318 -154 l102 0 0 -45 0 -45 -75 0 -75 0 0 -30 0 -30 65 0 65 0 0 -50 0 -50
-70 0 -70 0 0 -45 0 -45 85 0 85 0 0 -45 0 -45 -149 0 -150 0 3 28 c2 15 4
114 5 221 l1 194 38 -7 c20 -3 83 -6 140 -6z m273 -16 l36 -6 27 -102 c15 -55
30 -114 33 -131 5 -25 9 -14 24 60 10 50 18 105 18 124 1 33 1 33 39 27 77
-14 75 -12 68 -74 -4 -32 -13 -91 -20 -132 -8 -41 -20 -109 -26 -150 -7 -41
-14 -78 -16 -81 -2 -3 -28 -1 -58 4 l-54 10 -28 96 c-15 53 -30 102 -34 109
-4 8 -12 -21 -19 -65 -22 -136 -14 -125 -74 -117 -28 4 -53 7 -54 8 -2 2 10
80 37 256 6 36 13 89 17 118 6 57 9 58 84 46z m-672 -214 c55 -110 96 -202 93
-204 -4 -2 -35 -6 -68 -10 l-62 -7 -11 32 c-10 29 -14 31 -42 25 -17 -3 -38
-6 -45 -6 -8 0 -16 -16 -20 -39 -6 -35 -9 -39 -43 -45 -20 -3 -48 -6 -64 -6
-30 0 -30 -15 -7 150 5 36 14 108 21 160 17 143 17 144 116 149 l33 1 99 -200z
m-392 54 c13 -43 28 -95 33 -114 5 -19 21 -75 36 -123 14 -49 24 -90 22 -91
-5 -3 -114 -36 -120 -36 -2 0 -5 6 -5 13 0 6 -15 62 -33 122 -18 61 -41 142
-51 181 -10 39 -21 78 -24 86 -5 11 7 19 47 31 29 8 57 14 62 13 6 -1 20 -38
33 -82z m1726 -2 c68 -36 71 -43 39 -81 l-28 -33 -34 21 c-41 25 -90 28 -90 6
0 -8 21 -42 48 -76 44 -57 47 -65 47 -120 0 -52 -3 -62 -31 -90 -50 -49 -138
-44 -252 15 -38 20 -39 27 -9 71 l23 33 39 -24 c44 -26 100 -32 108 -10 5 14
0 24 -65 117 -51 72 -48 130 8 180 40 35 121 31 197 -9z m-1942 -38 c52 -46
74 -148 43 -192 -9 -13 -14 -24 -13 -26 130 -92 139 -100 122 -110 -37 -21
-113 -44 -118 -35 -3 4 -32 29 -65 54 l-59 45 29 -70 29 -71 -22 -8 c-12 -5
-39 -16 -59 -24 l-36 -15 -33 81 c-17 45 -38 96 -44 112 -54 129 -85 208 -82
211 1 2 43 19 92 39 103 41 177 44 216 9z m2183 -71 c22 -12 23 -9 -89 -248
-29 -60 -55 -118 -58 -127 -4 -10 -12 -18 -20 -18 -11 0 -63 23 -94 43 -13 8
-5 28 97 242 29 61 56 120 61 132 8 22 9 22 46 5 21 -10 47 -22 57 -29z
m-2555 -59 c12 -19 21 -37 21 -39 0 -3 -29 -21 -64 -41 -60 -35 -63 -39 -53
-61 13 -30 17 -29 77 8 28 17 52 30 54 28 1 -2 12 -20 24 -41 l22 -36 -52 -32
c-29 -18 -55 -34 -57 -36 -6 -5 32 -74 41 -74 8 0 97 48 115 62 19 15 39 3 57
-33 9 -18 15 -33 14 -35 -10 -8 -157 -94 -162 -94 -4 0 -25 -12 -48 -26 -23
-15 -44 -23 -45 -18 -2 5 -50 90 -107 189 l-104 180 92 52 c50 29 102 60 116
68 34 20 35 20 59 -21z m2767 -44 c40 -20 114 -83 114 -99 0 -4 -14 -17 -30
-30 l-31 -22 -30 25 c-36 31 -76 43 -91 28 -7 -7 0 -30 26 -75 38 -68 49 -135
28 -172 -41 -78 -119 -91 -213 -37 -30 17 -67 43 -83 57 l-30 25 34 35 33 34
35 -30 c40 -35 75 -51 97 -43 23 9 18 32 -20 108 -46 91 -46 124 3 176 32 33
45 40 77 40 21 0 58 -9 81 -20z m-2987 -291 c67 -94 120 -173 119 -174 -28
-22 -93 -65 -98 -65 -6 0 -220 296 -244 337 -6 12 68 72 91 73 6 0 66 -77 132
-171z m3305 71 c69 -52 125 -97 125 -100 0 -3 -13 -20 -29 -39 l-30 -35 -39
32 -39 31 -43 -56 c-24 -31 -62 -79 -85 -107 -22 -29 -49 -64 -59 -79 l-17
-27 -46 34 c-26 19 -48 38 -49 43 -2 6 42 68 97 139 l100 129 -22 19 c-13 10
-31 24 -41 31 -18 12 -18 14 5 49 13 20 29 35 35 34 7 -2 69 -46 137 -98z
m-1504 36 c117 -18 147 -24 230 -42 199 -46 450 -146 610 -243 19 -11 42 -24
50 -27 8 -4 51 -32 95 -62 287 -198 510 -428 685 -707 135 -216 264 -538 296
-743 3 -20 8 -40 10 -43 17 -28 36 -261 36 -439 0 -183 -17 -388 -37 -441 -3
-8 -7 -27 -9 -44 -11 -85 -84 -311 -146 -455 -277 -633 -856 -1131 -1520
-1307 -52 -14 -106 -27 -120 -29 -14 -3 -32 -7 -40 -9 -124 -35 -562 -50 -740
-26 -227 32 -397 78 -615 168 -265 108 -484 254 -709 473 -246 240 -416 487
-533 775 -70 171 -118 335 -142 475 -30 180 -35 240 -35 415 -1 637 240 1214
695 1662 374 368 850 597 1359 653 52 5 109 12 125 14 57 8 360 -4 455 -18z
m-1950 -246 c3 -3 31 -34 63 -69 l58 -64 -41 -42 -42 -43 -57 25 c-31 14 -78
34 -105 45 -57 22 -58 24 31 -76 l53 -59 -38 -33 c-20 -18 -40 -33 -44 -34 -4
0 -25 19 -46 43 -21 23 -85 93 -141 156 l-103 113 34 35 c40 42 48 41 177 -16
51 -23 95 -40 97 -39 1 2 -30 41 -71 87 l-74 84 41 37 42 36 80 -90 c45 -50
83 -93 86 -96z m3740 -45 l95 -95 -33 -32 -32 -32 -52 51 c-47 45 -55 50 -70
39 -27 -20 -22 -35 22 -73 22 -20 40 -39 40 -44 0 -4 -15 -22 -32 -38 l-33
-31 -47 47 -47 47 -32 -33 -31 -33 58 -59 58 -59 -32 -32 -32 -33 -100 100
c-55 55 -99 103 -98 107 4 11 290 298 297 298 4 0 49 -43 101 -95z m-4181 -93
l33 -27 -47 -58 c-46 -57 -47 -59 -29 -78 18 -20 19 -19 64 32 l46 52 35 -31
34 -30 -23 -29 c-61 -76 -60 -73 -23 -104 l33 -27 55 64 55 65 33 -28 c19 -16
34 -31 34 -34 1 -8 -179 -219 -187 -219 -4 0 -45 32 -92 71 -47 39 -120 100
-162 136 l-77 64 87 104 c48 58 89 105 92 105 3 0 21 -12 39 -28z m4386 -127
l34 -48 -51 -76 c-27 -42 -63 -95 -79 -118 -35 -50 -36 -55 -6 -44 40 15 97
32 124 37 14 3 33 9 42 13 9 5 32 11 52 15 35 6 38 4 74 -45 20 -28 33 -54 28
-58 -66 -44 -314 -225 -319 -233 -7 -11 80 -1 276 32 30 5 75 12 100 15 l46 5
27 -55 c15 -31 27 -57 27 -59 0 -2 -68 -66 -151 -142 -147 -135 -151 -139
-120 -142 17 -2 31 -9 31 -16 0 -32 32 -115 47 -120 25 -10 41 13 59 86 22 88
55 127 113 135 64 9 105 -16 136 -83 17 -37 25 -70 25 -108 0 -53 -2 -56 -24
-56 -44 0 -55 11 -67 65 -21 95 -56 83 -83 -30 -25 -107 -88 -157 -171 -134
-55 16 -92 74 -120 193 -7 34 -25 84 -39 111 l-24 50 24 26 c25 26 25 26 7 64
-17 35 -20 37 -55 32 -36 -5 -37 -4 -60 47 -12 28 -22 57 -21 64 0 6 -2 12 -6
12 -13 0 -73 89 -67 99 3 5 40 30 81 56 41 25 75 48 75 49 0 2 -44 -12 -97
-30 l-98 -32 -18 22 c-43 52 -47 41 77 206 14 18 6 13 -77 -53 -32 -26 -62
-47 -67 -47 -9 0 -70 79 -70 91 0 5 30 30 68 56 37 26 74 54 82 60 30 26 195
141 198 138 1 -1 18 -24 37 -50z m-4615 -190 l22 -35 -41 -40 c-55 -54 -57
-94 -4 -140 42 -37 107 -69 140 -70 12 0 29 10 37 22 19 26 11 39 -45 70 -22
12 -39 25 -39 29 0 14 54 99 63 99 9 0 39 -18 115 -68 59 -40 59 -38 10 -138
-53 -110 -126 -156 -210 -134 -61 17 -113 45 -160 88 -73 66 -85 128 -41 218
25 51 100 134 122 134 5 0 19 -16 31 -35z m-212 -361 c31 -14 79 -35 105 -45
27 -11 76 -32 110 -48 34 -16 72 -32 85 -35 27 -9 27 -11 1 -75 l-22 -51 -121
-1 c-66 0 -114 -3 -106 -6 64 -25 180 -84 180 -92 0 -8 -25 -70 -36 -89 -1 -2
-22 5 -46 16 -23 11 -72 32 -108 47 -36 15 -85 36 -110 47 -25 12 -64 29 -87
39 -24 10 -43 20 -43 23 0 2 9 25 20 50 l19 45 136 3 136 3 -103 44 c-57 24
-107 47 -112 52 -10 9 22 99 36 99 5 0 35 -12 66 -26z m-96 -412 c67 -21 158
-50 201 -63 60 -18 76 -27 71 -39 -3 -8 -11 -34 -17 -58 -13 -49 -11 -49 -147
-7 -41 13 -121 38 -177 55 -57 17 -103 34 -103 37 0 17 35 113 41 113 4 0 63
-17 131 -38z m5364 -888 c13 -19 15 -37 10 -78 -11 -95 -26 -107 -73 -60 -23
23 -25 31 -20 77 3 29 10 65 16 80 9 24 14 26 31 17 11 -6 27 -22 36 -36z
m-5408 -59 c32 -70 24 -147 -20 -174 -29 -18 -46 1 -54 61 -8 58 0 92 28 118
28 26 32 25 46 -5z m5316 -130 c28 -29 46 -55 46 -70 0 -13 3 -31 7 -41 6 -15
2 -16 -31 -11 -88 14 -140 76 -129 155 l6 41 27 -14 c15 -8 49 -35 74 -60z
m286 3 c0 -68 -70 -138 -137 -138 -37 0 -38 3 -22 51 20 59 88 116 142 118 13
1 17 -7 17 -31z m-194 -99 c9 -143 -28 -323 -93 -454 -22 -43 -99 -167 -153
-245 -9 -14 -20 -48 -24 -76 -16 -122 -76 -277 -147 -380 -43 -62 -121 -148
-184 -202 -61 -53 -161 -115 -177 -110 -6 2 23 25 65 51 84 53 201 163 263
247 36 49 92 156 122 231 13 33 39 143 45 186 3 30 2 32 -13 18 -9 -8 -19 -12
-23 -9 -3 4 -4 -10 0 -29 3 -20 3 -47 -1 -62 -6 -24 -8 -25 -35 -11 -58 31
-125 133 -93 144 7 2 10 7 7 12 -6 10 15 60 26 60 4 0 22 -19 40 -42 18 -24
36 -47 41 -52 4 -6 16 -2 27 8 18 17 19 20 5 42 -9 12 -14 31 -12 40 2 9 -13
33 -33 53 -36 36 -37 40 -31 114 3 25 14 21 64 -23 35 -30 48 -36 57 -27 13
12 29 -2 57 -49 10 -16 16 -9 56 59 91 155 134 346 122 532 -5 67 -4 87 5 79
6 -6 14 -53 17 -105z m-5276 32 c0 -55 -2 -61 -35 -90 -33 -29 -109 -60 -120
-49 -11 11 14 91 37 115 27 30 97 83 110 83 4 0 8 -27 8 -59z m-287 -16 c26
-17 50 -59 62 -107 8 -32 -4 -35 -68 -17 -50 14 -97 77 -97 130 l0 38 39 -14
c22 -7 51 -21 64 -30z m113 -132 c0 -131 3 -159 28 -242 26 -90 60 -166 114
-259 l25 -43 18 40 c20 45 26 49 43 26 10 -13 14 -12 36 8 14 13 38 32 53 41
24 16 27 17 33 2 3 -9 3 -23 0 -32 -3 -8 -2 -12 4 -9 6 3 10 -1 10 -10 0 -9
-4 -13 -10 -10 -5 3 -7 0 -4 -8 3 -8 -8 -27 -25 -43 -19 -18 -31 -39 -31 -55
0 -14 -6 -34 -14 -45 -13 -17 -12 -22 7 -43 l22 -24 -21 5 -22 6 18 -62 c36
-121 58 -169 125 -276 69 -109 266 -278 379 -325 20 -9 34 -20 31 -25 -4 -6
-28 1 -57 16 -176 89 -344 257 -430 429 -42 83 -87 230 -80 258 1 4 -2 7 -7 7
-12 0 -125 167 -161 239 -36 71 -77 179 -86 223 -26 146 -30 206 -18 306 12
93 19 55 20 -95z m5323 58 c31 -17 81 -90 81 -119 0 -23 -2 -24 -45 -20 -64 8
-90 29 -110 88 -21 65 -16 82 23 71 16 -5 39 -14 51 -20z m321 -53 c0 -59 -54
-117 -108 -118 -13 0 -39 7 -58 16 l-34 16 18 30 c9 16 26 35 37 41 37 21 100
45 123 46 18 1 22 -4 22 -31z m-5450 -3 c0 -41 -26 -109 -50 -129 -32 -27 -97
-43 -113 -27 -25 25 37 119 97 146 31 13 66 19 66 10z m-311 -69 c63 -25 101
-67 85 -94 -8 -12 -27 -18 -66 -20 -54 -3 -57 -2 -87 35 -23 28 -31 48 -31 76
0 43 -2 43 99 3z m5320 -163 c65 -49 81 -74 81 -122 0 -29 -2 -30 -32 -24 -78
14 -126 73 -113 139 7 41 17 42 64 7z m-4913 -112 c-10 -62 -39 -90 -123 -115
-21 -7 -23 -4 -23 29 0 45 22 79 80 121 42 31 46 32 58 16 8 -10 11 -30 8 -51z
m5234 13 c45 -18 48 -24 23 -46 -53 -46 -149 -63 -189 -34 -18 14 -18 16 21
55 44 47 77 52 145 25z m-5471 -99 c17 -20 31 -39 31 -44 0 -17 -60 -33 -100
-27 -44 7 -106 40 -114 61 -8 22 42 44 100 45 47 0 55 -3 83 -35z m5412 -68
c11 -7 19 -14 19 -17 -1 -27 -76 -70 -122 -70 -42 0 -108 28 -108 46 0 14 42
43 79 55 31 10 107 2 132 -14z m-5328 -83 c21 -14 37 -30 35 -36 -8 -24 -73
-49 -115 -45 -42 4 -113 47 -113 68 0 16 62 38 110 39 33 0 56 -7 83 -26z
m280 -25 c34 -60 16 -124 -47 -172 -42 -33 -52 -34 -60 -4 -14 51 3 104 56
180 24 34 29 34 51 -4z m4974 -43 c10 -10 -31 -77 -62 -101 -26 -19 -46 -25
-83 -25 -27 0 -51 3 -55 6 -9 10 17 55 50 86 37 35 128 56 150 34z m-357 -104
c38 -42 46 -66 40 -117 -3 -27 -5 -28 -35 -21 -44 11 -86 57 -87 96 -4 81 1
98 22 93 11 -3 38 -26 60 -51z m-4861 10 c34 -17 99 -87 89 -97 -2 -3 -25 -8
-50 -11 -33 -5 -55 -1 -82 11 -40 19 -92 87 -81 104 10 17 86 12 124 -7z m321
-53 c19 -70 -4 -115 -79 -157 -20 -12 -25 -12 -32 0 -26 40 11 146 63 183 32
22 36 20 48 -26z m4840 -73 c0 -31 -71 -96 -104 -96 -31 0 -76 17 -98 37 -15
13 -16 19 -5 31 29 36 72 52 140 52 64 0 67 -1 67 -24z m-5075 -57 c44 -12 75
-35 75 -56 0 -21 -61 -53 -104 -53 -31 0 -45 7 -77 39 -50 50 -50 69 -1 74 20
2 44 4 52 5 8 1 33 -3 55 -9z m4589 -70 c33 -42 39 -58 40 -102 1 -60 -11 -65
-69 -26 -36 25 -55 56 -55 90 0 26 27 89 37 89 5 0 26 -23 47 -51z m-4154 -91
c0 -43 -3 -49 -45 -83 -24 -20 -48 -34 -54 -31 -17 11 -23 66 -10 99 7 18 26
52 42 75 l29 44 19 -29 c12 -17 19 -46 19 -75z m4375 -48 c15 -6 42 -22 61
-36 32 -25 33 -28 16 -39 -58 -41 -158 -38 -198 6 -21 23 -24 19 50 62 36 20
37 20 71 7z m-4559 -81 c41 -25 42 -32 7 -57 -35 -24 -90 -33 -138 -22 -62 14
-65 27 -20 66 48 41 99 45 151 13z m4459 -65 c18 -8 43 -26 55 -39 l22 -23
-30 -16 c-64 -33 -145 -17 -194 37 -23 26 -23 26 15 42 43 19 91 19 132 -1z
m-4321 -44 c34 -12 33 -30 -2 -64 -39 -36 -91 -50 -141 -36 -51 14 -58 26 -31
55 46 49 117 67 174 45z m854 -332 c6 -6 12 -23 12 -39 0 -32 4 -34 39 -15 22
12 29 11 60 -9 20 -12 46 -25 59 -29 16 -5 21 -13 18 -29 -3 -12 -8 -39 -11
-60 -3 -21 -9 -46 -12 -55 -3 -9 14 9 38 41 23 31 49 57 56 57 8 0 27 -7 43
-15 17 -9 33 -16 37 -16 19 0 53 -12 53 -18 0 -3 -12 -38 -26 -76 -14 -39 -30
-83 -36 -100 -6 -16 -14 -34 -18 -38 -10 -11 -60 10 -60 25 0 7 16 53 35 102
42 106 43 121 8 81 -14 -16 -51 -58 -83 -93 l-56 -62 -32 16 c-18 8 -32 18
-32 20 0 3 5 38 10 77 6 40 13 89 15 110 l5 39 -50 -28 -50 -27 0 -74 0 -74
-30 18 c-25 14 -30 24 -30 55 0 43 -2 44 -40 21 -24 -14 -33 -14 -59 -3 -17 7
-31 16 -31 20 0 4 18 17 39 28 80 42 77 38 73 109 -4 65 -4 65 19 58 13 -4 30
-12 37 -17z m2594 -35 c28 -25 58 -87 58 -120 0 -54 -57 -103 -119 -103 -61 0
-135 113 -112 172 9 25 46 62 71 71 25 10 81 -1 102 -20z m-183 -159 c28 -58
51 -107 51 -109 0 -5 -61 -28 -64 -24 -7 7 -96 200 -96 208 0 6 36 27 51 30 4
0 30 -47 58 -105z m-145 36 c39 -15 64 -75 46 -110 -8 -15 -2 -24 30 -47 l39
-29 -36 -13 c-32 -12 -38 -11 -64 8 -36 27 -41 26 -29 -5 14 -37 13 -41 -15
-48 -14 -4 -28 -7 -31 -9 -7 -2 -94 215 -89 221 3 4 108 41 117 42 4 0 18 -4
32 -10z m-2614 -51 c41 -30 42 -33 25 -45 -16 -12 -21 -12 -35 1 -23 21 -44
19 -35 -2 19 -48 22 -72 11 -94 -17 -36 -67 -37 -111 -3 -31 24 -34 29 -22 42
13 12 18 12 40 -3 39 -25 48 -11 29 41 l-17 46 28 24 c15 13 32 24 36 24 4 0
27 -14 51 -31z m3310 1 c14 -14 20 -33 20 -67 0 -37 3 -44 12 -35 16 16 35 15
42 -3 3 -10 -13 -28 -49 -55 -30 -22 -57 -40 -60 -40 -3 0 -5 36 -4 80 2 44 0
82 -4 86 -9 9 -39 -4 -33 -15 3 -5 -1 -14 -9 -21 -13 -11 -18 -10 -29 6 -16
22 -7 45 26 68 31 22 64 20 88 -4z m-2477 -10 c6 -6 -55 -213 -67 -227 -1 -2
-17 3 -34 9 -23 9 -31 17 -26 28 3 8 7 20 8 25 1 6 15 49 31 97 28 84 30 87
54 81 15 -3 30 -9 34 -13z m1614 -87 c32 -49 61 -89 66 -91 18 -8 4 -31 -24
-41 -26 -9 -34 -8 -44 5 -15 21 -55 10 -55 -15 0 -11 -12 -21 -35 -28 l-36
-11 3 126 c3 135 2 132 60 141 3 1 32 -38 65 -86z m-1538 66 c17 -6 31 -13 31
-16 0 -3 -11 -42 -24 -87 -13 -44 -27 -93 -30 -109 -6 -24 -10 -26 -34 -21
-15 4 -31 10 -35 14 -6 5 51 230 59 230 0 0 15 -5 33 -11z m-800 -40 c54 -34
56 -36 42 -57 -7 -12 -14 -11 -38 2 -39 20 -51 8 -18 -18 18 -15 22 -25 16
-35 -8 -12 -14 -13 -37 -2 -22 10 -29 10 -35 -1 -13 -20 -11 -23 16 -38 23
-12 33 -39 19 -52 -7 -7 -88 37 -104 57 -10 13 -4 30 36 95 26 44 49 80 50 80
2 0 25 -14 53 -31z m2144 -13 c-4 -19 -12 -26 -36 -28 -45 -4 -43 -22 5 -39
53 -19 83 -57 74 -93 -8 -34 -61 -66 -108 -66 -34 0 -38 3 -38 25 0 21 5 25
28 25 26 0 52 15 52 31 0 4 -15 13 -34 19 -54 17 -86 47 -86 79 0 45 36 69
106 70 38 1 41 -1 37 -23z m-1108 -8 c5 -5 25 -171 25 -205 0 -30 -3 -33 -30
-33 -23 0 -33 6 -40 25 -11 28 -44 34 -57 10 -7 -11 -18 -14 -41 -9 -18 4 -32
11 -32 16 0 6 25 56 55 113 l56 103 31 -8 c17 -5 32 -11 33 -12z m2041 -3 c12
-18 14 -35 9 -66 -7 -40 -7 -41 15 -29 18 10 25 9 39 -5 18 -18 25 -12 -67
-65 l-53 -31 6 79 c9 99 2 114 -34 72 l-27 -32 -12 26 c-11 24 -9 30 13 51 33
34 88 34 111 0z m-1916 -15 c13 0 22 -15 34 -61 10 -33 20 -59 22 -56 3 3 8
27 12 54 7 46 9 48 41 51 33 3 33 3 28 -30 -6 -31 -15 -98 -22 -163 -1 -16 -3
-34 -4 -38 0 -5 -15 -7 -33 -5 -30 3 -34 8 -52 63 l-21 60 -6 -53 c-4 -29 -9
-55 -12 -58 -2 -3 -17 -2 -32 2 -25 6 -26 9 -21 48 3 22 8 76 12 119 5 63 9
77 21 73 8 -3 23 -6 33 -6z m810 -10 c23 -23 28 -98 8 -118 -9 -9 -5 -19 21
-46 27 -28 30 -34 16 -40 -35 -13 -61 -5 -88 26 l-28 33 6 -37 c4 -28 2 -38
-7 -38 -7 0 -23 -3 -34 -6 -20 -5 -23 1 -38 83 -24 130 -22 151 12 156 71 11
112 7 132 -13z m-1867 -14 c15 -11 16 -22 9 -75 -5 -33 -7 -61 -5 -61 2 0 24
19 48 41 41 38 48 41 71 30 14 -6 24 -15 22 -19 -31 -71 -86 -162 -98 -162
-38 1 -44 17 -21 57 l23 38 -34 -32 c-26 -25 -37 -30 -51 -22 -14 8 -16 19
-12 47 l5 37 -15 -33 c-14 -29 -17 -31 -38 -21 -12 6 -24 13 -26 15 -6 6 84
174 94 174 5 0 18 -7 28 -14z m1289 -114 c-2 -64 -5 -119 -7 -120 -2 -2 -17
-1 -34 3 l-31 7 0 88 c0 48 3 101 6 117 5 26 9 28 37 25 l32 -4 -3 -116z m392
112 c11 -28 6 -33 -36 -36 -32 -2 -44 -8 -46 -21 -3 -15 2 -17 37 -11 39 6 41
5 41 -19 0 -25 -16 -37 -51 -37 -12 0 -19 -7 -19 -20 0 -20 19 -25 78 -20 18
1 22 -4 22 -29 l0 -29 -79 -4 -79 -3 -6 45 c-3 25 -8 77 -12 117 -7 82 -9 80
87 82 43 1 58 -3 63 -15z m-284 -69 c16 -68 17 -69 24 -35 23 108 24 110 62
110 35 0 35 -1 29 -31 -4 -17 -18 -63 -31 -102 -13 -40 -24 -80 -24 -89 0 -14
-9 -18 -39 -18 l-39 0 -36 110 c-20 60 -36 114 -36 120 0 7 15 10 37 8 37 -3
37 -3 53 -73z m1437 43 c69 -76 68 -156 -2 -174 -38 -9 -63 5 -89 49 -40 70
-41 83 -7 117 35 36 70 38 98 8z m-144 -65 c22 -26 30 -65 18 -96 -8 -21 -8
-27 4 -27 7 0 17 5 20 10 9 15 25 2 25 -20 0 -13 -19 -27 -62 -48 -35 -17 -64
-29 -65 -28 -2 2 4 28 12 60 27 104 11 153 -30 90 l-17 -26 -16 23 c-15 21
-14 24 16 51 37 32 72 36 95 11z m-2428 -53 c-2 -8 -9 -52 -14 -98 -5 -46 -11
-85 -13 -88 -11 -10 -53 22 -50 37 4 21 -26 33 -44 19 -9 -8 -20 -8 -39 2
l-25 14 65 76 c64 74 67 76 95 65 20 -8 28 -17 25 -27z m106 -51 c4 -13 8 -40
9 -59 l1 -35 18 45 c20 48 28 55 51 40 12 -8 12 -15 1 -47 -28 -85 -54 -143
-62 -143 -22 0 -49 42 -50 78 l-1 37 -15 -37 c-16 -38 -27 -45 -51 -30 -9 6
-5 29 20 99 29 81 35 90 53 83 11 -4 23 -18 26 -31z m2141 -36 c74 -92 73 -91
43 -105 -21 -9 -28 -9 -34 1 -12 18 -54 4 -47 -15 4 -9 -4 -19 -20 -26 -31
-15 -44 0 -44 52 0 19 -3 59 -6 87 -6 49 -5 53 17 62 13 5 27 10 30 10 4 1 31
-29 61 -66z m-150 -33 c13 -25 14 -38 6 -53 -8 -16 -5 -24 18 -43 25 -20 27
-25 14 -34 -23 -15 -42 -12 -68 13 l-24 22 7 -32 c6 -29 4 -33 -20 -39 -14 -3
-27 -5 -28 -3 -8 11 -59 180 -56 183 15 13 98 32 114 26 11 -4 28 -22 37 -40z
m-1791 19 c19 -10 20 -18 15 -106 -2 -52 -6 -96 -8 -98 -8 -7 -48 16 -48 29 0
19 -29 29 -46 15 -7 -6 -26 -8 -43 -4 l-30 6 36 52 c90 129 87 126 124 106z
m1624 -48 c-3 -5 -19 -12 -35 -16 -38 -8 -28 -29 10 -21 22 4 29 1 33 -14 4
-14 -3 -21 -24 -29 -31 -11 -32 -12 -23 -35 4 -11 11 -13 31 -5 40 15 55 11
51 -13 -2 -18 -14 -25 -61 -36 -32 -8 -60 -12 -62 -10 -8 8 -49 177 -44 182 3
3 30 12 60 19 46 12 55 12 62 1 4 -8 6 -18 2 -23z m-1385 -20 c46 -33 34 -142
-19 -171 -19 -10 -99 -4 -120 9 -11 7 -4 66 20 154 l10 39 42 -6 c23 -4 53
-15 67 -25z m1231 -12 c17 -17 20 -30 17 -63 -4 -32 0 -48 14 -66 15 -18 16
-25 6 -31 -24 -16 -46 -9 -68 19 l-21 27 6 -31 c5 -28 3 -32 -21 -38 -14 -4
-28 -5 -30 -4 -3 4 -36 155 -38 178 -1 9 12 17 34 21 63 11 80 9 101 -12z
m-1043 -33 c-3 -18 -9 -20 -40 -18 -46 4 -52 -16 -8 -24 21 -5 30 -12 30 -26
0 -16 -6 -19 -32 -16 -25 2 -34 -1 -36 -15 -4 -17 2 -21 50 -31 20 -5 25 -10
21 -26 -5 -18 -11 -20 -42 -15 -94 14 -102 17 -96 33 3 8 10 49 16 91 6 42 12
78 14 81 2 4 31 2 65 -4 53 -9 60 -13 58 -30z m874 7 c24 -28 30 -58 17 -87
-11 -23 -9 -29 9 -49 29 -31 28 -37 -7 -37 -20 0 -36 9 -50 26 l-21 27 0 -32
c0 -20 -5 -32 -15 -32 -8 -1 -21 -2 -27 -3 -8 -1 -15 19 -19 54 -4 30 -10 74
-14 97 -7 38 -5 42 16 46 56 10 96 7 111 -10z m-314 -19 c2 -1 1 -11 -2 -21
-5 -15 -13 -18 -35 -15 -33 5 -43 -13 -38 -65 6 -45 16 -56 48 -49 21 4 29 1
32 -12 3 -16 25 50 43 133 8 35 13 40 39 43 29 3 31 0 66 -90 l37 -93 -26 -7
c-19 -5 -29 -3 -35 7 -10 19 -43 19 -54 1 -5 -9 -35 -17 -83 -21 -66 -6 -78
-5 -100 13 -21 17 -24 28 -25 80 0 65 18 97 59 105 19 3 66 -2 74 -9z m-244
-11 c2 -10 12 -49 21 -87 9 -37 19 -75 22 -82 4 -10 -4 -14 -26 -14 -19 0 -34
6 -37 15 -7 17 -44 21 -44 5 0 -5 -15 -10 -34 -10 -39 0 -40 -9 6 122 22 64
25 68 55 68 22 0 33 -5 37 -17z"/>
<path d="M3530 5401 c-30 -11 -59 -17 -64 -14 -5 3 -6 1 -3 -4 8 -13 -14 -33
-40 -38 -10 -1 -17 -7 -16 -13 2 -6 -4 -27 -13 -48 -20 -47 -11 -116 20 -158
21 -29 25 -73 5 -61 -5 3 -6 0 -3 -8 3 -8 1 -18 -4 -21 -5 -3 -7 -16 -5 -29
l5 -24 66 24 c37 12 73 21 80 18 6 -2 12 -1 12 3 0 4 24 8 53 8 80 2 116 8
109 18 -3 5 5 7 16 4 12 -4 20 -2 17 2 -10 16 16 22 33 9 9 -7 14 -9 10 -5 -4
5 -2 16 5 25 11 14 10 15 -8 1 -10 -8 -4 5 15 29 32 39 35 49 35 110 0 62 -2
69 -35 105 -52 57 -86 72 -185 82 -35 3 -67 -1 -105 -15z m172 -33 c55 -16
115 -74 123 -119 4 -23 3 -39 -4 -44 -6 -3 -9 -10 -6 -15 11 -18 -40 -72 -89
-96 -36 -17 -67 -24 -110 -24 -34 0 -83 -7 -110 -15 -27 -8 -50 -14 -52 -13
-1 2 6 20 16 41 10 20 15 35 11 32 -12 -7 -53 54 -45 67 4 6 3 8 -3 5 -11 -7
-16 44 -7 86 5 22 9 26 19 17 12 -10 13 -8 10 10 -3 16 0 20 11 16 8 -3 13 -2
10 3 -3 4 2 15 12 24 38 34 143 46 214 25z"/>
<path d="M2738 5185 c-176 -64 -272 -250 -224 -428 78 -288 459 -348 627 -98
77 114 79 262 6 378 -36 57 -113 120 -175 143 -62 24 -177 26 -234 5z"/>
<path d="M4335 5148 c-142 -50 -155 -257 -21 -329 43 -23 58 -39 36 -39 -6 0
-10 -47 -10 -120 l0 -120 55 0 55 0 0 114 c0 66 -4 117 -10 121 -17 11 -11 22
20 35 43 18 98 83 106 125 17 91 -20 166 -100 204 -50 23 -84 25 -131 9z m100
-31 c46 -18 70 -38 89 -74 46 -90 -12 -197 -114 -210 -176 -24 -222 236 -51
287 34 11 41 11 76 -3z"/>
<path d="M4370 5113 c-66 -13 -115 -80 -107 -148 8 -76 57 -120 132 -120 75 0
124 45 132 119 9 87 -72 164 -157 149z m43 -40 c-26 -5 -31 -33 -7 -33 9 0 22
7 28 16 10 13 15 12 36 -13 14 -15 18 -22 9 -15 -22 16 -28 6 -22 -34 5 -27 1
-40 -17 -59 -13 -14 -29 -25 -37 -25 -17 0 -17 -27 0 -33 6 -3 -4 -3 -23 0
-48 8 -80 41 -87 91 -5 37 -2 45 30 77 29 29 42 35 74 34 23 -1 29 -3 16 -6z"/>
<path d="M2020 4826 c-105 -22 -208 -106 -252 -204 -32 -72 -30 -208 5 -284
64 -142 232 -230 380 -199 173 36 286 171 288 343 2 169 -115 310 -289 347
-62 13 -60 13 -132 -3z"/>
<path d="M4910 4500 c0 -183 1 -190 20 -190 11 0 20 -7 20 -15 0 -13 32 -15
225 -15 l225 0 0 180 c0 149 -2 180 -14 180 -8 0 -16 10 -18 23 -3 22 -3 22
-230 25 l-228 2 0 -190z m378 143 c-34 -3 -48 -8 -48 -19 0 -11 -25 -14 -145
-14 l-144 0 -4 -137 -3 -138 -2 158 -2 157 198 -2 c108 -1 176 -3 150 -5z m72
-178 l0 -145 -190 0 -190 0 0 125 0 125 144 0 c135 0 144 1 149 20 4 16 14 20
46 20 l41 0 0 -145z"/>
<path d="M3591 4641 c-23 -23 -46 -27 -56 -11 -9 15 -53 -18 -57 -43 -2 -14
-11 -23 -25 -25 -25 -4 -58 -48 -43 -57 18 -11 11 -47 -10 -52 -28 -8 -27 -56
2 -75 19 -13 21 -19 11 -40 -12 -27 3 -58 29 -58 19 0 38 -20 38 -42 0 -23 29
-37 64 -31 20 4 31 1 38 -11 11 -20 61 -21 78 -1 9 10 23 14 44 10 38 -7 53 2
57 35 3 18 11 26 29 28 36 5 44 16 42 62 -1 28 3 42 13 46 22 9 20 74 -1 74
-13 0 -15 7 -11 33 6 44 -11 77 -40 77 -22 0 -25 3 -27 33 -2 23 -30 36 -68
30 -31 -4 -38 -2 -38 11 0 9 -4 16 -9 16 -5 0 -16 3 -24 6 -9 3 -25 -4 -36
-15z m53 -37 c7 -9 27 -16 47 -16 30 0 37 -5 46 -29 7 -18 21 -31 37 -35 23
-5 26 -10 21 -33 -4 -19 0 -35 15 -54 l21 -26 -21 -21 c-15 -15 -20 -30 -17
-50 4 -24 0 -30 -24 -40 -17 -7 -32 -23 -35 -36 -5 -20 -13 -24 -42 -24 -19 0
-44 -7 -54 -17 -17 -15 -19 -15 -36 0 -10 10 -35 17 -55 17 -29 0 -36 4 -39
23 -2 13 -15 28 -35 37 -27 13 -31 19 -26 43 4 20 0 34 -16 51 l-21 23 20 18
c15 14 20 29 18 54 -2 30 1 36 22 41 15 3 31 19 40 37 13 27 18 29 38 20 19
-9 27 -7 45 11 26 26 36 27 51 6z"/>
<path d="M3570 4533 c-44 -23 -80 -76 -80 -118 0 -43 37 -96 84 -119 35 -17
42 -18 84 -5 76 24 115 104 83 173 -33 72 -107 102 -171 69z m121 -52 c51 -52
33 -128 -37 -157 -47 -20 -97 1 -120 49 -47 99 79 186 157 108z"/>
<path d="M4320 4015 l0 -235 180 0 180 0 0 203 0 203 -33 32 -33 32 -147 0
-147 0 0 -235z m274 165 c4 -24 11 -30 31 -30 l25 0 0 -170 0 -170 -150 0
-150 0 0 200 0 200 119 0 119 0 6 -30z"/>
<path d="M2609 4224 c-42 -17 -69 -59 -69 -106 0 -30 -4 -36 -35 -47 -87 -31
-86 -165 1 -206 44 -21 428 -22 477 -1 43 18 67 56 67 106 0 53 -22 84 -71
104 -22 9 -53 32 -70 51 -34 38 -86 54 -124 37 -19 -9 -24 -7 -33 13 -23 50
-88 72 -143 49z m99 -47 c18 -19 28 -44 31 -80 1 -5 14 3 31 16 49 41 119 21
134 -39 5 -18 13 -24 35 -24 73 0 106 -80 57 -137 l-24 -28 -208 -3 c-219 -3
-251 2 -279 42 -38 54 3 126 71 126 31 0 35 3 29 18 -5 9 -10 31 -13 49 -9 69
87 112 136 60z"/>
<path d="M3540 3817 c-53 -17 -133 -102 -149 -160 -28 -99 10 -206 94 -267 47
-34 53 -35 135 -35 77 0 91 3 127 27 241 160 69 522 -207 435z"/>
<path d="M2619 3466 c-15 -16 -12 -1349 3 -1364 9 -9 -6 -12 -70 -12 -57 0
-82 -4 -82 -12 0 -6 7 -38 16 -70 l17 -58 1103 0 c707 0 1104 3 1104 10 0 5
11 34 25 64 14 30 25 57 25 60 0 3 -39 6 -87 6 -68 0 -84 3 -75 12 16 16 18
1353 2 1363 -6 3 -152 6 -326 6 l-317 1 -24 -49 c-13 -26 -41 -65 -63 -85
l-39 -38 304 0 305 0 0 45 0 45 45 0 45 0 0 -605 0 -605 -820 0 c-451 -1 -860
-1 -910 -1 -49 0 -94 0 -100 1 -7 0 -10 209 -10 605 l0 605 45 0 45 0 0 -45 0
-45 316 0 316 0 -39 40 c-22 21 -51 60 -64 85 -13 25 -28 45 -34 45 -159 6
-648 3 -656 -4z"/>
</g>
</svg>
