<?xml version="1.0" standalone="no"?>
<!DOCTYPE svg PUBLIC "-//W3C//DTD SVG 20010904//EN"
 "http://www.w3.org/TR/2001/REC-SVG-20010904/DTD/svg10.dtd">
<svg version="1.0" xmlns="http://www.w3.org/2000/svg"
 width="612.000000pt" height="408.000000pt" viewBox="0 0 612.000000 408.000000"
 preserveAspectRatio="xMidYMid meet">
<metadata>
Created by potrace 1.16, written by Peter Selinger 2001-2019
</metadata>
<g transform="translate(0.000000,408.000000) scale(0.100000,-0.100000)"
fill="#000000" stroke="none">
<path d="M0 2040 l0 -2040 3060 0 3060 0 0 851 c0 467 -4 848 -8 845 -5 -3 -9
1 -9 9 0 8 4 15 9 15 11 0 10 994 -1 1006 -5 5 -18 36 -29 68 -22 70 -46 91
-68 61 -8 -11 -13 -31 -10 -45 5 -22 4 -22 -4 -5 -5 11 -14 33 -20 48 -13 36
-53 35 -58 -2 -4 -26 14 -101 33 -141 7 -14 15 -38 18 -55 4 -18 -8 -2 -28 40
-19 38 -35 75 -35 82 0 19 -18 25 -40 13 -30 -16 -28 -28 45 -250 16 -49 20
-110 7 -110 -5 0 -17 19 -28 41 -27 61 -52 89 -79 89 -43 0 -42 -11 21 -203 9
-26 14 -50 12 -53 -3 -2 -13 22 -24 53 -10 32 -26 65 -34 73 -13 14 -17 12
-32 -20 -10 -20 -17 -28 -18 -17 0 9 -5 17 -11 17 -7 0 -8 -7 -4 -17 4 -10 9
-34 11 -53 4 -25 -2 -16 -19 30 -13 36 -27 73 -32 83 -5 13 -3 17 6 15 21 -4
29 -20 23 -43 -4 -16 -3 -17 5 -5 10 13 12 13 21 0 8 -13 10 -12 10 3 0 9 -5
17 -11 17 -6 0 -9 9 -6 19 4 16 0 19 -27 17 -26 -3 -38 5 -82 53 -115 126
-299 164 -465 97 -34 -14 -66 -23 -71 -20 -5 3 -7 2 -6 -3 2 -5 -15 -25 -36
-44 l-40 -34 20 35 c10 19 23 37 27 39 15 6 -26 41 -48 41 -28 0 -46 -20 -84
-93 -28 -54 -31 -56 -37 -32 -8 31 -5 44 41 174 38 110 42 154 12 159 -12 3
-23 -9 -37 -40 -23 -50 -27 -37 -5 16 9 20 13 47 9 61 -9 34 -41 33 -55 -2
l-11 -28 -12 23 c-13 25 -16 24 -70 -43 -31 -38 -45 -26 -22 21 27 57 14 49
-17 -10 -23 -44 -36 -57 -70 -70 -48 -18 -104 -21 -142 -6 -20 8 -32 6 -53 -7
-15 -10 -30 -21 -33 -26 -3 -4 -19 -3 -35 3 l-29 12 40 34 c28 25 36 37 27 43
-7 4 -19 29 -27 55 -22 73 -6 134 50 185 85 79 217 63 276 -33 12 -19 19 -25
19 -15 0 9 -14 31 -30 49 -28 30 -44 58 -18 32 7 -7 20 -12 29 -12 17 0 31
-30 31 -65 -1 -19 0 -19 5 -1 4 15 7 16 13 5 5 -7 6 5 3 28 -4 34 -2 42 13 46
19 5 19 5 0 6 -15 1 -17 6 -13 30 5 22 2 31 -11 37 -14 6 -11 9 13 14 l30 8
-34 1 c-19 0 -31 4 -28 8 4 3 2 13 -5 20 -10 12 -14 11 -25 -9 -11 -18 -13
-18 -8 -3 4 11 10 28 12 38 3 9 12 17 20 17 8 0 17 9 20 20 3 11 10 20 15 20
6 0 8 -9 5 -20 -4 -17 -1 -20 21 -19 15 1 32 0 37 -1 6 -2 22 2 38 8 21 9 27
18 27 42 0 27 -3 30 -20 25 -17 -5 -20 -2 -19 22 l1 28 7 -25 8 -25 4 25 c2
14 9 25 14 25 18 1 65 37 65 51 0 7 16 16 35 20 19 3 39 12 46 20 6 8 18 14
25 14 8 0 14 5 14 10 0 6 9 10 19 10 11 0 22 4 26 9 3 5 20 13 38 17 17 3 48
17 67 30 19 13 44 24 55 24 30 0 75 23 75 38 0 8 6 12 12 10 7 -3 33 2 58 10
25 8 79 18 120 22 63 6 79 4 105 -11 16 -11 43 -19 59 -19 33 0 126 -31 126
-42 0 -5 8 -8 18 -8 9 0 40 -11 67 -25 28 -13 56 -25 63 -25 6 0 12 -6 12 -13
0 -7 14 -21 30 -31 17 -9 28 -21 25 -26 -3 -5 4 -11 15 -15 11 -3 20 -12 20
-20 0 -7 7 -15 15 -19 13 -5 15 35 15 324 l0 330 -2534 0 c-2525 0 -2534 0
-2539 -20 -3 -11 -10 -20 -17 -20 -7 0 -9 8 -5 20 6 20 2 20 -509 20 l-516 0
0 -2040z m1236 1230 c0 -11 -4 -20 -9 -20 -5 0 -5 -10 -2 -22 4 -16 3 -19 -3
-10 -8 11 -10 11 -15 -1 -3 -9 1 -18 9 -21 24 -9 46 -7 39 3 -3 5 -1 12 5 16
5 3 10 1 10 -5 0 -7 7 -5 16 4 8 9 26 16 39 16 13 0 27 5 30 10 3 6 28 10 56
10 28 0 49 5 49 11 0 5 -6 7 -12 3 -7 -4 -9 -3 -5 1 10 11 37 15 37 6 0 -4 -6
-13 -12 -20 -11 -10 -9 -16 10 -31 12 -10 22 -23 22 -29 0 -21 17 -11 48 28
18 22 28 42 23 45 -5 3 -12 -2 -15 -11 -6 -14 -10 -13 -31 7 -14 13 -23 26
-20 28 3 3 12 -3 20 -14 8 -10 15 -13 15 -7 0 7 10 13 23 13 12 0 29 0 37 1
30 2 200 -29 212 -38 7 -6 25 -13 39 -16 16 -4 30 -18 40 -39 8 -21 21 -32 31
-32 10 1 15 -2 12 -7 -3 -5 -7 -19 -9 -31 -4 -23 -4 -22 15 2 11 14 20 29 20
33 0 14 72 77 89 78 10 0 12 2 4 6 -16 6 -16 13 2 37 14 19 15 19 35 1 11 -10
20 -22 20 -26 0 -4 -25 -44 -55 -88 -30 -44 -55 -85 -55 -91 0 -14 13 -13 28
2 9 9 12 9 12 1 0 -7 -5 -15 -10 -18 -6 -4 7 -24 29 -47 28 -28 42 -52 46 -81
4 -23 14 -50 22 -59 17 -19 9 -56 -16 -75 -9 -7 -33 -13 -53 -13 -21 0 -38 -4
-38 -10 0 -5 -9 -10 -20 -10 -26 0 -37 -27 -18 -43 18 -14 48 -58 48 -70 0 -4
-10 -1 -22 7 -28 20 -38 20 -38 1 0 -8 -4 -15 -10 -15 -5 0 -10 -20 -10 -45 0
-52 48 -139 81 -148 12 -3 18 -10 15 -16 -9 -13 13 -25 49 -27 22 -1 41 -15
74 -50 47 -53 106 -168 97 -191 -3 -8 -2 -12 3 -8 5 3 24 -39 42 -92 17 -54
38 -110 46 -125 l14 -28 -51 0 c-27 0 -50 -2 -50 -4 0 -17 15 -36 27 -36 25 0
9 -23 -26 -37 -18 -8 -30 -10 -27 -5 8 13 -50 23 -82 15 -15 -3 -32 -13 -38
-21 -6 -8 -16 -12 -22 -8 -10 6 -10 29 0 91 2 16 -2 20 -21 19 -16 -1 -35 11
-54 33 -32 37 -51 40 -117 19 -25 -8 -70 -21 -100 -29 -30 -8 -62 -17 -71 -21
-29 -12 -33 39 -8 91 12 25 24 66 26 91 3 26 15 68 29 93 13 26 24 60 24 77 0
26 4 31 28 34 23 3 27 7 25 31 -2 24 1 27 20 21 12 -3 31 -14 41 -25 19 -18
19 -18 0 -24 -10 -4 -30 -12 -44 -18 -21 -9 -22 -11 -7 -15 10 -2 32 1 50 7
17 7 33 8 35 3 1 -5 9 -17 16 -27 11 -16 15 -16 39 -3 l27 14 -26 37 c-20 30
-23 41 -14 52 10 11 7 15 -15 21 -18 4 -28 15 -32 35 -3 15 -11 30 -19 33 -8
3 -14 17 -14 31 0 22 -4 26 -22 23 -19 -2 -24 -10 -26 -45 -4 -54 -18 -55 -27
-3 -7 43 -8 43 -43 34 -21 -6 -22 -10 -16 -50 4 -29 3 -44 -4 -44 -6 0 -14 17
-17 38 -8 51 -34 100 -57 108 -10 3 -16 10 -13 15 12 18 -16 48 -53 59 -20 5
-90 10 -155 10 -103 0 -118 -2 -124 -17 -3 -10 -19 -32 -35 -49 -16 -17 -28
-35 -27 -40 1 -5 -2 -23 -6 -40 -6 -26 -11 -31 -32 -28 -14 1 -29 6 -32 11 -9
12 -68 15 -75 4 -7 -10 13 -18 64 -25 17 -2 26 -10 28 -24 4 -28 32 -29 32 -2
0 11 5 20 10 20 6 0 10 -26 10 -59 0 -33 -4 -63 -10 -66 -15 -9 -12 -57 5 -99
8 -20 14 -36 12 -36 -7 0 -137 55 -211 90 l-68 31 6 97 c3 53 9 197 12 320 4
122 8 222 11 222 2 0 16 -13 30 -30 13 -16 29 -30 34 -30 16 0 -24 60 -44 66
-13 4 -17 12 -14 27 3 12 9 40 13 62 l8 40 12 -60 c18 -88 49 -155 72 -155 29
0 31 9 12 53 -10 23 -23 72 -30 109 -12 66 -13 68 -39 62 l-26 -7 23 25 c24
26 52 32 64 14 5 -7 8 -7 8 2 0 7 5 10 12 6 7 -4 8 -3 4 5 -4 6 -12 9 -17 6
-5 -4 -9 2 -9 11 0 16 -1 16 -15 -2 -8 -10 -15 -14 -15 -8 0 6 7 17 15 24 12
10 18 10 33 -1 15 -13 16 -12 4 3 -12 15 -10 25 12 73 13 30 26 55 28 55 2 0
4 -9 4 -20z m-341 -195 c1 -24 -2 -42 -6 -39 -12 7 -12 -19 0 -31 5 -6 1 -49
-10 -100 -10 -49 -23 -137 -29 -195 l-11 -105 35 -69 c40 -77 39 -96 -2 -49
-27 30 -52 34 -52 7 0 -9 6 -11 18 -7 16 7 16 6 0 -11 -12 -11 -18 -33 -18
-63 l0 -45 -37 7 c-112 23 -113 23 -113 9 0 -8 -7 -14 -16 -14 -10 0 -14 5
-10 15 4 11 -3 19 -22 25 -15 6 -38 16 -52 24 -14 7 -30 12 -36 9 -14 -5 -39
25 -52 64 -9 26 -8 33 5 37 10 4 12 10 6 19 -6 6 -13 20 -16 30 -6 15 -3 16
12 7 11 -5 21 -13 23 -17 3 -5 3 -2 1 6 -6 26 19 96 43 117 13 12 24 26 24 31
0 5 11 15 25 21 14 6 25 16 25 21 0 5 7 11 16 13 13 3 13 6 1 22 -14 19 -14
19 -35 -2 -11 -11 -23 -18 -26 -14 -3 3 -6 -4 -6 -15 0 -12 -7 -24 -16 -27
-11 -4 -15 -2 -11 8 7 16 0 15 -66 -19 -24 -12 -44 -32 -52 -52 -8 -18 -19
-33 -24 -33 -14 0 -33 38 -41 83 l-7 37 54 0 c40 0 63 6 94 25 22 14 37 30 34
36 -4 5 -3 15 2 22 5 7 17 37 27 67 25 72 29 76 63 53 15 -11 42 -25 58 -31
l30 -12 -35 5 -35 6 30 -17 c17 -9 34 -23 38 -30 8 -14 16 -12 57 15 13 9 12
12 -5 25 -20 15 -20 15 2 16 12 0 24 6 26 13 3 7 6 4 6 -6 1 -25 21 -11 21 15
0 16 3 18 14 9 8 -7 16 -8 19 -4 9 14 21 98 18 123 -2 14 1 22 5 17 4 -4 8
-27 9 -52z m3403 -12 c12 -67 1 -98 -29 -90 -18 5 -20 1 -17 -31 2 -29 8 -37
28 -42 16 -4 26 -14 28 -29 5 -34 -6 -68 -23 -75 -9 -3 -14 -2 -11 2 2 4 -4
26 -14 47 -14 33 -19 37 -25 22 -4 -10 -5 -32 -2 -50 5 -30 3 -32 -28 -34
l-33 -1 -1 149 c-1 82 2 149 7 149 5 0 17 -9 27 -20 26 -28 33 -25 51 20 9 22
20 40 24 40 4 0 12 -26 18 -57z"/>
</g>
</svg>
