<?xml version="1.0" standalone="no"?>
<!DOCTYPE svg PUBLIC "-//W3C//DTD SVG 20010904//EN"
 "http://www.w3.org/TR/2001/REC-SVG-20010904/DTD/svg10.dtd">
<svg version="1.0" xmlns="http://www.w3.org/2000/svg"
 width="2000.000000pt" height="1400.000000pt" viewBox="0 0 2000.000000 1400.000000"
 preserveAspectRatio="xMidYMid meet">
<metadata>
Created by potrace 1.16, written by Peter Selinger 2001-2019
</metadata>
<g transform="translate(0.000000,1400.000000) scale(0.100000,-0.100000)"
fill="#000000" stroke="none">
<path d="M0 7000 l0 -7000 10000 0 10000 0 0 7000 0 7000 -25 0 -25 0 0 -1577
0 -1578 -112 7 c-62 3 -131 7 -153 7 -30 1 -36 4 -25 11 12 8 11 10 -7 10 -18
0 -23 6 -23 28 -1 15 -7 38 -15 52 -11 19 -14 69 -15 216 l0 191 -152 6 c-83
4 -191 7 -240 7 -52 0 -88 4 -88 10 0 6 14 10 32 10 45 0 22 20 -25 22 -24 1
-38 7 -41 17 -3 9 -6 108 -7 221 -2 113 -6 212 -10 221 -7 13 -38 17 -201 22
-196 7 -242 12 -232 28 9 15 -13 10 -26 -6 -7 -9 -23 -15 -34 -13 -24 3 -24 3
-25 324 l0 181 -137 6 c-75 4 -179 7 -229 7 -87 0 -94 1 -109 25 -9 13 -16 33
-16 45 0 11 -7 20 -15 20 -13 0 -15 28 -15 193 0 105 -3 202 -6 214 -6 21 -10
21 -177 22 -203 2 -267 8 -267 27 0 8 -4 14 -10 14 -5 0 -10 -7 -10 -15 0 -9
-9 -15 -24 -15 l-23 0 -7 248 c-4 136 -11 250 -15 254 -4 5 -117 11 -251 15
-160 4 -248 10 -252 17 -4 6 -8 54 -8 107 0 53 -3 164 -7 247 l-6 152 -8484 0
-8483 0 0 -7000z m5660 5170 c130 -24 254 -57 362 -97 86 -32 272 -122 343
-166 28 -17 51 -31 53 -32 1 -1 -8 -20 -19 -41 -30 -55 -20 -96 47 -195 29
-44 54 -84 54 -89 0 -4 26 -30 58 -56 31 -27 78 -67 104 -91 25 -23 69 -56 97
-73 28 -18 51 -35 51 -39 0 -4 21 -24 46 -45 40 -34 57 -42 87 -45 5 -1 6 -5
2 -10 -3 -6 16 -13 42 -17 27 -3 58 -16 71 -27 12 -11 22 -17 22 -13 0 8 52
-51 69 -79 11 -17 12 -16 6 15 -3 19 -8 77 -11 127 l-4 93 57 -22 c32 -12 117
-45 188 -75 72 -30 193 -79 270 -110 164 -66 228 -106 277 -171 58 -77 78
-134 77 -221 0 -42 -7 -92 -15 -111 l-14 -35 1 55 c2 81 0 100 -10 100 -5 0
-11 -9 -14 -20 -6 -22 -27 -28 -27 -7 0 9 -2 9 -9 -1 -4 -7 -30 -16 -56 -20
-40 -6 -51 -12 -65 -37 -12 -22 -23 -29 -40 -27 -28 4 -87 -47 -68 -60 9 -5 4
-8 -12 -8 -20 0 -22 -2 -10 -10 13 -8 13 -10 -2 -10 -10 0 -34 -22 -55 -50
-20 -27 -41 -50 -45 -50 -4 0 -8 -7 -8 -16 0 -8 -4 -12 -10 -9 -6 4 -10 -7
-10 -24 l0 -31 78 -1 c53 -1 68 -4 47 -8 -40 -9 -140 -2 -185 14 l-35 12 -1
-166 c0 -237 -47 -520 -103 -629 -21 -41 -88 -113 -141 -152 -18 -14 -54 -41
-79 -61 -54 -42 -175 -113 -211 -124 -14 -4 -27 -11 -30 -14 -7 -9 -197 -101
-208 -101 -6 0 -13 -8 -16 -17 -6 -15 -8 -15 -17 -3 -7 12 -10 11 -15 -8 -6
-20 -11 -23 -36 -18 -16 3 -27 2 -24 -3 3 -5 -6 -12 -19 -15 -16 -4 -23 -11
-19 -18 5 -7 -3 -9 -24 -6 -17 2 -30 0 -29 -4 1 -5 -16 -15 -38 -23 -22 -8
-41 -19 -43 -25 -2 -5 -8 -8 -13 -4 -5 3 -9 -2 -9 -10 0 -12 -11 -16 -46 -16
-29 0 -43 -4 -39 -11 4 -6 14 -8 22 -5 8 3 12 2 8 -3 -3 -5 3 -17 12 -27 17
-16 16 -17 -10 -12 -23 4 -27 2 -27 -16 0 -12 9 -28 20 -36 16 -12 20 -26 20
-72 0 -45 3 -58 15 -58 8 0 15 5 15 10 0 6 9 10 20 10 11 0 20 -4 20 -10 0 -5
9 -10 20 -10 15 0 20 -7 20 -25 0 -18 4 -23 15 -19 10 4 15 0 15 -15 0 -12 5
-21 11 -21 5 0 7 -5 4 -10 -3 -6 -17 -8 -30 -6 -17 3 -28 -2 -39 -19 -19 -29
-21 -44 -4 -27 7 7 23 12 36 12 13 0 30 7 38 15 19 19 38 19 31 1 -3 -8 -1
-17 6 -20 7 -3 2 -3 -10 0 -13 3 -23 1 -23 -5 0 -6 6 -11 12 -11 19 0 -25 -28
-56 -36 -15 -3 -25 -9 -22 -12 10 -9 -28 -31 -53 -32 -13 0 -21 -3 -18 -7 20
-19 -325 -154 -470 -183 -32 -6 -78 -16 -103 -22 -87 -20 -394 -22 -534 -4
-238 31 -465 100 -673 205 l-103 51 -1185 0 -1185 0 0 -355 0 -355 -220 0
-220 0 0 575 0 575 1135 0 c624 0 1135 3 1135 7 0 3 -26 40 -59 82 -315 408
-473 924 -433 1408 15 170 37 291 82 436 139 450 435 834 821 1065 225 135
502 232 749 262 125 15 439 4 570 -20z m12680 -3815 l0 -575 -222 2 -223 3 -1
305 c0 168 -1 326 -2 353 l-2 47 -1320 0 -1320 0 0 220 0 220 1545 0 1545 0 0
-575z m-4416 -600 c-7 -17 11 -21 21 -5 8 12 135 11 135 -1 0 -5 16 -9 36 -9
19 0 33 4 30 9 -8 13 62 19 74 6 7 -6 104 -12 253 -15 228 -5 244 -6 269 -26
15 -12 24 -24 21 -28 -3 -3 31 -6 76 -6 l82 0 -3 -157 -3 -158 -25 -1 c-14 -1
-44 -2 -67 -2 -25 -1 -43 -7 -43 -13 0 -12 -38 -49 -77 -76 -16 -11 -23 -25
-23 -49 0 -19 5 -34 12 -34 6 0 8 -3 5 -7 -4 -3 -2 -12 4 -20 6 -7 8 -14 3
-14 -5 -1 6 -4 24 -8 l33 -6 2 -148 c2 -136 1 -147 -16 -147 -25 0 -57 -18
-57 -33 -1 -7 -23 -29 -49 -49 -49 -38 -50 -38 -148 -39 l-98 -2 75 -8 c138
-16 225 -30 255 -41 33 -13 95 -67 79 -70 -5 -1 25 -4 66 -7 l74 -6 2 -37 c3
-42 -1 -47 -45 -50 l-31 -2 0 -113 0 -113 -57 -1 c-52 -1 -54 -2 -23 -9 19 -4
28 -8 20 -9 -9 0 -33 -10 -55 -21 -37 -19 -58 -20 -400 -19 -391 0 -576 9
-600 29 -8 7 -24 10 -36 7 -12 -3 -29 -2 -38 3 -9 4 -28 12 -42 18 -33 13 -40
46 -32 141 4 49 2 71 -5 71 -6 0 -9 6 -6 14 8 20 10 235 3 230 -3 -2 -9 67
-13 154 -8 172 -13 238 -26 294 -4 20 -4 55 0 77 7 39 -4 57 -16 26 -13 -34
-26 -13 -22 35 3 28 2 50 -2 50 -5 0 -4 16 0 35 4 18 4 49 0 67 -4 18 -8 27
-9 20 -1 -7 -5 -11 -10 -8 -12 8 -43 -72 -35 -86 4 -6 2 -8 -4 -4 -6 3 -14 -4
-18 -16 -4 -13 -20 -51 -35 -85 -27 -60 -31 -63 -64 -63 -24 0 -35 -5 -35 -15
0 -8 -4 -15 -8 -15 -9 0 -37 -70 -34 -82 1 -5 -3 -8 -9 -8 -6 0 -8 -7 -5 -16
4 -10 2 -13 -6 -8 -8 5 -9 0 -5 -15 3 -13 3 -20 0 -17 -9 9 -63 -116 -58 -132
3 -7 1 -11 -4 -8 -7 5 -40 -65 -45 -97 -1 -6 -5 -18 -9 -24 -6 -9 0 -13 22
-13 35 0 41 -21 18 -55 -8 -11 -31 -64 -53 -117 l-39 -98 -36 0 c-35 0 -37 -2
-67 -70 -17 -39 -29 -77 -26 -84 3 -8 1 -17 -5 -21 -7 -4 -9 1 -5 12 5 17 5
17 -6 0 -7 -10 -10 -27 -7 -37 5 -20 -15 -29 -73 -31 -29 0 -31 -2 -15 -9 19
-8 19 -9 -2 -9 -12 -1 -23 -6 -25 -12 -7 -20 -91 -28 -188 -18 -52 6 -97 14
-100 17 -5 7 -10 8 -66 11 -20 0 -33 5 -29 11 4 6 -6 10 -22 10 -25 0 -31 7
-52 58 -13 31 -32 76 -43 99 -11 23 -20 46 -20 50 0 4 -4 14 -10 21 -8 8 -7
12 3 12 10 0 11 2 2 8 -6 4 -37 60 -68 124 -31 65 -60 120 -66 123 -5 4 -9 15
-9 26 0 11 -7 22 -15 25 -8 4 -15 12 -15 19 0 17 -47 100 -65 115 -8 7 -15 21
-15 30 0 28 -11 51 -21 44 -5 -3 -9 1 -9 9 0 7 -14 42 -31 78 -17 35 -31 74
-31 86 0 13 -4 20 -9 18 -27 -17 -89 52 -89 98 0 13 -11 39 -25 59 -14 21 -30
49 -35 63 -8 20 -7 25 7 25 9 0 13 -3 10 -7 -4 -3 2 -13 14 -21 11 -8 23 -11
27 -7 3 3 2 9 -3 13 -11 8 -32 60 -46 112 -15 59 -11 97 14 124 21 24 29 26
150 32 70 4 127 10 127 13 0 3 27 7 60 9 35 2 60 -1 60 -7 0 -5 12 -11 28 -13
15 -2 26 -8 24 -15 -1 -10 20 -13 81 -13 l83 0 92 -222 c51 -123 92 -226 92
-230 0 -5 -13 -8 -29 -8 -25 0 -28 -3 -23 -25 2 -14 8 -25 13 -25 5 0 9 -9 9
-21 0 -15 4 -19 16 -15 11 4 15 2 11 -7 -3 -8 1 -14 8 -14 8 0 13 5 12 11 -1
6 4 10 11 9 6 -2 12 4 12 13 0 9 5 12 11 8 9 -5 10 1 5 20 -7 30 0 33 26 9 17
-15 20 -15 28 -3 15 23 12 38 -10 45 -19 6 -19 10 7 54 2 2 12 -6 23 -19 16
-18 20 -19 20 -7 0 20 41 96 85 157 39 54 88 150 78 150 -5 0 -3 4 2 8 6 4 19
26 29 50 11 23 24 42 29 42 6 0 24 11 41 23 23 18 46 24 86 26 30 1 57 7 61
13 11 17 201 18 206 1 3 -7 14 -13 25 -13 14 0 18 -5 14 -15 -4 -13 9 -15 90
-15 62 0 93 4 89 10 -4 6 13 19 37 30 34 15 65 20 149 20 77 0 110 4 125 15
25 19 35 19 28 0z m-10634 -17 c100 -9 126 -14 100 -19 -32 -6 -31 -7 15 -8
77 -2 87 -2 135 -13 85 -18 121 -31 108 -40 -12 -7 18 -13 50 -9 7 1 11 -2 10
-8 -2 -5 1 -9 6 -9 5 0 12 -4 15 -9 3 -5 29 -24 56 -43 66 -43 135 -110 135
-130 0 -8 -45 -55 -100 -105 -54 -49 -96 -93 -94 -97 3 -5 2 -7 -3 -6 -4 1
-18 -4 -31 -11 -18 -10 -26 -10 -38 0 -10 8 -17 9 -28 0 -7 -6 -24 -11 -37
-10 -13 0 -44 -3 -69 -8 -41 -8 -52 -5 -122 29 -42 21 -83 38 -90 38 -8 0 -23
7 -35 15 -21 14 -26 14 -65 -6 -24 -12 -58 -21 -76 -20 -18 1 -43 -5 -55 -14
-12 -8 -26 -15 -32 -15 -5 0 -3 5 5 10 8 5 10 10 4 10 -6 0 -18 -9 -25 -20 -8
-12 -27 -21 -46 -22 -17 -1 -29 -6 -27 -10 3 -5 -2 -11 -10 -14 -9 -3 -16 -14
-16 -23 0 -14 -2 -14 -10 -1 -8 13 -10 12 -10 -3 0 -10 -10 -37 -21 -60 -41
-80 -25 -288 23 -301 14 -3 19 -10 15 -20 -5 -12 1 -16 23 -16 22 0 41 -11 70
-41 34 -35 42 -39 56 -29 12 11 15 11 12 0 -2 -10 11 -14 47 -16 28 -1 55 -4
62 -5 7 -2 25 5 41 15 31 21 69 105 58 131 -4 10 1 15 14 15 18 0 20 7 20 63
0 94 6 107 47 107 20 0 32 4 28 10 -4 6 7 10 27 10 18 1 60 7 94 14 81 17 164
11 186 -15 12 -14 29 -19 62 -19 l46 0 0 -65 c0 -37 4 -65 10 -65 6 0 10 -9
10 -20 0 -11 -4 -20 -10 -20 -17 0 -12 -70 5 -71 8 -1 25 -2 38 -3 21 -1 22
-4 25 -133 l3 -133 -41 0 -42 0 4 -49 c3 -34 1 -48 -7 -45 -7 3 -18 -3 -26
-13 -13 -16 -12 -17 4 -4 9 7 17 9 17 4 0 -5 -23 -21 -52 -36 -29 -15 -46 -27
-38 -27 27 0 -5 -18 -70 -38 -85 -27 -211 -52 -264 -52 -22 0 -65 -7 -93 -14
-29 -8 -53 -13 -53 -11 0 2 -15 -2 -34 -10 -18 -8 -36 -11 -40 -8 -3 4 -12 -2
-20 -12 -13 -18 -18 -19 -77 -6 -60 12 -102 31 -69 31 10 0 11 3 3 11 -13 13
-47 4 -39 -10 8 -12 -28 -21 -44 -11 -7 4 -10 12 -7 17 13 21 -37 53 -83 53
-18 0 -29 4 -25 10 6 9 -6 14 -31 11 -5 0 -19 7 -30 16 -11 10 -26 19 -34 21
-8 2 -22 10 -30 17 -8 7 -35 22 -60 33 -49 21 -135 108 -187 190 -18 28 -48
95 -67 149 -31 90 -34 110 -35 220 -2 122 13 248 30 259 5 3 9 14 9 25 0 10 4
19 8 19 9 0 32 59 32 83 0 9 3 17 8 17 4 0 13 14 20 30 8 17 19 36 26 43 6 6
29 34 50 60 27 32 44 46 55 42 8 -3 12 -3 9 1 -10 9 11 46 21 39 5 -2 16 6 25
20 11 16 22 22 33 18 10 -4 14 -2 9 5 -3 6 3 13 14 17 11 3 20 10 20 14 0 10
75 40 91 37 3 0 12 4 20 11 28 23 131 55 164 51 19 -2 31 0 29 4 -5 8 -4 9 34
13 12 1 25 4 27 6 5 5 46 3 225 -13z m7805 -8 c50 -11 106 -21 125 -23 60 -7
110 -19 110 -27 0 -4 7 -11 16 -14 10 -4 13 -2 8 7 -4 6 2 4 13 -5 11 -10 25
-18 31 -18 7 0 12 -4 12 -10 0 -5 6 -10 13 -10 23 0 128 -73 194 -134 67 -62
156 -192 167 -243 7 -32 6 -33 -24 -33 -29 0 -32 -3 -26 -22 27 -100 32 -297
11 -405 -5 -29 -4 -31 20 -29 14 2 28 -1 31 -6 9 -14 -16 -78 -58 -152 -50
-86 -71 -106 -107 -106 -16 0 -39 -9 -52 -21 -13 -11 -18 -18 -12 -14 9 4 11
1 7 -10 -4 -9 -13 -14 -20 -11 -8 3 -13 2 -11 -2 1 -4 -6 -18 -16 -32 -9 -13
-17 -19 -17 -12 0 6 -5 12 -10 12 -6 0 -10 -8 -8 -17 2 -12 -3 -17 -14 -15
-12 2 -16 -2 -12 -13 4 -9 1 -15 -7 -15 -8 0 -23 -8 -34 -17 l-20 -16 20 7
c19 6 19 5 2 -8 -23 -18 -137 -53 -228 -71 -41 -7 -92 -18 -114 -24 -82 -22
-381 -7 -409 20 -6 5 -23 9 -38 9 -16 0 -38 9 -49 19 -12 11 -36 22 -55 26
-75 14 -284 169 -284 211 0 7 -10 25 -23 41 -33 39 -74 117 -82 153 -4 17 -17
41 -30 53 -27 26 -38 87 -39 222 -1 103 19 235 37 250 6 6 17 21 23 35 44 96
69 140 80 144 8 3 14 12 14 21 0 20 12 35 75 97 28 28 64 56 81 63 17 8 36 21
44 29 7 9 18 16 25 16 6 0 20 9 30 20 20 22 120 60 215 83 97 22 285 21 395
-3z m-4895 -19 c14 -5 24 -13 23 -20 -2 -7 21 -11 71 -11 l74 0 23 -37 c13
-21 26 -42 28 -48 2 -5 53 -90 112 -188 60 -98 109 -180 109 -183 0 -2 -13 -4
-30 -4 -16 0 -30 -3 -30 -7 1 -16 27 -42 35 -35 5 4 5 -1 2 -11 -4 -11 -3 -16
3 -12 6 3 10 0 10 -9 0 -8 6 -13 13 -12 40 9 67 19 67 27 0 5 13 6 30 3 25 -5
31 -2 40 17 5 13 25 43 43 66 81 104 93 118 104 126 7 4 13 14 13 21 0 8 6 19
14 25 8 7 26 36 42 66 15 30 32 55 37 55 5 0 7 7 3 15 -3 8 -1 15 4 15 5 0 12
9 15 20 9 27 63 80 105 103 52 28 232 44 293 25 27 -8 48 -18 47 -23 0 -6 37
-12 82 -15 l83 -5 3 -227 2 -228 -27 0 c-56 0 -56 1 -52 -233 l4 -216 38 -6
37 -7 0 -129 0 -129 -35 0 -34 0 -3 -112 -3 -113 -75 -6 c-41 -3 -64 -6 -50
-8 l25 -2 -25 -11 c-32 -13 -150 -22 -150 -11 0 4 -35 9 -77 11 -42 1 -80 7
-84 13 -3 6 -15 9 -25 8 -28 -5 -44 9 -44 37 0 13 -4 24 -9 24 -11 0 -31 78
-31 121 l0 32 -20 -23 c-11 -13 -20 -20 -20 -17 0 4 1 8 2 10 1 1 -7 12 -17
25 -20 23 -62 32 -49 10 5 -7 2 -9 -8 -5 -11 4 -24 -6 -42 -33 -20 -30 -32
-39 -63 -43 -21 -2 -57 -12 -81 -21 -52 -20 -155 -24 -175 -8 -8 7 -17 9 -20
6 -8 -9 -67 47 -67 63 0 29 -18 10 -25 -24 l-8 -38 -11 26 c-14 32 -66 95 -66
79 0 -6 -5 -8 -11 -5 -6 4 -13 -3 -16 -16 -6 -22 -7 -22 -14 -3 -4 10 -8 -28
-8 -88 l-1 -108 -72 -1 c-52 -1 -64 -3 -43 -8 28 -7 27 -8 -23 -19 -29 -7
-109 -12 -179 -12 -114 0 -130 2 -175 25 -27 14 -62 25 -76 26 -15 0 -21 3
-15 6 10 4 10 9 1 26 -18 33 -21 127 -3 127 7 0 17 -9 20 -20 11 -35 22 -21
24 30 1 44 -2 50 -22 55 -24 6 -31 31 -21 75 l6 25 19 -25 c21 -28 20 -32 24
70 2 30 8 105 14 165 6 61 11 269 11 463 0 218 4 361 10 373 21 37 92 69 161
70 35 1 78 4 94 8 28 7 44 4 115 -18z m2788 13 c4 -6 20 -14 36 -18 23 -6 27
-9 15 -17 -9 -5 19 -9 79 -9 l92 0 0 -155 c0 -154 0 -155 -22 -156 -105 -5
-140 -13 -137 -31 3 -28 -2 -34 -32 -36 -30 -2 -78 -44 -79 -69 0 -7 -4 -13
-10 -13 -5 0 -10 -7 -10 -16 0 -13 7 -15 30 -11 23 5 28 3 23 -8 -3 -9 1 -15
11 -15 19 0 22 -19 4 -21 -7 -1 4 -5 25 -8 21 -3 38 -9 37 -13 0 -5 0 -70 0
-147 l0 -138 -40 -6 c-22 -3 -62 -19 -89 -36 -45 -29 -57 -32 -164 -38 -114
-6 -115 -6 -120 -32 -3 -14 -3 -40 0 -59 5 -26 9 -32 22 -26 29 13 224 16 284
5 73 -13 134 -41 115 -52 -7 -5 26 -9 77 -11 l90 -3 3 -42 3 -43 -36 0 -37 0
4 -110 c2 -85 0 -111 -10 -115 -8 -3 -44 -6 -80 -6 -56 -1 -61 -3 -32 -9 l35
-7 -32 -2 c-17 0 -33 -5 -35 -11 -2 -6 -153 -10 -408 -10 -440 -1 -440 -1
-440 12 0 5 -9 4 -20 -2 -14 -8 -20 -8 -20 0 0 7 -15 9 -40 7 -22 -2 -40 -1
-40 2 0 3 -25 4 -56 2 -49 -3 -59 0 -78 20 -12 13 -25 33 -30 44 -15 40 -21
1307 -6 1335 25 46 87 62 290 76 52 4 97 8 100 11 11 10 721 -2 728 -13z
m7001 -4 c35 -8 65 -20 68 -27 3 -8 22 -13 47 -13 66 0 164 -22 140 -31 -10
-4 -13 -8 -6 -8 47 -3 187 -94 235 -153 50 -62 95 -155 103 -215 l7 -53 -35 0
-35 0 0 -52 c0 -87 -8 -166 -15 -161 -5 2 -8 -3 -8 -12 0 -28 -49 -117 -91
-167 -34 -40 -37 -48 -25 -61 13 -12 12 -16 -9 -27 -13 -7 -26 -19 -30 -27 -3
-9 23 -55 60 -109 36 -52 65 -96 65 -99 0 -3 -9 -5 -19 -5 -11 0 -23 -4 -26
-10 -9 -14 25 -68 47 -73 10 -3 18 -10 18 -17 0 -6 -6 -8 -12 -5 -7 4 -4 -1 7
-10 11 -9 20 -19 20 -23 0 -4 10 -23 23 -43 12 -20 22 -39 22 -43 0 -3 -33 -6
-72 -7 -43 -1 -63 -4 -49 -8 l23 -6 -27 -15 c-31 -16 -128 -19 -210 -7 -27 5
-58 8 -67 8 -10 0 -18 5 -18 10 0 6 -5 7 -12 3 -16 -10 -100 -5 -112 7 -6 5
-16 9 -24 9 -8 0 -54 41 -103 91 -49 50 -89 83 -89 75 0 -25 -17 -19 -24 9 -4
14 -11 25 -16 25 -6 0 -10 8 -10 18 0 15 -2 15 -11 2 -8 -11 -12 -12 -16 -2
-2 6 -14 12 -26 12 -18 0 -19 -2 -7 -10 13 -8 13 -10 -2 -10 -15 0 -18 -14
-20 -102 l-3 -103 -55 -6 c-30 -3 -44 -7 -30 -8 22 -1 20 -4 -17 -23 -41 -21
-48 -21 -230 -12 -181 10 -189 11 -215 35 -33 31 -51 105 -46 184 2 45 0 55
-15 59 -10 2 -15 10 -11 19 3 9 1 24 -5 36 -10 17 -8 20 14 23 25 3 25 5 32
113 9 146 10 314 1 515 -4 91 -7 166 -8 168 0 2 -7 2 -16 0 -14 -3 -16 14 -14
141 2 208 25 220 31 16 1 -55 4 -80 6 -55 13 191 17 209 44 214 8 1 24 7 36
14 12 7 52 12 90 13 37 0 86 4 108 9 64 13 570 5 644 -10z m-11005 -15 c23
-22 36 -25 95 -25 l68 0 28 -62 c15 -35 33 -76 41 -93 7 -16 40 -91 73 -165
l60 -135 -30 -3 c-28 -3 -30 -6 -24 -30 7 -29 74 -174 84 -182 3 -3 6 -11 7
-17 3 -35 4 -38 15 -23 8 12 9 11 5 -6 -4 -13 9 -53 34 -107 31 -66 47 -88 65
-93 13 -3 29 -3 35 1 6 4 17 -9 26 -30 17 -42 70 -158 89 -197 15 -31 11 -38
-22 -38 -14 0 -23 -6 -23 -15 0 -21 61 -155 71 -155 5 0 6 -6 3 -14 -3 -8 0
-17 5 -21 25 -15 -5 -25 -82 -26 -62 -1 -72 -3 -42 -8 l40 -7 -68 -13 c-43 -8
-83 -11 -110 -6 -23 5 -78 9 -122 11 -44 1 -86 3 -93 3 -7 1 -11 5 -7 10 3 5
-9 11 -27 13 -23 2 -36 10 -43 26 -5 12 -13 22 -17 22 -5 0 -8 9 -8 20 0 10
-9 24 -19 30 -11 5 -25 26 -31 45 -6 19 -15 33 -20 30 -5 -3 -12 1 -17 8 -15
24 -96 40 -209 42 l-111 2 -24 -35 c-13 -19 -25 -29 -27 -23 -2 6 -22 11 -44
11 -32 0 -41 -4 -45 -20 -3 -12 -10 -19 -17 -17 -12 4 -57 -83 -50 -95 3 -5 1
-8 -4 -8 -5 0 -12 -9 -15 -20 -4 -18 -14 -20 -79 -21 -49 -1 -65 -3 -48 -8 43
-13 -72 -23 -190 -17 -58 3 -124 6 -148 6 -24 0 -41 4 -37 9 3 5 -5 11 -17 13
-16 2 -24 10 -25 28 -1 14 -5 36 -8 50 -5 17 -4 21 3 12 7 -11 11 -7 15 15 3
15 4 29 2 31 -1 2 -19 -4 -39 -12 -33 -14 -35 -13 -27 2 15 28 98 204 121 255
12 27 23 47 25 45 2 -1 5 -27 8 -56 6 -66 17 -80 17 -23 0 26 4 40 10 36 6 -3
10 0 10 8 0 18 28 75 41 82 5 4 7 11 4 16 -4 5 -2 9 3 9 5 0 17 20 26 44 9 25
24 50 32 56 7 7 14 20 14 30 0 9 8 24 18 33 10 9 19 29 20 44 1 15 6 29 12 31
5 2 6 10 3 18 -3 8 1 14 11 14 11 0 18 13 22 40 4 22 13 45 20 51 8 6 14 20
14 30 0 11 5 19 10 19 6 0 10 6 10 13 0 7 11 37 25 65 14 29 25 54 25 57 0 2
11 29 25 59 14 30 25 62 25 70 0 9 5 16 11 16 5 0 7 5 4 10 -3 6 -2 10 3 10 5
0 15 19 22 43 30 98 90 170 150 181 19 4 55 11 80 15 25 5 93 9 151 10 100 1
108 0 133 -24z m-2884 -1890 l0 -355 1315 0 1315 0 0 -223 0 -223 -202 4
c-112 2 -241 3 -288 3 -429 -5 -2540 -10 -2557 -6 l-23 5 0 575 0 575 220 0
220 0 0 -355z m16238 -222 l-3 -578 -1193 0 c-655 0 -1192 -1 -1192 -3 0 -2
26 -36 59 -75 145 -178 309 -474 385 -694 45 -131 92 -323 111 -454 23 -152
30 -431 16 -574 -46 -450 -212 -883 -472 -1227 -74 -99 -285 -317 -349 -361
-25 -17 -51 -37 -58 -44 -8 -8 -27 -20 -43 -28 -16 -9 -29 -20 -29 -25 0 -6
-6 -10 -14 -10 -8 0 -27 -10 -43 -23 -38 -30 -64 -46 -85 -53 -10 -4 -18 -13
-18 -21 0 -8 -4 -12 -8 -9 -5 3 -21 -4 -38 -15 -16 -10 -36 -19 -46 -19 -9 0
-18 -3 -20 -7 -2 -5 -25 -18 -53 -31 -46 -21 -48 -21 -26 -2 13 11 18 20 12
20 -6 0 -11 15 -11 34 0 37 -3 40 -77 51 -24 4 -43 11 -43 17 0 5 -22 31 -50
58 -27 27 -50 53 -50 58 0 6 -18 13 -40 17 -23 4 -40 12 -40 20 0 8 -8 16 -19
20 -10 3 -29 14 -41 25 -13 11 -36 20 -52 20 -21 0 -28 5 -28 20 0 11 -4 20
-10 20 -5 0 -10 6 -10 13 0 7 -9 19 -20 27 -11 8 -20 18 -20 23 0 5 -13 22
-30 37 -16 15 -30 33 -30 39 0 6 -9 11 -20 11 -11 0 -20 5 -20 10 0 6 -30 10
-70 10 -42 0 -70 -4 -70 -11 0 -6 -28 -9 -77 -7 -43 1 -151 2 -240 0 l-163 -2
0 -40 c0 -38 -2 -40 -30 -40 -16 0 -30 -4 -30 -10 0 -5 -4 -10 -10 -10 -5 0
-10 7 -10 15 0 8 -4 15 -10 15 -5 0 -10 -7 -10 -15 0 -8 -6 -15 -12 -15 -9 0
-8 -4 2 -10 11 -7 7 -10 -17 -10 -31 0 -33 -2 -33 -35 0 -31 -3 -35 -25 -35
-22 0 -25 -4 -25 -40 0 -29 -4 -40 -15 -40 -16 0 -21 -16 -5 -22 5 -1 12 -33
16 -71 6 -58 5 -67 -10 -67 -12 0 -16 10 -16 40 0 43 -4 47 -26 26 -10 -11
-14 -42 -14 -119 0 -91 2 -106 20 -122 11 -10 20 -26 20 -36 0 -12 11 -19 40
-24 30 -5 40 -11 40 -26 0 -12 7 -19 20 -19 11 0 20 -5 20 -11 0 -6 -9 -9 -20
-6 -13 3 -20 0 -20 -8 0 -7 -6 -16 -12 -19 -7 -3 7 -4 31 -2 53 5 113 -3 105
-15 -3 -5 21 -9 53 -10 52 -1 130 -16 93 -18 -37 -2 -282 29 -345 43 -38 9
-73 16 -77 17 -4 0 -81 25 -170 55 -253 86 -498 224 -698 389 -580 482 -938
1336 -856 2041 32 277 140 631 257 849 l31 55 50 -42 c35 -29 54 -39 63 -32 7
5 55 45 106 88 52 44 135 106 184 138 93 61 113 87 114 150 2 53 62 262 81
280 25 23 201 112 305 153 l80 32 45 86 c25 46 57 103 72 126 16 22 27 50 25
61 -2 17 11 27 68 51 103 45 314 106 445 129 472 83 944 17 1360 -189 67 -34
131 -68 143 -76 19 -13 177 -15 1259 -15 l1238 0 0 355 0 355 225 0 225 0 -2
-577z m-8729 18 c13 -3 33 -18 44 -33 17 -23 18 -29 5 -54 -13 -26 -12 -32 6
-57 16 -21 18 -33 10 -54 -14 -40 -48 -53 -146 -53 l-88 0 0 123 c0 68 3 127
7 130 8 9 130 7 162 -2z m307 -116 c30 -65 54 -123 54 -127 0 -4 -13 -8 -28
-8 -21 0 -32 7 -40 25 -10 23 -17 25 -70 25 -53 0 -60 -2 -70 -25 -9 -19 -19
-25 -43 -25 -17 0 -29 4 -27 9 2 4 27 63 57 130 53 119 55 122 84 119 27 -3
33 -12 83 -123z m290 101 c26 -18 26 -18 7 -37 -18 -18 -21 -19 -49 -4 -42 22
-62 19 -96 -15 -25 -26 -29 -36 -24 -63 11 -58 76 -86 126 -55 16 10 23 10 37
-5 16 -15 16 -18 2 -33 -24 -23 -84 -34 -127 -22 -161 44 -117 270 50 255 26
-2 59 -12 74 -21z m124 -34 l5 -53 55 56 c40 40 62 55 82 55 15 0 28 -3 28 -7
0 -4 -23 -31 -51 -59 l-52 -52 56 -69 56 -68 -32 -3 c-28 -3 -38 3 -74 44 -36
40 -44 45 -57 34 -9 -7 -16 -28 -16 -46 0 -32 -2 -34 -35 -34 l-35 0 0 123 c0
68 3 127 7 131 4 4 19 6 33 4 22 -3 25 -8 30 -56z m399 37 c34 -20 34 -21 14
-40 -19 -19 -21 -19 -49 -3 -53 30 -111 2 -120 -58 -5 -31 -2 -41 20 -63 21
-21 34 -26 64 -23 35 3 37 5 40 41 3 34 6 37 33 37 28 0 29 -2 29 -42 0 -24
-4 -48 -8 -54 -25 -37 -132 -49 -177 -20 -62 41 -82 123 -45 184 37 61 134 81
199 41z m233 11 c69 -20 92 -97 43 -146 l-26 -26 26 -33 c32 -42 31 -45 -5
-45 -23 0 -35 8 -52 35 -17 26 -30 35 -50 35 -25 0 -28 -3 -28 -35 0 -32 -2
-35 -30 -35 l-30 0 0 130 0 130 58 0 c31 0 74 -5 94 -10z m303 -4 c93 -39 100
-179 13 -231 -36 -21 -104 -23 -143 -4 -40 19 -75 74 -75 118 0 99 105 158
205 117z m175 -69 c0 -96 14 -127 59 -127 16 0 33 6 39 13 6 7 12 53 14 103
l3 89 30 0 c29 0 30 -1 33 -55 9 -159 -53 -234 -164 -198 -56 19 -74 59 -74
171 l0 87 30 0 30 0 0 -83z m342 7 l63 -77 3 77 3 76 29 0 30 0 0 -130 0 -130
-29 0 c-23 0 -38 12 -82 70 -30 38 -57 69 -61 70 -5 0 -8 -31 -8 -70 l0 -70
-30 0 -30 0 0 130 0 130 24 0 c18 0 41 -19 88 -76z m382 53 c40 -26 59 -64 58
-112 -1 -88 -53 -125 -177 -125 l-75 0 0 131 0 132 84 -5 c56 -3 93 -10 110
-21z m-4215 -59 c79 -172 81 -178 68 -178 -7 0 -21 16 -30 35 l-17 35 -70 0
-71 0 -15 -35 c-8 -19 -21 -35 -28 -35 -10 0 2 38 42 125 37 83 62 125 72 125
10 0 28 -28 49 -72z m615 47 c33 -31 34 -74 3 -111 -20 -23 -34 -28 -85 -32
l-62 -4 0 -39 c0 -28 -4 -39 -15 -39 -13 0 -15 21 -15 125 l0 125 74 0 c64 0
76 -3 100 -25z m166 -30 l0 -56 78 3 77 3 3 53 c2 28 7 52 13 52 5 0 9 -53 9
-125 0 -72 -4 -125 -10 -125 -5 0 -10 26 -12 58 l-3 57 -79 0 -80 0 3 -57 c2
-47 0 -58 -13 -58 -14 0 -16 18 -16 125 0 104 2 125 15 125 12 0 15 -13 15
-55z m476 -65 c57 -124 59 -130 44 -130 -6 0 -18 16 -27 35 l-17 35 -71 0 -71
0 -17 -35 c-9 -19 -21 -35 -27 -35 -14 0 -14 2 26 87 20 43 45 97 55 121 13
30 24 42 35 40 10 -2 38 -48 70 -118z m-2086 -220 c64 -9 172 -48 192 -68 7
-7 6 -17 -2 -31 -13 -25 -6 -41 18 -42 11 0 12 -3 5 -6 -20 -8 -15 -40 7 -46
11 -3 20 0 20 6 0 14 34 -33 36 -50 1 -8 -9 -13 -24 -14 -16 0 -21 -3 -12 -6
20 -8 40 -29 40 -42 0 -6 5 -11 10 -11 6 0 10 -12 10 -27 l-1 -28 -28 34 c-15
19 -32 32 -37 29 -5 -3 -18 -1 -29 3 -17 8 -16 9 5 5 24 -5 24 -4 6 9 -23 17
-59 19 -86 5 -13 -7 -21 -7 -25 0 -3 5 -1 10 4 10 6 0 11 7 11 15 0 11 -5 12
-26 5 -33 -13 -64 3 -57 29 3 11 -3 24 -14 32 -11 8 -29 35 -42 61 -13 27 -35
57 -49 68 -15 11 -32 24 -39 30 -7 5 -26 10 -43 10 -46 0 -36 18 13 23 23 2
49 4 57 5 8 1 44 -3 80 -8z m-2462 -422 c63 -79 111 -122 165 -150 48 -24 38
-36 -14 -14 -39 17 -101 73 -143 131 -16 22 -39 50 -52 62 l-23 23 5 -73 c2
-39 9 -88 14 -107 6 -19 10 -47 10 -62 0 -16 6 -28 13 -29 9 0 9 -2 -1 -6 -10
-4 -10 -8 -1 -19 23 -28 2 -32 -53 -8 -41 17 -86 26 -160 31 -57 4 -95 9 -86
11 19 4 13 32 -7 32 -8 0 -15 21 -20 55 -3 30 -10 57 -15 60 -5 3 -6 13 -3 22
4 10 2 14 -5 9 -6 -3 -14 -1 -17 5 -4 6 -17 14 -28 18 -18 7 -13 11 33 28 49
18 195 48 275 56 43 4 57 -5 113 -75z m1222 -233 c53 -28 111 -125 150 -252
26 -87 24 -130 -10 -155 -17 -12 -83 -28 -197 -48 -271 -47 -290 -35 -314 202
-20 200 -9 216 166 247 138 24 169 25 205 6z m-256 -513 c20 -6 56 -6 91 0 32
5 64 7 71 4 7 -3 14 -2 16 3 3 7 150 41 181 41 28 0 19 -17 -18 -34 -41 -20
-44 -35 -10 -64 36 -32 29 -57 -20 -70 -20 -6 -29 -15 -32 -32 -2 -14 -11 -29
-20 -35 -9 -5 -23 -18 -32 -27 -8 -10 -25 -18 -37 -18 -11 0 -29 -10 -40 -22
-10 -12 -14 -18 -7 -15 6 4 14 3 18 -3 13 -21 -34 -9 -72 19 -22 16 -49 32
-61 35 -12 4 -22 11 -22 16 0 5 -13 11 -29 15 -34 7 -63 34 -40 36 8 1 20 1
27 0 6 -1 12 2 12 7 0 13 -60 22 -150 22 l-75 1 35 19 c19 10 63 22 98 25 61
7 62 8 60 36 -1 16 -6 29 -11 29 -14 0 -37 28 -52 64 -28 65 -16 69 36 12 30
-34 63 -59 83 -64z m1036 88 c3 -4 35 -18 72 -31 49 -17 63 -26 50 -31 -13 -5
-10 -7 11 -7 18 -1 26 -5 21 -12 -8 -14 -45 -9 -154 21 -75 20 -100 22 -215
17 -97 -4 -125 -3 -110 5 11 6 23 16 27 21 18 28 280 43 298 17z"/>
<path d="M5783 11622 c-22 -20 -81 -91 -129 -157 -49 -66 -136 -167 -194 -225
-156 -156 -274 -229 -630 -392 -145 -67 -173 -115 -126 -211 50 -102 175 -201
287 -226 72 -16 177 -23 159 -10 -12 9 -12 10 3 5 10 -3 37 -9 60 -12 33 -4
39 -3 27 6 -12 9 -10 11 10 6 67 -14 115 -17 100 -7 -8 6 -13 11 -10 11 3 1
27 4 54 7 27 3 63 14 80 24 17 10 43 19 59 19 18 0 27 5 27 16 0 10 6 13 18
10 10 -4 27 1 38 9 10 8 28 15 39 15 17 0 17 2 5 10 -13 9 -13 10 0 10 8 0 27
11 42 25 15 14 35 25 46 25 20 0 65 44 75 73 4 10 11 16 16 12 12 -7 101 80
101 99 0 7 9 21 20 31 12 11 20 31 20 52 0 18 5 33 10 33 6 0 9 3 8 8 -4 16
27 90 63 151 65 108 84 166 84 256 0 69 -4 89 -31 146 -36 75 -119 166 -181
198 -63 32 -100 28 -150 -17z"/>
<path d="M7100 10582 c-171 -84 -276 -132 -289 -132 -6 0 -11 -4 -11 -10 0 -5
-6 -10 -14 -10 -15 0 -176 -73 -289 -131 -31 -16 -61 -29 -66 -29 -5 0 -75
-31 -156 -70 -81 -38 -150 -70 -155 -70 -5 0 -10 -3 -12 -7 -1 -5 -27 -21 -57
-37 -80 -43 -180 -115 -229 -165 -130 -133 -140 -279 -37 -538 131 -327 178
-388 300 -392 153 -5 448 108 860 332 272 147 309 185 368 372 52 166 83 414
72 581 l-7 101 -43 44 c-33 34 -40 47 -32 57 9 11 7 13 -8 10 -13 -2 -20 4
-23 17 -2 16 -1 17 7 5 8 -11 11 -11 11 -2 0 7 -6 15 -14 18 -8 3 -17 12 -20
20 -3 8 -2 13 3 10 5 -3 12 1 15 10 9 23 8 24 -20 34 -17 7 -24 15 -20 25 9
24 -11 17 -134 -43z"/>
<path d="M10944 7281 c-23 -11 -53 -16 -72 -13 -20 2 -42 -2 -57 -12 -14 -9
-25 -13 -25 -10 0 4 -9 -1 -20 -11 -10 -9 -31 -17 -44 -17 -14 0 -23 -4 -20
-9 3 -5 -6 -13 -21 -19 -17 -6 -27 -20 -31 -40 -4 -16 -10 -28 -14 -25 -13 8
-30 -80 -30 -154 0 -38 4 -72 10 -76 5 -3 7 -12 4 -19 -3 -8 4 -35 16 -60 19
-42 24 -46 55 -46 28 0 40 -7 66 -40 26 -32 39 -40 66 -40 20 0 32 -4 28 -10
-8 -13 1 -13 25 0 15 8 31 5 70 -14 27 -13 50 -20 50 -15 0 5 8 13 18 16 46
18 142 102 142 125 0 4 7 5 15 1 9 -3 15 -2 14 3 -4 24 2 45 12 38 7 -4 10 3
9 17 -4 48 0 80 10 74 17 -10 12 108 -6 133 -8 12 -12 22 -8 22 5 0 3 5 -4 12
-7 7 -12 19 -12 27 0 15 -8 26 -59 76 -44 44 -56 53 -98 72 -21 10 -40 21 -43
25 -3 4 -24 -1 -46 -11z"/>
<path d="M15720 7258 c0 -10 5 -18 12 -18 24 0 -3 -13 -39 -19 -38 -6 -38 -7
-41 -58 -4 -70 20 -98 84 -98 28 0 44 -4 44 -12 0 -18 5 -16 36 12 15 14 32
25 38 25 25 0 37 19 42 63 3 36 1 47 -10 47 -8 0 -16 5 -18 11 -2 7 -17 13
-32 15 -16 2 -36 10 -46 19 -10 9 -24 13 -35 9 -10 -4 -21 -1 -26 7 -7 11 -9
11 -9 -3z"/>
<path d="M14245 5480 c-16 -4 -138 -35 -269 -68 -132 -34 -244 -66 -250 -72
-7 -7 2 -45 28 -124 23 -66 35 -119 31 -126 -5 -8 -4 -11 2 -7 6 4 16 -13 24
-41 7 -26 16 -50 21 -53 16 -10 -16 -28 -258 -138 -131 -60 -243 -117 -249
-125 -11 -17 -10 -20 102 -331 88 -245 123 -333 144 -358 l17 -22 87 30 87 30
20 -25 c18 -22 28 -25 113 -28 83 -4 95 -7 101 -24 3 -11 3 -22 0 -25 -7 -7
19 -33 33 -33 6 0 11 -9 11 -20 0 -13 7 -20 20 -20 11 0 20 -4 20 -10 0 -5 7
-10 15 -10 8 0 15 -4 15 -10 0 -5 11 -10 25 -10 14 0 25 -5 25 -11 0 -6 -9 -9
-19 -6 -14 3 -18 1 -14 -9 3 -8 13 -14 22 -14 9 0 23 -9 30 -19 8 -11 34 -27
58 -37 23 -10 43 -23 43 -29 0 -5 4 -4 9 3 6 10 12 5 21 -18 12 -29 16 -32 49
-27 30 4 188 52 471 143 80 26 78 21 48 131 -15 54 -33 121 -41 148 -65 218
-75 258 -71 270 3 8 83 28 211 53 113 22 208 43 211 47 9 8 -36 188 -69 275
-15 41 -54 146 -85 232 -32 86 -64 164 -71 173 -11 16 -26 16 -228 -4 -118
-12 -223 -20 -233 -17 -11 4 -45 62 -87 146 -106 216 -99 209 -170 190z"/>
<path d="M12420 3939 c-8 -4 -36 -16 -61 -27 -47 -21 -149 -123 -149 -149 0
-8 -5 -11 -10 -8 -6 4 -10 3 -9 -2 3 -20 -2 -46 -8 -39 -4 3 -15 -24 -25 -61
-67 -243 -38 -514 79 -748 77 -153 224 -288 373 -340 68 -24 171 -21 227 6
145 70 249 311 272 629 29 390 -116 638 -427 730 -74 21 -228 27 -262 9z"/>
<path d="M11167 5563 c-20 -5 -47 -53 -47 -83 0 -33 44 -70 84 -70 63 0 98 76
58 127 -17 23 -63 35 -95 26z"/>
<path d="M12035 5562 c-3 -3 -5 -38 -5 -79 l0 -73 39 0 c54 0 91 31 91 76 0
37 -28 73 -57 75 -10 0 -28 2 -41 3 -12 2 -24 0 -27 -2z"/>
<path d="M8415 5528 l1 -63 56 0 c66 0 88 15 88 60 0 47 -26 65 -91 65 l-55 0
1 -62z"/>
</g>
</svg>
