<?xml version="1.0" standalone="no"?>
<!DOCTYPE svg PUBLIC "-//W3C//DTD SVG 20010904//EN"
 "http://www.w3.org/TR/2001/REC-SVG-20010904/DTD/svg10.dtd">
<svg version="1.0" xmlns="http://www.w3.org/2000/svg"
 width="305.000000pt" height="302.000000pt" viewBox="0 0 305.000000 302.000000"
 preserveAspectRatio="xMidYMid meet">
<metadata>
Created by potrace 1.16, written by Peter Selinger 2001-2019
</metadata>
<g transform="translate(0.000000,302.000000) scale(0.100000,-0.100000)"
fill="#000000" stroke="none">
<path d="M1253 2652 c-73 -20 -129 -40 -126 -46 3 -5 1 -6 -5 -2 -12 7 -72
-21 -112 -53 -20 -17 -22 -21 -7 -21 9 0 17 4 17 10 0 5 7 7 15 4 10 -4 4 -16
-25 -45 -21 -21 -44 -39 -51 -39 -6 0 -18 -8 -26 -17 -13 -16 -13 -16 -3 4 5
12 15 25 20 28 5 3 15 15 20 25 18 33 -12 14 -36 -23 -15 -23 -20 -43 -16 -62
3 -19 1 -26 -7 -21 -6 4 -11 2 -11 -3 0 -6 5 -11 10 -11 6 0 10 -7 10 -16 0
-10 6 -14 15 -10 8 3 15 4 15 3 0 -1 -4 -17 -10 -36 -8 -30 -8 -33 11 -28 18
5 19 2 14 -23 -5 -21 -2 -31 11 -38 16 -9 16 -12 4 -28 -13 -16 -13 -17 0 -10
8 4 -1 -6 -20 -21 -163 -131 -233 -274 -234 -483 -1 -84 2 -100 24 -140 33
-60 67 -65 110 -19 16 18 31 31 33 28 2 -2 16 -22 32 -44 52 -72 77 -96 91
-84 10 8 7 23 -12 69 -28 70 -29 77 -9 60 8 -7 15 -21 15 -32 0 -43 59 -57 88
-19 7 9 14 14 15 12 1 -2 22 6 45 18 24 12 45 21 47 19 2 -2 -22 -17 -53 -33
-57 -29 -166 -130 -211 -195 -22 -31 -22 -33 -4 -17 32 28 50 11 22 -19 -17
-18 -19 -24 -7 -24 8 0 41 -21 74 -46 75 -58 110 -76 137 -71 20 4 20 4 -3 6
-67 5 -170 106 -170 167 0 35 44 94 100 134 l26 19 -4 -28 c-4 -32 21 -59 41
-44 17 13 80 16 72 3 -10 -16 7 -12 42 9 17 11 34 29 38 40 3 12 11 21 16 21
5 0 9 8 9 18 1 24 30 -31 47 -88 12 -44 13 -43 7 37 -6 86 4 123 33 123 8 0
39 -13 67 -29 28 -16 72 -32 98 -35 50 -7 78 -32 78 -70 0 -16 -5 -18 -36 -13
-53 9 -84 -6 -84 -42 0 -26 4 -29 37 -33 32 -4 43 1 80 35 50 46 50 63 0 106
l-30 28 43 17 c53 21 126 70 164 110 21 22 26 25 18 9 -16 -29 -16 -30 10 -29
15 1 24 -6 26 -19 3 -11 14 -30 26 -42 32 -32 48 -53 40 -53 -4 0 3 -9 16 -20
26 -22 76 -27 83 -7 4 10 6 10 6 0 1 -9 20 -13 63 -13 34 0 59 3 55 6 -3 4 1
20 9 36 12 23 13 39 5 76 -8 37 -7 52 5 69 8 12 14 34 14 48 0 14 5 25 10 25
6 0 10 7 10 16 0 8 -5 12 -10 9 -6 -4 -13 7 -16 24 -7 36 -24 42 -24 9 0 -16
-3 -19 -11 -11 -8 8 -6 18 6 37 12 19 16 42 13 91 -2 45 0 64 8 61 16 -6 2 52
-23 101 -27 51 -48 53 -70 9 -9 -20 -20 -36 -25 -36 -14 0 -9 45 9 69 16 24
15 25 -38 75 -30 29 -72 82 -94 119 -60 101 -100 147 -200 227 -94 75 -161
112 -242 131 -27 7 -52 16 -57 20 -17 16 -68 8 -203 -29z m597 -946 c0 -20
-66 -92 -116 -125 -25 -16 -70 -35 -100 -42 -52 -12 -54 -11 -79 14 -16 15
-22 28 -15 32 5 3 10 1 10 -6 0 -8 4 -8 16 2 11 9 14 22 10 41 -6 29 4 34 57
30 9 -1 17 3 17 8 0 6 6 10 14 10 8 0 16 5 18 12 3 7 30 12 76 12 43 0 69 4
65 9 -4 6 -1 7 7 2 10 -6 12 -4 7 9 -4 10 -3 15 3 11 6 -3 10 -12 10 -19z"/>
<path d="M1821 1290 c-26 -19 -87 -25 -97 -8 -3 5 -17 -6 -30 -26 -16 -23 -30
-33 -39 -30 -10 4 -15 0 -15 -15 0 -25 12 -27 30 -6 21 25 40 18 40 -15 0 -32
-34 -62 -43 -37 -7 20 -42 -6 -45 -36 -3 -21 0 -25 17 -20 24 6 29 -15 6 -23
-19 -8 -22 -88 -2 -82 6 3 13 14 15 26 2 12 7 20 12 17 5 -3 11 -1 15 4 4 7
15 7 32 0 14 -5 48 -8 77 -7 46 3 51 1 54 -19 4 -26 -54 -95 -77 -91 -9 2 -24
-7 -34 -19 -10 -13 -23 -20 -29 -17 -6 4 -16 0 -22 -8 -14 -19 -124 -78 -145
-78 -10 0 -23 6 -30 13 -10 10 -12 8 -9 -8 4 -24 -29 -34 -34 -10 -3 15 -5 15
-25 -3 -13 -11 -23 -24 -23 -31 0 -6 -12 -11 -27 -11 -17 0 -40 -12 -59 -29
-17 -16 -46 -37 -65 -46 -19 -10 -37 -22 -40 -28 -9 -14 -38 -1 -46 19 -4 10
1 30 10 46 15 26 15 28 -3 28 -28 0 -51 11 -44 21 9 15 -44 10 -60 -6 -19 -19
-91 -10 -120 14 -14 12 -20 13 -23 3 -3 -6 -9 -9 -15 -6 -6 4 -14 1 -18 -6 -6
-10 -16 -10 -49 4 -54 21 -54 21 -47 -10 6 -24 5 -26 -16 -19 -13 4 -33 7 -45
7 -13 0 -21 3 -19 7 2 3 -15 7 -38 7 -22 1 -36 0 -30 -3 19 -7 4 -41 -21 -45
-12 -3 -55 1 -96 8 -48 8 -80 9 -91 3 -10 -5 -18 -7 -18 -4 0 3 -8 2 -17 -4
-13 -6 -39 -1 -91 19 -64 25 -83 39 -175 132 -56 56 -114 118 -129 137 l-28
34 0 -517 0 -516 588 0 c576 0 587 0 600 20 7 11 23 20 37 20 14 0 25 5 25 10
0 6 18 10 40 10 41 0 87 -31 75 -50 -4 -7 300 -10 839 -10 l846 0 0 480 c0
284 -4 480 -9 480 -5 0 -27 -20 -48 -44 -29 -33 -49 -46 -78 -52 -22 -4 -51
-19 -65 -33 -50 -52 -55 -54 -92 -31 -20 12 -50 20 -77 20 -26 0 -62 10 -90
24 -25 13 -76 33 -113 45 -62 21 -68 21 -91 6 -15 -10 -28 -12 -31 -6 -4 5 -2
12 4 16 5 3 10 11 10 16 0 6 -6 7 -12 3 -8 -5 -6 2 3 16 27 42 108 89 198 117
97 29 196 34 384 19 92 -7 107 -6 107 7 0 19 -18 23 -104 26 -39 1 -73 4 -78
7 -13 8 -309 4 -356 -5 -23 -5 -45 -5 -48 0 -2 4 -10 6 -17 4 -54 -16 -65 -15
-71 10 -10 41 -27 29 -20 -14 5 -30 3 -39 -10 -44 -9 -4 -16 -12 -16 -19 -2
-61 -108 -168 -252 -254 -9 -6 -29 -23 -43 -38 -14 -15 -48 -34 -78 -43 -67
-20 -116 -49 -234 -139 -53 -41 -99 -74 -103 -74 -4 0 -15 9 -25 20 -29 33
-24 81 14 129 l33 42 -36 34 -36 34 -6 -39 c-4 -22 -10 -37 -15 -35 -4 3 -10
1 -14 -5 -10 -16 -28 -12 -22 5 5 10 -4 16 -28 21 -51 9 -43 26 27 53 l61 23
57 -27 56 -27 87 41 c48 23 90 41 94 41 4 0 20 12 35 27 l28 27 -38 21 c-40
23 -41 30 -25 110 6 28 14 40 25 40 10 0 23 6 30 13 11 11 10 12 -4 7 -13 -5
-18 -2 -18 9 0 9 4 16 10 16 5 0 7 7 4 15 -3 8 8 32 25 54 38 47 38 53 6 45
-14 -3 -25 -2 -25 4 0 5 10 12 22 16 32 8 12 24 -36 28 -34 3 -41 7 -50 35
l-11 32 -24 -19z"/>
</g>
</svg>
