<?xml version="1.0" standalone="no"?>
<!DOCTYPE svg PUBLIC "-//W3C//DTD SVG 20010904//EN"
 "http://www.w3.org/TR/2001/REC-SVG-20010904/DTD/svg10.dtd">
<svg version="1.0" xmlns="http://www.w3.org/2000/svg"
 width="1920.000000pt" height="1920.000000pt" viewBox="0 0 1920.000000 1920.000000"
 preserveAspectRatio="xMidYMid meet">
<metadata>
Created by potrace 1.16, written by Peter Selinger 2001-2019
</metadata>
<g transform="translate(0.000000,1920.000000) scale(0.100000,-0.100000)"
fill="#000000" stroke="none">
<path d="M9445 14064 c-359 -36 -604 -102 -880 -239 -254 -125 -441 -262 -646
-472 -570 -584 -789 -1400 -593 -2203 170 -692 698 -1311 1350 -1581 54 -23
102 -44 106 -48 5 -4 -20 -13 -55 -20 -609 -122 -1202 -389 -1712 -771 -688
-515 -1210 -1226 -1494 -2035 -147 -418 -241 -952 -241 -1371 0 -78 3 -96 23
-125 58 -87 178 -88 234 -2 14 21 19 60 25 201 40 988 381 1837 1034 2572 401
452 947 834 1504 1053 358 141 657 215 1060 264 203 25 677 25 880 0 403 -49
702 -123 1060 -264 558 -219 1109 -605 1506 -1055 342 -388 580 -772 757
-1223 168 -428 254 -849 275 -1346 6 -141 11 -181 25 -202 56 -86 176 -85 234
2 20 29 23 47 23 125 0 185 -30 496 -70 716 -192 1073 -787 2033 -1665 2690
-510 382 -1103 649 -1712 771 -35 7 -60 16 -55 20 4 4 52 25 106 48 356 147
709 425 948 746 314 419 471 890 470 1410 0 622 -229 1185 -661 1628 -373 382
-823 613 -1353 692 -100 15 -403 27 -483 19z m395 -288 c456 -58 860 -249
1189 -561 295 -282 515 -681 596 -1081 186 -916 -268 -1840 -1111 -2262 -428
-214 -940 -270 -1414 -153 -723 179 -1313 762 -1499 1483 -232 898 152 1821
956 2304 166 100 417 198 613 239 208 44 467 56 670 31z"/>
<path d="M9774 13336 c-90 -40 -109 -166 -34 -229 15 -13 59 -32 97 -41 190
-47 358 -119 508 -218 97 -65 268 -227 345 -328 118 -155 202 -313 262 -494
22 -66 46 -131 54 -143 39 -61 149 -70 205 -17 61 58 56 125 -22 329 -225 584
-696 1004 -1279 1140 -79 18 -96 18 -136 1z"/>
</g>
</svg>
