<?xml version="1.0" standalone="no"?>
<!DOCTYPE svg PUBLIC "-//W3C//DTD SVG 20010904//EN"
 "http://www.w3.org/TR/2001/REC-SVG-20010904/DTD/svg10.dtd">
<svg version="1.0" xmlns="http://www.w3.org/2000/svg"
 width="404.000000pt" height="362.000000pt" viewBox="0 0 404.000000 362.000000"
 preserveAspectRatio="xMidYMid meet">
<metadata>
Created by potrace 1.16, written by Peter Selinger 2001-2019
</metadata>
<g transform="translate(0.000000,362.000000) scale(0.100000,-0.100000)"
fill="#000000" stroke="none">
<path d="M1860 3401 c-7 -13 -17 -20 -26 -17 -8 3 -14 -1 -14 -9 0 -11 -6 -12
-25 -5 -19 7 -23 6 -18 -6 4 -11 -4 -9 -31 7 -62 36 -163 31 -236 -12 -8 -5
-24 -13 -35 -18 -11 -5 -27 -21 -34 -35 -12 -22 -19 -25 -45 -20 -19 3 -43 -1
-61 -10 -17 -9 -35 -16 -42 -16 -6 0 -50 -36 -96 -80 -64 -60 -86 -88 -91
-114 -4 -19 -13 -39 -21 -46 -8 -7 -15 -24 -15 -38 0 -14 -6 -33 -14 -41 -28
-34 -48 -173 -26 -186 6 -4 10 -12 9 -18 -1 -7 1 -25 6 -40 5 -20 1 -46 -15
-88 -19 -54 -21 -73 -16 -158 4 -53 8 -148 10 -211 2 -63 9 -131 15 -150 15
-46 14 -60 -4 -60 -36 0 -31 -182 8 -295 13 -38 34 -119 46 -180 13 -60 31
-130 42 -154 10 -24 19 -50 19 -57 0 -18 -32 -34 -77 -39 -21 -2 -45 -6 -53
-9 -8 -3 -33 -8 -55 -11 -22 -4 -60 -10 -85 -15 -109 -22 -220 -42 -275 -49
-33 -5 -82 -15 -110 -21 -49 -12 -282 -16 -294 -5 -3 3 -7 59 -9 123 -1 64 -5
123 -7 130 -3 8 -29 12 -85 12 l-80 0 0 -725 0 -725 2010 0 2010 0 0 61 0 61
-160 -4 c-121 -2 -161 0 -165 10 -5 13 17 14 218 12 l107 -1 0 518 0 518 -22
14 c-25 16 -165 16 -184 0 -7 -5 -10 -18 -7 -28 4 -15 -2 -19 -31 -23 -33 -4
-36 -2 -36 20 l0 24 -105 -4 c-107 -4 -131 -12 -119 -41 6 -17 35 -23 48 -10
4 4 31 8 60 8 l53 1 -26 -22 c-17 -14 -47 -24 -86 -29 -33 -4 -67 -13 -75 -21
-12 -10 -24 -11 -45 -5 -25 8 -26 9 -7 10 16 1 22 7 22 25 0 18 -5 23 -17 21
-10 -2 -24 -4 -32 -4 -8 -1 -11 -8 -8 -21 6 -23 -20 -27 -54 -10 -13 7 -19 7
-19 0 0 -5 -15 -10 -32 -9 -18 0 -27 3 -20 6 6 2 12 13 12 24 0 24 -28 25 -69
2 -27 -16 -33 -16 -53 -4 -16 10 -23 10 -26 2 -2 -6 -16 -11 -32 -11 -16 0
-31 -6 -34 -12 -5 -10 -7 -10 -12 0 -8 17 -34 15 -34 -3 0 -8 -4 -15 -10 -15
-5 0 -7 7 -4 15 4 9 0 15 -10 15 -9 0 -16 5 -16 10 0 6 -12 9 -27 9 -22 -1
-24 -3 -7 -6 24 -5 39 -39 20 -47 -7 -3 -7 -5 2 -5 6 -1 12 -11 12 -22 0 -19
-2 -20 -21 -8 -11 8 -21 19 -21 24 -3 22 -49 46 -81 44 -18 -2 -38 0 -45 5
-16 10 -122 -4 -122 -16 0 -5 -4 -7 -9 -3 -5 3 -11 -3 -14 -12 -2 -12 -7 -7
-14 17 -6 19 -15 34 -22 32 -6 -1 -11 2 -11 7 0 18 -52 22 -69 6 -10 -8 -23
-15 -29 -15 -6 0 -18 -7 -27 -17 -14 -14 -18 -14 -26 -2 -15 24 -10 39 14 40
43 1 -129 38 -180 39 -29 0 -53 4 -53 9 0 5 -9 13 -20 16 -18 6 -20 12 -14 57
4 28 17 90 29 137 22 84 23 86 51 83 16 -1 44 7 63 18 38 24 37 36 -2 21 -26
-10 -37 -6 -37 13 0 6 5 4 10 -4 7 -12 11 -10 18 10 7 18 6 29 -5 42 -10 11
-11 18 -4 23 18 11 12 35 -9 35 -14 0 -20 7 -20 21 0 11 3 18 8 16 4 -3 8 13
9 35 1 45 10 59 23 38 13 -20 13 -63 0 -55 -5 3 -3 -11 4 -32 14 -42 31 -50
60 -28 14 10 19 28 20 69 1 48 -2 57 -27 76 l-28 23 32 33 c18 19 37 34 42 34
6 0 8 -45 5 -109 l-4 -110 35 57 c33 52 36 64 36 128 0 78 -17 124 -47 124
-21 0 -22 17 -7 75 6 22 15 65 20 95 6 30 14 59 20 66 5 6 11 43 13 81 2 40
11 83 21 103 16 31 17 43 5 132 -10 74 -10 107 -2 135 24 83 23 140 -5 192
-14 28 -38 63 -54 78 -19 19 -29 38 -29 60 0 64 -72 173 -160 244 -56 44 -89
57 -132 50 -5 0 -8 7 -8 17 0 14 -2 15 -10 2 -8 -12 -16 -10 -59 13 -28 15
-57 27 -64 27 -19 0 -57 43 -57 63 0 18 -15 23 -24 8 -3 -5 -15 -7 -26 -4 -21
6 -28 -12 -7 -20 6 -2 9 -7 6 -11 -3 -3 -18 6 -32 20 -15 15 -27 23 -27 18 0
-5 -4 -3 -9 5 -7 11 -11 9 -21 -8z m180 -673 c27 -6 86 -27 110 -38 8 -3 31
-27 52 -51 31 -36 38 -54 42 -99 8 -92 24 -219 31 -241 5 -14 1 -25 -12 -35
-10 -8 -13 -13 -7 -12 7 2 13 0 14 -5 3 -14 -12 -67 -21 -72 -5 -4 -6 0 -3 8
3 8 -2 17 -10 20 -9 4 -16 13 -16 21 0 8 -19 29 -42 47 -24 18 -47 38 -53 44
-20 23 -60 45 -80 45 -12 0 -39 9 -61 19 -22 11 -51 23 -65 26 -14 3 -38 22
-53 42 -24 30 -27 40 -20 62 6 16 18 27 32 29 12 2 22 10 22 18 0 8 5 14 11
14 8 0 10 20 6 67 -7 78 1 93 49 93 20 0 34 5 34 13 0 8 3 9 8 1 4 -6 18 -13
32 -16z m298 -708 c-2 -41 -7 -78 -13 -82 -6 -5 -5 -8 3 -8 6 0 12 -10 11 -22
0 -22 -1 -22 -9 -3 -7 15 -9 10 -9 -23 -1 -25 3 -41 8 -37 6 3 9 -4 8 -15 -1
-11 -5 -20 -9 -20 -4 0 -8 -7 -8 -16 0 -9 -9 -27 -20 -41 -11 -14 -20 -32 -20
-39 0 -8 -8 -14 -18 -14 -11 0 -27 -9 -37 -20 -19 -21 -60 -27 -70 -10 -3 6
-14 10 -24 10 -21 0 -74 64 -63 75 4 3 -1 12 -10 19 -21 15 -19 77 2 104 8 10
20 27 26 38 6 10 20 24 31 29 36 18 52 36 46 51 -6 17 11 24 63 27 39 2 74 27
74 54 0 7 5 13 10 13 6 0 10 10 9 23 0 21 -1 21 -9 2 -5 -11 -9 -14 -9 -7 -1
7 5 21 12 32 11 19 12 19 19 -12 5 -18 7 -67 6 -108z m-637 51 c-2 -40 1 -76
5 -80 5 -3 14 -15 20 -26 6 -11 22 -20 34 -20 20 0 25 -8 35 -58 10 -50 9 -59
-4 -67 -13 -7 -14 -12 -3 -29 6 -12 12 -32 12 -46 0 -19 -5 -25 -23 -25 -12 0
-28 9 -35 20 -8 13 -23 20 -41 20 -57 0 -96 67 -88 149 19 179 40 246 75 239
15 -3 16 -14 13 -77z"/>
</g>
</svg>
