<?xml version="1.0" standalone="no"?>
<!DOCTYPE svg PUBLIC "-//W3C//DTD SVG 20010904//EN"
 "http://www.w3.org/TR/2001/REC-SVG-20010904/DTD/svg10.dtd">
<svg version="1.0" xmlns="http://www.w3.org/2000/svg"
 width="1024.000000pt" height="1024.000000pt" viewBox="0 0 1024.000000 1024.000000"
 preserveAspectRatio="xMidYMid meet">
<metadata>
Created by potrace 1.16, written by Peter Selinger 2001-2019
</metadata>
<g transform="translate(0.000000,1024.000000) scale(0.100000,-0.100000)"
fill="#000000" stroke="none">
<path d="M1960 10233 c0 -3 7 -15 17 -25 15 -17 15 -18 0 -18 -9 0 -31 -9 -49
-20 -18 -11 -39 -20 -46 -20 -7 0 -34 -16 -59 -35 -29 -22 -53 -33 -64 -30
-10 4 -28 -4 -45 -20 -15 -14 -42 -34 -60 -45 -17 -11 -34 -27 -37 -34 -3 -8
-23 -24 -45 -36 -22 -13 -46 -34 -53 -49 -19 -35 -30 -47 -90 -87 -57 -38 -75
-38 -39 1 13 14 19 25 14 25 -12 -1 -62 -39 -50 -40 5 0 3 -7 -4 -15 -7 -9
-10 -18 -7 -21 3 -4 -5 -24 -19 -45 -13 -21 -24 -43 -24 -48 0 -6 -9 -15 -20
-21 -11 -6 -20 -15 -20 -21 0 -6 -20 -38 -45 -70 -25 -33 -45 -65 -45 -72 0
-17 -108 -239 -127 -259 -9 -10 -13 -18 -8 -18 4 0 2 -7 -5 -15 -10 -12 -10
-18 -1 -29 10 -11 8 -16 -9 -21 -11 -3 -18 -11 -14 -16 3 -6 1 -16 -5 -23 -7
-8 -11 -18 -9 -22 1 -5 -11 -36 -26 -69 -28 -58 -41 -96 -52 -160 -3 -16 -9
-34 -14 -40 -4 -5 -20 -53 -35 -105 -15 -52 -49 -160 -76 -240 -65 -193 -74
-261 -31 -218 6 6 15 9 18 5 6 -5 -27 -40 -70 -75 -9 -7 -16 -22 -16 -32 0
-11 -11 -59 -25 -106 -14 -47 -25 -97 -25 -110 0 -21 3 -24 28 -18 26 6 25 5
-10 -21 -42 -31 -59 -83 -77 -240 -6 -49 -14 -101 -18 -114 -5 -20 -3 -23 10
-18 10 4 24 10 33 13 12 5 15 1 12 -17 -2 -13 -8 -23 -13 -22 -6 1 -20 -6 -32
-15 -19 -15 -24 -32 -32 -125 -8 -83 -8 -113 2 -128 10 -16 9 -21 -2 -28 -11
-7 -11 -9 0 -13 10 -3 9 -24 -6 -104 -10 -54 -22 -107 -27 -116 -4 -10 -10
-46 -12 -80 -3 -55 -35 -205 -53 -248 -6 -17 -8 -27 -17 -129 -4 -40 -13 -104
-21 -142 -7 -38 -10 -69 -6 -69 3 0 -2 -5 -11 -11 -14 -8 -16 -19 -12 -63 4
-36 2 -56 -6 -61 -9 -5 -10 -1 -6 13 6 19 3 21 -23 19 -27 -2 -32 -7 -37 -37
-3 -19 -9 -48 -14 -65 -4 -16 -9 -37 -9 -45 -1 -23 -9 -81 -15 -115 -3 -16 -3
-22 0 -12 3 9 10 17 15 17 6 0 7 -10 4 -22 -12 -39 -30 -78 -36 -78 -4 0 -9
-21 -11 -47 -3 -35 0 -51 12 -60 13 -10 13 -14 -1 -40 -8 -15 -17 -46 -18 -68
-2 -22 -7 -60 -13 -85 -6 -25 -11 -59 -13 -75 -1 -17 -7 -40 -13 -52 -12 -21
-7 -53 8 -53 15 0 28 26 35 72 5 33 12 48 26 51 10 3 21 2 23 -2 7 -10 -3 -87
-18 -146 -7 -28 -9 -64 -5 -83 4 -18 4 -43 1 -54 -2 -11 1 -24 8 -28 9 -6 7
-13 -9 -29 -11 -11 -22 -29 -22 -38 -1 -10 -3 -29 -5 -43 -11 -62 -9 -75 9
-74 20 2 23 -11 5 -23 -14 -9 -18 -25 -22 -93 -10 -155 -10 -155 4 -155 7 0
15 6 17 13 3 6 0 12 -6 12 -6 0 -11 5 -11 10 0 6 9 10 20 10 11 0 20 6 20 13
1 8 4 7 9 -3 5 -8 5 -37 0 -65 -9 -51 -15 -86 -17 -117 -2 -21 -22 -24 -22 -4
0 8 -4 17 -8 20 -5 3 -7 -25 -5 -62 3 -37 4 -71 4 -77 0 -17 -20 -158 -26
-185 -6 -30 -25 -133 -25 -137 0 -1 6 0 14 3 31 12 74 -240 56 -321 -4 -16 -8
-90 -9 -162 -2 -115 0 -133 13 -133 9 0 16 5 16 10 0 6 4 10 9 10 17 0 10 -71
-9 -88 -23 -23 -31 -69 -14 -83 11 -9 14 -6 14 17 0 20 3 25 9 16 4 -8 5 -32
1 -55 -9 -47 -23 -182 -22 -209 1 -10 -6 -18 -14 -18 -28 0 -13 -17 32 -36 40
-16 64 -40 70 -66 1 -5 3 -9 4 -10 8 -8 19 -826 12 -833 -2 -2 -6 -54 -8 -117
-2 -62 -6 -131 -9 -153 -2 -22 -6 -103 -9 -181 -2 -78 -9 -159 -14 -180 -20
-80 -34 -350 -19 -371 4 -6 4 -14 -2 -17 -5 -3 -7 -15 -4 -26 3 -11 1 -20 -5
-20 -13 0 -23 -44 -27 -122 -2 -33 -9 -65 -14 -72 -6 -7 -13 -30 -17 -51 -3
-21 -10 -49 -15 -62 -5 -13 -5 -23 -1 -23 11 0 46 42 48 58 3 17 24 42 35 42
5 0 -1 -16 -12 -37 -11 -20 -18 -44 -16 -54 3 -10 0 -21 -7 -24 -8 -3 -8 -7 2
-11 17 -8 15 -44 -3 -44 -10 0 -14 -10 -13 -35 1 -20 -4 -41 -10 -47 -7 -7
-12 -23 -13 -37 0 -29 -30 -138 -51 -191 -20 -49 -58 -110 -69 -110 -5 0 -14
-10 -19 -22 -5 -13 -9 -17 -9 -9 -1 11 -4 11 -16 1 -27 -23 -28 -3 -2 71 13
39 22 81 19 92 -4 15 -9 8 -19 -29 -8 -27 -17 -61 -20 -76 -3 -15 -14 -35 -24
-44 -21 -19 -26 -70 -6 -77 9 -4 9 -7 -1 -18 -8 -8 -12 -44 -12 -101 0 -72 3
-88 15 -88 31 0 271 134 395 220 14 9 41 22 61 29 20 6 45 21 55 32 12 13 26
18 40 15 12 -3 24 -1 26 5 3 9 26 11 86 7 27 -3 27 -3 3 -27 -19 -19 -19 -61
-1 -61 5 0 12 -9 15 -20 4 -12 15 -20 28 -20 19 0 18 3 -13 35 -18 19 -32 36
-29 38 20 16 82 36 92 30 36 -22 153 -18 184 7 18 14 30 17 37 10 5 -5 19 -9
31 -9 16 1 17 2 3 6 -35 9 -11 93 26 93 17 0 18 2 6 10 -12 8 -9 10 13 10 16
0 27 -5 27 -14 0 -15 68 -28 73 -13 1 4 15 4 30 -2 15 -6 27 -7 27 -2 0 5 19
7 42 4 29 -4 39 -3 34 5 -5 8 2 12 18 12 14 0 26 5 26 11 0 5 4 8 9 5 5 -3 7
-19 5 -35 -2 -17 1 -33 6 -36 6 -3 10 1 10 9 0 14 3 14 21 4 17 -11 22 -10 35
6 14 19 14 19 28 1 7 -10 22 -20 32 -21 10 -2 20 -8 22 -14 3 -8 8 -7 18 1 10
8 14 8 14 0 0 -6 5 -11 10 -11 6 0 10 14 10 30 0 20 -5 30 -15 30 -8 0 -15 -5
-15 -12 0 -6 -3 -8 -6 -5 -4 4 -2 13 4 20 7 8 9 17 6 20 -4 3 3 5 13 4 11 0
20 -8 19 -15 -1 -8 4 -17 11 -19 7 -3 9 3 6 16 -7 29 10 26 23 -3 8 -17 8 -28
1 -35 -16 -16 20 -26 38 -11 8 7 15 21 15 31 0 12 7 19 20 19 20 0 19 -19 -2
-47 -5 -7 -5 -14 2 -18 5 -3 10 -3 10 2 0 4 5 1 10 -9 8 -13 14 -14 35 -5 14
7 25 18 25 25 0 7 5 10 10 7 6 -3 10 -1 10 4 0 6 -4 11 -9 11 -15 0 -7 33 13
54 13 13 21 16 24 8 2 -7 10 -12 18 -12 9 0 12 4 9 10 -3 5 -1 10 5 10 6 0 10
-10 8 -23 -3 -19 2 -22 33 -23 40 -2 49 2 65 30 6 11 17 22 24 24 11 4 10 -1
-3 -21 -19 -30 -22 -57 -6 -57 6 0 9 7 5 15 -3 8 5 25 19 39 14 14 25 21 25
16 0 -6 5 -10 11 -10 6 0 9 7 5 15 -3 8 -2 15 2 15 12 0 56 -33 70 -52 11 -15
17 -16 35 -6 27 15 56 11 80 -10 13 -12 15 -17 5 -23 -8 -5 0 -8 20 -6 24 1
31 6 26 17 -15 35 -15 48 0 62 8 9 12 18 9 22 -11 11 27 18 40 8 19 -16 57 -3
57 19 0 30 23 22 66 -21 25 -25 48 -40 64 -40 23 1 24 2 8 14 -24 18 -23 29 1
21 11 -3 29 -8 40 -10 12 -2 26 -7 32 -11 6 -3 15 0 20 7 7 12 15 10 46 -6 50
-26 72 -47 55 -53 -23 -7 -12 -22 13 -16 17 4 27 1 31 -9 3 -9 12 -18 19 -21
9 -3 12 0 9 9 -3 7 -12 16 -20 19 -21 8 -17 36 5 36 33 0 33 17 1 51 -19 21
-30 28 -31 19 0 -8 -8 4 -17 27 -22 52 -26 57 -49 45 -13 -7 -22 -6 -32 5 -12
13 -11 14 8 8 15 -5 21 -2 21 9 0 19 16 21 23 4 3 -8 6 -5 6 5 1 10 -4 28 -10
39 -12 23 3 40 28 31 7 -3 13 0 13 6 0 6 -4 11 -10 11 -5 0 -10 7 -10 15 0 8
4 15 10 15 16 0 60 -42 54 -52 -3 -5 6 -6 20 -2 16 4 26 2 26 -5 0 -6 -5 -11
-10 -11 -6 0 -5 -6 2 -14 16 -17 42 -1 34 21 -3 7 -1 13 4 13 6 0 10 7 10 15
0 8 -4 15 -10 15 -5 0 -10 7 -10 15 0 8 -5 15 -11 15 -7 0 -9 -10 -5 -27 4
-16 3 -23 -1 -17 -4 6 -20 14 -36 18 -15 3 -36 15 -46 25 -11 11 -22 17 -24
14 -3 -3 -3 4 0 16 3 12 11 21 18 21 7 0 21 11 31 25 19 25 44 34 44 14 0 -5
4 -8 8 -5 5 3 17 -5 27 -17 17 -19 20 -20 23 -5 2 9 -2 26 -8 37 -6 12 -7 21
-1 21 5 0 12 -6 14 -12 3 -8 6 -6 6 5 1 9 -3 17 -9 17 -5 0 -10 7 -10 15 0 8
5 15 10 15 7 0 7 6 0 20 -9 17 -8 20 8 20 11 0 25 -7 32 -15 7 -8 18 -15 24
-15 7 0 7 3 1 8 -5 4 -21 20 -35 35 -21 24 -22 30 -10 37 22 14 28 12 35 -9 3
-11 15 -23 26 -26 11 -4 27 -15 37 -25 9 -10 26 -20 37 -22 12 -2 19 -10 17
-21 -2 -9 2 -17 8 -17 5 0 10 -9 10 -19 0 -10 7 -21 15 -25 8 -3 15 -1 15 4 0
6 9 6 25 0 15 -6 26 -6 30 0 4 6 1 10 -4 10 -6 0 -11 5 -11 10 0 6 7 10 15 10
8 0 15 4 15 8 0 19 -38 41 -79 48 -39 6 -42 9 -27 20 20 14 14 34 -10 34 -8 0
-14 4 -14 10 0 5 -7 7 -15 4 -8 -4 -15 -2 -15 4 0 6 6 12 13 15 8 3 5 7 -7 12
-13 6 -23 3 -32 -10 -8 -10 -14 -13 -14 -7 0 7 -12 31 -26 53 -21 34 -29 40
-50 35 -14 -4 -24 -2 -24 4 0 6 5 8 10 5 6 -3 10 -2 10 4 0 5 -6 14 -14 18 -7
4 -16 25 -20 46 l-7 39 22 -21 c13 -12 30 -21 40 -21 9 0 20 -7 23 -16 5 -13
9 -14 20 -5 11 9 17 8 29 -4 9 -8 25 -15 37 -15 12 0 19 -4 16 -9 -3 -5 0 -11
8 -14 9 -4 16 3 20 16 5 20 7 20 35 -12 26 -30 29 -31 24 -10 -3 13 -13 32
-21 42 -10 12 -11 17 -3 17 7 0 9 6 6 13 -4 6 5 -1 18 -17 21 -24 26 -26 33
-13 8 13 14 11 42 -14 19 -17 31 -33 28 -37 -4 -3 -13 4 -22 16 -20 29 -32 28
-30 -2 0 -13 3 -23 5 -21 2 2 12 -6 23 -18 11 -12 17 -16 13 -9 -5 9 3 12 33
10 23 -2 39 -8 39 -15 0 -16 -9 -17 -24 -2 -13 13 -33 4 -33 -14 1 -16 39 -65
40 -50 0 6 -4 15 -10 18 -5 3 -10 11 -10 17 0 6 10 3 22 -8 12 -10 18 -14 15
-7 -4 6 -2 15 4 19 12 7 8 -20 -7 -60 -4 -10 -1 -16 7 -16 8 0 40 -28 72 -62
36 -38 61 -58 64 -50 3 6 9 9 14 6 13 -8 -9 -34 -28 -34 -8 0 -12 3 -10 8 3 4
-10 14 -28 23 -31 14 -34 14 -60 -7 -16 -13 -25 -27 -20 -34 5 -8 14 -5 31 11
20 18 24 19 24 6 0 -9 -10 -23 -22 -31 -26 -19 -18 -32 10 -17 24 13 45 14 38
3 -3 -5 8 -16 25 -26 16 -9 29 -21 29 -27 0 -13 48 -11 52 3 3 7 25 -2 61 -26
31 -21 54 -42 51 -47 -3 -5 0 -9 5 -9 20 0 11 28 -15 45 -34 22 -25 30 12 10
33 -17 44 -18 63 -6 12 8 12 12 2 25 -8 9 -10 16 -6 16 4 0 -3 9 -16 20 l-24
19 23 1 c12 0 22 5 22 10 0 6 7 10 15 10 8 0 15 7 15 16 0 12 -7 15 -30 12
-16 -3 -30 -1 -30 4 0 4 4 8 9 8 5 0 12 10 15 23 6 22 7 22 21 3 13 -17 15
-17 15 -4 0 9 -8 19 -18 23 -13 3 -19 15 -20 35 0 17 4 28 9 25 5 -4 9 -12 9
-19 0 -16 32 -46 49 -46 7 0 11 6 8 13 -3 7 3 19 13 25 14 9 19 8 24 -3 7 -19
26 -20 26 -1 0 22 52 7 78 -23 l23 -26 -14 35 c-14 35 -14 36 9 38 25 2 32
-12 14 -23 -16 -10 8 -35 26 -28 10 4 13 15 10 34 -2 18 0 27 6 23 5 -3 7 -8
4 -11 -7 -8 17 -29 34 -31 8 0 41 -5 73 -10 32 -5 57 -5 57 0 0 5 8 4 19 -1
10 -6 22 -7 26 -3 3 4 12 -1 20 -11 11 -15 13 -16 19 -2 8 21 143 19 169 -3
15 -14 17 -13 17 3 0 13 6 16 21 12 17 -5 20 -2 16 13 -3 13 0 17 9 13 8 -3
14 -11 14 -19 0 -8 7 -14 15 -14 8 0 15 7 15 15 0 8 5 15 11 15 6 0 9 -6 6
-13 -2 -7 6 -18 20 -24 19 -9 25 -9 29 1 5 13 104 20 104 7 0 -9 65 -5 81 4 8
5 10 4 5 -3 -4 -7 -1 -12 9 -12 11 0 15 5 11 15 -6 15 9 21 18 7 4 -7 22 -7
70 -3 4 1 5 8 2 17 -4 12 -2 15 9 11 8 -4 17 -2 21 4 3 6 12 8 20 5 7 -3 16
-1 19 4 4 6 14 10 24 10 28 0 71 24 66 37 -7 21 23 15 35 -7 12 -22 42 -17 33
6 -3 8 0 14 6 14 6 0 11 8 11 17 0 10 11 27 25 39 23 20 24 23 10 37 -11 12
-29 14 -68 11 -63 -6 -159 4 -152 16 6 10 -19 20 -51 20 -13 0 -24 5 -24 11 0
5 -5 7 -10 4 -5 -3 -10 -2 -10 4 0 5 5 13 11 17 15 9 -4 21 -53 34 -21 6 -38
15 -38 21 0 6 -5 7 -11 3 -6 -3 -15 -1 -19 6 -4 6 -24 12 -44 12 -20 0 -36 4
-36 8 0 4 -9 10 -21 13 -17 5 -20 2 -16 -14 4 -15 2 -17 -13 -9 -10 5 -24 16
-32 22 -7 7 -22 20 -32 28 -18 14 -19 13 -12 -4 6 -18 5 -19 -11 -4 -10 8 -24
13 -30 11 -7 -3 -13 -1 -13 4 0 4 -13 14 -30 21 -16 8 -30 20 -30 28 0 9 5 12
10 9 6 -3 10 -1 10 4 0 16 -16 13 -30 -4 -22 -26 -50 -1 -50 45 0 45 -12 57
-33 35 -19 -18 -31 -20 -20 -3 8 15 12 88 4 88 -9 0 -31 -52 -26 -60 5 -8 -58
-5 -73 4 -7 4 -12 13 -11 19 0 9 2 9 6 0 6 -15 42 -17 63 -3 8 5 12 10 8 11
-12 2 -21 5 -40 12 -10 4 -25 9 -33 12 -8 2 -12 10 -9 18 3 8 -3 20 -12 28
-16 12 -17 12 -12 -6 3 -11 9 -28 13 -38 5 -13 2 -17 -13 -17 -15 0 -18 5 -15
24 3 13 0 27 -6 30 -6 4 -11 2 -11 -3 0 -7 -7 -7 -20 1 -11 7 -20 18 -20 25 0
7 -7 13 -16 13 -8 0 -12 4 -9 10 8 14 -31 54 -44 45 -7 -3 -11 -3 -10 2 4 23
-2 35 -16 29 -8 -3 -20 3 -28 14 -8 11 -17 17 -21 12 -5 -4 -7 0 -6 8 1 8 2
24 0 35 l-1 20 -9 -20 c-5 -11 -9 -15 -9 -8 -1 7 -25 27 -55 44 -30 18 -57 41
-59 51 -3 10 -14 18 -25 18 -12 0 -24 5 -27 11 -4 6 -21 9 -39 8 -39 -4 -57 7
-49 29 6 15 4 15 -10 4 -16 -14 -13 -42 5 -42 5 0 6 -5 2 -11 -5 -8 -10 -6
-16 5 -5 9 -15 16 -23 16 -9 0 -12 6 -9 15 4 9 0 15 -8 15 -8 0 -28 13 -44 30
-29 29 -52 40 -38 18 4 -7 3 -8 -4 -4 -7 4 -12 14 -12 22 0 8 -4 14 -10 14 -5
0 -10 -5 -10 -11 0 -5 -4 -7 -10 -4 -5 3 -10 1 -10 -5 0 -6 10 -15 23 -19 22
-9 22 -9 -7 -20 -30 -12 -50 -6 -27 8 11 7 10 14 -5 39 -10 17 -22 28 -28 25
-6 -4 -5 0 2 9 9 11 10 18 2 23 -6 3 -8 11 -5 16 10 15 -7 10 -19 -5 -22 -30
-40 -23 -41 16 -1 46 -9 55 -29 35 -8 -8 -12 -17 -9 -21 4 -3 1 -6 -5 -6 -7 0
-12 5 -12 11 0 8 -5 8 -15 -1 -9 -8 -15 -9 -15 -2 0 6 5 14 10 17 6 4 8 12 4
18 -3 7 1 4 9 -6 10 -12 17 -14 22 -8 3 6 3 11 -1 11 -4 0 1 7 12 16 18 15 18
15 -2 5 -19 -9 -22 -7 -26 14 -3 14 -1 25 3 25 5 0 9 4 9 9 0 5 -11 4 -25 -2
-15 -7 -23 -18 -20 -26 5 -11 3 -12 -10 -1 -9 7 -13 15 -10 18 3 3 0 11 -7 19
-9 11 -7 15 10 20 24 6 28 18 10 29 -6 4 -17 0 -23 -10 -11 -14 -14 -15 -25
-1 -7 8 -20 15 -30 15 -9 0 -23 11 -30 25 -14 26 -38 29 -32 5 2 -10 0 -11
-10 -3 -7 6 -28 14 -45 18 -21 4 -33 13 -34 23 0 9 -2 29 -4 43 -3 22 0 26 16
22 10 -3 20 -12 20 -19 1 -8 3 -18 4 -24 1 -5 3 -17 4 -25 1 -17 27 -20 36 -5
4 6 2 17 -5 24 -6 8 -7 16 -3 18 4 3 3 4 -4 2 -6 -1 -14 8 -17 22 -4 13 -11
24 -16 24 -6 0 -10 7 -10 15 0 8 7 15 15 15 10 0 15 -7 13 -17 -2 -15 3 -17
30 -15 18 2 32 0 31 -5 -3 -20 2 -34 11 -28 5 3 6 13 3 21 -3 9 0 20 8 26 10
7 3 8 -23 4 -29 -4 -38 -1 -38 10 0 8 4 12 10 9 6 -3 7 1 4 10 -5 11 -10 13
-19 5 -15 -13 -25 -3 -18 18 4 15 3 16 -9 1 -15 -18 -37 -14 -56 10 -10 13
-14 13 -21 2 -7 -11 -9 -11 -13 0 -4 12 -7 12 -21 0 -12 -10 -14 -18 -7 -31
14 -25 13 -80 -1 -80 -6 0 -8 7 -5 16 6 17 -30 52 -47 46 -5 -1 -7 8 -5 20 2
15 -2 22 -11 20 -7 -1 -20 5 -28 15 -8 10 -12 12 -8 6 3 -7 1 -13 -4 -13 -6 0
-11 9 -11 20 0 11 5 20 10 20 6 0 10 7 10 15 0 19 19 19 26 0 10 -24 22 -17
17 9 -4 18 -10 23 -25 21 -15 -3 -18 0 -13 14 4 13 0 20 -13 23 -14 4 -18 0
-18 -16 1 -12 5 -24 10 -27 4 -4 3 -16 -3 -27 -11 -21 -12 -21 -75 13 -37 20
-67 30 -72 25 -5 -5 -10 4 -11 22 -3 35 -19 50 -45 44 -22 -5 -31 21 -11 33
14 7 13 10 -5 15 -12 4 -22 14 -22 22 0 15 -12 19 -23 7 -4 -3 -2 -12 5 -20
14 -17 6 -25 -16 -17 -10 4 -16 17 -16 35 0 18 -5 29 -14 29 -7 0 -16 8 -20
17 -3 10 -9 25 -12 33 -5 13 -4 13 5 0 9 -13 11 -12 11 4 0 13 -5 17 -19 13
-12 -3 -22 1 -25 9 -3 8 -13 14 -22 14 -10 0 -14 -5 -10 -15 12 -31 -30 -14
-54 23 -53 80 -157 289 -190 382 -13 36 -27 70 -31 75 -4 6 -17 44 -29 85 -12
41 -33 107 -46 147 -13 39 -24 88 -24 107 0 20 -4 36 -10 36 -5 0 -10 11 -10
25 0 14 -5 25 -12 25 -6 0 -3 7 8 15 10 8 14 15 7 15 -6 0 -15 10 -19 23 -10
30 -11 97 -2 97 5 0 8 5 8 11 0 5 -5 7 -10 4 -6 -4 -10 7 -10 24 0 19 -5 31
-13 31 -8 0 -13 16 -15 47 -1 25 -8 53 -16 62 -8 9 -13 27 -12 41 2 14 1 17
-1 8 -16 -63 -57 76 -48 160 3 31 6 64 5 72 0 8 -1 27 -1 42 0 15 -4 30 -10
34 -6 4 -6 11 2 20 7 9 8 14 1 14 -5 0 -8 9 -5 20 4 13 0 20 -9 20 -17 0 -22
49 -8 86 6 15 6 26 -1 30 -6 4 -6 11 2 20 9 11 7 14 -10 14 -23 0 -29 15 -8
23 9 4 9 6 0 6 -21 2 -15 17 7 18 14 1 22 -6 26 -25 9 -45 23 -72 36 -72 9 0
9 3 0 12 -18 18 -15 38 6 38 14 0 15 2 2 10 -13 8 -12 11 5 16 13 3 21 14 22
27 0 12 -1 16 -4 10 -7 -19 -27 -16 -41 7 -10 17 -10 20 3 20 8 0 15 5 15 10
0 6 7 10 15 10 8 0 15 7 15 15 0 8 -6 12 -13 9 -15 -6 -40 38 -42 76 -1 14 -5
33 -9 42 -7 16 -10 16 -27 -5 l-18 -22 -2 40 c-5 96 -5 125 2 125 4 0 9 -5 11
-11 2 -6 11 -7 23 -3 16 7 14 9 -16 20 -19 7 -26 13 -16 13 17 1 18 4 21 42 0
11 9 26 19 33 21 16 23 27 3 20 -11 -4 -13 0 -9 15 3 12 11 17 19 14 8 -3 14
0 14 6 0 6 -12 11 -26 11 -23 0 -24 2 -10 15 12 12 13 22 5 44 -8 22 -7 36 2
53 7 13 14 34 15 48 2 14 5 43 9 64 4 27 1 42 -7 48 -10 6 -10 8 0 8 9 0 11 7
7 21 -5 15 -2 22 14 26 12 3 21 9 21 14 0 5 6 9 14 9 8 0 17 7 20 16 11 28 7
35 -14 24 -30 -16 -24 -3 15 34 37 35 43 51 23 59 -10 4 -10 6 0 6 6 1 12 12
12 25 0 16 7 27 21 31 19 6 20 7 2 20 -17 13 -17 14 0 32 9 11 17 28 17 39 0
11 11 35 25 54 14 19 23 40 21 47 -3 7 -2 13 2 13 4 0 13 14 19 30 11 29 33
42 33 19 0 -5 5 -7 10 -4 8 5 7 12 -2 23 -7 9 -8 13 -2 9 7 -4 14 2 18 16 l6
22 21 -25 21 -24 -4 29 c-2 25 -7 30 -26 28 -13 -2 -21 1 -17 7 3 6 12 10 20
10 7 0 21 7 29 16 16 15 41 10 31 -7 -3 -5 1 -6 9 -3 18 7 21 20 6 29 -16 10
-12 22 10 28 13 3 18 10 14 21 -4 11 -1 16 10 16 9 0 16 -8 16 -17 0 -15 2
-16 9 -3 6 8 8 17 5 21 -8 14 18 21 28 8 7 -10 8 -6 5 14 -4 24 -2 27 16 21
13 -4 17 -2 13 5 -11 17 10 13 28 -5 13 -12 18 -13 30 -2 11 11 11 15 -3 25
-14 11 -12 12 12 13 16 0 27 -5 27 -14 0 -8 14 -16 32 -18 32 -5 32 -5 10 13
-12 9 -22 20 -22 24 0 4 6 2 14 -4 15 -13 32 1 22 18 -3 5 12 25 33 44 22 20
37 38 34 41 -3 3 0 12 6 20 7 8 9 21 5 27 -5 9 -1 11 14 7 14 -4 19 -2 16 7
-3 7 -1 16 4 19 12 7 4 46 -10 46 -5 0 -6 5 -2 11 3 6 19 9 35 7 32 -5 35 -2
16 17 -8 8 -19 10 -28 4 -12 -6 -19 1 -31 27 -13 28 -13 34 -2 34 8 0 14 -9
14 -20 0 -21 15 -27 25 -9 4 5 12 8 18 6 7 -2 21 0 31 6 18 9 18 11 3 22 -14
10 -15 18 -6 49 6 21 9 39 7 41 -2 2 -23 -1 -46 -7 -49 -12 -62 -6 -39 20 10
10 17 23 17 28 0 5 -5 1 -11 -8 -11 -19 -39 -25 -39 -8 0 6 21 32 46 57 35 37
44 52 39 70 -3 13 -2 23 2 23 9 0 53 62 53 73 0 4 -4 7 -10 7 -5 0 -10 -5 -10
-11 0 -12 -29 -38 -42 -39 -15 0 -8 38 7 44 8 3 15 12 15 20 0 9 12 19 26 22
21 5 24 11 19 31 -4 17 -2 23 6 18 7 -5 9 -1 5 11 -3 11 -1 25 3 33 8 12 12
13 26 1 12 -10 18 -11 28 -1 12 12 14 16 16 50 1 12 10 21 23 23 18 2 23 10
24 36 2 32 -4 39 -21 23 -6 -5 -18 -6 -29 -2 -16 6 -13 10 18 31 20 14 36 30
36 36 0 7 7 14 15 18 20 7 19 -3 -1 -25 -9 -10 -14 -26 -10 -35 5 -13 11 -10
30 19 21 30 23 41 16 73 -5 21 -7 40 -4 43 2 2 4 -1 4 -8 0 -7 6 -11 14 -8 8
3 17 3 19 -1 2 -4 3 -2 1 5 -3 13 27 43 44 43 12 0 71 60 86 88 5 10 -4 5 -20
-9 -16 -15 -36 -24 -44 -21 -12 4 -13 3 -2 -10 10 -13 9 -16 -8 -21 -33 -8
-26 45 10 85 16 18 29 38 27 45 -1 7 14 21 32 31 36 19 58 51 28 39 -9 -3 -19
-2 -22 4 -4 5 -11 7 -16 4 -5 -4 -9 -4 -9 0 0 3 10 10 23 15 l22 9 -22 0 c-16
1 -23 7 -23 20 0 27 17 35 29 14 10 -17 12 -17 25 0 7 9 21 17 32 17 17 0 17
-1 -2 -15 -12 -9 -14 -14 -5 -15 8 0 11 -6 7 -17 -4 -10 -4 -14 0 -10 4 4 14
1 22 -6 13 -9 14 -9 8 0 -4 7 -2 21 3 30 6 10 11 14 11 10 0 -9 30 18 30 27 0
3 -7 6 -15 6 -21 0 -18 20 5 50 l20 25 6 -23 c9 -30 28 -23 31 11 3 46 67 113
91 98 7 -4 14 -17 17 -29 2 -12 7 -27 10 -32 3 -6 1 -10 -4 -10 -14 0 -14 -37
0 -45 6 -4 13 2 16 14 3 12 10 21 15 21 6 0 8 -6 5 -14 -10 -25 36 -28 54 -4
l17 21 6 -21 c8 -25 21 -28 33 -9 8 12 9 18 12 38 1 11 21 9 76 -4 11 -3 26
-6 33 -6 6 -1 12 -10 12 -21 0 -24 10 -25 36 -4 10 8 12 12 4 8 -10 -4 -12 -4
-5 3 9 8 82 33 99 33 3 0 6 -7 6 -16 0 -13 3 -14 15 -4 8 6 23 9 34 5 11 -3
31 0 43 6 35 20 64 21 81 5 13 -13 19 -13 53 4 21 11 40 17 43 12 12 -15 105
-12 141 5 48 24 210 30 210 8 0 -8 5 -15 10 -15 6 0 10 7 10 15 0 8 7 15 15
15 8 0 15 -6 15 -12 0 -9 17 -13 50 -14 42 -1 48 1 38 13 -9 11 -6 11 18 -1
61 -31 124 -57 146 -60 13 -2 35 -8 50 -14 15 -6 35 -9 44 -5 9 3 21 -3 30
-16 17 -24 36 -28 28 -6 -5 12 2 11 37 -4 43 -19 169 -47 259 -57 25 -3 62
-10 83 -15 21 -6 61 -10 89 -11 28 0 65 -6 84 -14 18 -8 47 -14 64 -14 16 0
30 -5 30 -11 0 -5 4 -8 9 -4 5 3 12 1 16 -4 3 -6 18 -10 33 -10 39 0 128 -17
210 -40 23 -6 47 -9 53 -6 9 6 76 -13 244 -72 39 -14 79 -28 90 -33 21 -8 85
-25 143 -35 33 -7 42 -19 20 -28 -7 -3 -4 -6 8 -6 11 -1 24 -4 28 -8 3 -4 13
-8 21 -9 15 -2 76 -42 85 -56 3 -4 25 -16 49 -26 29 -14 50 -32 65 -58 15 -27
33 -43 61 -53 43 -17 55 -25 120 -83 23 -21 45 -38 48 -38 4 0 32 -16 63 -36
31 -20 72 -40 90 -46 20 -5 31 -14 28 -21 -2 -7 7 -24 21 -37 14 -13 25 -29
25 -37 0 -7 6 -13 13 -13 19 0 135 -125 151 -164 8 -20 20 -36 25 -36 6 0 11
-6 11 -12 0 -7 11 -26 25 -42 14 -16 25 -33 25 -39 0 -5 29 -44 65 -88 70 -83
86 -120 103 -234 16 -103 41 -276 57 -395 9 -58 18 -112 21 -119 2 -8 9 -56
14 -105 5 -50 14 -131 19 -181 44 -383 44 -949 1 -1170 -5 -27 -16 -90 -25
-140 -8 -49 -17 -101 -20 -115 -3 -14 -15 -71 -25 -128 -11 -57 -22 -108 -26
-113 -3 -6 2 -20 13 -31 10 -12 12 -18 4 -13 -11 6 -12 1 -6 -31 9 -51 12 -85
20 -234 4 -69 11 -147 17 -175 15 -74 19 -98 20 -115 1 -8 4 -17 9 -20 4 -3
10 -25 13 -50 7 -52 19 -105 41 -175 l15 -50 -6 50 c-10 80 -10 90 1 98 6 4 1
15 -15 28 -14 11 -19 18 -11 14 10 -6 11 -2 7 12 -7 23 -9 79 -3 105 4 21 17
36 17 20 0 -7 7 -12 15 -12 8 0 15 -4 15 -10 0 -5 -4 -10 -9 -10 -5 0 -12 -7
-15 -16 -4 -12 -1 -14 14 -9 15 5 21 0 26 -20 6 -26 -5 -50 -13 -27 -10 27
-20 0 -13 -34 9 -40 20 -56 20 -31 0 9 5 17 11 17 6 0 9 -9 6 -19 -3 -11 1
-22 9 -25 7 -3 11 -12 8 -21 -3 -8 -1 -15 5 -15 11 0 7 98 -9 188 -4 24 -4 45
2 48 5 3 6 22 3 43 -4 20 -8 50 -10 68 -1 17 -6 55 -10 84 -6 45 -5 51 8 46 9
-3 21 1 27 9 10 12 7 14 -19 14 -27 0 -31 3 -31 28 1 24 2 25 14 10 14 -18 36
-24 36 -10 0 4 -5 13 -12 20 -9 9 -8 12 5 12 10 0 20 -7 24 -17 5 -13 8 -12
15 8 7 17 5 26 -6 35 -20 14 -21 28 -1 21 8 -4 17 -2 20 3 4 6 0 10 -7 10 -11
0 -11 2 0 9 10 6 12 28 8 82 -2 41 -1 65 4 54 4 -11 17 -44 28 -73 12 -30 31
-98 44 -153 13 -54 26 -99 29 -99 13 0 21 91 9 105 -7 8 -9 18 -6 23 3 5 1 24
-4 43 -6 19 -13 54 -16 79 -3 25 -10 63 -15 85 -4 22 -9 71 -9 109 0 67 0 68
24 62 21 -5 24 -2 29 27 2 17 0 35 -6 39 -8 4 -7 21 2 55 6 26 11 68 10 93 -5
114 -7 146 -10 160 -7 30 13 120 26 120 21 0 29 62 20 149 -16 153 -7 241 24
241 26 0 39 56 45 193 5 132 0 150 -59 207 -52 50 -43 60 10 11 26 -23 51 -41
57 -39 6 2 12 52 14 123 2 66 7 147 10 180 4 33 5 96 3 140 -6 130 -4 573 3
670 11 147 12 201 4 214 -4 6 -2 19 5 27 9 11 9 33 0 104 -7 49 -12 99 -11
112 3 37 1 46 -16 62 -8 9 -11 16 -5 16 14 0 14 131 2 215 -13 83 -24 240 -22
298 2 39 -1 47 -16 47 -17 1 -17 1 0 14 18 14 18 16 1 63 -9 26 -17 71 -18 98
-1 30 -7 49 -13 48 -14 -3 -25 25 -13 32 5 3 7 12 4 20 -4 8 -10 12 -15 9 -5
-3 -9 4 -9 15 0 11 -4 22 -9 25 -5 3 -12 26 -15 51 -4 24 -12 47 -18 51 -6 4
-8 22 -4 44 3 21 3 40 -2 42 -9 4 -76 140 -100 204 -10 28 -35 75 -54 105 -67
104 -72 114 -70 127 2 6 -1 12 -6 12 -5 0 -12 14 -16 31 -3 17 -19 44 -36 60
-33 34 -38 44 -15 35 26 -10 16 13 -25 58 -22 24 -40 48 -40 55 0 6 -4 11 -9
11 -5 0 -11 7 -13 15 -4 18 -90 124 -101 125 -5 0 -5 -6 -1 -12 4 -7 -7 0 -24
16 -36 34 -44 59 -9 31 12 -10 2 1 -22 25 -90 89 -43 -17 60 -134 22 -24 39
-49 39 -56 0 -7 7 -10 16 -6 10 4 14 1 11 -6 -2 -7 2 -26 10 -41 27 -54 114
-182 136 -200 12 -10 16 -16 10 -12 -7 3 -13 4 -13 0 0 -7 63 -127 102 -194
15 -25 30 -53 33 -61 10 -24 25 -52 45 -90 10 -19 19 -48 20 -63 0 -16 8 -41
19 -55 28 -40 51 -101 41 -107 -5 -3 -6 -13 -3 -23 6 -15 5 -15 -8 -2 -8 8
-24 29 -34 47 -23 39 -52 49 -60 21 -9 -26 -31 -8 -38 31 -3 15 -18 43 -34 62
-23 29 -24 31 -4 14 l24 -20 -11 20 c-5 11 -20 29 -31 39 -12 11 -21 24 -21
30 0 6 5 5 12 -2 26 -26 25 -9 -4 44 -22 40 -33 52 -39 43 -6 -10 -8 -8 -8 6
1 32 -5 47 -35 93 -15 24 -29 49 -32 55 -2 7 -14 17 -27 22 -12 6 -23 18 -25
27 -5 25 -112 135 -112 115 0 -9 4 -18 9 -21 14 -9 85 -115 115 -172 15 -27
38 -68 52 -92 23 -39 25 -62 6 -62 -4 0 -23 24 -41 54 -18 30 -41 62 -52 72
-10 9 -19 20 -19 24 0 5 -25 47 -55 95 -30 49 -55 93 -55 100 0 24 -230 286
-319 361 -67 58 -84 64 -55 17 17 -25 15 -25 -24 10 -23 20 -49 37 -57 37 -8
0 -15 5 -15 11 0 7 12 10 30 7 17 -3 30 -2 30 2 0 13 -57 59 -100 81 -25 12
-74 37 -110 55 -36 18 -72 33 -80 34 -8 0 8 -12 35 -26 79 -42 154 -98 144
-108 -3 -3 -19 8 -36 24 -18 17 -36 30 -40 30 -5 0 -30 12 -57 26 -26 14 -50
23 -53 21 -5 -6 77 -64 106 -75 18 -6 55 -38 260 -227 42 -39 90 -81 106 -95
44 -37 174 -191 245 -291 19 -27 53 -74 74 -104 72 -100 32 -65 -49 43 -112
150 -221 278 -285 337 -30 28 -61 57 -70 66 -75 80 -297 241 -425 308 -33 17
-82 45 -108 61 -26 16 -59 33 -72 36 -13 3 -30 13 -37 21 -12 15 -112 63 -131
63 -6 0 -19 8 -29 17 -10 9 -37 18 -59 19 -41 2 -99 -14 -99 -27 0 -7 44 -25
185 -76 39 -14 77 -31 85 -38 8 -7 65 -38 125 -68 141 -71 296 -166 369 -228
102 -85 166 -143 162 -146 -2 -3 -38 23 -79 56 -41 34 -80 61 -86 61 -5 0 -14
6 -18 13 -10 17 -106 84 -132 92 -10 3 -56 30 -102 60 -46 30 -90 55 -97 55
-7 0 -46 16 -86 35 -41 19 -76 35 -79 35 -3 0 -44 18 -91 40 -47 22 -92 40
-100 40 -8 0 -25 4 -38 9 -13 5 -45 16 -73 24 -27 9 -75 26 -105 37 -30 12
-71 28 -91 35 -39 15 -109 54 -109 61 0 3 15 2 33 -1 17 -4 43 -8 57 -9 14 -2
39 -9 55 -16 17 -6 53 -16 80 -21 28 -5 59 -12 70 -15 l20 -7 -20 23 -20 22
53 -7 c42 -6 57 -4 71 9 16 14 23 15 64 2 44 -13 51 -12 48 7 -2 11 17 9 24
-3 3 -5 20 -10 37 -10 35 0 108 -20 108 -30 0 -3 -28 -4 -62 -2 l-63 4 46 -25
c25 -14 60 -28 78 -32 18 -4 41 -15 52 -26 10 -10 31 -21 46 -25 16 -4 43 -15
61 -26 17 -11 32 -15 32 -9 0 5 -8 14 -17 20 -32 17 -5 23 29 6 18 -9 58 -25
88 -35 30 -9 63 -21 73 -25 12 -5 17 -3 17 8 0 20 -104 85 -149 93 -20 4 -48
20 -64 36 -16 15 -37 28 -47 28 -10 0 -31 7 -46 15 -16 8 -37 15 -47 15 -9 0
-25 4 -35 9 -9 5 -37 18 -62 29 -25 11 -74 34 -110 50 -67 31 -172 62 -208 62
-11 0 -27 -7 -35 -15 -8 -8 -16 -12 -18 -11 -9 9 -79 13 -79 5 0 -5 11 -9 25
-9 14 0 28 -6 31 -13 3 -9 16 -12 34 -9 18 3 30 0 30 -7 0 -6 10 -11 23 -11
31 -1 94 -35 76 -42 -36 -14 -199 35 -199 59 0 7 -3 13 -7 14 -28 3 -125 10
-160 12 -24 1 -43 4 -43 7 1 17 55 42 80 36 42 -8 135 5 118 16 -10 8 -9 9 4
5 42 -14 88 -19 88 -9 0 6 13 7 38 1 20 -5 55 -9 77 -9 l39 0 -21 21 c-22 23
-127 49 -165 42 -23 -4 -112 30 -123 47 -3 5 -27 12 -53 16 -26 4 -65 13 -87
21 -47 17 -65 21 -125 30 -25 3 -54 12 -65 19 -23 17 -18 17 60 4 95 -17 167
-22 161 -12 -7 11 59 -3 134 -30 139 -49 242 -76 330 -88 55 -8 99 -23 167
-57 51 -25 90 -49 88 -54 -3 -4 0 -11 7 -16 7 -4 18 -17 24 -28 6 -11 20 -22
30 -24 10 -2 26 -12 35 -22 9 -11 27 -20 40 -20 18 -1 19 -2 6 -6 -36 -9 -20
-25 109 -103 31 -19 73 -51 93 -72 20 -20 68 -53 106 -73 71 -38 109 -65 101
-73 -3 -2 21 -25 52 -50 85 -69 113 -94 136 -122 12 -14 35 -38 51 -55 39 -38
115 -141 115 -155 0 -5 5 -10 10 -10 6 0 10 -7 10 -15 0 -22 33 -57 41 -44 4
7 20 -8 38 -34 30 -44 87 -94 97 -85 2 3 -6 16 -18 29 -29 32 -78 106 -78 118
0 5 -15 25 -32 44 -18 20 -39 46 -47 59 -25 41 -115 138 -128 138 -7 0 -13 7
-13 15 0 8 -4 15 -10 15 -5 0 -19 18 -30 39 -11 22 -28 42 -39 46 -11 3 -27
18 -37 33 -27 42 -104 114 -156 146 -25 16 -44 34 -42 40 5 14 -108 89 -168
110 -26 10 -58 26 -70 37 -23 19 -23 19 16 3 21 -8 40 -13 43 -11 5 6 -120 90
-159 108 -16 7 -28 16 -28 20 0 5 -18 12 -40 15 -21 4 -47 15 -56 25 -9 11
-23 19 -31 19 -7 0 -13 4 -13 9 0 20 -264 141 -340 156 -19 4 -57 19 -85 33
-104 52 -121 60 -173 72 -28 6 -55 16 -58 21 -3 5 -14 9 -25 9 -10 0 -38 9
-62 19 -89 40 -509 151 -577 151 -19 1 -53 8 -75 16 -22 8 -89 21 -149 30 -62
9 -115 22 -123 30 -8 8 -29 15 -46 15 -18 1 -24 3 -15 6 9 2 71 -3 137 -11 65
-9 143 -16 173 -16 29 0 69 -5 88 -10 19 -6 89 -19 155 -30 207 -35 349 -74
585 -160 47 -17 128 -45 180 -62 52 -17 120 -42 150 -55 76 -34 100 -43 100
-38 0 13 -211 101 -310 130 -25 7 -76 25 -115 40 -168 64 -367 124 -457 140
-21 3 -38 9 -38 14 0 4 51 -4 113 -17 61 -13 128 -26 147 -28 32 -4 33 -3 10
7 -27 11 -300 82 -365 94 -34 6 -37 8 -19 15 27 10 157 -8 349 -49 83 -18 173
-37 200 -43 28 -6 64 -17 80 -23 17 -7 62 -25 100 -40 39 -15 78 -31 87 -36
10 -5 23 -9 28 -9 6 0 31 -9 55 -20 25 -11 48 -19 52 -18 8 2 49 -18 233 -113
103 -53 291 -184 385 -270 17 -15 40 -30 53 -34 43 -13 228 -174 252 -219 21
-40 149 -156 171 -156 11 0 19 -6 19 -14 0 -8 7 -16 15 -20 21 -8 19 2 -11 41
-24 31 -53 47 -38 21 4 -7 3 -9 -1 -5 -5 4 -10 14 -11 22 -4 28 -67 97 -182
198 -117 103 -175 147 -192 147 -6 0 -9 6 -7 13 1 6 -4 11 -11 9 -7 -1 -22 8
-32 20 -11 13 -19 20 -20 16 0 -4 -11 3 -24 16 -14 12 -42 31 -63 42 -21 10
-42 24 -48 30 -25 27 -96 75 -145 99 -30 14 -80 42 -110 60 -30 19 -84 49
-120 66 -36 17 -87 41 -114 55 -28 13 -57 24 -67 24 -9 0 -22 7 -30 16 -7 9
-30 23 -51 31 -21 8 -38 19 -38 23 0 5 -8 11 -17 13 -10 3 14 3 52 1 l70 -4
-55 15 c-30 9 -64 20 -75 25 -20 9 -299 87 -422 118 -34 8 -60 18 -58 22 3 4
-5 11 -18 15 -14 4 -17 8 -9 12 10 4 10 8 0 21 -11 14 -10 15 7 8 11 -4 44
-10 73 -12 29 -2 60 -8 70 -13 9 -5 42 -14 72 -20 30 -6 64 -13 75 -15 27 -6
134 -33 164 -42 39 -12 15 14 -30 33 -21 8 -39 19 -39 25 0 5 5 6 12 2 6 -4
39 -13 72 -20 53 -11 59 -11 42 2 -11 8 -26 14 -33 14 -7 0 -13 5 -13 11 0 5
5 7 12 3 7 -4 8 -3 4 5 -4 7 -15 11 -24 10 -22 -3 -66 10 -122 34 -53 24 -191
56 -238 57 -18 0 -31 4 -27 9 3 6 -11 13 -32 16 -86 14 -96 17 -83 25 8 5 2
10 -19 15 -17 3 -33 11 -36 16 -7 10 129 4 148 -7 7 -4 5 0 -3 9 -20 21 -163
81 -236 100 -51 13 -251 15 -1389 16 l-1330 2 -20 -43 c-19 -40 -63 -76 -75
-60 -3 4 -34 8 -69 9 -40 1 -68 7 -73 15 -6 10 -8 10 -8 -2 -1 -12 -3 -12 -14
3 -13 16 -24 18 -150 16 -11 0 -28 -5 -39 -11 -27 -14 -42 10 -20 35 13 13 14
20 5 29 -9 9 -12 8 -12 -5 0 -21 -19 -22 -26 -2 -6 15 -24 21 -24 8z m2859
-88 c19 -3 41 1 50 8 12 9 13 9 8 0 -8 -13 7 -18 78 -27 22 -3 65 -9 95 -15
30 -5 90 -10 133 -10 46 -1 77 -5 77 -11 0 -7 -13 -8 -34 -4 -31 5 -34 4 -29
-15 3 -11 14 -23 25 -27 47 -15 3 -13 -93 5 -58 10 -118 17 -134 15 -16 -1
-55 4 -85 11 -224 58 -304 74 -324 69 -13 -3 -27 -1 -30 4 -7 11 59 26 74 17
6 -3 10 -2 10 3 0 5 33 3 73 -5 39 -8 87 -16 106 -18z m4 -869 c4 -9 32 -14
105 -15 72 -1 141 -11 248 -35 82 -18 166 -36 187 -39 44 -7 51 11 7 20 -16 3
-30 9 -30 14 0 5 6 7 13 5 6 -2 41 -10 77 -17 36 -7 79 -21 95 -31 17 -10 41
-18 55 -18 28 -1 94 -28 71 -29 -8 -1 -50 9 -94 20 -53 15 -74 24 -65 30 17
11 -5 11 -42 -1 -18 -5 -21 -9 -10 -13 29 -11 190 -58 195 -57 3 0 31 -13 63
-29 113 -57 372 -151 418 -151 16 0 170 -73 249 -118 11 -6 54 -27 95 -47 41
-20 80 -42 85 -49 6 -7 21 -17 35 -21 31 -10 69 -35 52 -35 -7 0 -29 7 -50 16
-41 18 -82 26 -81 16 0 -9 145 -112 157 -112 5 0 15 -6 21 -14 9 -11 7 -15 -8
-19 -11 -3 -22 1 -25 9 -3 7 -29 24 -58 38 -29 14 -61 38 -71 53 -21 31 -126
103 -150 103 -9 0 -18 9 -22 19 -3 11 -24 26 -45 35 -22 9 -49 25 -60 36 -19
19 -50 28 -50 14 0 -10 43 -43 81 -64 20 -10 54 -37 75 -60 21 -22 43 -40 50
-40 6 0 29 -16 50 -36 l39 -36 -53 29 c-30 15 -63 38 -75 49 -28 27 -125 89
-155 98 -12 4 -34 18 -50 30 -15 13 -58 34 -97 46 -38 12 -88 30 -110 39 -21
9 -42 16 -45 17 -45 10 -71 18 -76 25 -3 5 -9 7 -14 4 -5 -3 -24 1 -42 9 -18
8 -49 19 -68 25 l-35 11 33 -5 c43 -6 41 8 -5 27 -21 9 -56 23 -78 33 -37 16
-38 16 -25 -1 14 -16 13 -16 -17 -1 -18 10 -38 17 -46 17 -8 0 -20 7 -27 15
-6 7 -33 17 -58 21 -26 4 -59 13 -74 20 -15 8 -41 14 -58 14 -17 0 -50 4 -73
9 -23 6 -59 13 -79 16 -21 3 -45 13 -54 23 -26 25 -81 42 -159 47 -99 7 -139
18 -143 38 -4 20 14 23 21 3z m1464 -308 c32 -12 70 -30 85 -40 14 -10 30 -18
36 -18 5 0 15 -7 22 -15 7 -9 40 -29 74 -45 100 -48 163 -85 208 -122 24 -19
62 -47 86 -62 24 -15 107 -90 185 -168 78 -77 97 -99 42 -47 -129 122 -213
188 -360 285 -102 67 -304 177 -363 198 -28 10 -98 56 -85 56 6 0 37 -10 70
-22z m-387 -768 c35 -18 45 -22 136 -59 28 -11 133 -61 234 -111 100 -50 184
-89 187 -87 2 3 -8 14 -23 26 -34 27 -25 27 20 0 19 -11 45 -19 58 -18 47 4
88 -1 88 -12 0 -7 -16 -8 -45 -3 -32 4 -45 3 -45 -6 0 -7 -7 -10 -15 -6 -8 3
-15 1 -15 -4 0 -10 63 -60 76 -60 15 0 68 -50 60 -57 -4 -4 -10 -2 -14 4 -4 7
-19 17 -32 23 -46 20 -71 37 -86 58 -8 11 -27 23 -43 27 -16 3 -38 16 -50 29
-11 12 -49 35 -84 51 -34 15 -96 46 -139 67 -42 21 -81 38 -87 38 -5 0 -27 11
-47 25 -20 14 -45 25 -54 25 -22 0 -119 43 -145 65 -20 16 -19 16 5 9 14 -3
41 -14 60 -24z m-169 -111 c62 -25 171 -61 264 -86 11 -3 25 -9 30 -13 10 -8
98 -33 184 -52 31 -7 40 -13 30 -19 -8 -5 -25 -7 -39 -6 -14 2 -19 2 -12 0 16
-6 16 -23 -1 -23 -7 0 -30 9 -50 19 -21 10 -46 17 -56 14 -15 -4 -147 50 -161
66 -3 4 -18 7 -33 8 -16 0 -34 9 -41 19 -7 9 -18 14 -24 10 -7 -4 -12 -3 -12
2 0 5 -19 15 -42 23 -24 7 -59 21 -78 30 -19 9 -41 14 -49 11 -14 -5 -14 -4
-1 11 8 9 16 16 16 17 1 0 34 -14 75 -31z m924 -254 c33 -23 68 -40 78 -37 11
2 38 -14 70 -43 80 -73 90 -81 114 -93 12 -7 29 -12 37 -12 9 0 30 -13 48 -30
17 -16 27 -30 22 -30 -14 0 -131 38 -151 49 -10 5 -58 26 -108 46 -49 20 -117
50 -149 66 -36 18 -75 29 -100 29 -23 0 -55 9 -74 20 -18 11 -46 20 -63 20
-27 0 -29 2 -16 15 13 13 24 12 94 -9 43 -13 116 -40 162 -60 47 -20 87 -34
89 -31 4 4 -51 40 -73 49 -5 2 -7 6 -4 10 7 7 62 -21 111 -55 19 -14 32 -17
49 -11 25 10 20 14 -32 31 -32 10 -164 96 -224 146 -30 25 52 -23 120 -70z
m-5169 -3263 c43 -43 88 -82 99 -86 17 -8 49 -12 113 -15 21 -2 13 -57 -13
-85 -14 -15 -25 -35 -25 -45 0 -22 40 -51 70 -51 11 0 20 -5 20 -10 0 -6 11
-15 25 -20 16 -6 23 -15 19 -25 -3 -8 -1 -28 4 -45 7 -18 7 -32 1 -35 -5 -4
-9 -17 -9 -30 0 -17 -4 -23 -15 -19 -11 5 -13 -1 -8 -32 5 -28 3 -35 -7 -29
-7 4 -16 2 -20 -6 -7 -10 -12 -10 -22 -1 -11 9 -20 8 -37 -4 -21 -15 -26 -15
-63 2 -34 15 -41 16 -48 3 -7 -11 -9 -10 -10 6 0 11 -3 42 -6 69 -5 35 -3 47
5 41 7 -4 11 -16 9 -28 -2 -16 3 -23 20 -25 15 -2 22 2 22 13 0 9 -4 13 -10
10 -10 -6 -14 13 -11 51 1 17 -5 23 -29 26 -16 3 -30 1 -30 -4 0 -4 -4 -8 -9
-8 -14 0 -18 42 -7 62 7 11 6 24 -2 40 -11 21 -12 21 -6 -9 6 -33 0 -39 -23
-25 -13 8 -34 88 -37 143 -2 33 -12 50 -68 120 -38 46 -44 99 -12 99 8 0 11 8
9 21 -7 35 25 15 111 -69z m-115 -147 c12 -14 26 -22 34 -18 14 5 19 -11 18
-54 -1 -7 3 -13 8 -13 5 0 9 -15 9 -34 0 -19 5 -38 10 -41 6 -4 8 -11 5 -16
-4 -5 -3 -14 1 -20 4 -8 9 -7 15 2 6 10 9 8 9 -8 0 -12 9 -27 20 -33 25 -13
25 -21 2 -48 -17 -19 -20 -20 -50 -5 -18 9 -32 21 -32 29 0 7 -7 17 -15 21 -8
5 -16 25 -17 45 -2 20 -7 34 -12 31 -4 -3 -5 4 -1 16 5 17 2 24 -13 28 -18 4
-20 13 -20 74 1 38 3 69 5 69 3 0 14 -11 24 -25z m-881 -2884 c0 -10 -3 -21
-6 -24 -4 -3 -9 -37 -11 -74 -3 -37 -9 -75 -14 -85 -5 -10 -11 -38 -13 -63 -2
-26 -7 -49 -10 -52 -3 -4 -6 -14 -6 -23 0 -8 -9 -33 -20 -54 -10 -22 -17 -42
-15 -47 3 -4 1 -10 -5 -14 -5 -3 -10 -21 -10 -38 0 -21 -3 -27 -9 -19 -4 7 -4
36 1 65 5 29 11 68 13 87 3 19 8 43 11 53 3 9 7 35 9 57 2 22 11 53 20 69 9
18 15 59 16 103 1 40 3 76 5 80 8 13 44 -5 44 -21z"/>
<path d="M6100 9296 c40 -25 113 -57 158 -71 12 -3 22 -11 22 -16 0 -5 7 -9
15 -9 8 0 15 -4 15 -10 0 -15 -11 -12 -45 10 -38 25 -64 28 -44 4 11 -13 9
-14 -17 -8 -16 4 -36 12 -44 18 -13 10 -13 9 -1 -7 8 -9 33 -22 57 -28 24 -6
44 -15 44 -19 0 -16 152 -55 165 -42 14 14 -19 30 -54 25 -24 -3 -49 0 -67 10
l-29 16 35 -5 c19 -3 42 0 50 5 13 9 12 13 -5 28 -23 21 -106 63 -124 63 -6 0
-28 8 -49 19 -20 10 -53 22 -72 25 -35 7 -35 7 -10 -8z"/>
<path d="M7030 6040 c19 -16 20 -20 7 -16 -53 17 -70 19 -62 6 5 -9 2 -10 -11
-6 -39 12 -90 9 -124 -6 -19 -9 -57 -17 -85 -17 -55 0 -177 -21 -185 -32 -8
-10 -147 -37 -225 -44 -65 -6 -139 -23 -210 -48 -16 -5 -55 -27 -86 -48 -32
-21 -59 -35 -62 -33 -3 3 -10 -3 -16 -14 -6 -11 -26 -29 -46 -41 -19 -11 -35
-26 -35 -33 0 -7 -18 -24 -40 -37 -34 -21 -57 -59 -52 -83 1 -5 -3 -8 -8 -8
-6 0 -8 -10 -4 -24 4 -19 0 -27 -25 -42 -22 -13 -27 -21 -20 -30 7 -8 6 -14
-1 -19 -6 -4 -8 -15 -5 -26 4 -11 2 -19 -5 -19 -6 0 -9 -4 -5 -9 3 -5 0 -13
-6 -17 -8 -4 -7 -9 2 -15 9 -6 10 -12 4 -16 -5 -5 -11 -18 -12 -30 -2 -16 2
-21 12 -17 8 4 15 2 15 -4 0 -14 19 -9 60 16 56 35 60 31 30 -30 -11 -23 -20
-54 -20 -69 0 -22 5 -27 28 -30 15 -3 43 -2 62 1 60 9 89 1 97 -28 4 -16 2
-27 -5 -30 -18 -6 -14 -19 6 -24 21 -6 26 -38 6 -38 -7 0 -18 8 -23 18 -14 23
-14 6 0 -19 6 -11 16 -18 23 -16 8 3 28 -3 45 -14 17 -10 40 -19 50 -19 10 0
21 -3 25 -7 4 -5 11 -8 14 -8 4 0 28 -8 54 -18 63 -25 96 -19 50 8 -28 17 -30
21 -15 27 16 6 15 7 -3 7 -12 1 -24 8 -28 16 -3 8 -2 14 2 14 17 -3 35 2 29 7
-3 4 0 13 8 20 7 8 11 22 8 33 -3 10 0 22 6 25 6 4 11 18 11 32 0 23 5 25 48
15 2 -1 -4 -8 -12 -17 -22 -22 -20 -41 7 -48 36 -9 57 -7 73 9 8 8 22 11 30 8
11 -4 15 0 12 13 -2 16 3 19 34 18 24 -1 35 3 32 11 -4 9 10 11 50 8 35 -2 56
0 56 7 0 16 33 12 60 -7 22 -16 23 -16 17 0 -4 11 -1 17 8 17 8 0 15 5 15 11
0 13 39 2 63 -19 16 -14 17 -13 17 6 0 12 -5 22 -10 22 -6 0 -5 8 2 20 9 15
20 19 36 15 15 -4 21 -1 20 7 -5 21 78 15 102 -7 20 -18 20 -18 14 13 -6 29
-4 32 18 32 14 0 28 3 31 6 4 4 42 6 85 5 81 -2 138 11 127 30 -4 6 2 17 14
25 29 21 18 34 -27 34 l-37 0 38 37 c32 30 36 38 23 45 -8 5 -18 24 -21 42 -6
27 -11 33 -30 31 -17 -2 -22 1 -18 15 6 23 -13 33 -92 49 -33 7 -64 17 -70 21
-5 4 -35 10 -65 14 -30 4 -66 10 -79 13 -16 4 -22 2 -17 -5 10 -16 -80 16 -95
34 -6 8 -18 14 -25 14 -8 0 -14 5 -14 10 0 16 38 50 56 50 10 0 48 18 86 40
39 22 80 40 93 40 12 0 28 7 35 15 10 12 9 15 -5 15 -9 0 -15 6 -12 13 2 8 30
12 88 13 46 0 94 6 106 12 34 19 64 15 56 -5 -5 -14 0 -12 20 6 23 21 25 27
15 43 -15 23 -117 66 -173 74 l-40 6 25 -22z m-329 -610 c22 -21 39 -41 39
-43 0 -13 -110 -84 -152 -98 -43 -15 -47 -15 -62 2 -12 14 -12 20 -2 28 7 6
25 46 40 90 l28 79 35 -10 c19 -5 53 -27 74 -48z"/>
<path d="M3669 5981 c-59 -23 -136 -34 -120 -18 20 20 12 27 -16 14 -20 -9
-27 -9 -30 0 -5 15 -111 5 -138 -13 -23 -17 -39 -18 -30 -3 9 14 -62 -17 -81
-36 -11 -10 -36 -15 -82 -16 -69 0 -196 -13 -244 -25 -33 -8 -39 11 -6 19 12
4 19 9 16 13 -8 7 -98 -28 -98 -38 0 -4 -14 -15 -31 -23 -31 -16 -31 -16 -24
7 6 18 -1 14 -33 -19 -22 -22 -50 -44 -62 -48 -15 -5 -19 -12 -15 -23 3 -9 3
-13 -1 -10 -7 8 -59 -16 -69 -32 -4 -7 2 -9 19 -4 16 4 26 2 26 -5 0 -6 9 -11
21 -11 11 0 18 3 16 8 -3 4 6 8 19 8 13 1 22 -1 20 -5 -6 -9 135 -34 160 -29
17 4 16 6 -6 16 -36 15 -8 14 42 -2 24 -7 70 -21 103 -31 53 -16 145 -67 145
-81 0 -3 -4 -3 -9 0 -5 4 -11 0 -14 -6 -3 -10 -7 -10 -20 0 -17 15 -56 8 -70
-12 -6 -7 -7 -5 -3 6 4 13 -1 17 -22 17 -36 0 -83 7 -104 16 -26 11 -22 -8 4
-20 36 -16 32 -33 -9 -41 -21 -5 -46 -7 -56 -5 -10 1 -25 -3 -32 -9 -16 -13
-114 -18 -132 -7 -14 9 -43 -1 -43 -15 0 -5 9 -6 20 -3 11 3 20 2 20 -3 0 -15
-23 -21 -42 -11 -10 6 -19 5 -23 -2 -4 -6 2 -13 14 -16 12 -3 21 -9 21 -12 0
-9 -15 -12 -70 -14 -31 -2 -40 -6 -40 -20 0 -14 5 -17 23 -12 17 5 19 4 7 -4
-13 -9 -12 -11 5 -11 19 -1 19 -1 2 -11 -10 -6 -27 -9 -38 -6 -10 3 -19 1 -19
-3 0 -5 -17 -12 -37 -16 l-38 -7 60 -19 c51 -15 94 -25 129 -27 4 -1 6 -8 2
-16 -4 -12 -2 -13 12 -7 21 11 60 -8 54 -26 -2 -6 1 -12 7 -12 6 0 11 -7 11
-15 0 -9 8 -19 18 -22 9 -4 20 -11 23 -16 4 -5 28 -11 55 -14 27 -3 54 -11 60
-19 7 -9 26 -12 53 -10 23 2 44 -1 47 -5 3 -5 31 -9 62 -9 55 -1 99 -19 84
-35 -4 -5 1 -6 10 -2 22 8 34 -24 14 -39 -21 -15 -21 -48 -1 -40 8 3 27 1 42
-5 14 -5 41 -10 60 -11 18 -1 33 -5 33 -10 0 -4 -4 -8 -10 -8 -5 0 -10 -4 -10
-9 0 -7 35 -15 112 -25 14 -2 22 -18 11 -24 -20 -12 352 -6 373 6 18 11 17 12
-6 12 -14 0 -68 2 -120 4 -52 2 -119 5 -147 6 -29 1 -53 5 -53 9 0 4 -8 7 -19
8 -10 1 -37 7 -60 13 -41 11 -52 24 -28 33 6 3 2 6 -9 6 -12 1 -24 8 -28 16
-3 8 -10 15 -16 15 -6 0 -18 7 -26 15 -12 12 -12 15 -2 15 7 0 26 7 43 16 27
14 31 14 41 0 6 -9 21 -16 34 -16 19 0 20 -2 10 -15 -10 -12 -9 -15 6 -15 15
0 16 -2 5 -9 -9 -6 1 -10 30 -14 56 -8 350 -1 380 8 17 6 26 2 39 -15 18 -23
18 -23 24 -2 8 25 52 37 88 23 21 -8 29 -6 43 9 10 11 22 17 27 14 13 -8 40
17 34 33 -6 15 10 18 19 3 10 -16 28 -11 21 6 -3 8 -2 12 4 9 6 -3 13 0 16 8
7 19 72 16 85 -4 6 -10 9 -11 9 -1 0 6 7 12 15 12 8 0 15 -5 15 -11 0 -5 5 -7
10 -4 6 4 60 8 120 10 102 3 111 2 121 -17 7 -13 14 -17 21 -10 6 6 6 16 0 28
-22 42 -45 105 -40 109 9 10 52 -12 80 -39 14 -15 28 -22 30 -16 2 6 18 -3 36
-21 29 -29 37 -48 34 -89 0 -8 5 -18 11 -23 8 -5 5 -7 -8 -5 -21 3 -21 1 -9
-46 5 -22 4 -27 -6 -21 -9 5 -11 4 -6 -3 10 -17 26 -15 26 3 0 9 6 12 15 9 10
-4 15 0 15 15 0 12 5 21 11 21 5 0 7 -4 4 -10 -3 -5 -1 -10 5 -10 6 0 9 8 6
18 -4 12 5 22 34 36 34 16 44 17 67 7 30 -14 40 -7 47 33 5 30 16 48 16 28 0
-7 5 -12 10 -12 13 0 13 37 0 45 -13 8 0 68 17 78 7 4 13 21 13 36 0 15 3 31
7 35 4 4 9 19 11 34 4 30 8 37 25 37 20 1 9 55 -15 75 -21 17 -22 20 -6 32 9
7 17 24 18 38 3 39 1 43 -14 31 -10 -8 -16 -9 -21 -1 -4 7 -12 7 -26 -1 -24
-12 -41 -2 -19 11 12 7 11 10 -5 16 -11 4 -30 16 -42 27 -19 16 -25 18 -38 7
-13 -11 -15 -9 -15 10 0 18 -3 20 -13 11 -18 -14 -52 21 -65 69 -7 25 -10 29
-11 13 -1 -13 -7 -23 -15 -23 -8 0 -18 10 -21 23 -13 42 -35 69 -49 58 -9 -7
-20 -2 -40 19 -15 17 -34 30 -42 30 -8 0 -14 5 -14 11 0 7 -11 9 -30 6 -18 -4
-34 -2 -42 6 -6 7 -24 11 -39 9 -21 -3 -35 3 -54 24 -20 22 -28 25 -34 15 -6
-10 -10 -10 -12 -2 -3 9 -16 9 -49 2 -36 -8 -50 -7 -67 4 -12 8 -31 15 -42 15
-13 0 -19 5 -15 14 5 12 -1 12 -33 4 -21 -6 -57 -12 -81 -15 -35 -4 -41 -2
-36 11 5 13 -4 15 -64 13 -49 -2 -69 0 -65 8 2 8 -14 12 -48 14 -29 1 -55 4
-58 6 -2 3 -15 -2 -28 -10 -13 -9 -23 -11 -23 -6 0 5 6 11 13 14 6 2 10 7 7
10 -3 3 -26 -3 -51 -12z m-309 -222 c0 -5 5 -9 10 -9 6 0 10 7 10 16 0 15 22
15 83 -2 9 -3 17 -1 17 5 0 14 50 14 122 -1 45 -9 58 -16 58 -30 0 -14 8 -18
34 -18 19 0 47 -5 63 -12 27 -11 27 -12 5 -16 -17 -2 -20 -7 -13 -16 7 -9 5
-16 -7 -27 -22 -18 -54 -18 -60 0 -3 8 0 11 7 7 16 -10 14 9 -3 23 -10 8 -16
9 -21 1 -3 -5 -18 -10 -33 -10 -27 -1 -27 -1 -5 -13 16 -9 20 -16 13 -27 -8
-13 -11 -13 -19 -1 -6 9 -20 12 -40 9 -17 -2 -33 0 -35 6 -3 7 -9 5 -15 -4
-10 -13 -13 -13 -22 3 -10 17 -12 17 -34 -7 l-23 -24 -10 21 c-6 12 -11 16
-11 10 -1 -21 -17 -15 -53 17 -39 36 -57 40 -23 5 24 -23 33 -45 18 -45 -5 0
-21 14 -38 31 -16 17 -47 42 -69 56 -46 29 -38 45 23 47 27 0 40 5 37 12 -3 7
3 10 15 7 10 -3 19 -9 19 -14z m-157 -24 c44 -21 94 -59 119 -90 21 -27 20
-47 -1 -21 -11 13 -17 12 -50 -8 l-37 -24 -27 24 c-16 13 -34 24 -42 24 -8 0
-34 14 -58 30 -25 17 -52 30 -60 30 -22 0 -30 17 -13 23 8 3 30 3 48 0 24 -3
38 0 47 11 17 20 33 20 74 1z m934 -373 c13 -8 27 -21 30 -30 4 -10 9 -19 13
-22 3 -3 13 -17 22 -31 16 -25 16 -28 0 -41 -9 -8 -44 -20 -77 -26 -33 -6 -91
-18 -129 -26 -38 -9 -72 -14 -74 -11 -2 2 9 30 26 62 16 32 33 79 37 104 13
90 23 91 152 21z"/>
<path d="M4119 5069 c-32 -28 -17 -34 40 -15 66 21 78 21 57 -3 -14 -15 -15
-24 -6 -40 6 -12 15 -21 20 -21 6 0 10 -6 10 -14 0 -19 48 -30 66 -15 8 6 14
8 14 3 0 -5 7 -1 15 10 7 10 17 16 22 13 4 -2 17 4 27 14 15 14 16 19 5 19 -8
0 -19 10 -24 22 -6 13 -19 24 -30 25 l-20 3 20 -9 c17 -8 18 -10 3 -10 -19 -1
-26 -21 -8 -21 6 0 10 -9 10 -20 0 -11 -4 -20 -9 -20 -5 0 -16 -3 -25 -6 -11
-4 -16 0 -16 14 0 12 5 24 11 27 7 5 4 14 -8 27 -10 11 -17 22 -15 24 9 15 -1
16 -12 1 -11 -14 -15 -15 -19 -4 -8 22 -101 20 -128 -4z"/>
<path d="M3350 4938 c-25 -11 -25 -11 -3 -15 19 -4 21 -8 13 -24 -6 -10 -9
-19 -8 -20 2 0 12 -2 23 -4 11 -2 40 -9 65 -14 101 -23 340 -10 340 18 0 4
-52 5 -115 4 -83 -1 -115 2 -115 10 0 7 -5 6 -11 -3 -7 -10 -12 -11 -15 -4 -3
7 -14 10 -24 7 -11 -3 -31 2 -45 11 -31 20 -55 21 -55 1 0 -8 -7 -15 -16 -15
-14 0 -14 3 -4 15 10 12 10 15 0 15 -7 0 -10 7 -6 15 3 8 4 15 3 14 -1 0 -13
-5 -27 -11z"/>
<path d="M4650 4377 c0 -8 -8 -14 -17 -13 -10 0 -17 -5 -15 -11 1 -7 -7 -13
-18 -13 -12 0 -31 -11 -44 -25 -13 -14 -30 -25 -37 -25 -8 0 -25 -16 -39 -36
-13 -20 -47 -53 -75 -74 -27 -20 -76 -64 -107 -96 -32 -33 -66 -66 -75 -75
-37 -32 -91 -97 -106 -125 -9 -16 -29 -38 -46 -49 -17 -11 -31 -26 -31 -34 0
-8 -24 -37 -52 -66 -66 -63 -158 -167 -158 -177 0 -5 -4 -8 -10 -8 -14 0 -147
-136 -155 -159 -3 -11 -19 -26 -34 -34 -25 -12 -29 -12 -39 2 -9 14 -11 12
-11 -10 -1 -26 -28 -59 -49 -59 -11 0 -18 -56 -12 -85 4 -17 3 -48 -3 -97 -6
-51 8 -76 19 -33 4 18 13 25 29 25 19 0 27 -10 41 -51 11 -28 29 -59 41 -69
13 -10 23 -23 23 -29 0 -6 4 -11 9 -11 5 0 13 -9 16 -20 9 -27 21 -25 57 10
16 17 38 30 48 30 17 0 100 -70 100 -85 0 -14 80 -85 95 -85 8 0 15 -6 15 -13
0 -7 18 -34 40 -61 22 -27 43 -59 46 -73 4 -15 12 -22 20 -19 9 3 14 -2 14
-14 0 -11 9 -24 21 -30 26 -14 34 -8 20 18 -11 21 -4 62 11 62 5 0 6 5 3 10
-4 7 -11 7 -18 2 -27 -22 -59 17 -36 44 17 21 38 17 32 -6 -5 -21 11 -28 22
-10 11 18 25 -1 19 -26 -7 -27 13 -34 22 -9 5 12 10 13 20 4 10 -8 14 -8 14 0
0 6 5 11 10 11 6 0 10 -9 10 -20 0 -21 14 -27 24 -11 7 11 86 -25 86 -39 0
-13 43 -9 61 7 14 11 18 11 28 -1 7 -8 26 -18 43 -21 23 -5 27 -9 17 -16 -11
-7 -9 -9 8 -9 12 0 23 6 26 13 3 8 10 4 23 -11 10 -12 29 -24 42 -27 36 -6 44
-15 31 -31 -7 -9 -8 -14 -1 -14 6 0 14 5 17 10 10 16 35 12 29 -5 -4 -9 0 -15
10 -15 9 0 16 6 16 13 0 6 5 4 11 -5 14 -24 26 -22 35 5 l8 22 7 -25 7 -25 1
28 c1 25 4 27 51 29 28 1 58 2 68 2 9 1 16 -4 15 -10 -1 -6 10 -9 28 -6 18 3
29 0 29 -7 0 -7 6 -9 13 -6 6 4 3 -1 -7 -9 -16 -13 -17 -16 -4 -16 8 0 21 7
29 16 9 10 20 13 38 8 14 -4 51 -7 81 -8 53 -1 55 -2 60 -31 4 -24 7 -26 12
-12 4 9 5 24 2 32 -4 9 0 15 10 15 9 0 16 5 16 10 0 6 12 10 28 10 15 0 38 7
51 16 15 11 26 13 33 6 12 -12 76 -4 96 11 39 31 -24 81 -74 58 -27 -12 -113
-15 -163 -5 -17 4 -41 17 -53 29 l-21 22 -25 -29 c-14 -16 -31 -27 -38 -24
-10 4 -14 -3 -14 -19 0 -26 -14 -33 -25 -15 -4 6 -1 17 5 25 11 13 5 15 -38
15 -83 0 -150 20 -178 53 -13 16 -24 35 -24 42 0 10 -10 7 -36 -10 -29 -20
-49 -25 -93 -24 -87 2 -103 9 -128 59 -32 62 -36 64 -72 34 -29 -24 -36 -26
-74 -18 -38 8 -45 14 -69 63 -23 44 -28 68 -28 125 0 105 6 119 44 112 21 -4
52 -27 97 -75 l66 -69 20 49 c23 52 48 69 106 69 25 0 43 -12 95 -65 34 -36
65 -65 67 -65 2 0 9 18 15 40 16 59 44 73 141 72 46 -1 95 -9 117 -17 25 -11
38 -12 40 -5 3 8 8 8 17 0 18 -15 67 -21 80 -10 16 12 155 60 155 54 0 -4 6
-2 13 4 18 15 75 -12 89 -43 16 -36 45 -32 62 8 10 25 25 38 55 50 59 24 86
22 99 -8 14 -31 34 -32 47 -3 12 26 112 65 139 55 16 -7 18 -17 14 -100 -6
-106 -33 -186 -80 -229 -33 -33 -45 -34 -78 -9 l-25 19 -21 -51 c-25 -58 -23
-67 12 -67 30 0 124 46 124 61 0 6 9 8 19 4 11 -3 22 -1 26 5 3 5 15 10 25 10
11 0 25 10 31 22 8 14 14 18 17 10 2 -6 9 -12 15 -12 18 0 38 37 30 56 -5 13
-3 15 7 9 10 -6 12 -4 7 7 -8 22 2 29 23 18 15 -8 17 -6 12 12 -3 14 -2 19 7
14 6 -4 22 5 37 23 14 17 30 29 35 25 8 -4 14 25 10 49 0 4 8 7 19 7 10 0 24
9 30 20 6 11 17 20 26 20 8 0 24 9 36 20 12 11 28 20 35 20 7 0 10 6 6 17 -5
13 -2 15 12 9 10 -4 21 -2 25 4 5 8 18 9 46 1 43 -11 101 -1 97 17 -2 6 2 23
7 38 8 21 14 24 22 16 9 -9 9 -15 0 -24 -15 -15 -16 -48 -1 -48 5 0 8 -3 5 -8
-2 -4 -1 -23 4 -42 l8 -35 17 43 c10 23 22 42 27 42 4 0 8 8 8 18 0 10 14 28
31 41 30 23 30 23 36 2 3 -11 9 -18 14 -15 5 3 7 10 3 15 -3 6 0 9 7 8 22 -3
48 11 44 24 -3 7 2 21 11 32 12 16 17 17 23 7 6 -10 10 -5 14 15 4 20 12 29
26 30 12 1 21 -2 21 -8 0 -5 4 -9 9 -9 5 0 8 10 8 23 -1 12 2 36 6 52 7 27 6
28 -7 12 -14 -18 -15 -18 -26 3 -10 18 -9 24 1 31 11 6 10 9 -3 14 -10 4 -23
4 -30 0 -7 -4 3 6 22 23 l35 31 -32 7 c-32 6 -43 19 -24 26 6 1 -5 20 -24 41
-21 23 -35 33 -38 25 -2 -8 -10 -2 -17 15 -7 15 -18 27 -23 27 -5 0 -7 10 -4
22 5 16 -2 29 -25 50 -17 15 -27 28 -22 29 5 0 -1 4 -14 10 -13 5 -20 13 -17
19 4 6 -7 13 -24 16 -17 4 -33 14 -36 25 -4 11 -10 17 -15 14 -9 -5 -22 23
-17 37 1 4 -9 15 -21 24 -15 11 -22 23 -19 35 3 12 0 19 -9 19 -14 0 -18 12
-15 38 1 8 -6 11 -21 7 -13 -3 -29 -1 -37 4 -12 8 -12 13 4 37 16 24 16 26 1
21 -10 -4 -19 -1 -22 8 -4 8 -10 12 -15 9 -5 -3 -9 0 -9 6 0 10 -12 28 -35 51
-5 5 -35 28 -65 50 -30 23 -58 47 -62 54 -5 7 -33 29 -63 50 -30 20 -55 39
-55 43 0 8 -52 34 -57 29 -5 -6 22 -57 30 -57 5 0 5 -5 2 -10 -4 -6 -2 -17 4
-24 6 -7 11 -29 10 -47 -3 -86 4 -160 15 -172 7 -7 11 -18 8 -25 -2 -7 6 -12
21 -12 13 0 31 -8 38 -17 12 -15 12 -16 -6 -9 -11 4 1 -12 27 -36 27 -25 54
-62 64 -88 10 -25 28 -58 42 -74 15 -19 22 -38 19 -53 -2 -13 0 -23 5 -23 5 0
7 -4 4 -9 -3 -5 5 -24 19 -42 30 -42 88 -158 90 -182 1 -10 7 -23 14 -30 16
-16 14 -32 -4 -17 -12 10 -13 7 -5 -22 17 -56 13 -69 -15 -62 -18 4 -25 2 -25
-9 0 -18 -24 -29 -36 -17 -10 10 -66 -7 -104 -32 -19 -12 -68 -19 -195 -28
-93 -6 -183 -13 -199 -16 -16 -4 -74 -7 -130 -9 -56 -1 -112 -6 -124 -9 -14
-5 -22 -3 -22 4 0 7 -7 9 -16 6 -8 -3 -24 -1 -34 4 -14 7 -23 6 -34 -5 -16
-16 -61 -20 -70 -6 -3 4 -31 4 -63 -1 -57 -10 -139 -2 -268 23 -76 15 -457 24
-666 16 -64 -3 -121 -2 -126 2 -5 3 -15 15 -21 26 -10 17 -11 18 -12 3 0 -10
-3 -18 -7 -18 -14 0 -73 40 -73 49 0 5 -9 11 -20 14 -11 3 -18 2 -15 -3 3 -4
-2 -13 -10 -20 -12 -10 -15 -9 -15 5 0 9 -9 19 -20 22 -19 5 -29 33 -11 33 4
0 6 11 3 25 -2 14 -9 25 -14 25 -5 0 0 15 11 34 21 33 21 34 2 29 -26 -7 -36
14 -11 22 12 4 19 14 18 23 -2 13 4 17 25 16 25 -1 27 2 27 37 0 21 -4 41 -10
44 -5 3 -10 12 -9 18 0 9 2 9 6 0 7 -19 21 -16 34 8 9 17 8 23 -2 30 -11 7 -9
9 6 9 17 0 17 2 5 10 -13 9 -13 10 0 11 8 1 19 1 24 0 4 -1 13 5 20 13 6 8 20
16 31 18 11 2 19 10 17 16 -3 15 14 16 23 1 4 -6 -1 -16 -11 -24 -16 -11 -15
-12 15 -9 18 2 36 6 41 9 15 9 40 -7 40 -27 0 -16 5 -18 34 -13 20 4 36 2 40
-4 4 -6 1 -11 -6 -11 -8 0 -9 -3 -3 -8 6 -4 16 -20 24 -37 12 -27 14 -28 21
-10 4 11 5 24 2 29 -3 5 0 6 7 2 6 -4 9 -11 6 -16 -9 -14 6 -39 20 -34 8 3 11
13 8 21 -4 10 -2 14 5 10 6 -4 16 -23 22 -42 10 -30 15 -34 44 -33 18 1 38 -2
44 -6 6 -3 14 -2 17 4 4 7 16 1 32 -15 27 -26 39 -31 45 -16 2 4 12 5 23 0 19
-7 19 -8 -2 -8 -13 -1 -23 -5 -23 -11 0 -15 27 -12 54 5 25 17 93 16 100 -1 3
-7 28 -10 67 -8 41 2 70 -1 84 -10 25 -16 146 -31 233 -27 51 2 62 -1 62 -14
0 -9 5 -13 10 -10 6 3 10 15 10 27 0 17 4 20 29 15 25 -5 31 -2 37 16 8 25 45
63 71 72 28 9 64 42 61 56 -2 7 4 14 12 14 22 2 50 16 50 26 0 4 -7 6 -15 3
-17 -7 -19 4 -6 25 5 8 30 14 62 15 30 1 65 7 79 13 19 9 90 64 139 109 2 2
-2 10 -9 19 -31 37 -123 6 -205 -69 -78 -71 -105 -89 -147 -100 -22 -5 -28 -3
-28 9 0 9 -20 25 -46 37 -31 13 -43 23 -34 28 9 6 6 10 -11 16 -13 4 -27 8
-31 9 -3 0 -10 3 -14 8 -4 4 -20 7 -36 7 -15 0 -28 4 -28 8 0 14 -36 52 -49
52 -6 0 -11 7 -11 15 0 8 -4 15 -10 15 -5 0 -10 7 -10 15 0 9 -8 19 -17 22
-10 4 -22 13 -27 21 -6 10 -18 12 -42 7 -30 -5 -35 -3 -44 19 l-9 26 -29 -28
c-17 -16 -27 -34 -24 -45 3 -13 0 -16 -12 -11 -11 4 -22 0 -30 -11 -8 -11 -20
-16 -29 -12 -8 3 -21 -1 -27 -9 -14 -16 -80 -20 -80 -4 0 5 -6 7 -14 4 -8 -3
-30 1 -48 9 -55 24 -72 30 -86 28 -6 -1 -18 11 -24 26 -7 15 -17 31 -22 34 -5
4 -5 12 -2 18 4 6 2 11 -4 11 -6 0 -9 4 -6 9 10 16 -6 42 -22 36 -12 -4 -13
-3 -2 10 7 8 10 25 6 40 -4 14 -2 25 4 25 5 0 10 5 10 11 0 6 -7 9 -15 5 -19
-7 -20 20 -1 31 16 10 31 53 18 53 -5 0 -9 7 -9 15 0 10 4 12 12 5 15 -12 55
15 56 38 1 11 4 8 9 -8 l8 -25 1 26 c1 15 8 30 17 33 8 3 12 2 9 -4 -3 -6 -2
-10 4 -10 5 0 11 5 13 12 5 13 28 2 28 -13 0 -6 -5 -7 -12 -3 -7 4 -8 3 -4 -4
4 -7 18 -12 31 -12 14 0 35 -14 54 -35 17 -20 31 -34 32 -33 6 24 6 39 -2 44
-5 3 -5 12 0 23 7 12 5 32 -5 61 -11 31 -12 45 -4 50 7 5 6 11 -5 20 -14 12
-18 11 -26 -1 -5 -8 -9 -11 -10 -6 -1 4 -3 12 -4 17 -1 6 -3 13 -4 17 0 4 -6
2 -13 -5 -9 -9 -14 -8 -22 3 -6 8 -26 18 -43 21 -26 5 -33 3 -33 -9z"/>
<path d="M7341 3134 c-69 -182 -220 -439 -398 -674 -247 -327 -293 -380 -593
-680 -135 -135 -272 -277 -304 -315 -33 -39 -69 -78 -80 -89 -11 -10 -21 -23
-21 -30 -1 -6 -5 -20 -10 -30 -6 -13 -5 -21 3 -24 9 -3 9 -9 0 -25 -7 -12 -13
-24 -13 -27 -1 -3 -8 -18 -15 -35 -17 -37 -21 -58 -23 -110 -1 -22 -5 -45 -9
-50 -11 -18 -18 -104 -8 -110 5 -3 9 -38 8 -78 0 -40 5 -92 12 -116 6 -24 9
-54 6 -66 -3 -12 -3 -25 1 -29 4 -4 8 -12 9 -19 11 -74 13 -77 76 -169 7 -11
25 -18 43 -18 21 0 26 -3 16 -9 -11 -7 -10 -12 8 -27 11 -10 21 -26 21 -34 0
-13 7 -15 30 -12 17 2 44 -1 60 -8 22 -9 34 -10 43 -1 8 6 17 8 20 4 4 -3 7 1
7 9 0 13 19 28 36 28 2 0 4 -27 4 -59 0 -59 14 -88 26 -56 6 13 9 14 16 3 5
-8 6 -2 2 16 -6 26 -5 27 15 17 14 -8 21 -8 21 -1 0 5 -4 10 -10 10 -5 0 -10
8 -10 17 0 15 2 14 15 -4 8 -12 12 -28 9 -37 -8 -21 2 -20 37 4 43 32 65 15
63 -47 -2 -60 4 -72 25 -45 18 25 39 17 44 -16 4 -29 17 -40 18 -16 0 17 1 16
9 -3 11 -28 30 -30 30 -5 0 20 39 62 58 62 25 0 61 -32 66 -58 4 -15 7 -46 8
-69 1 -29 6 -43 15 -43 12 0 18 20 14 44 -1 5 11 5 26 2 15 -4 37 -8 47 -10
11 -1 23 -11 27 -22 8 -21 44 -54 59 -54 6 0 10 -4 10 -10 0 -6 35 -10 85 -10
47 0 85 3 85 6 0 3 -6 18 -14 32 -47 87 -70 149 -69 184 1 21 -2 36 -7 33 -5
-3 -12 5 -15 17 -4 13 -13 30 -20 38 -7 8 -15 33 -18 55 -3 22 -17 74 -32 115
-28 79 -46 210 -28 210 14 0 40 -65 54 -135 6 -33 21 -90 34 -127 13 -36 21
-69 18 -72 -3 -3 -1 -11 5 -18 10 -14 33 -89 29 -99 -1 -3 6 -13 16 -23 9 -10
17 -32 17 -52 0 -19 5 -34 10 -34 6 0 10 -9 10 -21 0 -11 5 -17 10 -14 6 4 10
-5 10 -19 0 -14 4 -26 8 -26 5 0 14 -11 20 -25 11 -24 45 -34 56 -16 3 4 -13
36 -34 69 -22 34 -40 68 -40 76 0 8 -5 18 -10 21 -6 4 -8 10 -5 15 3 5 -2 13
-11 18 -9 5 -14 15 -10 21 8 13 45 -32 69 -84 8 -16 42 -56 76 -88 50 -47 68
-57 96 -57 25 0 35 5 35 15 0 8 9 23 19 32 15 12 17 21 10 35 -7 14 -6 16 6
12 22 -9 19 20 -5 41 -18 17 -20 17 -14 2 3 -10 1 -17 -5 -17 -10 0 -16 20
-12 42 1 11 -84 48 -111 48 -13 0 -30 5 -38 11 -11 7 10 9 73 6 61 -3 87 -1
87 7 1 6 8 2 18 -10 11 -12 41 -25 81 -34 64 -13 179 -20 183 -10 2 3 18 16
36 29 33 23 33 25 27 75 -4 28 -12 60 -18 71 -6 11 -12 32 -14 47 -2 21 1 26
12 22 8 -4 12 -10 9 -15 -3 -5 -1 -9 5 -9 6 0 8 -7 5 -15 -4 -8 1 -17 9 -21 8
-3 22 -23 32 -45 10 -21 23 -39 30 -39 15 0 101 101 117 137 7 15 20 39 29 53
9 14 24 49 33 79 9 29 23 59 31 65 9 6 18 27 21 46 5 28 1 40 -20 63 -14 15
-29 27 -34 27 -16 0 -34 -97 -22 -119 6 -12 15 -21 20 -21 6 0 10 -4 10 -10 0
-17 -16 -11 -44 15 -30 28 -46 25 -46 -8 0 -30 -15 -53 -25 -37 -4 6 -5 14 -2
17 3 3 -7 16 -22 29 -20 16 -27 31 -26 51 3 38 -10 51 -43 45 -23 -4 -25 -3
-15 10 7 8 9 18 5 22 -4 4 2 14 12 22 14 10 16 14 5 14 -10 0 -15 14 -17 48
-2 26 -8 65 -14 87 -15 53 -15 56 -1 85 7 14 8 27 3 30 -5 3 -9 28 -8 55 2 91
-1 122 -12 105 -5 -8 -10 -10 -10 -5 0 6 10 19 22 29 21 18 21 20 3 26 -12 4
-15 9 -8 13 7 5 12 61 12 157 l2 150 -35 0 c-18 0 -36 -6 -38 -12 -9 -25 4
-98 17 -98 7 0 13 -10 14 -22 8 -137 4 -152 -34 -124 -18 13 -18 15 -1 60 19
50 15 72 -8 41 -13 -18 -14 -17 -30 8 -15 21 -16 41 -11 119 13 204 13 243 0
258 -6 8 -17 47 -24 85 -7 39 -17 93 -22 120 -6 28 -14 75 -19 107 -5 31 -16
76 -25 100 -21 61 -19 85 11 110 22 20 23 24 9 34 -13 10 -14 16 -5 34 11 21
5 60 -9 60 -11 0 -33 68 -26 80 6 10 2 27 -38 144 -17 48 -18 62 -8 78 7 11 8
17 3 14 -5 -3 -10 25 -11 67 -1 39 -4 86 -7 102 -2 17 -7 48 -9 70 -3 22 -9
63 -15 90 -6 28 -13 62 -17 78 -8 41 -19 33 -42 -29z"/>
<path d="M4270 2600 c-15 -21 -50 -28 -50 -10 0 6 -5 10 -11 10 -6 0 -9 -16
-7 -37 3 -32 8 -40 36 -52 20 -9 31 -20 28 -28 -7 -16 28 -53 49 -53 8 0 15
-8 15 -19 0 -22 25 -45 39 -37 5 3 12 -1 15 -10 5 -13 9 -14 21 -4 12 10 15
10 15 -3 0 -17 27 -30 42 -21 5 4 23 -3 39 -15 15 -11 35 -21 44 -21 9 0 29
-14 44 -31 21 -23 34 -29 49 -25 12 4 26 0 36 -10 9 -9 23 -13 32 -10 8 3 17
-1 21 -9 3 -10 12 -13 24 -10 13 4 19 1 19 -9 0 -18 5 -22 50 -31 31 -7 33 -6
21 9 -8 9 -11 19 -8 22 3 3 12 -3 19 -15 15 -24 33 -28 24 -5 -4 12 -1 14 14
9 11 -4 20 -2 20 4 0 6 9 11 20 11 22 0 27 -15 8 -26 -8 -5 -6 -10 8 -14 13
-5 22 -1 30 14 6 12 16 20 22 18 7 -1 12 10 12 25 l1 28 20 -24 c26 -31 85
-36 93 -8 3 11 9 16 16 12 27 -17 112 -21 245 -13 111 7 151 21 176 62 10 17
19 25 19 19 0 -7 5 -13 11 -13 5 0 7 5 4 10 -3 6 0 10 8 10 8 0 20 7 27 15 15
18 12 18 -46 4 -24 -6 -44 -15 -44 -20 0 -5 -11 -9 -24 -9 -14 0 -28 -5 -31
-10 -8 -13 -25 -3 -21 13 1 7 1 9 -1 5 -2 -4 -20 -12 -40 -19 -31 -10 -38 -9
-65 11 -31 23 -46 17 -49 -20 0 -10 -2 -11 -6 -2 -2 6 -18 12 -34 12 -18 0
-29 5 -29 14 0 19 25 27 40 13 10 -9 11 -9 6 0 -3 6 -20 18 -36 27 l-30 14 0
-32 c0 -17 4 -36 10 -42 5 -5 6 -15 0 -24 -9 -15 -8 -17 -25 37 -4 12 -9 13
-17 5 -8 -8 -8 -15 2 -27 7 -8 8 -15 4 -15 -5 0 -15 9 -22 20 -13 21 -56 27
-67 10 -4 -6 -1 -17 5 -25 10 -12 9 -15 -3 -15 -12 0 -24 20 -31 52 -3 15 -16
20 -16 6 0 -26 -23 -26 -49 -1 -20 19 -21 23 -7 23 9 0 15 4 12 9 -3 5 -25 7
-47 4 -39 -6 -41 -5 -34 15 9 32 -1 42 -34 32 -16 -4 -33 -4 -37 0 -11 10 -64
1 -64 -11 0 -5 5 -9 12 -9 9 0 8 -3 -1 -12 -10 -10 -15 -10 -18 -1 -2 7 -10
11 -16 9 -7 -1 -9 -1 -4 1 16 10 6 23 -18 23 -14 0 -29 8 -35 21 -7 12 -18 18
-26 15 -10 -4 -18 4 -25 24 -12 32 -29 41 -71 35 -15 -2 -32 3 -39 11 -6 8
-24 14 -40 14 -15 0 -34 7 -43 15 -8 8 -22 15 -30 15 -9 0 -16 8 -16 20 0 11
-4 20 -10 20 -5 0 -10 -8 -10 -17 -1 -16 -2 -16 -11 1 -9 14 -13 15 -19 6 -4
-7 -15 -10 -25 -7 -9 4 -14 11 -10 16 3 5 1 12 -5 16 -5 3 -10 -3 -10 -14 0
-22 -19 -30 -21 -8 -1 6 -2 21 -3 31 -2 27 -19 30 -36 6z"/>
<path d="M3790 685 c-8 -9 -7 -14 5 -18 8 -4 12 -13 9 -21 -3 -7 5 -23 17 -35
35 -33 14 -37 -31 -6 -29 20 -37 31 -28 36 9 6 6 9 -9 9 -33 0 -28 -14 15 -50
35 -29 36 -32 17 -42 -19 -11 -18 -12 10 -24 18 -8 23 -13 13 -14 -25 0 -23
-20 2 -20 25 0 27 -20 3 -20 -15 -1 -13 -4 7 -20 14 -11 30 -24 36 -29 8 -7
14 -1 18 19 4 22 10 28 21 23 12 -4 13 -9 6 -16 -18 -18 -13 -27 14 -27 14 0
25 -5 25 -11 0 -6 7 -8 16 -5 10 4 25 -1 34 -9 11 -10 20 -12 24 -7 4 7 17 6
36 -1 38 -14 49 -3 23 26 -11 12 -23 30 -26 39 -4 11 -13 15 -26 11 -12 -3
-18 -9 -15 -15 8 -13 -46 1 -76 20 -17 11 -20 17 -11 20 7 2 17 -2 22 -9 4 -7
11 -10 15 -6 4 4 13 2 21 -4 16 -14 16 -8 1 28 -21 47 -56 74 -43 33 4 -11 2
-20 -4 -20 -6 0 -11 7 -11 15 0 8 -4 15 -10 15 -5 0 -10 9 -10 19 0 11 -6 22
-12 24 -10 4 -10 6 0 6 18 1 15 28 -7 50 -13 13 -21 16 -24 8 -2 -7 -14 -1
-30 15 -21 21 -28 23 -37 13z"/>
<path d="M8566 567 c-9 -7 -17 -24 -18 -39 -1 -16 -6 -28 -9 -28 -4 0 -14 -3
-23 -6 -10 -4 -16 -1 -17 7 0 8 -14 25 -30 38 -27 21 -33 22 -62 10 -18 -7
-35 -17 -39 -22 -7 -12 17 -97 30 -106 12 -8 23 -40 28 -81 4 -33 3 -34 -12
-15 -8 11 -27 40 -41 65 -30 52 -61 80 -80 73 -8 -3 -22 2 -33 12 -10 9 -23
14 -29 11 -16 -11 -19 18 -3 37 15 16 14 17 -14 15 -16 -1 -35 1 -42 6 -7 4
-12 2 -13 -6 -1 -7 -2 -20 -3 -28 0 -8 -9 -14 -18 -12 -11 2 -18 -3 -18 -13 0
-8 -6 -15 -14 -15 -8 0 -17 -7 -20 -16 -9 -24 -7 -31 5 -11 15 25 23 21 42
-18 17 -35 10 -46 -15 -22 -22 20 -36 18 -34 -6 5 -40 28 -102 43 -114 12 -10
13 -18 3 -47 -6 -20 -18 -36 -26 -36 -8 0 -14 -4 -14 -9 0 -5 -17 -16 -39 -24
-38 -16 -38 -16 -31 -58 4 -23 12 -44 18 -48 5 -3 12 -17 13 -31 l4 -25 443
-3 c406 -2 442 -1 442 14 0 9 -9 25 -21 35 -11 10 -21 24 -23 31 -1 7 -5 19
-9 25 -5 7 -6 13 -3 13 3 0 -5 10 -17 23 -12 13 -25 22 -30 20 -8 -5 -15 10
-20 47 -2 14 -11 42 -21 62 -9 21 -16 44 -16 53 0 8 -5 15 -11 15 -6 0 -9 10
-7 23 2 14 -8 33 -29 54 -38 39 -48 66 -33 94 18 33 -5 69 -43 69 -23 0 -28
-3 -23 -16 5 -13 3 -14 -6 -7 -24 18 -46 22 -62 10z"/>
<path d="M7995 385 c-54 -41 -60 -49 -60 -82 0 -21 -6 -38 -13 -41 -28 -9 -71
-53 -65 -68 3 -8 -2 -26 -12 -40 -9 -14 -14 -28 -11 -32 3 -3 6 0 6 6 0 13 54
44 73 41 35 -4 47 2 47 26 0 14 -4 25 -10 25 -20 0 -10 35 17 57 34 29 45 29
37 -1 -7 -29 2 -35 44 -29 37 6 52 40 33 76 -6 12 -15 41 -19 64 l-7 43 -60
-45z"/>
</g>
</svg>
