<?xml version="1.0" standalone="no"?>
<!DOCTYPE svg PUBLIC "-//W3C//DTD SVG 20010904//EN"
 "http://www.w3.org/TR/2001/REC-SVG-20010904/DTD/svg10.dtd">
<svg version="1.0" xmlns="http://www.w3.org/2000/svg"
 width="1024.000000pt" height="1024.000000pt" viewBox="0 0 1024.000000 1024.000000"
 preserveAspectRatio="xMidYMid meet">
<metadata>
Created by potrace 1.16, written by Peter Selinger 2001-2019
</metadata>
<g transform="translate(0.000000,1024.000000) scale(0.100000,-0.100000)"
fill="#000000" stroke="none">
<path d="M0 5120 l0 -5120 1436 0 c850 0 1433 4 1430 9 -3 5 -21 26 -38 46
-18 20 -33 40 -34 43 -2 21 -25 59 -44 76 -18 14 -20 20 -10 26 11 7 11 11 1
24 -18 21 -35 20 -27 0 5 -14 4 -15 -8 -4 -14 11 -14 14 0 27 14 14 13 18 -8
42 -13 14 -26 27 -30 29 -5 2 -8 8 -8 13 0 12 37 12 45 -1 9 -15 41 -12 55 6
11 13 10 16 -6 20 -24 6 -57 61 -42 70 7 4 5 10 -6 16 -9 5 -16 20 -16 33 0
13 -5 25 -12 27 -21 7 0 41 22 35 17 -4 20 0 20 33 0 30 -5 40 -20 45 -11 3
-20 13 -20 21 0 8 -7 17 -15 20 -8 4 -15 10 -15 16 0 5 4 7 8 4 5 -3 31 -8 58
-11 59 -8 65 -13 69 -56 2 -23 9 -35 25 -41 24 -9 44 -2 35 13 -4 5 -2 9 4 9
6 0 15 9 21 20 9 17 6 25 -15 46 -27 27 -59 26 -48 -1 5 -14 8 -14 15 -3 8 10
9 10 5 -2 -5 -21 -28 -19 -41 5 -6 11 -18 25 -26 32 -13 11 -13 12 3 13 11 0
17 6 15 18 -2 11 4 18 20 20 12 2 22 8 22 13 0 13 -44 11 -57 -2 -8 -8 -13 -8
-17 0 -4 6 0 11 8 11 21 0 30 18 17 34 -9 11 -6 12 14 9 15 -3 29 -17 37 -34
7 -16 16 -29 20 -29 16 0 37 13 33 20 -3 5 -1 11 4 15 6 3 8 12 5 19 -15 40
70 9 128 -45 45 -45 73 -64 117 -84 24 -10 59 -31 78 -46 19 -16 54 -38 79
-49 24 -12 44 -26 44 -31 0 -6 4 -8 9 -4 12 7 82 -61 78 -77 -1 -7 8 -17 21
-23 12 -5 22 -13 22 -17 0 -5 7 -8 15 -8 8 0 15 -4 15 -10 0 -5 9 -10 20 -10
11 0 20 -6 20 -12 0 -14 61 -67 100 -88 13 -7 31 -19 38 -27 7 -7 20 -13 28
-13 8 0 14 -8 14 -19 0 -10 6 -24 14 -30 14 -12 16 -35 3 -47 -13 -14 -7 -22
22 -27 18 -4 30 -14 34 -28 5 -17 11 -20 31 -15 21 5 24 3 19 -10 -4 -11 5
-26 27 -45 l33 -29 271 0 c281 0 318 3 310 25 -3 7 5 15 20 19 14 3 31 16 37
28 20 38 39 52 51 40 8 -8 14 -5 22 11 7 12 20 23 31 26 11 2 23 9 27 16 4 7
28 16 53 19 25 4 71 19 102 33 31 14 98 34 150 44 51 11 107 26 123 34 16 8
35 12 43 9 9 -3 29 2 46 10 16 9 46 16 65 16 20 0 50 9 67 19 22 14 42 17 70
14 29 -4 43 -2 52 10 15 20 67 34 67 17 0 -6 -4 -8 -10 -5 -12 8 -59 -26 -60
-42 0 -7 7 -13 15 -13 21 0 19 -16 -5 -33 -21 -15 -42 -86 -22 -73 7 4 12 2
12 -5 0 -7 -8 -9 -21 -6 -14 4 -19 2 -16 -8 3 -7 0 -18 -6 -24 -8 -8 -8 -11 1
-11 7 0 12 -7 12 -15 0 -8 5 -15 10 -15 6 0 10 -4 10 -10 0 -5 -6 -7 -14 -4
-11 4 -17 -5 -21 -30 -4 -19 -13 -40 -21 -47 -8 -6 -14 -20 -14 -30 0 -17 8
-19 73 -19 66 0 76 3 110 31 40 33 66 33 29 0 -12 -10 -22 -21 -22 -25 0 -3
1058 -6 2350 -6 l2350 0 0 5120 0 5120 -5120 0 -5120 0 0 -5120z m4136 4943
c16 -6 16 -7 -2 -14 -14 -6 -9 -8 21 -10 22 -2 52 -2 67 -1 31 2 47 -16 27
-29 -8 -5 -37 -9 -66 -9 -28 0 -62 -4 -75 -9 -13 -4 -67 -11 -122 -15 -54 -3
-104 -10 -111 -16 -15 -13 -135 -21 -135 -10 0 5 -8 10 -17 12 -10 2 11 9 46
16 35 6 68 9 74 5 5 -3 8 0 5 8 -3 8 -14 15 -26 17 -12 2 -22 8 -22 14 0 7 16
9 43 5 39 -5 85 2 192 33 38 10 79 12 101 3z m1018 -761 c2 -4 33 -5 69 -2 47
4 63 2 60 -6 -4 -12 -99 -32 -178 -38 -22 -2 -58 -10 -80 -19 -42 -16 -133
-37 -165 -37 -10 0 -17 6 -16 13 3 22 17 37 34 37 15 -1 15 -2 -2 -15 -19 -15
-19 -15 2 -15 15 0 26 9 32 25 6 16 15 23 24 19 9 -3 30 3 48 14 22 14 51 20
87 21 29 0 56 2 59 5 8 8 20 7 26 -2z m-1106 -189 c-2 -22 -11 -30 -36 -39
-18 -5 -29 -13 -26 -17 4 -4 1 -7 -7 -7 -8 0 -21 -9 -29 -20 -8 -11 -19 -20
-25 -20 -6 0 -26 -16 -45 -35 -19 -19 -38 -35 -43 -35 -4 0 -28 -13 -52 -30
-60 -41 -73 -38 -36 9 33 41 37 51 21 51 -5 0 -10 -7 -10 -15 0 -8 -5 -15 -10
-15 -6 0 -22 -11 -36 -25 -13 -13 -34 -29 -45 -36 -19 -10 -20 -9 -9 10 6 12
14 21 19 21 5 0 30 21 57 46 27 25 73 62 102 82 28 19 52 38 52 42 0 5 8 6 19
3 10 -3 40 9 67 26 62 39 76 39 72 4z m882 -15 c0 -3 -16 -12 -35 -18 -39 -13
-53 -29 -35 -40 19 -11 -73 -70 -100 -63 -16 4 -23 0 -27 -16 -3 -11 -10 -21
-15 -21 -5 0 -6 5 -2 12 5 8 2 9 -12 4 -10 -4 -31 -10 -47 -13 -22 -5 -26 -3
-21 11 4 11 2 15 -7 13 -8 -2 -11 -2 -6 0 4 3 7 14 7 24 0 11 4 18 9 14 10 -5
138 41 156 56 5 5 15 9 23 9 8 0 25 9 38 19 22 18 74 24 74 9z m228 -10 c3
-14 -4 -18 -30 -18 -18 -1 -44 -8 -58 -16 -25 -15 -25 -15 10 -9 78 14 132 17
142 7 7 -7 -5 -13 -38 -17 -68 -9 -85 -15 -79 -26 7 -10 -20 -22 -72 -34 -27
-5 -33 -3 -33 10 0 13 -6 15 -32 10 -18 -4 -45 -15 -61 -26 -15 -11 -31 -18
-36 -15 -5 3 -11 -2 -13 -12 -3 -12 -24 -21 -66 -31 -68 -15 -104 -10 -57 8
17 7 42 24 56 37 17 16 29 22 33 15 10 -16 26 -13 20 3 -7 18 9 27 55 33 52 7
109 21 89 22 -44 3 9 41 56 41 13 0 34 9 47 20 28 23 62 22 67 -2z m-138 -287
c0 -5 -5 -11 -12 -13 -6 -2 -8 -10 -4 -17 5 -8 18 -10 39 -5 18 4 37 7 44 7 7
0 11 5 10 11 -1 6 8 12 21 14 35 5 27 -23 -13 -48 -35 -21 -46 -40 -24 -40 8
0 7 -5 -2 -16 -8 -10 -24 -14 -46 -12 -22 3 -33 0 -33 -9 0 -7 9 -13 20 -13
18 0 30 -30 13 -30 -5 0 -18 -3 -30 -6 -17 -5 -23 -2 -23 10 0 20 -24 21 -40
1 -10 -12 -15 -13 -21 -4 -10 17 -59 -4 -59 -25 0 -19 -67 -33 -83 -17 -6 6
-7 11 -1 12 5 0 -9 6 -31 13 -32 10 -44 10 -59 0 -18 -12 -44 -11 -86 3 -17 5
58 37 113 47 19 3 47 20 63 36 33 33 56 39 48 13 -5 -17 -5 -17 8 -1 8 10 26
22 39 28 13 6 49 24 79 40 60 32 70 35 70 21z m-1 -280 c-44 -37 -22 -49 36
-21 46 22 62 47 24 37 -16 -4 -18 -3 -8 9 13 16 49 19 49 5 0 -5 3 -16 6 -24
3 -10 -2 -18 -15 -22 -12 -3 -21 -11 -21 -16 0 -15 48 -10 58 7 8 14 12 14 44
-2 32 -15 35 -19 22 -31 -11 -12 -18 -12 -29 -3 -10 9 -28 8 -75 -1 -33 -6
-63 -16 -66 -20 -8 -14 -24 -10 -24 5 0 19 -33 12 -117 -27 -13 -6 -23 -17
-23 -24 0 -10 -7 -8 -22 7 -12 11 -27 20 -32 20 -6 0 -16 11 -23 25 -6 14 -7
25 -2 25 5 0 9 -4 9 -8 0 -12 55 -6 56 6 1 7 2 14 3 16 0 2 16 0 35 -4 29 -6
35 -5 39 11 3 11 21 26 40 34 20 8 39 19 42 25 4 6 11 8 17 4 5 -3 -5 -18 -23
-33z m1811 -61 c14 -33 19 -35 67 -21 l31 9 -5 -35 c-5 -26 -3 -34 6 -29 16
11 68 -30 75 -59 4 -16 13 -25 25 -25 19 0 61 -66 61 -95 0 -8 4 -15 9 -15 5
0 13 -10 16 -22 4 -13 20 -44 36 -69 16 -25 29 -53 29 -62 0 -10 7 -17 15 -17
8 0 15 -8 15 -17 0 -10 14 -45 30 -78 17 -33 30 -70 30 -82 0 -12 7 -41 16
-63 9 -23 14 -44 10 -47 -3 -3 -2 -11 3 -17 4 -6 14 -33 21 -60 9 -32 20 -50
32 -54 12 -3 17 -10 13 -22 -10 -30 4 -51 26 -39 13 6 19 6 19 -1 0 -5 -4 -10
-10 -10 -5 0 -10 -9 -10 -19 0 -11 -5 -23 -11 -26 -6 -4 -1 -19 15 -40 14 -18
22 -35 19 -39 -4 -3 2 -6 11 -6 12 0 16 5 12 15 -7 20 8 19 25 -1 7 -9 12 -31
10 -50 -3 -37 17 -48 26 -14 3 12 10 19 16 17 15 -5 19 -78 5 -94 -8 -10 -6
-19 11 -36 11 -13 21 -30 21 -39 0 -9 6 -21 14 -27 17 -15 48 -100 40 -112 -3
-5 0 -9 6 -9 6 0 8 -4 5 -10 -3 -5 1 -10 9 -10 16 0 31 -18 22 -27 -3 -3 -13
0 -22 8 -16 13 -17 11 -10 -25 4 -21 12 -50 18 -65 11 -26 12 -34 21 -146 5
-57 36 -155 59 -183 6 -7 7 -16 3 -20 -4 -4 -13 2 -21 13 -7 11 -20 29 -29 40
-15 19 -15 19 -9 -7 10 -44 11 -88 2 -88 -16 0 -7 -18 11 -23 10 -2 25 -15 32
-28 11 -22 11 -23 -4 -11 -14 12 -19 12 -32 -2 -9 -9 -23 -16 -31 -16 -8 0
-12 -5 -9 -10 7 -11 18 -74 17 -100 0 -8 -2 -67 -5 -130 -3 -63 -1 -137 5
-165 5 -27 9 -66 9 -85 -1 -19 6 -69 14 -111 9 -42 17 -105 19 -140 2 -35 8
-82 14 -104 5 -22 10 -62 11 -88 1 -28 7 -55 16 -63 8 -8 12 -21 9 -29 -3 -8
1 -24 9 -35 15 -22 12 -60 -5 -60 -15 0 26 -49 42 -50 8 -1 2 -7 -15 -15 -30
-13 -30 -14 -7 -21 19 -5 22 -11 17 -33 -4 -14 -11 -28 -16 -31 -4 -3 -6 -22
-2 -43 3 -20 10 -34 15 -31 4 3 7 12 6 19 -2 8 2 15 7 17 6 2 11 -17 13 -42 2
-29 -1 -40 -7 -31 -6 10 -13 11 -27 2 -16 -9 -16 -10 -3 -11 12 0 16 -8 13
-36 -1 -20 1 -46 5 -58 5 -12 4 -28 -3 -39 -9 -15 -7 -21 8 -33 12 -8 15 -14
7 -14 -8 0 -11 -6 -6 -17 12 -32 16 -151 4 -158 -6 -5 -4 -12 8 -21 16 -12 16
-15 3 -24 -12 -9 -10 -10 10 -5 23 6 24 5 7 -8 -17 -14 -17 -16 7 -43 14 -17
26 -23 26 -15 0 9 8 11 25 7 18 -5 25 -2 25 8 0 8 18 28 39 45 26 21 42 43 48
68 9 38 42 68 50 46 9 -26 23 -12 24 25 0 39 16 127 18 103 0 -8 4 -11 8 -7 5
4 13 -12 18 -35 6 -23 16 -44 23 -47 9 -3 10 3 2 22 -11 30 -7 240 5 271 5 11
16 31 25 45 9 14 20 39 24 55 9 34 33 65 52 65 27 0 33 -34 17 -95 -46 -186
-51 -251 -30 -396 19 -122 -8 -305 -69 -471 -7 -20 -16 -60 -19 -90 -4 -29
-19 -87 -35 -128 -16 -41 -34 -93 -41 -115 -6 -22 -22 -59 -35 -82 -13 -24
-20 -43 -16 -43 4 0 -2 -7 -13 -16 -11 -8 -20 -18 -20 -22 -1 -4 -19 -34 -40
-67 -63 -95 -74 -127 -79 -228 -7 -149 -40 -213 -128 -254 -21 -9 -38 -19 -38
-22 0 -3 -18 -7 -40 -9 -22 -1 -40 2 -40 8 0 5 -4 10 -9 10 -8 0 -26 -47 -23
-62 1 -4 -3 -20 -9 -35 -6 -15 -11 -45 -11 -65 0 -25 -5 -38 -14 -38 -8 0 -14
-10 -14 -25 0 -14 4 -25 9 -25 10 0 3 -71 -10 -107 -5 -13 -16 -23 -25 -23
-12 0 -15 -8 -12 -35 1 -20 -2 -39 -8 -43 -14 -9 -24 -51 -14 -57 10 -6 -18
-65 -31 -65 -5 0 -9 -9 -9 -19 0 -10 -9 -38 -19 -62 -11 -24 -17 -47 -15 -51
3 -5 -4 -20 -15 -34 -12 -15 -21 -35 -21 -45 0 -10 -4 -21 -10 -24 -5 -3 -10
-14 -10 -25 0 -10 -7 -21 -16 -24 -8 -3 -13 -10 -10 -15 3 -4 -4 -17 -15 -27
-14 -12 -18 -25 -14 -41 3 -13 1 -23 -4 -23 -5 0 -12 -16 -15 -36 -6 -29 -10
-33 -22 -24 -11 10 -14 9 -14 -3 0 -9 -8 -31 -18 -49 -10 -18 -17 -38 -15 -45
2 -6 -7 -19 -20 -28 -13 -8 -32 -33 -43 -55 -10 -22 -25 -40 -31 -40 -7 0 -13
-11 -13 -23 0 -23 -49 -77 -70 -77 -5 0 -10 -6 -10 -14 0 -7 -7 -19 -15 -26
-9 -7 -13 -21 -10 -31 4 -11 3 -19 -2 -19 -16 0 -94 -78 -83 -85 5 -3 10 -11
10 -16 0 -6 -4 -7 -10 -4 -5 3 -10 2 -10 -3 0 -6 -16 -13 -35 -16 -25 -5 -35
-12 -35 -25 0 -10 -6 -24 -14 -31 -8 -6 -12 -19 -9 -28 6 -15 5 -15 -14 0 -16
15 -22 16 -35 5 -20 -16 -30 -45 -16 -49 7 -3 9 -12 5 -22 -5 -13 -15 -17 -32
-14 -14 3 -26 0 -29 -8 -6 -16 -36 -19 -36 -4 0 21 -20 9 -44 -27 -27 -39 -73
-65 -104 -56 -13 3 -31 -8 -58 -35 -49 -50 -93 -102 -86 -102 3 0 -7 -11 -22
-25 -15 -14 -31 -25 -35 -25 -5 0 -11 -9 -14 -20 -3 -14 -14 -20 -32 -20 -15
0 -24 -4 -20 -10 10 -16 -28 -70 -52 -76 -13 -4 -23 -10 -23 -16 0 -5 -4 -7
-9 -4 -5 3 -16 -5 -24 -18 -10 -15 -25 -24 -43 -24 -14 0 -30 -5 -34 -12 -4
-7 -19 -11 -32 -8 -14 3 -30 -2 -38 -10 -10 -11 -15 -12 -18 -4 -2 7 -8 12
-14 12 -6 0 -7 -8 -4 -17 4 -10 4 -14 0 -10 -4 4 -13 2 -21 -4 -9 -9 -17 -8
-27 0 -18 15 -56 -2 -56 -26 0 -12 -7 -14 -31 -9 -17 3 -42 6 -55 6 -15 0 -24
6 -24 15 0 8 -9 15 -20 15 -11 0 -20 5 -20 11 0 5 -4 7 -10 4 -5 -3 -10 -14
-10 -24 0 -10 -7 -25 -16 -32 -13 -11 -24 -10 -67 5 -47 17 -52 17 -63 1 -8
-11 -14 -13 -19 -5 -9 14 -126 5 -136 -11 -4 -8 -12 -8 -26 -1 -14 8 -23 8
-32 -1 -9 -9 -16 -9 -30 0 -14 9 -36 10 -81 2 -35 -5 -65 -8 -68 -5 -2 3 -17
-1 -32 -9 -15 -8 -30 -11 -34 -8 -3 4 -6 1 -6 -5 0 -6 -6 -9 -14 -6 -8 3 -13
-1 -13 -10 1 -8 -2 -16 -8 -18 -5 -2 -10 6 -10 16 0 11 -6 21 -13 24 -7 2 -11
0 -10 -5 2 -4 -1 -8 -7 -8 -5 0 -9 3 -8 7 5 14 -65 19 -126 9 -2 -1 2 -8 9
-16 7 -9 11 -17 9 -19 -6 -6 -106 18 -115 27 -10 9 -37 9 -31 0 3 -5 -5 -9
-18 -9 -13 -1 -26 5 -29 13 -5 13 -9 13 -22 2 -8 -7 -14 -8 -12 -3 1 5 -5 18
-14 29 -10 11 -23 28 -30 37 -14 19 -98 33 -98 17 0 -6 -4 -8 -10 -4 -5 3 -7
12 -3 20 3 10 -2 15 -16 15 -12 0 -24 7 -27 15 -4 10 -15 12 -36 8 -22 -4 -29
-2 -27 8 4 19 -23 59 -39 59 -7 0 -11 4 -8 9 4 5 4 16 0 24 -7 19 -44 10 -44
-10 0 -9 -14 0 -35 23 -19 21 -35 42 -35 46 0 19 -2 24 -17 40 -9 10 -19 16
-22 13 -14 -8 -36 15 -36 37 0 13 -5 22 -12 20 -7 -1 -13 5 -13 13 0 8 -5 15
-10 15 -6 0 -9 3 -8 8 3 14 -24 67 -29 55 -7 -18 -23 -16 -23 2 0 22 -39 95
-50 95 -6 0 -10 -4 -10 -9 0 -18 -35 -4 -38 15 -2 14 -1 16 6 6 7 -11 10 -11
15 2 5 12 0 16 -17 16 -15 0 -26 7 -29 20 -4 17 -2 18 14 9 13 -6 19 -6 19 0
0 6 -10 16 -22 22 -33 18 -58 48 -51 65 3 8 0 14 -7 14 -6 0 -10 10 -9 23 1
12 -1 30 -6 40 -4 10 -2 24 6 35 13 15 12 16 -3 3 -15 -11 -21 -11 -33 -1 -8
7 -15 8 -15 2 0 -5 -9 -12 -20 -15 -12 -3 -20 -14 -20 -26 0 -25 -15 -28 -24
-4 -5 11 2 24 20 39 14 13 23 28 19 33 -10 17 -19 13 -30 -11 -7 -16 -19 -23
-37 -23 -22 -1 -28 4 -33 32 -3 18 -9 33 -13 33 -11 0 -32 51 -32 76 0 31 -20
41 -38 18 -13 -18 -14 -17 -9 10 6 39 -1 56 -23 56 -10 0 -22 9 -25 20 -3 11
-12 20 -20 20 -17 0 -27 27 -12 33 14 5 -19 47 -37 47 -13 0 -46 55 -46 78 0
9 -9 28 -20 42 -11 14 -20 30 -20 37 0 7 -13 35 -30 63 -16 28 -30 55 -30 59
0 5 -6 14 -14 20 -7 6 -13 22 -13 36 0 26 -48 124 -69 140 -7 5 -17 29 -23 51
-6 23 -18 47 -26 54 -12 10 -13 16 -4 26 9 11 8 14 -1 14 -7 0 -10 7 -6 16 4
9 2 22 -4 29 -6 7 -10 17 -8 21 1 5 -3 18 -8 29 -12 22 -13 104 -1 122 4 6 1
13 -5 16 -10 3 -8 9 5 24 9 11 17 31 17 45 0 13 3 28 7 32 4 3 8 14 9 22 1 9
12 22 23 30 11 8 18 20 15 28 -7 19 15 33 66 39 24 3 46 11 48 16 2 6 8 11 14
11 15 0 34 23 41 52 6 21 3 28 -13 33 -11 3 -24 3 -30 0 -6 -3 -13 1 -17 11
-6 16 -7 15 -20 -2 -10 -14 -13 -14 -13 -3 0 8 5 20 11 26 13 13 4 47 -10 38
-5 -3 -13 0 -17 6 -4 8 -9 7 -15 -2 -6 -10 -9 -8 -9 9 0 12 -4 22 -9 22 -5 0
-8 20 -7 45 4 49 -12 60 -36 26 -14 -20 -82 -33 -84 -16 -5 31 -18 54 -36 58
-11 3 -22 15 -25 27 -4 15 -11 19 -27 15 -16 -5 -18 -4 -6 4 12 9 12 11 -3 17
-9 3 -17 14 -17 24 0 9 -9 25 -20 35 -11 10 -20 23 -20 29 0 6 -9 17 -21 24
-13 8 -18 19 -15 29 8 19 -11 44 -27 37 -7 -2 -18 5 -25 17 -12 18 -11 21 7
26 24 6 28 23 6 23 -8 0 -15 5 -15 10 0 6 5 10 10 10 7 0 7 6 2 17 -5 10 -8
23 -5 29 2 6 -8 16 -22 24 -16 9 -22 17 -16 23 7 7 7 17 0 29 -5 10 -7 18 -4
18 4 0 3 5 -1 11 -4 8 -9 7 -15 -2 -6 -9 -9 8 -7 46 1 33 6 66 11 73 7 8 4 12
-10 12 -15 0 -23 11 -32 41 -11 38 -13 39 -26 23 -10 -14 -10 -21 -2 -27 7 -4
-1 -5 -18 -1 -43 10 -50 20 -32 48 14 21 14 26 2 36 -8 7 -15 18 -15 25 0 7
-7 15 -15 19 -8 3 -15 9 -14 13 4 27 -3 63 -11 58 -5 -3 -10 1 -10 9 0 11 -10
16 -30 16 -26 0 -29 2 -18 14 9 10 15 10 20 3 4 -6 10 -8 14 -5 8 8 -46 68
-61 68 -5 0 -10 23 -10 50 0 42 2 48 12 34 10 -14 11 -10 9 22 -2 22 -4 45 -5
52 -1 6 -12 12 -25 12 -26 0 -40 14 -48 46 -5 18 0 23 23 28 16 3 29 10 29 16
0 6 -8 9 -17 6 -10 -3 -24 -1 -32 3 -12 8 -12 12 -2 25 9 11 10 16 2 16 -6 0
-22 18 -37 41 -24 39 -25 41 -7 55 17 12 17 13 1 14 -10 0 -18 2 -18 4 0 2 -3
12 -6 20 -4 11 -2 15 7 11 8 -3 21 8 32 26 16 30 16 31 -1 36 -24 6 -22 58 3
97 16 24 17 32 6 62 -13 37 -8 56 13 48 18 -7 31 13 18 29 -5 7 -12 36 -14 65
-5 46 -3 54 16 64 12 6 23 12 24 14 2 1 -2 19 -9 38 -11 32 -11 38 3 53 12 12
21 13 30 6 26 -21 90 -54 96 -49 5 6 -32 42 -49 48 -5 2 -12 20 -16 41 -6 37
-6 37 25 31 27 -5 30 -4 26 13 -4 15 0 18 23 17 23 -1 27 -5 25 -24 -2 -14 0
-20 7 -16 6 4 11 1 11 -7 0 -8 12 -20 28 -26 15 -7 38 -27 52 -46 14 -19 35
-39 48 -46 19 -11 25 -9 45 9 15 15 36 22 61 22 31 0 44 7 77 42 21 23 39 37
39 31 0 -7 -10 -19 -22 -28 -22 -15 -22 -17 -5 -29 9 -7 17 -16 17 -19 0 -13
-68 -69 -107 -88 -24 -11 -43 -28 -43 -36 0 -13 -2 -13 -17 -2 -15 12 -16 12
-10 -4 4 -11 1 -20 -8 -23 -30 -12 -14 -26 25 -22 43 4 52 -5 20 -22 -27 -14
-26 -33 1 -25 12 4 27 8 33 9 12 2 68 40 98 66 37 34 48 40 48 31 0 -6 11 -13
25 -17 19 -5 25 -13 25 -35 0 -31 56 -119 76 -119 7 0 18 -2 26 -5 8 -3 18 7
26 25 8 18 21 30 32 30 10 0 22 5 25 10 4 7 11 7 18 2 19 -15 87 -24 87 -12 0
6 -6 10 -12 8 -25 -5 -68 13 -68 27 0 8 -6 15 -14 15 -7 0 -16 9 -19 21 -3 11
-15 23 -26 26 -14 3 -21 13 -21 29 0 27 24 33 34 9 4 -10 17 -15 38 -14 18 1
38 1 43 -1 28 -7 33 2 31 45 -4 57 11 79 47 70 17 -5 27 -14 27 -25 0 -10 6
-23 13 -29 8 -6 20 -29 27 -52 17 -51 36 -60 157 -74 99 -11 113 -10 113 10 0
20 39 29 66 14 20 -10 27 -10 44 6 35 32 69 116 73 183 2 34 6 65 9 68 7 7 84
-31 93 -46 3 -5 14 -10 24 -10 10 0 37 -18 60 -40 22 -22 45 -40 49 -40 5 0
17 -9 26 -19 10 -11 28 -22 41 -25 12 -3 25 -15 28 -27 3 -12 10 -18 16 -14 6
3 11 1 11 -5 0 -7 15 -2 35 10 34 21 73 21 60 0 -3 -5 0 -10 8 -10 8 0 17 -7
21 -15 7 -20 26 -19 26 0 0 9 -10 19 -23 24 -12 5 -47 33 -77 62 -29 30 -60
53 -68 51 -8 -2 -11 1 -8 6 9 14 -29 43 -47 36 -10 -4 -35 6 -62 24 -25 16
-79 44 -120 63 -41 18 -75 36 -75 41 0 4 -11 8 -24 8 -13 0 -39 8 -58 17 -64
32 -67 33 -74 22 -8 -13 -75 -6 -120 12 -16 7 -32 12 -36 11 -4 -1 -12 7 -18
18 -25 46 83 66 243 45 46 -6 60 -12 67 -29 7 -16 9 -17 9 -4 1 13 8 16 34 12
77 -9 207 -61 245 -98 10 -9 51 -44 92 -77 41 -34 77 -64 80 -68 3 -3 23 -19
45 -36 44 -32 57 -47 76 -85 7 -14 26 -40 43 -57 35 -38 38 -53 37 -150 -1
-65 1 -73 17 -73 21 0 45 24 56 55 6 16 9 17 16 5 8 -12 10 -10 10 8 0 12 -5
22 -11 22 -5 0 -8 4 -5 9 4 5 15 5 29 -2 28 -13 28 -52 -1 -99 -17 -27 -21
-46 -17 -75 4 -30 0 -44 -15 -61 -14 -14 -20 -33 -18 -55 1 -18 -2 -38 -6 -45
-4 -7 -3 -12 2 -12 13 0 22 -53 11 -65 -15 -15 -10 -33 16 -59 16 -16 31 -23
42 -19 31 12 53 37 53 60 0 26 10 29 29 11 11 -11 13 -7 9 20 -3 17 -1 32 4
32 4 0 8 10 8 23 0 18 2 19 10 7 5 -8 10 -12 10 -7 0 19 2 23 16 30 9 5 18 6
21 4 9 -10 -9 -68 -27 -85 -22 -21 -16 -82 7 -82 9 0 13 6 10 15 -4 8 6 24 22
37 33 29 45 56 30 74 -7 9 -7 18 0 33 8 13 8 22 1 26 -6 4 -8 10 -5 15 3 5 1
11 -5 15 -5 3 -10 15 -10 27 0 11 -8 22 -20 25 -23 6 -25 14 -8 31 9 9 8 12
-6 12 -15 0 -17 5 -11 28 4 15 9 65 10 112 2 47 6 95 8 107 7 27 -25 58 -50
48 -16 -6 -15 -8 7 -20 19 -11 21 -14 8 -15 -10 0 -18 -7 -18 -15 0 -8 -5 -15
-11 -15 -6 0 -8 9 -4 20 4 12 2 20 -4 20 -8 0 -9 18 -5 53 5 42 3 57 -10 69
-13 13 -14 22 -6 44 8 19 8 30 0 38 -5 5 -10 29 -10 53 0 24 -4 43 -10 43 -5
0 -10 9 -10 20 0 11 -7 23 -15 26 -8 4 -15 17 -15 30 0 13 -4 24 -9 24 -5 0
-12 14 -16 30 -4 17 -13 30 -21 30 -9 0 -12 5 -9 11 11 17 -66 80 -95 77 -18
-2 -28 3 -35 19 -5 12 -20 23 -37 25 -23 4 -29 0 -38 -26 -12 -31 -12 -31 -21
-8 -5 14 -5 30 0 40 5 9 10 21 11 26 1 8 -63 56 -76 56 -9 0 -54 49 -54 59 0
14 -70 87 -70 73 0 -7 8 -22 18 -32 10 -11 28 -38 41 -60 29 -52 6 -43 -37 15
-33 46 -91 72 -126 59 -10 -4 -25 1 -36 11 -26 23 -26 39 -1 25 43 -22 55 -4
21 30 -21 21 -94 28 -105 10 -6 -10 -60 -7 -109 6 -12 3 -60 0 -106 -7 -47 -6
-109 -14 -139 -18 -29 -4 -59 -14 -65 -23 -6 -8 -28 -20 -48 -27 -21 -7 -40
-16 -43 -21 -3 -5 -30 -6 -60 -3 -49 5 -55 4 -56 -13 0 -11 -3 -13 -6 -6 -2 6
-18 12 -34 12 -17 0 -32 6 -35 15 -4 8 -9 13 -13 11 -3 -2 -6 14 -5 35 0 27
-3 36 -10 29 -5 -5 -18 -10 -29 -10 -12 0 -16 -4 -11 -12 4 -7 -5 -2 -19 11
-15 13 -24 28 -21 32 7 12 -57 -2 -74 -15 -7 -6 -19 -17 -27 -23 -8 -8 -40
-13 -76 -13 l-62 0 26 23 c25 21 25 23 7 23 -11 0 -20 -3 -20 -6 0 -3 -8 -7
-17 -8 -10 0 -43 -5 -73 -10 -59 -10 -70 -8 -53 9 14 14 5 49 -13 49 -8 0 -14
7 -14 15 0 8 -3 15 -7 15 -5 0 -8 14 -8 30 0 20 4 29 13 25 16 -6 15 3 -3 21
-8 9 -15 21 -14 27 0 9 2 8 6 0 7 -18 33 -16 33 1 0 8 5 16 11 18 11 4 15 29
23 139 3 43 2 46 -20 41 -14 -2 -24 0 -24 7 0 21 -20 11 -30 -14 -5 -14 -12
-25 -15 -25 -2 0 0 12 6 28 6 15 11 47 11 72 1 25 5 53 10 62 5 10 4 19 -2 23
-14 9 -1 32 23 40 19 6 20 8 4 12 -9 2 -15 9 -11 14 3 6 0 16 -6 24 -13 15 -4
39 11 30 23 -15 6 14 -20 33 -29 21 -29 23 -16 49 13 25 13 28 0 31 -8 2 -15
7 -16 10 0 4 -2 22 -5 41 -3 21 1 38 8 43 10 6 10 10 0 16 -21 14 -7 86 27
137 17 25 26 45 21 45 -6 0 -10 14 -10 30 0 41 -18 38 -26 -5 -7 -41 -20 -45
-27 -9 -6 32 24 67 49 57 15 -5 15 -4 -1 20 -9 15 -21 24 -26 21 -5 -3 -9 4
-9 15 0 12 4 21 9 21 5 0 11 7 15 15 8 21 -23 55 -50 55 -22 0 -43 32 -25 38
5 2 7 10 4 18 -3 8 6 20 25 31 25 14 31 26 40 77 19 109 40 174 62 196 3 3 17
21 31 40 46 62 130 142 143 137 21 -8 51 15 124 98 97 110 165 159 131 93 -6
-12 -40 -61 -75 -108 -61 -83 -90 -154 -74 -179 3 -7 14 -9 23 -5 20 7 21 1 5
-43 -11 -30 -10 -35 18 -64 16 -17 28 -39 26 -50 -4 -21 8 -25 25 -8 16 16 35
1 28 -22 -4 -10 -2 -19 2 -19 5 0 22 33 37 73 48 125 114 253 148 285 87 83
136 125 171 143 21 11 62 35 91 54 40 26 71 36 134 45 45 7 85 16 88 21 3 5
38 9 78 9 42 0 77 5 84 12 6 6 35 12 64 13 29 0 59 4 67 9 9 6 18 4 25 -6 10
-14 15 -12 40 13 18 18 39 29 55 28 l26 -1 -25 -8 c-22 -6 -23 -8 -7 -15 27
-11 137 1 172 19 19 10 33 12 40 6 7 -6 14 -8 17 -5 10 11 113 13 137 3 l26
-10 -22 -11 c-24 -11 -29 -22 -14 -32 6 -3 13 1 18 8 4 8 22 17 38 21 23 6 27
5 18 -5 -6 -6 -9 -18 -6 -25 4 -10 -4 -14 -26 -14 -17 0 -31 -4 -31 -9 0 -5
37 -8 83 -6 46 1 85 -2 88 -7 7 -10 72 -12 139 -4 52 6 118 -13 139 -40 23
-30 36 -30 86 1 22 14 51 25 64 25 13 0 40 10 59 22 30 18 35 19 29 5 -5 -12
-1 -17 13 -17 13 0 18 5 14 15 -4 8 -2 15 4 15 16 0 34 -28 26 -41 -5 -9 -1
-10 14 -7 12 4 25 2 28 -3 3 -5 -2 -9 -10 -9 -9 0 -16 -5 -16 -11 0 -7 10 -9
28 -5 15 3 38 9 52 12 13 3 30 10 37 16 19 16 123 1 117 -17 -5 -11 1 -12 30
-4 25 7 42 6 56 -1 28 -15 84 23 77 51 -3 12 2 23 13 29 30 16 50 12 50 -10 0
-13 -7 -20 -19 -20 -11 0 -23 -4 -26 -10 -3 -5 0 -10 8 -10 8 0 20 -7 27 -15
10 -12 10 -15 -4 -15 -10 0 -16 -9 -16 -25 0 -14 5 -25 10 -25 6 0 10 8 8 18
-2 11 3 16 14 14 9 -1 19 2 23 7 3 6 12 8 20 5 7 -3 23 4 35 16 11 11 26 18
32 14 6 -4 29 2 52 13 90 45 138 63 166 63 18 0 33 7 39 19 9 15 27 25 71 36
3 0 21 9 40 19 19 11 47 21 62 22 16 2 40 17 55 34 19 20 52 38 103 54 101 33
115 32 130 -4z m-1540 -14 c0 -8 -13 -20 -30 -28 -16 -7 -30 -16 -30 -20 0 -5
-8 -8 -19 -8 -12 0 -18 -7 -17 -17 0 -12 -7 -19 -21 -21 -13 -2 -23 -8 -23
-13 0 -18 48 -9 84 16 21 14 59 30 84 37 26 6 69 19 96 29 27 11 59 19 72 19
13 0 24 4 24 10 0 5 7 7 16 3 11 -4 12 -8 4 -13 -8 -5 1 -12 24 -20 38 -12 40
-30 3 -30 -12 0 -40 -11 -62 -25 -26 -16 -55 -25 -85 -25 -50 0 -63 -6 -73
-32 -4 -11 -17 -18 -31 -18 -27 0 -105 -23 -143 -42 -17 -8 -29 -8 -48 0 -14
7 -37 12 -50 12 -14 0 -25 5 -25 11 0 6 -6 9 -13 6 -7 -2 -18 6 -24 19 -10 23
-9 24 20 25 l32 1 -40 13 c-45 14 -46 14 80 44 94 23 139 45 69 34 -61 -9 -31
10 44 28 86 22 82 21 82 5z m2614 -1071 c10 -20 16 -24 16 -12 0 32 19 17 26
-20 3 -21 16 -46 28 -55 18 -14 19 -19 7 -30 -11 -10 -14 -10 -18 0 -10 26
-21 10 -16 -23 6 -38 -9 -48 -26 -17 -9 15 -10 14 -11 -6 0 -14 -4 -21 -11
-16 -6 3 -9 17 -6 30 2 13 0 24 -6 24 -5 0 -16 8 -23 18 -13 16 -13 16 -14 -3
l-1 -20 -16 20 c-15 19 -15 18 -10 -17 3 -21 4 -38 2 -38 -5 0 -42 79 -61 130
-12 32 -13 33 -13 9 -1 -15 5 -42 13 -61 10 -22 11 -39 5 -49 -5 -8 -9 -9 -9
-2 0 6 -12 26 -27 44 -18 21 -24 34 -15 37 17 5 15 33 -4 60 -9 13 -13 26 -10
29 3 4 6 1 6 -5 0 -7 5 -12 10 -12 6 0 10 7 10 16 0 9 5 12 11 8 9 -5 10 1 5
20 -8 31 -2 32 31 6 31 -25 41 -25 45 -3 2 11 14 -3 32 -40 16 -31 31 -56 32
-54 4 4 -15 64 -27 90 -6 10 -5 17 1 17 5 0 10 8 11 18 1 9 5 -1 9 -23 5 -22
15 -53 24 -70z m-4594 -1419 c49 -16 132 -54 140 -66 9 -13 50 -31 60 -25 5 3
12 0 15 -5 4 -7 19 -9 35 -5 20 4 43 -2 79 -21 28 -14 54 -30 57 -35 3 -5 17
-9 31 -9 15 0 24 -2 21 -5 -3 -3 -48 -8 -99 -11 -52 -3 -98 -9 -102 -14 -5 -4
-26 -5 -48 -3 -26 4 -39 2 -39 -6 0 -7 -13 -17 -30 -22 -16 -6 -30 -14 -30
-18 0 -4 -6 -8 -12 -9 -7 -1 -26 -4 -43 -8 -16 -3 -48 -6 -70 -5 -29 0 -36 -2
-25 -9 10 -6 11 -10 3 -10 -7 0 -13 -7 -13 -15 0 -20 -36 -19 -44 1 -4 11 -14
14 -35 9 -19 -4 -34 -1 -44 9 -9 9 -21 16 -27 16 -6 0 -22 11 -34 24 -13 12
-31 26 -39 29 -14 5 -14 9 0 39 22 47 43 68 65 68 12 0 16 4 12 11 -9 15 17
30 39 23 15 -5 18 -1 15 21 -3 25 1 29 52 45 30 10 57 18 60 19 3 0 25 -6 50
-13z m-424 -2912 c-3 -9 1 -14 12 -14 13 0 22 -14 31 -51 12 -44 11 -52 -3
-68 -14 -15 -14 -20 -3 -29 8 -7 17 -9 20 -5 4 3 7 -21 7 -55 0 -33 4 -63 9
-66 5 -4 17 -32 26 -64 10 -31 26 -75 35 -97 56 -126 90 -231 90 -277 0 -18 8
-45 17 -58 10 -14 16 -33 15 -42 -2 -10 2 -18 7 -18 6 0 11 -5 11 -11 0 -8 -5
-7 -15 1 -9 7 -19 10 -23 6 -9 -9 28 -37 39 -30 5 3 9 -2 9 -10 0 -9 -4 -16
-10 -16 -5 0 -10 5 -10 11 0 6 -8 9 -17 7 -14 -2 -17 -11 -15 -38 2 -20 -4
-44 -12 -55 -13 -18 -13 -22 2 -40 16 -19 16 -19 0 -6 -19 15 -25 2 -7 -16 7
-7 8 -13 0 -17 -6 -4 -16 2 -23 14 -7 11 -18 20 -25 20 -16 0 -16 6 -3 30 9
16 8 18 -5 14 -11 -5 -13 -2 -9 10 3 9 16 16 28 16 12 0 27 5 34 12 16 16 15
41 0 35 -7 -2 -12 -9 -11 -15 2 -7 -8 -7 -30 -1 -17 5 -44 9 -59 9 -25 0 -28
5 -34 41 -4 23 -16 49 -26 58 -61 51 -60 48 -47 68 9 16 8 25 -6 46 -9 15 -21
27 -26 27 -5 0 -9 9 -9 19 0 12 -9 21 -25 25 -26 7 -32 20 -16 31 6 3 3 18 -7
35 -13 23 -14 32 -5 38 9 6 5 16 -14 36 -22 24 -24 31 -13 51 7 13 10 28 6 33
-3 6 -2 13 3 16 20 13 -15 116 -39 116 -11 0 -1 82 12 98 6 7 17 11 25 8 8 -3
11 -2 8 3 -3 5 -1 12 3 15 5 3 7 16 5 30 -4 17 1 27 16 35 16 9 21 21 21 52 0
22 4 38 9 35 5 -3 14 1 21 9 14 17 34 9 26 -11z"/>
<path d="M6423 6123 c4 -3 2 -12 -4 -20 -9 -10 -25 -12 -60 -7 -34 5 -49 3
-49 -5 0 -6 -9 -11 -20 -11 -10 0 -42 -9 -70 -20 -28 -11 -75 -23 -105 -26
-38 -5 -55 -11 -55 -21 0 -8 -4 -12 -9 -9 -5 3 -27 -12 -50 -34 -23 -22 -44
-40 -49 -40 -12 -1 -44 -50 -32 -50 6 0 20 -9 32 -20 12 -11 30 -20 40 -20 10
0 18 -6 18 -12 -1 -12 -28 -27 -112 -62 -44 -19 -92 -61 -84 -74 3 -6 -1 -13
-10 -16 -10 -4 -14 -14 -11 -26 3 -13 0 -20 -9 -20 -8 0 -14 -4 -14 -10 0 -13
10 -12 40 5 29 17 76 19 85 5 3 -5 2 -10 -3 -10 -5 0 -23 -18 -41 -41 -25 -31
-30 -44 -22 -52 8 -8 14 -8 19 -2 14 20 62 45 86 45 28 0 43 15 24 24 -7 3 -1
4 13 1 17 -3 31 1 39 10 7 8 20 15 30 15 10 0 23 7 30 15 7 8 16 12 21 9 5 -2
30 4 56 15 92 38 290 64 317 42 18 -15 9 -54 -11 -47 -8 3 -25 -2 -39 -10 -16
-11 -53 -18 -107 -20 -118 -6 -121 -6 -135 -26 -17 -23 -61 -23 -78 0 -10 14
-15 15 -25 5 -10 -10 -10 -13 -1 -13 7 0 12 -10 12 -23 0 -21 -34 -58 -91 -99
-13 -10 -51 -42 -84 -73 -32 -30 -67 -55 -76 -55 -16 0 -29 -19 -29 -41 0 -5
9 -9 20 -9 12 0 17 5 14 14 -3 9 6 17 25 24 16 6 31 8 34 6 2 -2 24 14 49 36
66 58 149 110 175 110 21 0 23 -5 23 -45 0 -24 8 -69 17 -100 16 -51 20 -56
56 -66 21 -6 67 -9 101 -8 35 1 68 -1 74 -5 15 -9 103 -10 129 -2 39 13 92
119 93 189 0 21 5 47 10 57 10 19 13 18 63 -17 66 -46 117 -94 117 -108 0 -17
31 -41 61 -49 30 -7 44 -48 28 -78 -15 -28 -2 -21 30 14 26 30 34 32 90 33 33
0 61 1 61 2 0 1 -9 18 -21 37 -24 41 -20 54 16 54 38 0 41 8 17 51 -12 21 -22
46 -22 55 0 9 -12 19 -27 22 -25 7 -25 8 -8 20 17 13 13 19 -9 15 -5 -1 -6 7
-4 17 4 14 -6 23 -46 41 -28 13 -73 34 -100 47 -28 13 -60 24 -72 24 -25 0
-128 25 -144 35 -6 4 -23 8 -38 10 -15 2 -67 11 -116 20 -103 18 -125 35 -92
70 12 12 30 25 40 28 10 4 16 10 13 14 -13 12 42 31 105 36 34 3 64 6 66 6 2
1 1 9 -2 19 -5 16 2 18 66 20 39 2 76 6 81 9 5 3 4 -4 -2 -15 -18 -33 7 -39
34 -8 12 14 33 26 46 26 l24 1 -24 20 c-14 11 -27 16 -30 10 -18 -28 -141 -31
-160 -5 -8 13 -81 35 -106 32 -13 -2 -19 2 -17 11 2 9 -2 11 -15 6 -42 -19
-81 -17 -102 4 -18 18 -21 19 -29 4 -7 -11 -11 -12 -17 -4 -5 9 -10 9 -22 0
-12 -10 -19 -10 -36 0 -15 10 -22 11 -25 2 -2 -6 -11 -11 -19 -11 -14 0 -14 2
1 19 10 11 28 22 42 25 13 4 24 11 24 16 0 6 7 10 15 10 8 0 15 -7 15 -15 0
-8 5 -15 10 -15 6 0 10 4 10 9 0 5 16 16 35 25 35 17 39 36 8 36 -9 0 -13 -3
-10 -7z"/>
<path d="M4777 4643 c-12 -21 -18 -73 -8 -73 6 0 11 5 11 10 0 6 9 10 20 10
18 0 25 -11 21 -34 -1 -5 4 -13 11 -18 11 -6 11 -10 0 -16 -7 -5 -10 -16 -6
-27 5 -13 3 -16 -7 -13 -8 3 -13 16 -12 32 1 14 -1 26 -5 26 -17 0 -46 -47
-47 -75 -2 -47 -14 -67 -37 -59 -11 3 -18 2 -15 -3 3 -5 -8 -33 -24 -63 -16
-29 -29 -59 -29 -67 0 -7 -11 -18 -24 -23 -18 -6 -23 -14 -19 -29 5 -21 -26
-45 -49 -36 -8 3 -17 -7 -24 -30 -9 -29 -8 -37 6 -50 9 -8 22 -15 29 -15 7 0
10 -4 7 -9 -3 -4 -17 -6 -30 -4 -20 4 -35 -6 -80 -53 -31 -33 -56 -64 -56 -69
0 -10 -34 -78 -84 -170 -12 -22 -16 -57 -16 -137 l0 -107 44 -35 c23 -20 50
-36 60 -36 9 0 16 -4 16 -9 0 -6 28 -9 63 -9 34 1 87 -1 117 -5 30 -3 86 -9
124 -11 49 -4 72 -10 78 -21 5 -8 17 -15 26 -16 9 0 31 -9 47 -19 97 -60 137
-74 204 -75 40 0 82 7 106 17 22 9 55 22 72 28 18 7 44 23 58 36 14 13 32 24
39 24 8 0 16 11 20 23 8 35 42 73 79 92 69 35 267 56 267 29 0 -12 -34 -36
-72 -50 -21 -7 -24 -33 -5 -35 57 -7 88 -4 98 7 6 8 21 14 33 14 22 0 88 62
99 93 17 47 -141 191 -188 173 -8 -3 -19 2 -25 10 -20 23 -52 17 -110 -21 -30
-20 -72 -40 -92 -46 -20 -5 -40 -14 -43 -19 -7 -12 -65 -14 -65 -2 0 4 -10 8
-22 9 -41 3 -104 19 -138 36 -18 9 -38 17 -45 17 -7 0 -31 14 -53 30 -23 17
-44 30 -46 30 -8 0 -56 50 -56 59 0 4 -16 14 -36 21 -26 10 -37 22 -41 42 -3
15 -10 28 -15 28 -6 0 -8 7 -4 15 3 8 0 15 -5 15 -6 0 -9 9 -6 20 3 12 -1 23
-10 29 -23 12 -9 41 16 34 21 -5 29 11 11 22 -7 4 -7 13 0 26 9 15 7 21 -6 26
-14 5 -14 8 6 23 22 17 22 19 6 41 -17 25 -22 99 -6 99 6 0 10 6 10 14 0 8 8
22 17 32 16 16 16 18 -5 34 -11 10 -18 21 -14 24 3 4 0 11 -8 16 -13 8 -13 10
0 10 12 0 15 9 12 40 -2 22 -8 43 -13 46 -5 3 -9 0 -9 -5 0 -6 -7 -11 -15 -11
-18 0 -38 37 -31 55 3 8 1 17 -5 21 -6 3 -8 13 -5 21 5 11 1 13 -16 7 -17 -5
-20 -3 -15 10 4 9 1 16 -6 16 -8 0 -6 4 3 10 12 8 11 10 -7 10 -12 0 -24 -3
-26 -7z"/>
<path d="M3900 3325 c-8 -10 -30 -15 -61 -15 -26 0 -72 -9 -102 -20 -29 -11
-66 -21 -82 -22 -17 -1 -35 -6 -42 -11 -7 -5 -21 -6 -32 -2 -10 3 -22 1 -26
-5 -3 -6 3 -10 15 -10 12 0 18 -4 15 -10 -3 -5 -17 -10 -31 -10 -14 0 -22 4
-19 10 3 6 1 10 -4 10 -6 0 -11 -6 -11 -14 0 -8 -6 -17 -12 -19 -7 -3 -3 -6 9
-6 20 -1 21 -3 11 -26 -6 -14 -28 -33 -49 -42 -40 -19 -51 -46 -23 -57 32 -12
47 -5 86 39 22 25 48 45 58 45 9 0 23 7 30 15 7 9 19 14 26 11 8 -3 18 3 24
14 5 10 19 20 30 22 12 2 20 7 20 12 -3 18 26 25 65 16 30 -7 43 -5 56 6 8 7
20 14 25 14 9 0 74 57 74 66 0 11 -39 2 -50 -11z"/>
<path d="M4010 3100 c0 -6 -7 -10 -15 -10 -9 0 -18 -7 -21 -15 -4 -8 -14 -15
-24 -15 -16 0 -35 -25 -32 -41 1 -4 -8 -15 -18 -24 -11 -10 -20 -27 -20 -37 0
-13 -6 -18 -17 -16 -10 2 -17 11 -15 20 1 9 -2 19 -8 23 -6 3 -10 -3 -10 -15
0 -33 -22 -48 -68 -45 l-42 2 0 -38 c0 -30 -3 -37 -15 -33 -8 4 -15 2 -15 -2
0 -19 16 -29 44 -29 17 0 39 -9 52 -22 13 -13 30 -23 38 -23 8 0 21 -6 28 -12
17 -16 99 -58 113 -58 6 0 19 -12 30 -25 11 -14 30 -36 41 -49 25 -26 49 -68
46 -78 -1 -5 2 -8 8 -8 14 0 12 -37 -2 -43 -10 -3 -10 -8 -2 -16 8 -9 14 -8
24 4 17 20 62 21 54 0 -4 -10 0 -15 11 -15 9 0 14 -4 10 -9 -3 -6 0 -13 8 -18
21 -13 57 -65 51 -74 -3 -5 16 -9 41 -9 48 0 95 -25 88 -46 -2 -7 16 -12 52
-12 42 0 58 4 68 18 12 17 14 17 36 -6 13 -13 26 -22 30 -19 9 5 103 -19 123
-31 13 -9 63 -16 106 -16 12 0 22 -4 22 -10 0 -5 6 -6 12 -1 16 9 70 5 82 -7
5 -5 15 -2 23 6 20 20 32 18 43 -8 5 -13 9 -17 9 -10 1 6 11 12 24 12 20 0 31
14 54 68 3 6 1 12 -3 12 -5 0 -15 -13 -22 -30 -15 -33 -33 -38 -51 -16 -10 12
-8 13 8 9 12 -3 21 -3 21 1 0 13 -44 55 -52 50 -13 -9 -88 6 -88 17 0 6 6 7
13 4 6 -4 3 1 -7 9 -11 9 -23 16 -28 16 -4 0 -8 7 -8 15 0 8 -9 15 -20 15 -11
0 -23 7 -27 16 -3 8 -12 13 -19 10 -15 -6 -29 28 -18 45 4 8 9 7 15 -2 8 -11
12 -11 23 4 7 9 20 17 28 17 9 0 18 9 21 20 5 19 13 20 144 19 76 0 202 2 280
6 94 4 148 3 161 -4 15 -8 29 -8 48 -1 17 7 31 7 38 1 7 -6 18 -6 26 -1 8 5
17 7 21 4 4 -2 11 1 15 7 5 8 13 4 26 -12 17 -23 19 -23 32 -6 18 24 47 12 85
-37 34 -43 30 -71 -14 -82 -26 -6 -48 2 -40 16 3 4 -2 10 -10 14 -8 3 -15 1
-15 -4 0 -5 -9 -12 -21 -15 -11 -4 -18 -9 -15 -12 3 -3 -2 -19 -10 -35 -13
-25 -21 -29 -47 -27 -18 2 -38 -1 -45 -5 -20 -12 -72 -14 -79 -3 -4 6 0 7 8 2
9 -5 11 -5 4 2 -5 6 -29 8 -52 5 l-43 -4 1 -48 c1 -41 4 -47 20 -43 10 3 20
12 22 22 4 15 5 15 6 -1 1 -20 30 -28 53 -14 11 7 25 6 44 -3 22 -10 29 -10
35 1 4 7 11 9 15 6 7 -7 85 20 94 33 3 4 21 11 39 14 19 3 45 14 58 25 18 14
33 17 55 13 22 -4 33 -2 40 10 5 10 15 17 23 17 8 0 21 10 29 21 11 16 21 20
39 15 19 -4 26 -1 30 13 2 11 0 24 -7 31 -8 8 -7 13 4 20 20 13 30 12 30 -1 0
-5 5 -7 11 -3 6 3 8 18 5 33 -6 23 -5 24 7 9 8 -10 18 -18 23 -18 12 0 61 56
69 78 3 9 28 34 56 55 27 20 49 43 49 51 0 15 138 86 167 86 10 0 28 7 40 15
14 10 34 13 57 9 32 -5 36 -3 36 15 0 12 -7 21 -15 21 -8 0 -15 4 -15 9 0 12
-67 51 -87 51 -8 0 -31 14 -50 30 -18 17 -39 30 -46 30 -7 0 -6 -4 3 -10 15
-10 11 -12 -24 -14 -10 -1 -24 -10 -30 -21 -20 -37 -69 -74 -115 -89 -58 -19
-248 -23 -319 -8 -35 8 -60 8 -71 2 -12 -6 -24 -5 -37 4 -12 9 -32 12 -54 8
-19 -3 -77 -5 -129 -4 -75 2 -99 -1 -120 -15 -14 -10 -30 -16 -36 -14 -22 9
-152 8 -189 -1 -36 -9 -105 1 -162 22 -12 5 -57 10 -100 11 -44 1 -93 7 -110
14 -22 9 -35 10 -42 3 -7 -7 -21 -7 -43 1 -25 9 -34 8 -40 -1 -6 -9 -12 -9
-26 3 -26 23 -47 34 -39 21 3 -6 2 -13 -4 -17 -5 -3 -10 1 -10 9 0 9 -4 16
-10 16 -5 0 -10 -7 -10 -15 0 -18 -4 -19 -31 -2 -17 10 -22 9 -30 -5 -13 -23
-41 -24 -32 -2 4 12 0 15 -18 13 -13 -2 -29 0 -36 4 -6 4 -14 3 -18 -3 -4 -6
-18 -5 -41 5 -19 8 -32 10 -29 5 9 -14 -19 -12 -34 3 -10 10 -15 8 -27 -7 -12
-17 -14 -17 -14 -4 0 9 9 20 20 23 11 3 20 12 21 18 1 7 3 34 5 60 4 42 2 48
-13 45 -10 -2 -19 -13 -21 -25 -2 -12 -9 -24 -16 -26 -10 -4 -12 1 -9 14 4 15
0 22 -16 26 -11 3 -18 10 -14 16 3 6 1 7 -5 3 -9 -5 -9 -13 -2 -27 8 -15 7
-19 -4 -19 -8 0 -12 -7 -10 -17 2 -11 -6 -25 -22 -37 -25 -18 -26 -18 -22 0 2
11 10 18 16 17 7 -2 12 9 12 27 0 23 -5 30 -19 30 -11 0 -23 -4 -26 -10 -9
-15 -25 -12 -25 5 0 8 5 15 10 15 6 0 10 5 10 11 0 5 -4 8 -9 4 -14 -8 -60 44
-54 61 2 6 -8 16 -22 22 -15 7 -25 8 -25 2z"/>
</g>
</svg>
